<!-- Generator: Adobe Illustrator 19.2.1, SVG Export Plug-In  -->
<svg version="1.1"
	 xmlns="http://www.w3.org/2000/svg" xmlns:xlink="http://www.w3.org/1999/xlink" xmlns:a="http://ns.adobe.com/AdobeSVGViewerExtensions/3.0/"
	 x="0px" y="0px" width="32px" height="32px" viewBox="0 0 32 32" style="enable-background:new 0 0 32 32;" xml:space="preserve">
<style type="text/css">
	.st0{fill:#BB9944;}
</style>
<defs>
</defs>
<path class="st0" d="M16,0C7.163,0,0,7.163,0,16c0,8.837,7.163,16,16,16s16-7.163,16-16C32,7.163,24.837,0,16,0z M22.362,12.737
	c0.006,0.141,0.01,0.282,0.01,0.425c0,4.338-3.302,9.34-9.34,9.34c-1.854,0-3.579-0.543-5.032-1.475
	c0.257,0.03,0.518,0.046,0.783,0.046c1.538,0,2.953-0.525,4.077-1.405c-1.436-0.027-2.649-0.976-3.066-2.28
	c0.2,0.038,0.406,0.059,0.618,0.059c0.299,0,0.589-0.04,0.865-0.115c-1.502-0.302-2.633-1.628-2.633-3.219c0-0.014,0-0.028,0-0.041
	c0.443,0.246,0.949,0.394,1.487,0.411c-0.881-0.589-1.46-1.593-1.46-2.732c0-0.602,0.162-1.165,0.444-1.65
	c1.619,1.986,4.038,3.293,6.766,3.43c-0.056-0.24-0.085-0.491-0.085-0.748c0-1.813,1.47-3.283,3.283-3.283
	c0.944,0,1.797,0.399,2.396,1.037c0.748-0.147,1.45-0.42,2.084-0.797c-0.245,0.767-0.766,1.41-1.443,1.816
	c0.664-0.079,1.297-0.256,1.885-0.517C23.56,11.696,23.003,12.274,22.362,12.737z"/>
</svg>