<svg id="Layer_1" data-name="Layer 1" xmlns="http://www.w3.org/2000/svg" viewBox="0 0 260 260"><defs><style>.cls-1{fill:none;stroke:#d3af37;stroke-miterlimit:10;stroke-width:5px;}</style></defs><title>icon_productores</title><path class="cls-1" d="M162.71,70c-8.51-9.8-18.24-16.19-28.57-16.19h0c-9.4,0-18.29,5.28-26.23,13.6" transform="translate(-3.56 -4.17)"/><path class="cls-1" d="M88.91,194.26a60.39,60.39,0,0,0,45.22,20.29h0a60.4,60.4,0,0,0,45.73-20.87" transform="translate(-3.56 -4.17)"/><path class="cls-1" d="M73.59,154.07v0c0-24,14-65.31,34.32-86.61-7.33-8.26-15.67-13.6-24.51-13.6h0c-29.27,0-53,58.45-53,87.74a53,53,0,0,0,53,53h0a53.62,53.62,0,0,0,5.52-.28A60.31,60.31,0,0,1,73.59,154v0Z" transform="translate(-3.56 -4.17)"/><path class="cls-1" d="M30.39,141.59v0Z" transform="translate(-3.56 -4.17)"/><path class="cls-1" d="M242.42,141.53v0Z" transform="translate(-3.56 -4.17)"/><path class="cls-1" d="M189.41,53.82h0c-9.74,0-18.86,6.48-26.7,16.19,19,21.91,32,60.91,32,84v0a60.31,60.31,0,0,1-14.81,39.65,53.31,53.31,0,0,0,9.54.86h0a53,53,0,0,0,53-53C242.41,112.28,218.68,53.82,189.41,53.82Z" transform="translate(-3.56 -4.17)"/><circle class="cls-1" cx="130" cy="130" r="127.5"/></svg>