<svg id="Layer_9" data-name="Layer 9" xmlns="http://www.w3.org/2000/svg" viewBox="0 0 259 259"><defs><style>.cls-1,.cls-2{fill:none;stroke-miterlimit:10;stroke-width:4px;}.cls-1{stroke:#d3af36;}.cls-2{stroke:#d3af37;}</style></defs><title>icono_pro_pluma</title><path class="cls-1" d="M106.61,187.75l-0.08-.08c-1.19,12-1.92,25-2.06,39l7.4-11.1c-0.2-.07-0.42-9.15.84-23.68" transform="translate(-4.17 -4.17)"/><path class="cls-1" d="M167.85,97.49C169,81.67,170.45,51.13,167,32.7c0,0-4.64,9.39-12.14,14.76,0,0-19.92,13.64-29.14,28.34-0.48.76-1,1.51-1.49,2.23a32.22,32.22,0,0,0-6.09,17.82s-4.69-6.12.62-22.5c0,0-11.66,12.46-14.33,34.12a87.31,87.31,0,0,0,.57,19.69s-3.18-2.65-5.28-24.46c0,0-7.64,11.8-.34,40.89a45.66,45.66,0,0,1-7.86-14.9s-2.36,17.9,5.73,28.14c0,0-4.87-1-10.6-10.41,0,0,1.23,27.5,19.84,41.26,9.73-98.35,50.2-131.39,50.2-131.39-28.33,47.49-41.17,103.06-44,135.4l0,0.23h0s32.2,5,35.54-14.27c0,0-8.83,5.73-18.37,3.2,0,0,15.49-3.81,21-14.48,0,0-8.76,4.49-15.19,2.71,0,0,19-2.88,24.39-25.1,0,0-9.25,8-17.35,10.86,0,0,13.4-9.84,17.62-18.72,0.54-1.14,1.07-2.29,1.65-3.42a65.33,65.33,0,0,0,5.71-18.37s-7.6,6.22-10.93,8.6l4.72-7A37.78,37.78,0,0,0,167.85,97.49Z" transform="translate(-4.17 -4.17)"/><circle class="cls-2" cx="129.5" cy="129.5" r="127.5"/></svg>