<svg id="Layer_11" data-name="Layer 11" xmlns="http://www.w3.org/2000/svg" viewBox="0 0 259 259"><defs><style>.cls-1,.cls-2{fill:none;stroke-miterlimit:10;stroke-width:4px;}.cls-1{stroke:#d3af37;}.cls-2{stroke:#fff;}</style></defs><title>icon_preparacion</title><circle class="cls-1" cx="129.5" cy="129.5" r="127.5"/><path class="cls-1" d="M109.41,119.38a12.9,12.9,0,0,0-10.92-3.43,20.45,20.45,0,0,1-10.93.93s6.93,3.46,7.33,4.8c0,0-10.3-4.66-13.21,20.65a34.58,34.58,0,0,0,6.81,24.78s0.44,0.93,2.19-1a3,3,0,0,1,4.09-.31c0.9,0.71,2,.93,3.28-0.49a2.37,2.37,0,0,1,3.16-.42c1,0.68,2.26.92,3.37-.8a2.39,2.39,0,0,1,3-.76c1,0.42,2.07.35,3-1.36a3.53,3.53,0,0,1,2.81-2h0.41a4.22,4.22,0,0,1,4,3.86l0.81,8a3.88,3.88,0,0,0,.9,2.19,2,2,0,0,0,2,.81,2.62,2.62,0,0,1,2.81,1.08,2,2,0,0,0,2.51.71,1.67,1.67,0,0,1,2,1,2.24,2.24,0,0,0,2.86,1.4,1.53,1.53,0,0,1,1.79,1,2.07,2.07,0,0,0,2.31,1.45,2,2,0,0,1,2,1.27,1.81,1.81,0,0,0,2,1.4,2,2,0,0,1,2.11,1.12c0.34,0.79,1.07,1.36,2.6.59a2.76,2.76,0,0,1,2.06-.14l1.07,0.33h0a7.55,7.55,0,0,1,1.42,4l0,0.64a14.43,14.43,0,0,1-.2,3.51,13.36,13.36,0,0,1-.75,2.8,23.87,23.87,0,0,1-3.72,1.52,9.75,9.75,0,0,0-3.14,1.49c-1,.77-1.94,1.66-1,2a24.49,24.49,0,0,0,5-.9,3.54,3.54,0,0,1,.55-0.19l5-1.14a1.68,1.68,0,0,1,.37-0.07,4.45,4.45,0,0,1,3.31,1.06l4.11,3.46c0-.55,0-3.8,0-3.8l-3-1.4,0.2-.85,2.85,0.85-0.25-2.25a10.61,10.61,0,0,1-2.65-.8A7.26,7.26,0,0,1,155,193a5.63,5.63,0,0,0,.53-0.75c0.18-1.95-.51-2.49-0.51-2.49l-1.27-2.52,0.39-1.94,1.39-.33a55.89,55.89,0,0,1,2.94,22l1.7,4.43c-0.22,1.95-2.31,3.06-3.46,3.53a5.58,5.58,0,0,0-1.64,1c-1.25,1.14-2.3,2.32-2.3,2.32-1,2.5,3.8-.2,3.8-0.2a12.4,12.4,0,0,1,6.9-1.7c2.6,0.1,5.9,2.5,5.9,2.5a20.74,20.74,0,0,0,6.5,4.5c0.46,0,1.6,1.67,2.13,2.48a0.28,0.28,0,0,0,.51-0.09,5.86,5.86,0,0,0-.25-2.49c-0.6-2.8-7.69-10.49-7.69-10.49s7.79-1.2,8.39-1.8,2.82-.68,3.88-0.75a0.23,0.23,0,0,0,.12-0.41c-2-1.6-5.7-.93-5.7-0.93a8,8,0,0,1-2.78-.31,5.28,5.28,0,0,0-1.8-.16,21.34,21.34,0,0,0-7.39,1.78,116.64,116.64,0,0,1-2.22-22.29,4.25,4.25,0,0,0,1.3-1.81c1.8-9.69,11-16.79,11-16.79a10.31,10.31,0,0,0,4.3-6.1l0.14-.2a38.7,38.7,0,0,1,4.44-5.28,5.82,5.82,0,0,0,.72-0.91c15.49-18.09,24.83-43.54,24.83-43.54,6.53-22.12-4-31.94-4-31.94a7.7,7.7,0,0,1,7.53-7.74s6.83,1.65,7.51,1.88c0.23,0.08-1.54-5.61-6.77-8.07,0,0-1.7-.91-4.88-2.5,0,0-5.13-4.21-9.86-2.94a15,15,0,0,0-6,2.67,20.06,20.06,0,0,1-3.13,2.09,21.67,21.67,0,0,1-4.77,2s-6.46,2.66-13.72,12.19c0,0-19.63,23.71-26.88,28.27-0.34.21-.67,0.44-1,0.68-3.06,2.16-15.24,10.73-18.38,12.17,0,0,1.65-26.5-19-49.05A41.79,41.79,0,0,0,71.14,59.37c-9.8,1.12-18.36,5.53-29.48,17.7,0,0-11,11.79-13.09,19.49,0,0-2.9,10.69,4,4.3,0,0,27.41-23.28,47.67-8.63a94,94,0,0,1,29.45,27.58" transform="translate(-4.17 -4.17)"/><path class="cls-1" d="M87.54,116.88s6.64,2.71,7.33,4.8h0a6.44,6.44,0,0,0-5.78,1L51.75,100.91a6.7,6.7,0,0,1-3.39-5.74A4.64,4.64,0,0,1,50.62,91,6.17,6.17,0,0,1,57,91l42.78,24.6S93.18,118.09,87.54,116.88Z" transform="translate(-4.17 -4.17)"/><path class="cls-1" d="M83.44,132.74s1.89-6.73,5.17-10.1l-16.44-9.82-15.24-4.08s-8.39-2.1-10.49,4.2c0,0-3,9.09,7.49,12.79l21.59,6.1,7.92,0.91" transform="translate(-4.17 -4.17)"/><path class="cls-1" d="M75.52,131.84L57.13,134s-6.7,1.61-6.4,8c0,0,.2,6.41,8.19,6H81.41a76.74,76.74,0,0,1,2-15.24Z" transform="translate(-4.17 -4.17)"/><path class="cls-1" d="M81.41,151.82l-12,6.95s-5,2.72-3.75,7.42c0,0,1.69,7,8.26,4.51L87,165A52.79,52.79,0,0,1,81.41,151.82Z" transform="translate(-4.17 -4.17)"/><path class="cls-1" d="M197.88,69.39s-3.07-.55-3.48,1.56c0,0-1.15,3.39,4.26,5.09,0,0,5.94,1,7.16,5.31,0.15,0.52.21-7.21,7.53-7.74a4.77,4.77,0,0,0-1-2.76s3.07-.9,1.7-3.44c0,0-1.7-.91-4.88-2.5,0,0-5.84-3.2-9-.32C200.25,64.59,198.39,65.87,197.88,69.39Z" transform="translate(-4.17 -4.17)"/><path class="cls-1" d="M109.39,119.38A106,106,0,0,0,85.21,95.15c-1.41-1-2.91-1.86-4.3-2.87-3.72-2.69-13.32-7.94-26.83-3l45.74,26.38s4.6-.71,9.47,3.81A0.06,0.06,0,0,0,109.39,119.38Z" transform="translate(-4.17 -4.17)"/><path class="cls-2" d="M87.54,116.88" transform="translate(-4.17 -4.17)"/><path class="cls-2" d="M98.47,115.95" transform="translate(-4.17 -4.17)"/><path class="cls-1" d="M163.38,196.51c0-.21,1.41,0,3.45-0.59a8.52,8.52,0,0,1,3.54.24,0.68,0.68,0,0,1,0,1.31,16.54,16.54,0,0,1-2.33.53,4.8,4.8,0,0,0-1.51.48L163.72,200Z" transform="translate(-4.17 -4.17)"/><path class="cls-1" d="M220.89,75.48c0.23,0.08-1.57-5.61-6.8-8.07,0,0,1.5,2.14-1.7,3.44a4.51,4.51,0,0,1,1,2.76S220.2,75.25,220.89,75.48Z" transform="translate(-4.17 -4.17)"/><circle class="cls-1" cx="199.21" cy="64.88" r="1.06"/></svg>