<svg id="Layer_7" data-name="Layer 7" xmlns="http://www.w3.org/2000/svg" viewBox="0 0 259 259"><defs><style>.cls-1{fill:#231f20;stroke:#231f20;}.cls-1,.cls-2,.cls-3,.cls-4,.cls-5{stroke-miterlimit:10;}.cls-1,.cls-3,.cls-5{stroke-width:4px;}.cls-2,.cls-5{fill:#d3af37;}.cls-2,.cls-3,.cls-4,.cls-5{stroke:#d3af37;}.cls-2{stroke-width:2px;}.cls-3,.cls-4{fill:none;}.cls-4{stroke-width:3px;}</style></defs><title>icon_desarrollo</title><circle class="cls-1" cx="161.29" cy="64.27" r="0.28"/><circle class="cls-2" cx="161.29" cy="64.27" r="2.48"/><path class="cls-2" d="M177.14,63.08a11.91,11.91,0,0,1-2.44-.51,10,10,0,0,1-4.41-3.1,31.5,31.5,0,0,0-4.89-4.21,8.9,8.9,0,0,0-1.59-.93s-0.76-3.58,2.2-5.13a3.26,3.26,0,0,1,1.23,1.87,0.13,0.13,0,0,0,.24,0,5.7,5.7,0,0,1,1.82-2.05,3.39,3.39,0,0,1,.61,2.35,0.11,0.11,0,0,0,.2,0,4,4,0,0,1,1.49-1.09,8.81,8.81,0,0,1,.06,2.78,0.12,0.12,0,0,0,.21.07,6.91,6.91,0,0,1,1.5-1,3.26,3.26,0,0,1,0,2.53,0.08,0.08,0,0,0,.05.1h0.06a2.59,2.59,0,0,1,1.12-.37,3.18,3.18,0,0,1,0,.89,0.37,0.37,0,0,0,.08.31c0.56,0.64,2.93,3.48,3,6.27C177.64,62,177.84,63.16,177.14,63.08Z"/><path class="cls-3" d="M174.17,71.35a7.89,7.89,0,0,1,3.49-.1c4.65-.13,6.33.5,6.33,0.5,0.2-4.15-5.17-6.74-5.17-6.74a2.57,2.57,0,0,0-1.69-1.94s-2.88,0-3,1.83a2.13,2.13,0,0,0,1.34,1.68,0.09,0.09,0,0,1,0,.17c-1,.08-4,0.58-8.15,3.52a0.21,0.21,0,0,0,.17.38c0.66-.17,1.49-0.37,2.11-0.48a0.68,0.68,0,0,1,.81.53v0C170.49,71.45,171.16,72.32,174.17,71.35Z"/><path class="cls-4" d="M151.53,70.41s-0.06.07-.14,0.2a3.26,3.26,0,0,0,2.87,4.89,13.27,13.27,0,0,0,1.71-.14,4.82,4.82,0,0,0-.51-4.12A3.49,3.49,0,0,0,151.53,70.41Z"/><path class="cls-5" d="M174.17,71.35s0.7,3.49-1.2,4.45a6.39,6.39,0,0,1-4.24,1.89,3.49,3.49,0,0,1-3.94,1.87s-2.44-.17-2.67-1.13c0,0-3.11-2.2-1.69-3.53,0,0,.71-2.77,8.15-4.5l5.61,1"/><path class="cls-3" d="M168.73,77.69A6.39,6.39,0,0,0,173,75.8c1.89-1,1.2-4.45,1.2-4.45a7.06,7.06,0,0,1,3.49-.1c4.65-.13,6.33.5,6.33,0.5,0.2-4.15-5.17-6.74-5.17-6.74a2.57,2.57,0,0,0-1.69-1.94,9.54,9.54,0,0,1-2.31-.48,9.34,9.34,0,0,1-4.41-2.94,30.23,30.23,0,0,0-5-4.4,8.15,8.15,0,0,0-2.88-1.36c-5.46-1.3-10.66,1.63-10.66,1.63s-4.37,1.63-9.31,12.22c0,0-3.08,5.7-4,20,0,0,.06,2.61-2.39,6a15.69,15.69,0,0,0-2.2,3,3.52,3.52,0,0,1-2,1.63,69.72,69.72,0,0,0-17.67,8.72s-6.52,2.61-8.52,4.46c0,0-4.94,1.16-6.73,3.64a44.39,44.39,0,0,0-9.66,9.58,2.33,2.33,0,0,1-2.57.94,21.78,21.78,0,0,0-6.74-.81s-8.59-5.56-20.68,1.78a13,13,0,0,0-.76,8.31s-3.16,3-1.38,6.8c0,0-2.44,4.4-1.3,8.52a4.22,4.22,0,0,0,2.31,2.21,2.83,2.83,0,0,1,2,2.73c0,1.56.39,3.26,2.11,3.9a7.49,7.49,0,0,0,.11,1.44,2.74,2.74,0,0,0,4,1.89,6.64,6.64,0,0,1,2-.67,5.19,5.19,0,0,0,2.59-1.14,12.41,12.41,0,0,1,6.76-2.82s6.73,22.95,22.12,29.26c0,0,4.4,2.61,5.63,6.87,0,0,6.64,2.93,10-3.58l1.92-5s2.89,0,6.52-3.47a1.94,1.94,0,0,1,2.62,0,28.63,28.63,0,0,0,5.22,4s0.81,4.49,1.38,5.22a22.73,22.73,0,0,0,10.35.46s3.39-4.49,3.48-6.87c0,0,7-6,8.79-12.68q0.11-.39.19-0.81c1.47-7,9.52-12.22,9.52-12.22s16-5.87,14.74-24.28c0,0,4.94-20-7.42-36.27,0,0-6.92-14.3-9.78-18.92a6.72,6.72,0,0,0,4.33-1Z"/><path class="cls-3" d="M111.33,194.15a2,2,0,0,1,2.62,2.14,33,33,0,0,0-.14,5s0.48,12.29,2.68,18.74c0,0,.42,2.75,2.82,3.26,0,0,6,1.24,6.52,1.72,0,0,5.36-.2,8,1a7.58,7.58,0,0,1,3.45,1.63,0.37,0.37,0,0,1-.4.61,6.16,6.16,0,0,0-1.75-.5,0.52,0.52,0,0,0-.55.68,1.34,1.34,0,0,1,.1.59,0.81,0.81,0,0,0,.53.81,9.81,9.81,0,0,1,4.23,2.68,0.37,0.37,0,0,1-.43.55,4.65,4.65,0,0,0-2.62-.34s1.24,1.3-.28,1.58c0,0-4.89-1.44-6.52-1.16a64.87,64.87,0,0,1-9.72-1.58,10.13,10.13,0,0,0-8.15-.48s-3.26,3-4.54,3.26h-1.43v-1.3a18.07,18.07,0,0,1,2.06-4.54,327.48,327.48,0,0,0-1-33.76A11.57,11.57,0,0,0,111.33,194.15Z"/><path class="cls-3" d="M134.29,193.42a18.54,18.54,0,0,0,2.37,3.51s7.33,10,6.64,17.54c0,0-3,9.87,1.23,12.33,0,0,.94-0.29.94-2l0-1.18a0.42,0.42,0,0,1,.76-0.27,53,53,0,0,0,4,5.05s2.44,2.09,3.8.57c0,0,.81-1.71,0-2.44l1.9-.57s9.29,1.71,10.81,2.66a33.6,33.6,0,0,1,6.17.93s4.17,0.81,4.55-1.12l1.36,0.2a0.43,0.43,0,0,0,.29-0.81,11,11,0,0,0-3.54-1.31s-3.6-1.43-6.07-2.09l1.43-.52a0.46,0.46,0,0,0,.15-0.81,6.52,6.52,0,0,0-3.47-1.46s-5.6-.38-12.8-4.55c0,0-7.11-15.27-10.14-19.62l-1-6s-8.53.81-10.35-.46Z"/><circle class="cls-3" cx="129.5" cy="129.5" r="127.5"/></svg>