<svg id="Layer_5" data-name="Layer 5" xmlns="http://www.w3.org/2000/svg" viewBox="0 0 260 260"><defs><style>.cls-1,.cls-2,.cls-6,.cls-7,.cls-9{fill:none;}.cls-1,.cls-2,.cls-3{stroke:#d3af37;}.cls-1,.cls-10,.cls-11,.cls-2,.cls-3,.cls-5,.cls-6,.cls-7,.cls-8,.cls-9{stroke-miterlimit:10;}.cls-1,.cls-10,.cls-5,.cls-9{stroke-width:5px;}.cls-2,.cls-6,.cls-7{stroke-width:3px;}.cls-3,.cls-4,.cls-5{fill:#d3af37;}.cls-3,.cls-8{stroke-width:2px;}.cls-10,.cls-5,.cls-6,.cls-8,.cls-9{stroke:#fff;}.cls-11,.cls-7{stroke:#fbfbfb;}.cls-10,.cls-11,.cls-8{fill:#fff;}</style></defs><title>icon_superbaby_active</title><circle class="cls-1" cx="130" cy="130" r="127.5"/><path class="cls-2" d="M145.79,98s11-7.28,14.35-8.17c0,0,.22-3.75,2.65-0.88,0,0,5,3.08,5.18,6.86a0.74,0.74,0,0,1-1,.73c-2.06-.88-7.59-2.36-16.85,1.47a7,7,0,0,1,.84,4.7,0.35,0.35,0,0,0,.53.34c2.41-1.57,10.37-6.51,15.47-6.51" transform="translate(-3.67 -3.67)"/><path class="cls-2" d="M127,95.47s5.36,8.68,13.72,1.06" transform="translate(-3.67 -3.67)"/><path class="cls-2" d="M141.33,88.77s-5.36-8.68-13.72-1.06" transform="translate(-3.67 -3.67)"/><path class="cls-3" d="M162.78,88.94c-0.37-2.65-4.41-4.12-4.41-4.12-2.32-1.08-5.08-4.07-6.23-5.39a0.3,0.3,0,0,0-.53.21A52.59,52.59,0,0,0,152,86s0.22,4.17,2.72,6.26" transform="translate(-3.67 -3.67)"/><path class="cls-1" d="M88.8,216.41c0.32,1.23,1.55,4.29,6,6.54a0.74,0.74,0,0,1,.41.68c0,1.22-.1,4.51,0,6.31a1.05,1.05,0,0,1-.18.64c-0.65,1-2.52,4.14-.1,5.38,0,0,2.53,1.59,6.3-2.75a0.78,0.78,0,0,0,.15-0.25c0.22-.65,1.29-3.46,3.21-4.1a0.82,0.82,0,0,1,.84.22,8.6,8.6,0,0,1,2,3.13,4.42,4.42,0,0,0,.87,1.57c0.7,0.83,1.79,2.11,2.66,3.19a2.51,2.51,0,0,0,.83.67c1.06,0.53,3.44,1.45,4.62-.29,0,0,1.25-2.5-1.91-5.59l-0.76-2a0.35,0.35,0,0,1,.35-0.47,12.29,12.29,0,0,0,3.52-.15,1.1,1.1,0,0,1,.83.12c1.42,0.85,6.17,3.53,8.35,2.84,0,0,1.84-.59.66-3.31a3.81,3.81,0,0,0-2.87-2.87,14.86,14.86,0,0,1-5.18-2.26,1.08,1.08,0,0,0-.26-0.16,26.32,26.32,0,0,0-8-2,1.08,1.08,0,0,1-.9-0.6c-0.77-1.51-3.38-5.4-9.67-5.52,0,0-4.64-2.39-11.38.32A0.62,0.62,0,0,0,88.8,216.41Z" transform="translate(-3.67 -3.67)"/><path class="cls-1" d="M82.66,216.34s11.19,7,8.86,4.35c-3.68-4.17-2.36-5-2.36-5,5.35-2.46,11.38-.32,11.38-0.32a11.12,11.12,0,0,1,9.4,5s22.31,1.77,25.77-1.59a17.91,17.91,0,0,1,8.36-4.22h0c1.93-.5,2.45-3.54,2.45-3.54,6.33-9.39,13.72-.69,13.72-0.69,8.42,3.42,16.47-9.93,16.45-9.93,10.26-6.12,7.06-17.88,7.06-17.88,3.42-6.29,5.19-19.54,5.19-19.54,2.65-18.43-19-38.19-19-38.19,6.14-12.72-1.26-23.8-4.36-27.62a0.49,0.49,0,0,1,.5-0.78c2,0.53,1.86-.61,1.86-0.61-0.16-2.52-2.06-4.46-3.2-5.42a1.92,1.92,0,0,1-.7-1.57,33.65,33.65,0,0,0-1.12-7.42,2,2,0,0,1-.13-1c1-3.48-1.57-6.39-2.09-7.64a4.34,4.34,0,0,0-.42-0.78C158.79,69.73,148,59.8,132,66.71c0,0-16.77,2-30,25.35a35.31,35.31,0,0,0-2.68,6c-1.94,5.66-7.08,19.5-13.28,26.64,0,0-15.48,18.32-4.82,32,0,0-13.8,7.88-14.22,20.22,0,0-1.46,6.9,4.39,15.69C71.45,192.62,73.8,212,82.66,216.34Z" transform="translate(-3.67 -3.67)"/><path class="cls-1" d="M147.76,209.07a5.66,5.66,0,0,0-.77,1.34c-0.52,1.29-1.64,3.92-2.23,4-6.6,1.21-9.05,4.36-9.05,4.36,1.1,1,5.11,1,7,.88a0.29,0.29,0,0,1,.19.51,19,19,0,0,0-3.79,4.62,1.64,1.64,0,0,0-.08,1.68c1.4,2.56,5.4-.05,5.4-0.05a33,33,0,0,1,6.4-3.25,0.74,0.74,0,0,1,1,.49c1.7,5.84,4.64,5.84,4.64,5.84,2.74-.86,2-4.83,1.57-6.57a0.61,0.61,0,0,1,.61-0.76,45.62,45.62,0,0,0,7.1-.51,2.54,2.54,0,0,1,1.21.11c5.17,1.83,13.8,1.11,13.8,1.11,4.41,0,3.53-3.42,3.53-3.42-2.21-2-11.7-1.88-11.7-1.88-3.86-.77-9.93-3-12.36-7.17s-8.17-3.42-8.17-3.42a5.3,5.3,0,0,0-4.32,2.08h0Z" transform="translate(-3.67 -3.67)"/><ellipse class="cls-4" cx="130.81" cy="88.26" rx="4.56" ry="3.54"/><circle class="cls-5" cx="130" cy="130" r="127.5"/><path class="cls-6" d="M145.79,98s11-7.28,14.35-8.17c0,0,.22-3.75,2.65-0.88,0,0,5,3.08,5.18,6.86a0.74,0.74,0,0,1-1,.73c-2.06-.88-7.59-2.36-16.85,1.47a7,7,0,0,1,.84,4.7,0.35,0.35,0,0,0,.53.34c2.41-1.57,10.37-6.51,15.47-6.51" transform="translate(-3.67 -3.67)"/><path class="cls-7" d="M127,95.47s5.36,8.68,13.72,1.06" transform="translate(-3.67 -3.67)"/><path class="cls-7" d="M141.33,88.77s-5.36-8.68-13.72-1.06" transform="translate(-3.67 -3.67)"/><path class="cls-8" d="M162.44,89.48c-0.1-2.67-4-4.54-4-4.54-2.2-1.3-4.65-4.56-5.66-6a0.3,0.3,0,0,0-.55.15,52.59,52.59,0,0,0-.27,6.34s-0.2,4.18,2.09,6.5" transform="translate(-3.67 -3.67)"/><path class="cls-9" d="M84.54,217.83s11.19,7,8.86,4.35c-3.68-4.17-2.36-5-2.36-5,5.35-2.46,11.38-.32,11.38-0.32a11.12,11.12,0,0,1,9.4,5s22.31,1.77,25.77-1.59a17.91,17.91,0,0,1,8.36-4.22h0c1.93-.5,2.45-3.54,2.45-3.54,6.33-9.39,13.72-.69,13.72-0.69,8.42,3.42,16.47-9.93,16.45-9.93,10.26-6.12,7.06-17.88,7.06-17.88,3.42-6.29,5.19-19.54,5.19-19.54,2.65-18.43-19-38.19-19-38.19,6.14-12.72-1.26-23.8-4.36-27.62a0.49,0.49,0,0,1,.5-0.78c2,0.53,1.86-.61,1.86-0.61-0.16-2.52-2.06-4.46-3.2-5.42a1.92,1.92,0,0,1-.7-1.57,33.65,33.65,0,0,0-1.12-7.42,2,2,0,0,1-.13-1c1-3.48-1.57-6.39-2.09-7.64a4.34,4.34,0,0,0-.42-0.78c-1.52-2.24-12.32-12.17-28.29-5.27,0,0-16.77,2-30,25.35a35.31,35.31,0,0,0-2.68,6C99.32,105.17,94.18,119,88,126.16c0,0-15.48,18.32-4.82,32,0,0-13.8,7.88-14.22,20.22,0,0-1.46,6.9,4.39,15.69C73.34,194.11,75.68,213.47,84.54,217.83Z" transform="translate(-3.67 -3.67)"/><path class="cls-10" d="M90.68,217.89c0.32,1.23,1.55,4.29,6,6.54a0.74,0.74,0,0,1,.41.68c0,1.22-.1,4.51,0,6.31a1.05,1.05,0,0,1-.18.64c-0.65,1-2.52,4.14-.1,5.38,0,0,2.53,1.59,6.3-2.75a0.78,0.78,0,0,0,.15-0.25c0.22-.65,1.29-3.46,3.21-4.1a0.82,0.82,0,0,1,.84.22,8.6,8.6,0,0,1,2,3.13,4.42,4.42,0,0,0,.87,1.57c0.7,0.83,1.79,2.11,2.66,3.19a2.51,2.51,0,0,0,.83.67c1.06,0.53,3.44,1.45,4.62-.29,0,0,1.25-2.5-1.91-5.59l-0.76-2a0.35,0.35,0,0,1,.35-0.47,12.29,12.29,0,0,0,3.52-.15,1.1,1.1,0,0,1,.83.12c1.42,0.85,6.17,3.53,8.35,2.84,0,0,1.84-.59.66-3.31a3.81,3.81,0,0,0-2.87-2.87,14.86,14.86,0,0,1-5.18-2.26,1.08,1.08,0,0,0-.26-0.16,26.32,26.32,0,0,0-8-2,1.08,1.08,0,0,1-.9-0.6c-0.77-1.51-3.38-5.4-9.67-5.52,0,0-4.64-2.39-11.38.32A0.62,0.62,0,0,0,90.68,217.89Z" transform="translate(-3.67 -3.67)"/><path class="cls-10" d="M149.64,210.56a5.66,5.66,0,0,0-.77,1.34c-0.52,1.29-1.64,3.92-2.23,4-6.6,1.21-9.05,4.36-9.05,4.36,1.1,1,5.11,1,7,.88a0.29,0.29,0,0,1,.19.51A19,19,0,0,0,141,226.3a1.64,1.64,0,0,0-.08,1.68c1.4,2.56,5.4-.05,5.4-0.05a33,33,0,0,1,6.4-3.25,0.74,0.74,0,0,1,1,.49c1.7,5.84,4.64,5.84,4.64,5.84,2.74-.86,2-4.83,1.57-6.57a0.61,0.61,0,0,1,.61-0.76,45.62,45.62,0,0,0,7.1-.51,2.54,2.54,0,0,1,1.21.11c5.17,1.83,13.8,1.11,13.8,1.11,4.41,0,3.53-3.42,3.53-3.42-2.21-2-11.7-1.88-11.7-1.88-3.86-.77-9.93-3-12.36-7.17s-8.17-3.42-8.17-3.42a5.3,5.3,0,0,0-4.32,2.08h0Z" transform="translate(-3.67 -3.67)"/><ellipse class="cls-11" cx="130.81" cy="88.26" rx="4.56" ry="3.54"/></svg>