<svg id="Layer_15" data-name="Layer 15" xmlns="http://www.w3.org/2000/svg" viewBox="0 0 259 259"><defs><style>.cls-1,.cls-3{fill:none;stroke-miterlimit:10;stroke-width:4px;}.cls-1{stroke:#d2ae37;}.cls-2{fill:#d2ae37;}.cls-3{stroke:#d3af37;}</style></defs><title>icon_entremaniento</title><circle class="cls-1" cx="129.5" cy="129.5" r="127.5"/><circle class="cls-1" cx="129.5" cy="129.5" r="127.5"/><path class="cls-2" d="M202.43,64.88s-1.32-3.28-2.52-3.71c0,0-2.9-2.67-5.29-2.07,0,0-5.81.55-8.2,1.79h0l-1,1.2S196.58,59.1,202.43,64.88Z" transform="translate(-4.17 -4.17)"/><ellipse class="cls-1" cx="189.67" cy="71.99" rx="3.84" ry="3.69"/><path class="cls-1" d="M215.11,78.6a21.82,21.82,0,0,1,8.31,12.51,0.83,0.83,0,0,1-1.38.67c-1.67-1.38-5.18-3.4-11.63-3.77C210.42,88,212.76,80.11,215.11,78.6Z" transform="translate(-4.17 -4.17)"/><path class="cls-1" d="M210.42,88a38.25,38.25,0,0,1,3.34-7.9,1.92,1.92,0,0,0-.53-2.66,51,51,0,0,1-9.85-8.82s-11-8.66-22.49,1.69c0,0-11.54,5.08-7.43,13.36a12,12,0,0,0,8.8,4.33s6.09,7.13,6.91,12.22c0.06,0.37-.18.33,0,0C191,96.85,197,88.17,210.42,88Z" transform="translate(-4.17 -4.17)"/><path class="cls-1" d="M189.16,100.24C187.12,97,197,88.17,210.42,88c0,0,1.15-6.63,3.5-8.14,0.78,0.59-3.28-3.33-10.54-11.25,0,0-3.62-9.32-16.36-9.06,0,0-9.82.51-22.55,9.7,0,0-33.43,4.09-62.87,32.94,0,0-22.25,14.35-45.29,16.8a31.49,31.49,0,0,0-10.11,2.68c-4,1.9-7.49,4.45-.84,5.8h4.57a0.63,0.63,0,0,1,.33,1.17c-2.41,1.46-6.35,4-7.95,5.78a0.93,0.93,0,0,0,.49,1.51,60.65,60.65,0,0,0,8.1,1.36,0.93,0.93,0,0,1,.47,1.67,31.88,31.88,0,0,0-5.31,4.59,1.15,1.15,0,0,0,.72,1.85,29.07,29.07,0,0,0,8,0,1,1,0,0,1,.9,1.55,40.69,40.69,0,0,0-2.79,4.39,1.47,1.47,0,0,0,1.69,2.11,56.74,56.74,0,0,0,9.52-3.41s9-3.65,19.59-6.63a1.09,1.09,0,0,1,1.18,1.7C81.09,150.24,72.9,162,70.12,170.78a1,1,0,0,0,1.49,1,65.12,65.12,0,0,0,8.72-7.9,0.88,0.88,0,0,1,1.54.52,48.09,48.09,0,0,0,1.22,8.27,1.4,1.4,0,0,0,2.54.42,56.9,56.9,0,0,0,5.5-11l3.95-10.67a0.92,0.92,0,0,1,1.77.15,74,74,0,0,0,1.76,7.67,1.05,1.05,0,0,0,1.9.26,80.6,80.6,0,0,0,6.32-12.48,0.82,0.82,0,0,1,1.58.19,51.54,51.54,0,0,0,2.33,9.63,1,1,0,0,0,1.73.2,86.66,86.66,0,0,0,7-13,0.76,0.76,0,0,1,1.46.13c2,10.17,9.47,46,15.36,59.7a1.33,1.33,0,0,0,1.9.61c5.89-3.49,30.52-19.7,43.08-53.27C181.25,151.23,207,128.6,189.16,100.24Z" transform="translate(-4.17 -4.17)"/><path class="cls-3" d="M192.83,102.6c3.77,2.26,8.52,3.18,11.6,2.15,0,0,8.75-3.9,1-16.25a26.9,26.9,0,0,0-13.59,8.09A4,4,0,0,0,192.83,102.6Z" transform="translate(-4.17 -4.17)"/><path class="cls-3" d="M203,65.43c-1-5.33-4.47-14.63-15.95-5.86A17.56,17.56,0,0,1,201.67,66,0.74,0.74,0,0,0,203,65.43Z" transform="translate(-4.17 -4.17)"/></svg>