<svg id="Layer_15" data-name="Layer 15" xmlns="http://www.w3.org/2000/svg" viewBox="0 0 259 259"><defs><style>.cls-1,.cls-2,.cls-4{fill:none;}.cls-1,.cls-4,.cls-5{stroke:#d3af37;stroke-miterlimit:10;}.cls-1{stroke-width:4px;}.cls-3,.cls-5{fill:#d3af37;}.cls-4{stroke-width:3px;}</style></defs><title>icon_mantenimiento</title><path class="cls-1" d="M102.67,143.71c-1,1.67-2.22,3.41-3,4.49a0.52,0.52,0,0,1-1-.27c-0.09-1.5,0-3.71,0-5.06a0.24,0.24,0,0,0-.47-0.12c-0.68,1.37-1.56,3-2.07,3.93a0.3,0.3,0,0,1-.56-0.11c-0.09-1.13-.33-3.55-0.33-4.73a0.21,0.21,0,0,0-.41-0.07c-0.63,1.53-2,2.16-2.34,2.79a0.44,0.44,0,0,1-.8-0.11c-0.59-2.1-.13-2.75-0.24-3.92a0.21,0.21,0,0,0-.38-0.09c-1.94,3.06-2.84,1.16-2.84,1.16s-2.7-18.16,2.78-23.08c3.83-3.44,13.86-7.15,19.55-9.07a53.21,53.21,0,0,0,7.48-3.18,152.69,152.69,0,0,1,24.92-10c17.53-5.39,26.36-16.84,26.36-16.84,10.42-14.22,20.78-18.66,20.78-18.66,8.56-5,13.45,1.27,13.45,1.27s4.82,2,6.68,4.25a6.73,6.73,0,0,1,5,6.6,15.44,15.44,0,0,0-8.17-2,15.79,15.79,0,0,0-10.51,6.88s5.86,11.6-.17,23.18a22.42,22.42,0,0,0-2.7,12.37S191.91,134,173.82,138.4a3.38,3.38,0,0,0-1.87,1.18c-1.68,2.14-6.21,7.43-11.29,9.5a0.91,0.91,0,0,0-.58.77,57.49,57.49,0,0,1-5.25,19.27s-1.93,5.11.66,8.42a0.48,0.48,0,0,1-.19.73l-7,3.2a0.82,0.82,0,0,1-.91-0.14c-1.33-1.22-5.34-5.36-3.92-9.79,0,0,.53-3.28-0.21-4.86,0,0-4.34,4.44-5.82,8,0,0-.85,2.64-1.8,3,0,0-6.13.32-7.3-5.71,0,0,.11-3.17,1.9-5a36.47,36.47,0,0,0,2.48-8.89,0.54,0.54,0,0,0-.81-0.51c-1,.59-2.49,1.19-2.91-0.39a0.44,0.44,0,0,0-.71-0.23c-0.79.66-2.2,1.36-3.09-.85a0.34,0.34,0,0,0-.55-0.12c-0.9.81-3.14,2.42-3.77-1.06a0.23,0.23,0,0,0-.42-0.1c-1.12,1.46-4.9,6-9.37,7.14,0,0-6.2.63-6-5.1h0s-6.53,2.25-3.52-7.83h0l1.44-5.15A0.24,0.24,0,0,0,102.67,143.71Z" transform="translate(-4.17 -4.17)"/><path class="cls-2" d="M206.51,68.12a7.2,7.2,0,0,0,3.82-1.87,6.73,6.73,0,0,1,5,6.6,13.52,13.52,0,0,0-7.51-2S207.79,68.81,206.51,68.12Z" transform="translate(-4.17 -4.17)"/><path class="cls-1" d="M127.76,110.27c-0.24.24-17.76,18.32-26.09,38.78,0,0-1.93,4.94.4,7.48,0,0,4,2.17,7.24-2.85a12.46,12.46,0,0,1,5.66-3.23s34.52-15.44,47.58-26.91" transform="translate(-4.17 -4.17)"/><path class="cls-3" d="M207.79,62.61s-1.37-3.39-2.6-3.83c0,0-3-2.76-5.47-2.14,0,0-6,.57-8.48,1.85h0l-1,1.24S201.75,56.64,207.79,62.61Z" transform="translate(-4.17 -4.17)"/><path class="cls-1" d="M106.17,111a2.4,2.4,0,0,0,1.08-3.75c-3.89-4.88-14.07-14.65-32.87-13.91,0,0-20,0-28.6,6-1.84,1.27-1.2,3,.4,3.49a11,11,0,0,0,2.5.41,16.75,16.75,0,0,0,5.29-.52c6.34-1.65,29.34-6.18,50.36,8.06a2.06,2.06,0,0,0,1.85.24h0Z" transform="translate(-4.17 -4.17)"/><path class="cls-1" d="M84.95,102.37s-15.14-2.28-20.6,14.29c-3.71,11.24-.83,10.92,1.47,9.48a8.47,8.47,0,0,0,2.8-3c1.84-3.18,7.31-11.35,15.67-12.91A73.42,73.42,0,0,1,99.36,109a0.57,0.57,0,0,0,.3-1.07A54.23,54.23,0,0,0,84.95,102.37Z" transform="translate(-4.17 -4.17)"/><path class="cls-1" d="M92.44,117.48a55.33,55.33,0,0,1,10.62-5.41,1.08,1.08,0,0,0,.21-1.92L101,108.69s-6.94-.22-10.59,1a4.11,4.11,0,0,0-.58.25c-2,1-13.46,7.4-15.75,17.77-0.07.32-.14,0.63-0.21,0.95-0.46,1.9-2.48,10.13,3.44,7.64,0,0,2.63-1.73,5.59-10.08S92.44,117.48,92.44,117.48Z" transform="translate(-4.17 -4.17)"/><path class="cls-1" d="M105.19,104.5c0.5,0.46-3.52-27.73-23-25.59-1,.11-12.59,1.37-19.62,10.79,0,0-2.38,4.44,9.67-.21a15.25,15.25,0,0,1,18.19,6.1S99.76,99.54,105.19,104.5Z" transform="translate(-4.17 -4.17)"/><path class="cls-1" d="M100.91,90.56S101.19,53.27,80,50.83c0,0-12.49-.72-10.86,11.79,0,0-9.77,3.82-7.87,10.88,0,0-7.87,3.26-4.48,11.54,0,0-4.52,5.07-2.87,10.88a41.32,41.32,0,0,0-7,2.81,3,3,0,0,0-1.64,2.49c0,1.15.56,2.36,3.48,2.06,0,0,1.67,0,3.39-.22a0.83,0.83,0,0,1,.85,1.21,7.34,7.34,0,0,0,.85,8.46,17.17,17.17,0,0,0-2.23,8,7,7,0,0,0,4,6.32c2.77,1.34,6.69,3,9.12,3.09h8.4" transform="translate(-4.17 -4.17)"/><path class="cls-4" d="M210.33,66.25a6.73,6.73,0,0,1,5,6.6,15.44,15.44,0,0,0-8.17-2,15.79,15.79,0,0,0-10.51,6.88,36.8,36.8,0,0,1-6.73-10.18s-0.78-3.68,4.23-4.93c0,0,4.78-4.31,9.55-.63C203.65,62,208.47,64,210.33,66.25Z" transform="translate(-4.17 -4.17)"/><path class="cls-4" d="M147.85,181.69l6.52-3s11.14,15.66,20.87,23.71c0,0,10.09-.4,18.16,1.67a0.88,0.88,0,0,1-.05,1.72c-3.23.62-6.23,1.45-9.82,1.46a0.67,0.67,0,0,0-.41,1.22c2.21,1.6,1.36,6.38,3,9.23a0.76,0.76,0,0,1-.91,1.08c-4.14-1.41-9.71-7.31-11.8-10,0,0-10.66,3.48-15.67,4.19a0.88,0.88,0,0,1-.66-1.56c2.48-1.95,6.61-5.17,7.67-5.88,1.56-1,.65-0.78.65-0.78S157,185.9,147.85,181.69Z" transform="translate(-4.17 -4.17)"/><path class="cls-4" d="M128.27,173.6c-0.26-.29,3.25,18,3.46,28.09l-12.28,2.51c-1.23.15-1.22,0.51-1,.52,4.6,0.18,13.47.75,13.95,2.48l4.74,9a1,1,0,0,0,1.88-.26c0.49-2.25-.14-5.44.79-8a2.65,2.65,0,0,1,1.83-1.66l10.13-2.6a0.4,0.4,0,0,0,0-.77l-12.21-2.15-3.87-23S131.77,177.62,128.27,173.6Z" transform="translate(-4.17 -4.17)"/><circle class="cls-1" cx="129.5" cy="129.5" r="127.5"/><path class="cls-5" d="M198.3,64.66a2.17,2.17,0,0,1,2.55-1.43,1.84,1.84,0,0,1,1.22,2.44,2.17,2.17,0,0,1-2.55,1.43A1.84,1.84,0,0,1,198.3,64.66Z" transform="translate(-4.17 -4.17)"/></svg>