<?xml version="1.0" encoding="utf-8"?>
<!-- Generator: Adobe Illustrator 19.2.1, SVG Export Plug-In . SVG Version: 6.00 Build 0)  -->
<svg version="1.1" xmlns="http://www.w3.org/2000/svg" xmlns:xlink="http://www.w3.org/1999/xlink" x="0px" y="0px"
	 viewBox="0 0 267.3 267.3" style="enable-background:new 0 0 267.3 267.3;" xml:space="preserve">
<style type="text/css">
	.st0{display:none;}
	.st1{display:inline;}
	.st2{fill:none;stroke:#D3AF37;stroke-width:5;stroke-miterlimit:10;}
	.st3{display:inline;fill:none;stroke:#D3AF37;stroke-width:5;stroke-miterlimit:10;}
	.st4{display:inline;fill:#D3AF37;stroke:#FFFFFF;stroke-width:5;stroke-miterlimit:10;}
	.st5{fill:#D3AF37;stroke:#FFFFFF;stroke-width:5;stroke-miterlimit:10;}
	.st6{display:inline;fill:#D3AF37;}
	.st7{display:inline;fill:none;stroke:#D3AF37;stroke-width:2;stroke-miterlimit:10;}
	.st8{display:inline;fill:#D3AF37;stroke:#D3AF37;stroke-miterlimit:10;}
	.st9{display:inline;fill:#FFFFFF;}
	.st10{display:inline;fill:none;stroke:#FFFFFF;stroke-width:5;stroke-miterlimit:10;}
	.st11{display:inline;fill:none;stroke:#FFFFFF;stroke-width:2;stroke-miterlimit:10;}
	.st12{display:inline;fill:#FFFFFF;stroke:#FFFFFF;stroke-miterlimit:10;}
	.st13{display:inline;fill:none;stroke:#D3AF37;stroke-width:3;stroke-miterlimit:10;}
	.st14{display:inline;fill:#D3AF37;stroke:#D3AF37;stroke-width:2;stroke-miterlimit:10;}
	.st15{display:inline;fill:none;stroke:#FFFFFF;stroke-width:3;stroke-miterlimit:10;}
	.st16{fill:none;stroke:#FBFBFB;stroke-width:3;stroke-miterlimit:10;}
	.st17{display:inline;fill:#FFFFFF;stroke:#FFFFFF;stroke-width:2;stroke-miterlimit:10;}
	.st18{fill:#FFFFFF;stroke:#FFFFFF;stroke-width:5;stroke-miterlimit:10;}
	.st19{display:inline;fill:#FFFFFF;stroke:#FBFBFB;stroke-miterlimit:10;}
	.st20{display:inline;fill:#231F20;stroke:#231F20;stroke-width:4;stroke-miterlimit:10;}
	.st21{display:inline;fill:none;stroke:#D3AF37;stroke-width:4;stroke-miterlimit:10;}
	.st22{display:inline;fill:#D3AF37;stroke:#D3AF37;stroke-width:4;stroke-miterlimit:10;}
	.st23{fill:none;stroke:#D3AF37;stroke-width:4;stroke-miterlimit:10;}
	.st24{display:inline;fill:#D3AF37;stroke:#FFFFFF;stroke-width:4;stroke-miterlimit:10;}
	.st25{display:inline;fill:none;stroke:#FFFFFF;stroke-width:4;stroke-miterlimit:10;}
	.st26{display:inline;fill:#FFFFFF;stroke:#FFFFFF;stroke-width:4;stroke-miterlimit:10;}
	.st27{fill:#D3AF37;stroke:#FFFFFF;stroke-width:4;stroke-miterlimit:10;}
	.st28{fill:none;stroke:#D3AF36;stroke-width:4;stroke-miterlimit:10;}
	.st29{display:inline;fill:#D3AF36;stroke:#FFFFFF;stroke-width:3;stroke-miterlimit:10;}
	.st30{display:inline;fill:#D3AF36;stroke:#FFFFFF;stroke-width:4;stroke-miterlimit:10;}
	.st31{fill:none;stroke:#FFFFFF;stroke-width:4;stroke-miterlimit:10;}
</style>
<g id="Layer_1" class="st0">
	<g class="st1">
		<path class="st2" d="M162.7,70c-8.5-9.8-18.2-16.2-28.6-16.2h0c-9.4,0-18.3,5.3-26.2,13.6"/>
		<path class="st2" d="M88.9,194.3c11.1,12.4,27.2,20.3,45.2,20.3h0c18.3,0,34.6-8.1,45.7-20.9"/>
		<path class="st2" d="M73.6,154.1L73.6,154.1C73.6,154,73.6,154,73.6,154.1c0-24.1,14-65.3,34.3-86.6c-7.3-8.3-15.7-13.6-24.5-13.6
			h0c-29.3,0-53,58.5-53,87.7c0,29.3,23.7,53,53,53h0c1.9,0,3.7-0.1,5.5-0.3C79.4,183.6,73.6,169.5,73.6,154.1
			C73.6,154,73.6,154.1,73.6,154.1z"/>
		<path class="st2" d="M30.4,141.6C30.4,141.6,30.4,141.6,30.4,141.6C30.4,141.6,30.4,141.5,30.4,141.6L30.4,141.6z"/>
		<path class="st2" d="M242.4,141.5C242.4,141.5,242.4,141.6,242.4,141.5C242.4,141.6,242.4,141.6,242.4,141.5L242.4,141.5z"/>
		<path class="st2" d="M189.4,53.8L189.4,53.8c-9.7,0-18.9,6.5-26.7,16.2c19,21.9,32,60.9,32,84c0,0,0,0,0,0v0.1c0,0,0,0,0,0
			c0,15.2-5.6,29-14.8,39.6c3.1,0.6,6.3,0.9,9.5,0.9h0c29.3,0,53-23.7,53-53C242.4,112.3,218.7,53.8,189.4,53.8z"/>
	</g>
	<circle class="st3" cx="133.6" cy="134.2" r="127.5"/>
</g>
<g id="Layer_3" class="st0">
	<circle class="st4" cx="133.6" cy="134.2" r="127.5"/>
	<g class="st1">
		<path class="st5" d="M162.7,70c-8.5-9.8-18.2-16.2-28.6-16.2h0c-9.4,0-18.3,5.3-26.2,13.6"/>
		<path class="st5" d="M88.9,194.3c11.1,12.4,27.2,20.3,45.2,20.3h0c18.3,0,34.6-8.1,45.7-20.9"/>
		<path class="st5" d="M73.6,154.1L73.6,154.1C73.6,154,73.6,154,73.6,154.1c0-24.1,14-65.3,34.3-86.6c-7.3-8.3-15.7-13.6-24.5-13.6
			h0c-29.3,0-53,58.5-53,87.7c0,29.3,23.7,53,53,53h0c1.9,0,3.7-0.1,5.5-0.3C79.4,183.6,73.6,169.5,73.6,154.1
			C73.6,154,73.6,154.1,73.6,154.1z"/>
		<path class="st5" d="M30.4,141.6C30.4,141.6,30.4,141.6,30.4,141.6C30.4,141.6,30.4,141.5,30.4,141.6L30.4,141.6z"/>
		<path class="st5" d="M242.4,141.5C242.4,141.5,242.4,141.6,242.4,141.5C242.4,141.6,242.4,141.6,242.4,141.5L242.4,141.5z"/>
		<path class="st5" d="M189.4,53.8L189.4,53.8c-9.7,0-18.9,6.5-26.7,16.2c19,21.9,32,60.9,32,84c0,0,0,0,0,0v0.1c0,0,0,0,0,0
			c0,15.2-5.6,29-14.8,39.6c3.1,0.6,6.3,0.9,9.5,0.9h0c29.3,0,53-23.7,53-53C242.4,112.3,218.7,53.8,189.4,53.8z"/>
	</g>
</g>
<g id="Layer_2" class="st0">
	<path class="st3" d="M94.8,122.1c0,0,4.2-10.2,4.4-11.6c0.9-6.5,3.2-10.9,5.5-15.4c12.9-25.3,40.6-28.3,60.4-13.2
		c0.8,0.6,1.5,1.2,2.2,1.8c2.9,2.5,5.1,5.7,6.8,9.3c0.4,0.9,1,1.9,1.8,3c0,0,7,3.5,11,5.9c1.4,0.9,2.1,2.3,2.6,4.1
		c0.1,0.5,0.2,1.6,0.2,2.3c0,0.2-0.2,0.3-0.4,0.3c-0.7-0.2-2.2-0.4-3.7,0.6c0,0-0.7,2.1-5.6,2.9c-0.5,0.1-1,0.3-1.4,0.6
		c-1.4,1.1-5.3,4.3-4.6,9.7"/>
	<path class="st6" d="M170.1,97.1c2,1,6.5,3.3,9.3,5.1c1.4,0.8,2.4,2.2,2.8,3.9c0.1,0.6,0.2,1.2,0.1,1.8c0,0-2.3-0.3-4.2,0.9
		c0,0-0.7,1.8-5.9,2.5c0,0-4.3,0.5-8.4,3.8l-2.8,2.6c-0.7,0.7-1.8,0.6-2.5-0.1c-0.8-0.9-2.1-2-3.6-2.8c-0.8-0.4-0.9-1.6-0.3-2.2
		c2-1.8,5.6-4.8,8.4-5.9c0,0,0-2.6-1.2-4.8c-0.3-0.6-0.5-1.4-0.3-2.1c0.4-1.8,1.3-4.9,2.2-4.7c0.5,0.1,2.7,0.7,4.1,1.2
		C168.6,96.4,169.4,96.7,170.1,97.1z"/>
	<path class="st3" d="M152.8,105.7c0,0-3.1-5.8-8.6,0C144.2,105.7,148,113.4,152.8,105.7z"/>
	<path class="st7" d="M152.8,98.8c0,0-7.3-4-10.6,3.1"/>
	<path class="st7" d="M155.2,110.4c0,0-8.1,7.7-13.5,0"/>
	<path class="st3" d="M114.8,89.3l1.2,14c0,0.2-0.1,0.4-0.3,0.4l-7.2,1.5c-0.2,0-0.3,0.2-0.3,0.3c-0.2,1.7-1.5,10-1.6,10.8
		c-0.2,0.7-6.3-3.5-7.8-4.5c-0.2-0.1-0.3-0.4-0.3-0.6l0.3-3l0,0c-0.4,0.3-1-0.1-0.9-0.6c1.5-5.9,8.8-28.7,32.1-34.8
		c0,0,11.6-3.1,24.3,1.8c0.3,0.1-2.9,2.8-4.6,4.2c-0.6,0.5-1.4,0.8-2.3,0.7c-3-0.3-10.3-1.2-11.9-1.3c-0.2,0-0.3,0.1-0.4,0.2
		l-2.1,4.1c-0.1,0.2-0.2,0.2-0.4,0.2l-4.6-0.4c-0.3,0-0.6,0.2-0.6,0.5l-0.5,5.4c0,0.3-0.3,0.5-0.6,0.4l-7.5-1.8c-0.1,0-0.2,0-0.3,0
		l-3.3,1.7C114.9,88.8,114.8,89,114.8,89.3z"/>
	<g class="st1">
		<path class="st2" d="M175.5,124.4"/>
		<path class="st2" d="M94.6,121.8c-0.2-0.4-0.8-0.3-1,0c-10,19.3-16.2,42.3-16.2,57.7v-0.1c0,31.1,25.2,56.4,56.4,56.4h0
			c31.1,0,56.4-25.2,56.4-56.4v0.1c0-14.7-6-37.1-15.2-55.9l-0.6-1.2c-0.1-0.2-0.4-0.1-0.4,0.1c0,1.6-0.2,5-0.6,7.2
			c0,0.1-0.1,0.2-0.2,0.1l-6.4-3.5c-0.4-0.2-0.9-0.3-1.4-0.1l-7.4,4.5c-0.1,0.1-0.3,0.1-0.4,0l-11.6-5.7c-0.2-0.1-0.5-0.1-0.7,0.1
			l-14,14.5c-0.3,0.3-0.8,0.2-1-0.2c-1.6-4.1-8.5-21.4-8.8-21.7c-0.3-0.3-12.3,6.6-15.3,8.3c-0.3,0.2-0.8,0-0.9-0.4l-1.1-5
			c-0.1-0.4-0.5-0.5-0.8-0.2l-5.4,5.2c-0.2,0.2-0.5,0.2-0.7-0.1l-2.4-3.4L94.6,121.8z"/>
	</g>
	<path class="st3" d="M96.1,124"/>
	<path class="st8" d="M152.3,105.8c0,0-2.7-5.1-7.6,0C144.7,105.8,148.1,112.5,152.3,105.8z"/>
	<circle class="st3" cx="133.6" cy="134.2" r="127.5"/>
</g>
<g id="Layer_4" class="st0">
	<circle class="st4" cx="133.6" cy="134.2" r="127.5"/>
	<path class="st4" d="M94.8,122.1c0,0,4.2-10.2,4.4-11.6c0.9-6.5,3.2-10.9,5.5-15.4c12.9-25.3,40.6-28.3,60.4-13.2
		c0.8,0.6,1.5,1.2,2.2,1.8c2.9,2.5,5.1,5.7,6.8,9.3c0.4,0.9,1,1.9,1.8,3c0,0,7,3.5,11,5.9c1.4,0.9,2.1,2.3,2.6,4.1
		c0.1,0.5,0.2,1.6,0.2,2.3c0,0.2-0.2,0.3-0.4,0.3c-0.7-0.2-2.2-0.4-3.7,0.6c0,0-0.7,2.1-5.6,2.9c-0.5,0.1-1,0.3-1.4,0.6
		c-1.4,1.1-5.3,4.3-4.6,9.7"/>
	<path class="st9" d="M170.1,97.1c2,1,6.5,3.3,9.3,5.1c1.4,0.8,2.4,2.2,2.8,3.9c0.1,0.6,0.2,1.2,0.1,1.8c0,0-2.3-0.3-4.2,0.9
		c0,0-0.7,1.8-5.9,2.5c0,0-4.3,0.5-8.4,3.8l-2.8,2.6c-0.7,0.7-1.8,0.6-2.5-0.1c-0.8-0.9-2.1-2-3.6-2.8c-0.8-0.4-0.9-1.6-0.3-2.2
		c2-1.8,5.6-4.8,8.4-5.9c0,0,0-2.6-1.2-4.8c-0.3-0.6-0.5-1.4-0.3-2.1c0.4-1.8,1.3-4.9,2.2-4.7c0.5,0.1,2.7,0.7,4.1,1.2
		C168.6,96.4,169.4,96.7,170.1,97.1z"/>
	<path class="st10" d="M152.8,105.7c0,0-3.1-5.8-8.6,0C144.2,105.7,148,113.4,152.8,105.7z"/>
	<path class="st11" d="M152.8,98.8c0,0-7.3-4-10.6,3.1"/>
	<path class="st11" d="M155.2,110.4c0,0-8.1,7.7-13.5,0"/>
	<path class="st10" d="M114.8,89.3l1.2,14c0,0.2-0.1,0.4-0.3,0.4l-7.2,1.5c-0.2,0-0.3,0.2-0.3,0.3c-0.2,1.7-1.5,10-1.6,10.8
		c-0.2,0.7-6.3-3.5-7.8-4.5c-0.2-0.1-0.3-0.4-0.3-0.6l0.3-3l0,0c-0.4,0.3-1-0.1-0.9-0.6c1.5-5.9,8.8-28.7,32.1-34.8
		c0,0,11.6-3.1,24.3,1.8c0.3,0.1-2.9,2.8-4.6,4.2c-0.6,0.5-1.4,0.8-2.3,0.7c-3-0.3-10.3-1.2-11.9-1.3c-0.2,0-0.3,0.1-0.4,0.2
		l-2.1,4.1c-0.1,0.2-0.2,0.2-0.4,0.2l-4.6-0.4c-0.3,0-0.6,0.2-0.6,0.5l-0.5,5.4c0,0.3-0.3,0.5-0.6,0.4l-7.5-1.8c-0.1,0-0.2,0-0.3,0
		l-3.3,1.7C114.9,88.8,114.8,89,114.8,89.3z"/>
	<g class="st1">
		<path class="st5" d="M175.5,124.4"/>
		<path class="st5" d="M94.6,121.8c-0.2-0.4-0.8-0.3-1,0c-10,19.3-16.2,42.3-16.2,57.7v-0.1c0,31.1,25.2,56.4,56.4,56.4h0
			c31.1,0,56.4-25.2,56.4-56.4v0.1c0-14.7-6-37.1-15.2-55.9l-0.6-1.2c-0.1-0.2-0.4-0.1-0.4,0.1c0,1.6-0.2,5-0.6,7.2
			c0,0.1-0.1,0.2-0.2,0.1l-6.4-3.5c-0.4-0.2-0.9-0.3-1.4-0.1l-7.4,4.5c-0.1,0.1-0.3,0.1-0.4,0l-11.6-5.7c-0.2-0.1-0.5-0.1-0.7,0.1
			l-14,14.5c-0.3,0.3-0.8,0.2-1-0.2c-1.6-4.1-8.5-21.4-8.8-21.7c-0.3-0.3-12.3,6.6-15.3,8.3c-0.3,0.2-0.8,0-0.9-0.4l-1.1-5
			c-0.1-0.4-0.5-0.5-0.8-0.2l-5.4,5.2c-0.2,0.2-0.5,0.2-0.7-0.1l-2.4-3.4L94.6,121.8z"/>
	</g>
	<path class="st3" d="M96.1,124"/>
	<path class="st12" d="M152.3,105.8c0,0-2.7-5.1-7.6,0C144.7,105.8,148.1,112.5,152.3,105.8z"/>
</g>
<g id="Layer_5" class="st0">
	<circle class="st3" cx="133.7" cy="133.7" r="127.5"/>
	<path class="st13" d="M145.8,98c0,0,11-7.3,14.3-8.2c0,0,0.2-3.8,2.6-0.9c0,0,5,3.1,5.2,6.9c0,0.5-0.5,0.9-1,0.7
		c-2.1-0.9-7.6-2.4-16.9,1.5c0,0,1.3,1.9,0.8,4.7c0,0.3,0.3,0.5,0.5,0.3c2.4-1.6,10.4-6.5,15.5-6.5"/>
	<path class="st13" d="M127,95.5c0,0,5.4,8.7,13.7,1.1"/>
	<path class="st13" d="M141.3,88.8c0,0-5.4-8.7-13.7-1.1"/>
	<path class="st14" d="M162.8,88.9c-0.4-2.6-4.4-4.1-4.4-4.1c-2.3-1.1-5.1-4.1-6.2-5.4c-0.2-0.2-0.5-0.1-0.5,0.2
		c0,1.5,0.1,4.8,0.4,6.3c0,0,0.2,4.2,2.7,6.3"/>
	<g class="st1">
		<path class="st2" d="M88.8,216.4c0.3,1.2,1.6,4.3,6,6.5c0.3,0.1,0.4,0.4,0.4,0.7c0,1.2-0.1,4.5,0,6.3c0,0.2,0,0.5-0.2,0.6
			c-0.6,1-2.5,4.1-0.1,5.4c0,0,2.5,1.6,6.3-2.7c0.1-0.1,0.1-0.2,0.1-0.3c0.2-0.7,1.3-3.5,3.2-4.1c0.3-0.1,0.6,0,0.8,0.2
			c0.5,0.6,1.6,1.8,2,3.1c0.2,0.6,0.5,1.1,0.9,1.6c0.7,0.8,1.8,2.1,2.7,3.2c0.2,0.3,0.5,0.5,0.8,0.7c1.1,0.5,3.4,1.5,4.6-0.3
			c0,0,1.3-2.5-1.9-5.6l-0.8-2c-0.1-0.2,0.1-0.5,0.4-0.5c0.8,0.1,2.4,0.1,3.5-0.1c0.3-0.1,0.6,0,0.8,0.1c1.4,0.8,6.2,3.5,8.3,2.8
			c0,0,1.8-0.6,0.7-3.3c0,0-0.2-2-2.9-2.9c0,0-3.3-0.7-5.2-2.3c-0.1-0.1-0.2-0.1-0.3-0.2c-0.8-0.3-4.5-1.8-8-2
			c-0.4,0-0.7-0.3-0.9-0.6c-0.8-1.5-3.4-5.4-9.7-5.5c0,0-4.6-2.4-11.4,0.3C88.9,215.8,88.7,216.1,88.8,216.4z"/>
		<path class="st2" d="M82.7,216.3c0,0,11.2,7,8.9,4.4c-3.7-4.2-2.4-5-2.4-5c5.3-2.5,11.4-0.3,11.4-0.3c6.3-0.1,9.4,5,9.4,5
			s22.3,1.8,25.8-1.6s8.4-4.2,8.4-4.2s-1.9,0.5,0,0c1.9-0.5,2.5-3.5,2.5-3.5c6.3-9.4,13.7-0.7,13.7-0.7c8.4,3.4,16.5-9.9,16.4-9.9
			c10.3-6.1,7.1-17.9,7.1-17.9c3.4-6.3,5.2-19.5,5.2-19.5c2.6-18.4-19-38.2-19-38.2c6.1-12.7-1.3-23.8-4.4-27.6
			c-0.3-0.4,0-0.9,0.5-0.8c2,0.5,1.9-0.6,1.9-0.6c-0.2-2.5-2.1-4.5-3.2-5.4c-0.5-0.4-0.7-1-0.7-1.6c0.1-2.1-0.8-5.9-1.1-7.4
			c-0.1-0.3-0.2-0.7-0.1-1c1-3.5-1.6-6.4-2.1-7.6c-0.1-0.3-0.3-0.5-0.4-0.8c-1.5-2.2-12.3-12.2-28.3-5.3c0,0-16.8,2-30,25.3
			c-1.1,1.9-2,3.9-2.7,6c-1.9,5.7-7.1,19.5-13.3,26.6c0,0-15.5,18.3-4.8,32c0,0-13.8,7.9-14.2,20.2c0,0-1.5,6.9,4.4,15.7
			C71.5,192.6,73.8,212,82.7,216.3z"/>
		<path class="st2" d="M147.8,209.1c-0.3,0.4-0.6,0.9-0.8,1.3c-0.5,1.3-1.6,3.9-2.2,4c-6.6,1.2-9.1,4.4-9.1,4.4c1.1,1,5.1,1,7,0.9
			c0.3,0,0.4,0.3,0.2,0.5c-1.8,1.4-3.3,3.8-3.8,4.6c-0.3,0.5-0.4,1.1-0.1,1.7c1.4,2.6,5.4-0.1,5.4-0.1c1.9-1.4,5-2.7,6.4-3.3
			c0.4-0.2,0.9,0.1,1,0.5c1.7,5.8,4.6,5.8,4.6,5.8c2.7-0.9,2-4.8,1.6-6.6c-0.1-0.4,0.2-0.8,0.6-0.8c2.4,0.1,5.7-0.3,7.1-0.5
			c0.4-0.1,0.8,0,1.2,0.1c5.2,1.8,13.8,1.1,13.8,1.1c4.4,0,3.5-3.4,3.5-3.4c-2.2-2-11.7-1.9-11.7-1.9c-3.9-0.8-9.9-3-12.4-7.2
			c-2.4-4.2-8.2-3.4-8.2-3.4C150,207.1,148.7,207.8,147.8,209.1L147.8,209.1z"/>
	</g>
	<ellipse class="st6" cx="134.5" cy="91.9" rx="4.6" ry="3.5"/>
</g>
<g id="Layer_6" class="st0">
	<circle class="st4" cx="133.7" cy="133.7" r="127.5"/>
	<path class="st15" d="M145.8,98c0,0,11-7.3,14.3-8.2c0,0,0.2-3.8,2.6-0.9c0,0,5,3.1,5.2,6.9c0,0.5-0.5,0.9-1,0.7
		c-2.1-0.9-7.6-2.4-16.9,1.5c0,0,1.3,1.9,0.8,4.7c0,0.3,0.3,0.5,0.5,0.3c2.4-1.6,10.4-6.5,15.5-6.5"/>
	<g class="st1">
		<path class="st16" d="M127,95.5c0,0,5.4,8.7,13.7,1.1"/>
		<path class="st16" d="M141.3,88.8c0,0-5.4-8.7-13.7-1.1"/>
	</g>
	<path class="st17" d="M162.4,89.5c-0.1-2.7-4-4.5-4-4.5c-2.2-1.3-4.7-4.6-5.7-6c-0.2-0.2-0.5-0.1-0.6,0.2c-0.1,1.5-0.4,4.8-0.3,6.3
		c0,0-0.2,4.2,2.1,6.5"/>
	<path class="st10" d="M84.5,217.8c0,0,11.2,7,8.9,4.4c-3.7-4.2-2.4-5-2.4-5c5.3-2.5,11.4-0.3,11.4-0.3c6.3-0.1,9.4,5,9.4,5
		s22.3,1.8,25.8-1.6s8.4-4.2,8.4-4.2s-1.9,0.5,0,0c1.9-0.5,2.5-3.5,2.5-3.5c6.3-9.4,13.7-0.7,13.7-0.7c8.4,3.4,16.5-9.9,16.4-9.9
		c10.3-6.1,7.1-17.9,7.1-17.9c3.4-6.3,5.2-19.5,5.2-19.5c2.6-18.4-19-38.2-19-38.2c6.1-12.7-1.3-23.8-4.4-27.6
		c-0.3-0.4,0-0.9,0.5-0.8c2,0.5,1.9-0.6,1.9-0.6c-0.2-2.5-2.1-4.5-3.2-5.4c-0.5-0.4-0.7-1-0.7-1.6c0.1-2.1-0.8-5.9-1.1-7.4
		c-0.1-0.3-0.2-0.7-0.1-1c1-3.5-1.6-6.4-2.1-7.6c-0.1-0.3-0.3-0.5-0.4-0.8c-1.5-2.2-12.3-12.2-28.3-5.3c0,0-16.8,2-30,25.3
		c-1.1,1.9-2,3.9-2.7,6c-1.9,5.7-7.1,19.5-13.3,26.6c0,0-15.5,18.3-4.8,32c0,0-13.8,7.9-14.2,20.2c0,0-1.5,6.9,4.4,15.7
		C73.3,194.1,75.7,213.5,84.5,217.8z"/>
	<g class="st1">
		<path class="st18" d="M90.7,217.9c0.3,1.2,1.6,4.3,6,6.5c0.3,0.1,0.4,0.4,0.4,0.7c0,1.2-0.1,4.5,0,6.3c0,0.2,0,0.5-0.2,0.6
			c-0.6,1-2.5,4.1-0.1,5.4c0,0,2.5,1.6,6.3-2.7c0.1-0.1,0.1-0.2,0.1-0.3c0.2-0.7,1.3-3.5,3.2-4.1c0.3-0.1,0.6,0,0.8,0.2
			c0.5,0.6,1.6,1.8,2,3.1c0.2,0.6,0.5,1.1,0.9,1.6c0.7,0.8,1.8,2.1,2.7,3.2c0.2,0.3,0.5,0.5,0.8,0.7c1.1,0.5,3.4,1.5,4.6-0.3
			c0,0,1.3-2.5-1.9-5.6l-0.8-2c-0.1-0.2,0.1-0.5,0.4-0.5c0.8,0.1,2.4,0.1,3.5-0.1c0.3-0.1,0.6,0,0.8,0.1c1.4,0.8,6.2,3.5,8.3,2.8
			c0,0,1.8-0.6,0.7-3.3c0,0-0.2-2-2.9-2.9c0,0-3.3-0.7-5.2-2.3c-0.1-0.1-0.2-0.1-0.3-0.2c-0.8-0.3-4.5-1.8-8-2
			c-0.4,0-0.7-0.3-0.9-0.6c-0.8-1.5-3.4-5.4-9.7-5.5c0,0-4.6-2.4-11.4,0.3C90.8,217.3,90.6,217.6,90.7,217.9z"/>
		<path class="st18" d="M149.6,210.6c-0.3,0.4-0.6,0.9-0.8,1.3c-0.5,1.3-1.6,3.9-2.2,4c-6.6,1.2-9.1,4.4-9.1,4.4c1.1,1,5.1,1,7,0.9
			c0.3,0,0.4,0.3,0.2,0.5c-1.8,1.4-3.3,3.8-3.8,4.6c-0.3,0.5-0.4,1.1-0.1,1.7c1.4,2.6,5.4-0.1,5.4-0.1c1.9-1.4,5-2.7,6.4-3.3
			c0.4-0.2,0.9,0.1,1,0.5c1.7,5.8,4.6,5.8,4.6,5.8c2.7-0.9,2-4.8,1.6-6.6c-0.1-0.4,0.2-0.8,0.6-0.8c2.4,0.1,5.7-0.3,7.1-0.5
			c0.4-0.1,0.8,0,1.2,0.1c5.2,1.8,13.8,1.1,13.8,1.1c4.4,0,3.5-3.4,3.5-3.4c-2.2-2-11.7-1.9-11.7-1.9c-3.9-0.8-9.9-3-12.4-7.2
			s-8.2-3.4-8.2-3.4C151.9,208.6,150.6,209.3,149.6,210.6L149.6,210.6z"/>
	</g>
	<ellipse class="st19" cx="134.5" cy="91.9" rx="4.6" ry="3.5"/>
</g>
<g id="Layer_7" class="st0">
	<circle class="st20" cx="163.6" cy="38.7" r="0.3"/>
	<circle class="st14" cx="163.6" cy="38.7" r="3"/>
	<path class="st14" d="M183.1,37.2c-1-0.1-2-0.3-3-0.6c-2.1-0.7-4-2.1-5.4-3.8c-1.6-1.8-4.3-4-6-5.2c-0.6-0.4-1.3-0.8-1.9-1.1
		c0,0-0.9-4.4,2.7-6.3c0,0,1.2,0.9,1.5,2.3c0,0.2,0.2,0.2,0.3,0.1c0.4-0.7,1.2-1.9,2.2-2.5c0,0,0.8,0.8,0.7,2.9
		c0,0.1,0.2,0.2,0.2,0.1c0.2-0.5,1.5-1.1,1.8-1.3c0,0,0.3,1.6,0.1,3.4c0,0.1,0.2,0.2,0.3,0.1c0.4-0.4,1.3-1,1.8-1.2
		c0,0,0.6,1.1,0,3.1c0,0.1,0.1,0.2,0.1,0.1c0.3-0.2,0.8-0.4,1.4-0.5c0,0,0.1,0.5,0,1.1c0,0.1,0,0.3,0.1,0.4c0.7,0.8,3.6,4.3,3.7,7.7
		C183.7,35.9,183.9,37.3,183.1,37.2z"/>
	<path class="st21" d="M179.4,47.4c1.9-0.6,4.3-0.1,4.3-0.1c5.7-0.2,7.8,0.6,7.8,0.6c0.2-5.1-6.4-8.3-6.4-8.3
		c-0.2-1.8-2.1-2.4-2.1-2.4s-3.5-0.1-3.7,2.2c0,0,0,1.3,1.7,2.1c0.1,0,0.1,0.2,0,0.2c-1.3,0.1-4.9,0.7-10,4.3
		c-0.2,0.2-0.1,0.5,0.2,0.5c0.8-0.2,1.8-0.5,2.6-0.6c0.5-0.1,0.9,0.2,1,0.7C174.9,47.5,175.7,48.5,179.4,47.4z"/>
	<path class="st13" d="M151.6,46.2c0,0-0.1,0.1-0.2,0.3c-1.6,2.7,0.4,6,3.5,6c0.6,0,1.3-0.1,2.1-0.2c0,0,1-2.7-0.6-5.1
		C156.5,47.2,154.5,45,151.6,46.2z"/>
	<path class="st22" d="M179.4,47.4c0,0,0.9,4.3-1.5,5.5c0,0-2,2.2-5.2,2.3c0,0-1.3,2.9-4.8,2.3c0,0-3-0.2-3.3-1.4
		c0,0-3.8-2.7-2.1-4.3c0,0,0.9-3.4,10-5.5L179.4,47.4"/>
	<path class="st21" d="M172.8,55.1c3.3-0.1,5.2-2.3,5.2-2.3c2.3-1.2,1.5-5.5,1.5-5.5c1.9-0.7,4.3-0.1,4.3-0.1
		c5.7-0.2,7.8,0.6,7.8,0.6c0.2-5.1-6.4-8.3-6.4-8.3c-0.2-1.8-2.1-2.4-2.1-2.4c-0.9-0.1-1.9-0.3-2.8-0.6c-2.1-0.7-4-1.9-5.4-3.6
		c-1.5-1.9-4.5-4.1-6.2-5.4c-1.1-0.8-2.3-1.4-3.5-1.7c-6.7-1.6-13.1,2-13.1,2s-5.4,2-11.4,15c0,0-3.8,7-4.9,24.6
		c0,0,0.1,3.2-2.9,7.3c0,0-1.5,1.6-2.7,3.7c-0.5,1-1.4,1.7-2.5,2c-3.8,1.2-13.1,4.6-21.7,10.7c0,0-8,3.2-10.5,5.5
		c0,0-6.1,1.4-8.3,4.5c0,0-7.4,5.2-11.9,11.8c-0.7,1-2,1.5-3.1,1.2c-1.9-0.5-4.9-1.2-8.3-1c0,0-10.5-6.8-25.4,2.2
		c0,0-2.4,5.1-0.9,10.2c0,0-3.9,3.7-1.7,8.3c0,0-3,5.4-1.6,10.5c0,0,0.9,2.1,2.8,2.7c1.5,0.5,2.5,1.8,2.5,3.3c0,1.9,0.5,4,2.6,4.8
		c0,0,0,0.8,0.1,1.8c0.4,2.2,2.9,3.4,4.9,2.3c0.7-0.3,1.5-0.7,2.5-0.8c1.2-0.2,2.3-0.6,3.2-1.4c1.5-1.3,4.2-3,8.3-3.5
		c0,0,8.3,28.2,27.2,35.9c0,0,5.4,3.2,6.9,8.4c0,0,8.2,3.6,12.3-4.4l2.4-6.2c0,0,3.5,0,8-4.3c0.9-0.9,2.3-0.9,3.2-0.1
		c1.9,1.7,4.9,4.2,6.4,4.9c0,0,1,5.5,1.7,6.4c0,0,6.5,2,12.7,0.6c0,0,4.2-5.5,4.3-8.4c0,0,8.5-7.4,10.8-15.6c0.1-0.3,0.2-0.6,0.2-1
		c1.8-8.5,11.7-15,11.7-15s19.7-7.2,18.1-29.8c0,0,6.1-24.5-9.1-44.5c0,0-8.5-17.6-12-23.2c0,0,2.2,0.5,5.3-1.2L172.8,55.1z"/>
	<g class="st1">
		<path class="st23" d="M102.3,198.1c1.7-0.6,3.4,0.9,3.2,2.6c-0.2,1.7-0.3,3.7-0.2,6.1c0,0,0.6,15.1,3.3,23c0,0,0.5,3.4,3.5,4
			c0,0,7.3,1.5,8,2.1c0,0,6.6-0.3,9.8,1.2c0,0,2.7,0.5,4.2,2c0.4,0.4,0,1-0.5,0.8c-0.6-0.3-1.4-0.5-2.1-0.6
			c-0.5-0.1-0.8,0.4-0.7,0.8c0.1,0.2,0.1,0.5,0.1,0.7c-0.1,0.4,0.2,0.8,0.6,1c1.5,0.6,4.1,1.7,5.2,3.3c0.3,0.4-0.1,0.8-0.5,0.7
			c-0.8-0.3-1.9-0.6-3.2-0.4c0,0,1.5,1.6-0.3,1.9c0,0-6-1.8-8-1.4c0,0-7.1-0.6-11.9-1.9c0,0-4.8-2.7-10-0.6c0,0-4,3.6-5.6,4h-1.8
			v-1.6c0,0,1-3.5,2.5-5.6c0,0,0.6-21-1.3-41.4C96.7,198.7,99.4,199,102.3,198.1z"/>
		<path class="st23" d="M130.5,197.2c0,0,1.7,3.3,2.9,4.3c0,0,9,12.2,8.1,21.5c0,0-3.7,12.1,1.5,15.1c0,0,1.2-0.3,1.2-2.4l-0.1-1.5
			c0-0.5,0.6-0.7,0.9-0.3c1.5,2,4.2,5.6,4.9,6.2c0,0,3,2.6,4.7,0.7c0,0,1-2.1,0-3l2.3-0.7c0,0,11.4,2.1,13.3,3.3c0,0,5,0.3,7.6,1.1
			c0,0,5.1,1,5.6-1.4l1.7,0.3c0.6,0.1,0.8-0.7,0.3-1c-1.1-0.6-2.5-1.3-4.3-1.6c0,0-4.4-1.7-7.4-2.6l1.7-0.6c0.4-0.1,0.5-0.7,0.2-1
			c-0.7-0.6-2.1-1.5-4.3-1.8c0,0-6.9-0.5-15.7-5.6c0,0-8.7-18.7-12.5-24.1l-1.1-7.4c0,0-10.5,1-12.7-0.6L130.5,197.2z"/>
	</g>
	<circle class="st21" cx="133.7" cy="133.7" r="127.5"/>
</g>
<g id="Layer_8" class="st0">
	<circle class="st24" cx="133.7" cy="133.7" r="127.5"/>
	<circle class="st20" cx="163.6" cy="38.7" r="0.3"/>
	<circle class="st12" cx="163.6" cy="38.7" r="3"/>
	<path class="st17" d="M183.1,37.2c-1-0.1-2-0.3-3-0.6c-2.1-0.7-4-2.1-5.4-3.8c-1.6-1.8-4.3-4-6-5.2c-0.6-0.4-1.3-0.8-1.9-1.1
		c0,0-0.9-4.4,2.7-6.3c0,0,1.2,0.9,1.5,2.3c0,0.2,0.2,0.2,0.3,0.1c0.4-0.7,1.2-1.9,2.2-2.5c0,0,0.8,0.8,0.7,2.9
		c0,0.1,0.2,0.2,0.2,0.1c0.2-0.5,1.5-1.1,1.8-1.3c0,0,0.3,1.6,0.1,3.4c0,0.1,0.2,0.2,0.3,0.1c0.4-0.4,1.3-1,1.8-1.2
		c0,0,0.6,1.1,0,3.1c0,0.1,0.1,0.2,0.1,0.1c0.3-0.2,0.8-0.4,1.4-0.5c0,0,0.1,0.5,0,1.1c0,0.1,0,0.3,0.1,0.4c0.7,0.8,3.6,4.3,3.7,7.7
		C183.7,35.9,183.9,37.3,183.1,37.2z"/>
	<path class="st25" d="M179.4,47.4c1.9-0.6,4.3-0.1,4.3-0.1c5.7-0.2,7.8,0.6,7.8,0.6c0.2-5.1-6.4-8.3-6.4-8.3
		c-0.2-1.8-2.1-2.4-2.1-2.4s-3.5-0.1-3.7,2.2c0,0,0,1.3,1.7,2.1c0.1,0,0.1,0.2,0,0.2c-1.3,0.1-4.9,0.7-10,4.3
		c-0.2,0.2-0.1,0.5,0.2,0.5c0.8-0.2,1.8-0.5,2.6-0.6c0.5-0.1,0.9,0.2,1,0.7C174.9,47.5,175.7,48.5,179.4,47.4z"/>
	<path class="st15" d="M151.6,46.2c0,0-0.1,0.1-0.2,0.3c-1.6,2.7,0.4,6,3.5,6c0.6,0,1.3-0.1,2.1-0.2c0,0,1-2.7-0.6-5.1
		C156.5,47.2,154.5,45,151.6,46.2z"/>
	<path class="st26" d="M179.4,47.4c0,0,0.9,4.3-1.5,5.5c0,0-2,2.2-5.2,2.3c0,0-1.3,2.9-4.8,2.3c0,0-3-0.2-3.3-1.4
		c0,0-3.8-2.7-2.1-4.3c0,0,0.9-3.4,10-5.5L179.4,47.4"/>
	<path class="st25" d="M172.8,55.1c3.3-0.1,5.2-2.3,5.2-2.3c2.3-1.2,1.5-5.5,1.5-5.5c1.9-0.7,4.3-0.1,4.3-0.1
		c5.7-0.2,7.8,0.6,7.8,0.6c0.2-5.1-6.4-8.3-6.4-8.3c-0.2-1.8-2.1-2.4-2.1-2.4c-0.9-0.1-1.9-0.3-2.8-0.6c-2.1-0.7-4-1.9-5.4-3.6
		c-1.5-1.9-4.5-4.1-6.2-5.4c-1.1-0.8-2.3-1.4-3.5-1.7c-6.7-1.6-13.1,2-13.1,2s-5.4,2-11.4,15c0,0-3.8,7-4.9,24.6
		c0,0,0.1,3.2-2.9,7.3c0,0-1.5,1.6-2.7,3.7c-0.5,1-1.4,1.7-2.5,2c-3.8,1.2-13.1,4.6-21.7,10.7c0,0-8,3.2-10.5,5.5
		c0,0-6.1,1.4-8.3,4.5c0,0-7.4,5.2-11.9,11.8c-0.7,1-2,1.5-3.1,1.2c-1.9-0.5-4.9-1.2-8.3-1c0,0-10.5-6.8-25.4,2.2
		c0,0-2.4,5.1-0.9,10.2c0,0-3.9,3.7-1.7,8.3c0,0-3,5.4-1.6,10.5c0,0,0.9,2.1,2.8,2.7c1.5,0.5,2.5,1.8,2.5,3.3c0,1.9,0.5,4,2.6,4.8
		c0,0,0,0.8,0.1,1.8c0.4,2.2,2.9,3.4,4.9,2.3c0.7-0.3,1.5-0.7,2.5-0.8c1.2-0.2,2.3-0.6,3.2-1.4c1.5-1.3,4.2-3,8.3-3.5
		c0,0,8.3,28.2,27.2,35.9c0,0,5.4,3.2,6.9,8.4c0,0,8.2,3.6,12.3-4.4l2.4-6.2c0,0,3.5,0,8-4.3c0.9-0.9,2.3-0.9,3.2-0.1
		c1.9,1.7,4.9,4.2,6.4,4.9c0,0,1,5.5,1.7,6.4c0,0,6.5,2,12.7,0.6c0,0,4.2-5.5,4.3-8.4c0,0,8.5-7.4,10.8-15.6c0.1-0.3,0.2-0.6,0.2-1
		c1.8-8.5,11.7-15,11.7-15s19.7-7.2,18.1-29.8c0,0,6.1-24.5-9.1-44.5c0,0-8.5-17.6-12-23.2c0,0,2.2,0.5,5.3-1.2L172.8,55.1z"/>
	<g class="st1">
		<path class="st27" d="M102.3,198.1c1.7-0.6,3.4,0.9,3.2,2.6c-0.2,1.7-0.3,3.7-0.2,6.1c0,0,0.6,15.1,3.3,23c0,0,0.5,3.4,3.5,4
			c0,0,7.3,1.5,8,2.1c0,0,6.6-0.3,9.8,1.2c0,0,2.7,0.5,4.2,2c0.4,0.4,0,1-0.5,0.8c-0.6-0.3-1.4-0.5-2.1-0.6
			c-0.5-0.1-0.8,0.4-0.7,0.8c0.1,0.2,0.1,0.5,0.1,0.7c-0.1,0.4,0.2,0.8,0.6,1c1.5,0.6,4.1,1.7,5.2,3.3c0.3,0.4-0.1,0.8-0.5,0.7
			c-0.8-0.3-1.9-0.6-3.2-0.4c0,0,1.5,1.6-0.3,1.9c0,0-6-1.8-8-1.4c0,0-7.1-0.6-11.9-1.9c0,0-4.8-2.7-10-0.6c0,0-4,3.6-5.6,4h-1.8
			v-1.6c0,0,1-3.5,2.5-5.6c0,0,0.6-21-1.3-41.4C96.7,198.7,99.4,199,102.3,198.1z"/>
		<path class="st27" d="M130.5,197.2c0,0,1.7,3.3,2.9,4.3c0,0,9,12.2,8.1,21.5c0,0-3.7,12.1,1.5,15.1c0,0,1.2-0.3,1.2-2.4l-0.1-1.5
			c0-0.5,0.6-0.7,0.9-0.3c1.5,2,4.2,5.6,4.9,6.2c0,0,3,2.6,4.7,0.7c0,0,1-2.1,0-3l2.3-0.7c0,0,11.4,2.1,13.3,3.3c0,0,5,0.3,7.6,1.1
			c0,0,5.1,1,5.6-1.4l1.7,0.3c0.6,0.1,0.8-0.7,0.3-1c-1.1-0.6-2.5-1.3-4.3-1.6c0,0-4.4-1.7-7.4-2.6l1.7-0.6c0.4-0.1,0.5-0.7,0.2-1
			c-0.7-0.6-2.1-1.5-4.3-1.8c0,0-6.9-0.5-15.7-5.6c0,0-8.7-18.7-12.5-24.1l-1.1-7.4c0,0-10.5,1-12.7-0.6L130.5,197.2z"/>
	</g>
</g>
<g id="Layer_9" class="st0">
	<g class="st1">
		<path class="st28" d="M106.6,187.8C106.6,187.7,106.6,187.7,106.6,187.8c-1.3,11.9-2,24.9-2.1,38.9l7.4-11.1
			c-0.2-0.1-0.4-9.1,0.8-23.7"/>
		<path class="st28" d="M167.9,97.5c1.1-15.8,2.6-46.4-0.8-64.8c0,0-4.6,9.4-12.1,14.8c0,0-19.9,13.6-29.1,28.3
			c-0.5,0.8-1,1.5-1.5,2.2c-1.6,2.2-5.9,8.8-6.1,17.8c0,0-4.7-6.1,0.6-22.5c0,0-11.7,12.5-14.3,34.1c0,0-1,8.3,0.6,19.7
			c0,0-3.2-2.6-5.3-24.5c0,0-7.6,11.8-0.3,40.9c0,0-5.6-6.8-7.9-14.9c0,0-2.4,17.9,5.7,28.1c0,0-4.9-1-10.6-10.4
			c0,0,1.2,27.5,19.8,41.3c9.7-98.4,50.2-131.4,50.2-131.4c-28.3,47.5-41.2,103.1-44,135.4c0,0.1,0,0.1,0,0.2l0,0
			c0,0,32.2,5,35.5-14.3c0,0-8.8,5.7-18.4,3.2c0,0,15.5-3.8,21-14.5c0,0-8.8,4.5-15.2,2.7c0,0,19-2.9,24.4-25.1c0,0-9.3,8-17.3,10.9
			c0,0,13.4-9.8,17.6-18.7c0.5-1.1,1.1-2.3,1.7-3.4c1.4-2.7,4-8.8,5.7-18.4c0,0-7.6,6.2-10.9,8.6l4.7-7
			C165.2,110.4,167.4,104.1,167.9,97.5z"/>
	</g>
	<circle class="st21" cx="133.7" cy="133.7" r="127.5"/>
</g>
<g id="Layer_10" class="st0">
	<circle class="st24" cx="133.7" cy="133.4" r="127.5"/>
	<path class="st29" d="M106.1,187.7c-2.2,22-2,35-2.1,39l7.4-11.1c-0.2-0.1,0-9.4,1.2-24C112.7,191.7,109.2,191.4,106.1,187.7z"/>
	<path class="st30" d="M167.9,97.5c1.1-15.8,2.6-46.4-0.8-64.8c0,0-4.6,9.4-12.1,14.8c0,0-19.9,13.6-29.1,28.3
		c-0.5,0.8-1,1.5-1.5,2.2c-1.6,2.2-5.9,8.8-6.1,17.8c0,0-4.7-6.1,0.6-22.5c0,0-11.7,12.5-14.3,34.1c0,0-1,8.3,0.6,19.7
		c0,0-3.2-2.6-5.3-24.5c0,0-7.6,11.8-0.3,40.9c0,0-5.6-6.8-7.9-14.9c0,0-2.4,17.9,5.7,28.1c0,0-4.9-1-10.6-10.4
		c0,0,1.2,27.5,19.8,41.3c9.7-98.4,50.2-131.4,50.2-131.4c-28.3,47.5-41.2,103.1-44,135.4c0,0.1,0,0.1,0,0.2l0,0
		c0,0,32.2,5,35.5-14.3c0,0-8.8,5.7-18.4,3.2c0,0,15.5-3.8,21-14.5c0,0-8.8,4.5-15.2,2.7c0,0,19-2.9,24.4-25.1c0,0-9.3,8-17.3,10.9
		c0,0,13.4-9.8,17.6-18.7c0.5-1.1,1.1-2.3,1.7-3.4c1.4-2.7,4-8.8,5.7-18.4c0,0-7.6,6.2-10.9,8.6l4.7-7
		C165.2,110.4,167.4,104.1,167.9,97.5z"/>
</g>
<g id="Layer_11" class="st0">
	<circle class="st24" cx="133.7" cy="133.7" r="127.5"/>
	<g class="st1">
		<g>
			<path class="st31" d="M109.4,119.4c-4.8-4.7-10.9-3.4-10.9-3.4s-5.1,2.1-10.9,0.9c0,0,6.9,3.5,7.3,4.8c0,0-10.3-4.7-13.2,20.7
				c0,0-2.2,12.7,6.8,24.8c0,0,0.4,0.9,2.2-1c1.1-1.2,2.8-1.3,4.1-0.3c0.9,0.7,2,0.9,3.3-0.5c0.8-0.9,2.1-1.1,3.2-0.4
				c1,0.7,2.3,0.9,3.4-0.8c0.6-1,1.9-1.2,3-0.8c1,0.4,2.1,0.3,3-1.4c0.6-1.1,1.6-1.9,2.8-2c0.1,0,0.3,0,0.4,0c2.1,0.1,3.8,1.8,4,3.9
				l0.8,8c0.1,0.8,0.4,1.6,0.9,2.2c0.7,0.8,1.4,0.9,2,0.8c1.1-0.2,2.2,0.1,2.8,1.1c0.5,0.7,1.2,1.1,2.5,0.7c0.8-0.3,1.7,0.2,2,1
				c0.4,0.9,1.2,1.8,2.9,1.4c0.7-0.2,1.5,0.2,1.8,1c0.3,0.8,0.9,1.5,2.3,1.4c0.9-0.1,1.7,0.4,2,1.3c0.3,0.8,0.9,1.6,2,1.4
				c0.9-0.1,1.8,0.3,2.1,1.1c0.3,0.8,1.1,1.4,2.6,0.6c0.6-0.3,1.4-0.4,2.1-0.1l1.1,0.3c0,0,0,0,0,0l0,0c0.8,1.2,1.3,2.5,1.4,4l0,0.6
				c0.1,1.2,0,2.4-0.2,3.5c-0.2,1.1-0.4,2.2-0.7,2.8c0,0-2,1-3.7,1.5c-1.1,0.3-2.2,0.8-3.1,1.5c-1,0.8-1.9,1.7-1,2
				c0,0,3.5-0.3,5-0.9c0.2-0.1,0.4-0.1,0.5-0.2l5-1.1c0.1,0,0.2-0.1,0.4-0.1c1.2-0.1,2.4,0.3,3.3,1.1l4.1,3.5c0-0.5,0-3.8,0-3.8
				l-3-1.4l0.2-0.8l2.8,0.8l-0.2-2.2c-1.1-0.1-2.7-0.8-2.7-0.8C155,195,155,193,155,193c0.2-0.2,0.5-0.7,0.5-0.7
				c0.2-1.9-0.5-2.5-0.5-2.5l-1.3-2.5l0.4-1.9l1.4-0.3c0,0,4,10.5,2.9,22l1.7,4.4c-0.2,1.9-2.3,3.1-3.5,3.5c-0.6,0.2-1.2,0.6-1.6,1
				c-1.2,1.1-2.3,2.3-2.3,2.3c-1,2.5,3.8-0.2,3.8-0.2c3.9-2.1,6.9-1.7,6.9-1.7c2.6,0.1,5.9,2.5,5.9,2.5c3.5,3.4,6.5,4.5,6.5,4.5
				c0.5,0,1.6,1.7,2.1,2.5c0.1,0.2,0.5,0.2,0.5-0.1c0.2-1-0.2-2.5-0.2-2.5c-0.6-2.8-7.7-10.5-7.7-10.5s7.8-1.2,8.4-1.8
				c0.5-0.5,2.8-0.7,3.9-0.7c0.2,0,0.3-0.3,0.1-0.4c-2-1.6-5.7-0.9-5.7-0.9c-0.9,0.1-2-0.1-2.8-0.3c-0.6-0.2-1.2-0.2-1.8-0.2
				c-4.9,0.4-7.4,1.8-7.4,1.8c-2.4-12.7-2.2-22.3-2.2-22.3c1-0.8,1.3-1.8,1.3-1.8c1.8-9.7,11-16.8,11-16.8c3.4-2,4.3-6.1,4.3-6.1
				c0-0.1,0.1-0.1,0.1-0.2c1.3-1.9,2.8-3.6,4.4-5.3c0.4-0.5,0.7-0.9,0.7-0.9c15.5-18.1,24.8-43.5,24.8-43.5c6.5-22.1-4-31.9-4-31.9
				c-0.1-0.4,0.2-7.2,7.5-7.7c0,0,6.8,1.6,7.5,1.9c0.2,0.1-1.5-5.6-6.8-8.1c0,0-1.7-0.9-4.9-2.5c0,0-5.1-4.2-9.9-2.9
				c0,0-3.3,0.6-6,2.7c-1,0.8-2,1.5-3.1,2.1c-1.6,0.8-3.6,1.8-4.8,2c0,0-6.5,2.7-13.7,12.2c0,0-19.6,23.7-26.9,28.3
				c-0.3,0.2-0.7,0.4-1,0.7c-3.1,2.2-15.2,10.7-18.4,12.2c0,0,1.7-26.5-19-49.1c-9-9.8-22.1-15.1-35.4-13.6
				c-9.8,1.1-18.4,5.5-29.5,17.7c0,0-11,11.8-13.1,19.5c0,0-2.9,10.7,4,4.3c0,0,27.4-23.3,47.7-8.6c0,0,17.3,9.5,29.4,27.6"/>
			<g>
				<path class="st31" d="M87.5,116.9c0,0,6.6,2.7,7.3,4.8l0,0c0,0-2.9-1.1-5.8,1l-37.3-21.8c-2-1.2-3.4-3.4-3.4-5.7
					c0-2.1,1-3.4,2.3-4.2c2-1.2,4.4-1.1,6.4,0l42.8,24.6C99.8,115.6,93.2,118.1,87.5,116.9z"/>
				<path class="st31" d="M83.4,132.7c0,0,1.9-6.7,5.2-10.1l-16.4-9.8l-15.2-4.1c0,0-8.4-2.1-10.5,4.2c0,0-3,9.1,7.5,12.8l21.6,6.1
					L83.4,132.7"/>
				<path class="st31" d="M75.5,131.8L57.1,134c0,0-6.7,1.6-6.4,8c0,0,0.2,6.4,8.2,6h22.5c0,0,0.2-7.9,2-15.2L75.5,131.8z"/>
				<path class="st31" d="M81.4,151.8l-12,6.9c0,0-5,2.7-3.8,7.4c0,0,1.7,7,8.3,4.5L87,165C87,165,83.7,160,81.4,151.8z"/>
			</g>
		</g>
		<path class="st31" d="M197.9,69.4c0,0-3.1-0.5-3.5,1.6c0,0-1.1,3.4,4.3,5.1c0,0,5.9,1,7.2,5.3c0.1,0.5,0.2-7.2,7.5-7.7
			c0,0-0.1-1.9-1-2.8c0,0,3.1-0.9,1.7-3.4c0,0-1.7-0.9-4.9-2.5c0,0-5.8-3.2-9-0.3C200.3,64.6,198.4,65.9,197.9,69.4z"/>
	</g>
	<path class="st25" d="M87.5,116.9"/>
	<path class="st25" d="M98.5,115.9"/>
	<g class="st1">
		<path class="st31" d="M109.4,119.4c-1.6-2.6-10.9-14.8-24.2-24.2c-1.4-1-2.9-1.9-4.3-2.9c-3.7-2.7-13.3-7.9-26.8-3l45.7,26.4
			C99.8,115.6,104.4,114.9,109.4,119.4C109.3,119.5,109.4,119.4,109.4,119.4z"/>
		<path class="st31" d="M163.4,196.5c0-0.2,1.4,0,3.5-0.6c0,0,1.8-0.3,3.5,0.2c0.6,0.2,0.6,1.1,0,1.3c-0.6,0.2-1.5,0.4-2.3,0.5
			c-0.5,0.1-1,0.2-1.5,0.5l-2.8,1.5L163.4,196.5z"/>
	</g>
	<path class="st25" d="M220.9,75.5c0.2,0.1-1.6-5.6-6.8-8.1c0,0,1.5,2.1-1.7,3.4c0,0,0.9,1,1,2.8C213.3,73.6,220.2,75.3,220.9,75.5z
		"/>
	<circle class="st25" cx="203.4" cy="69" r="1.1"/>
</g>
<g id="Layer_12" class="st0">
	<g class="st1">
		<circle class="st23" cx="203.4" cy="69" r="1.1"/>
		<path class="st23" d="M109.4,119.4c-4.8-4.7-10.9-3.4-10.9-3.4s-5.1,2.1-10.9,0.9c0,0,6.9,3.5,7.3,4.8c0,0-10.3-4.7-13.2,20.7
			c0,0-2.2,12.7,6.8,24.8c0,0,0.4,0.9,2.2-1c1.1-1.2,2.8-1.3,4.1-0.3c0.9,0.7,2,0.9,3.3-0.5c0.8-0.9,2.1-1.1,3.2-0.4
			c1,0.7,2.3,0.9,3.4-0.8c0.6-1,1.9-1.2,3-0.8c1,0.4,2.1,0.3,3-1.4c0.6-1.1,1.6-1.9,2.8-2c0.1,0,0.3,0,0.4,0c2.1,0.1,3.8,1.8,4,3.9
			l0.8,8c0.1,0.8,0.4,1.6,0.9,2.2c0.7,0.8,1.4,0.9,2,0.8c1.1-0.2,2.2,0.1,2.8,1.1c0.5,0.7,1.2,1.1,2.5,0.7c0.8-0.3,1.7,0.2,2,1
			c0.4,0.9,1.2,1.8,2.9,1.4c0.7-0.2,1.5,0.2,1.8,1c0.3,0.8,0.9,1.5,2.3,1.4c0.9-0.1,1.7,0.4,2,1.3c0.3,0.8,0.9,1.6,2,1.4
			c0.9-0.1,1.8,0.3,2.1,1.1c0.3,0.8,1.1,1.4,2.6,0.6c0.6-0.3,1.4-0.4,2.1-0.1l1.1,0.3c0,0,0,0,0,0l0,0c0.8,1.2,1.3,2.5,1.4,4l0,0.6
			c0.1,1.2,0,2.4-0.2,3.5c-0.2,1.1-0.4,2.2-0.7,2.8c0,0-2,1-3.7,1.5c-1.1,0.3-2.2,0.8-3.1,1.5c-1,0.8-1.9,1.7-1,2c0,0,3.5-0.3,5-0.9
			c0.2-0.1,0.4-0.1,0.5-0.2l5-1.1c0.1,0,0.2-0.1,0.4-0.1c1.2-0.1,2.4,0.3,3.3,1.1l4.1,3.5c0-0.5,0-3.8,0-3.8l-3-1.4l0.2-0.8l2.8,0.8
			l-0.2-2.2c-1.1-0.1-2.7-0.8-2.7-0.8C155,195,155,193,155,193c0.2-0.2,0.5-0.7,0.5-0.7c0.2-1.9-0.5-2.5-0.5-2.5l-1.3-2.5l0.4-1.9
			l1.4-0.3c0,0,4,10.5,2.9,22l1.7,4.4c-0.2,1.9-2.3,3.1-3.5,3.5c-0.6,0.2-1.2,0.6-1.6,1c-1.2,1.1-2.3,2.3-2.3,2.3
			c-1,2.5,3.8-0.2,3.8-0.2c3.9-2.1,6.9-1.7,6.9-1.7c2.6,0.1,5.9,2.5,5.9,2.5c3.5,3.4,6.5,4.5,6.5,4.5c0.5,0,1.6,1.7,2.1,2.5
			c0.1,0.2,0.5,0.2,0.5-0.1c0.2-1-0.2-2.5-0.2-2.5c-0.6-2.8-7.7-10.5-7.7-10.5s7.8-1.2,8.4-1.8c0.5-0.5,2.8-0.7,3.9-0.7
			c0.2,0,0.3-0.3,0.1-0.4c-2-1.6-5.7-0.9-5.7-0.9c-0.9,0.1-2-0.1-2.8-0.3c-0.6-0.2-1.2-0.2-1.8-0.2c-4.9,0.4-7.4,1.8-7.4,1.8
			c-2.4-12.7-2.2-22.3-2.2-22.3c1-0.8,1.3-1.8,1.3-1.8c1.8-9.7,11-16.8,11-16.8c3.4-2,4.3-6.1,4.3-6.1c0-0.1,0.1-0.1,0.1-0.2
			c1.3-1.9,2.8-3.6,4.4-5.3c0.4-0.5,0.7-0.9,0.7-0.9c15.5-18.1,24.8-43.5,24.8-43.5c6.5-22.1-4-31.9-4-31.9
			c-0.1-0.4,0.2-7.2,7.5-7.7c0,0,5.2,0.2,5.9,0.4c0.2,0.1,0-4.1-5.2-6.6c0,0-1.7-0.9-4.9-2.5c0,0-5.1-4.2-9.9-2.9c0,0-3.3,0.6-6,2.7
			c-1,0.8-2,1.5-3.1,2.1c-1.6,0.8-3.6,1.8-4.8,2c0,0-6.5,2.7-13.7,12.2c0,0-19.6,23.7-26.9,28.3c-0.3,0.2-0.7,0.4-1,0.7
			c-3.1,2.2-15.2,10.7-18.4,12.2c0,0,1.7-26.5-19-49.1c-9-9.8-22.1-15.1-35.4-13.6c-9.8,1.1-18.4,5.5-29.5,17.7
			c0,0-11,11.8-13.1,19.5c0,0-2.9,10.7,4,4.3c0,0,27.4-23.3,47.7-8.6c0,0,17.3,9.5,29.4,27.6"/>
		<g>
			<path class="st23" d="M197.9,69.4c0,0-3.1-0.5-3.5,1.6c0,0-1.1,3.4,4.3,5.1c0,0,5.9,1,7.2,5.3c0.1,0.5,0.2-7.2,7.5-7.7
				c0,0-0.1-1.9-1-2.8c0,0,3.1-0.9,1.7-3.4c0,0-1.7-0.9-4.9-2.5c0,0-5.8-3.2-9-0.3C200.3,64.6,198.4,65.9,197.9,69.4z"/>
			<path class="st23" d="M219.3,74c0.2,0.1,0-4.1-5.2-6.6c0,0,1.5,2.1-1.7,3.4c0,0,0.9,1,1,2.8C213.3,73.6,218.6,73.8,219.3,74z"/>
		</g>
		<path class="st23" d="M109.4,119.4c-1.6-2.6-10.9-14.8-24.2-24.2c-1.4-1-2.9-1.9-4.3-2.9c-3.7-2.7-13.3-7.9-26.8-3l45.7,26.4
			C99.8,115.6,104.4,114.9,109.4,119.4C109.3,119.5,109.4,119.4,109.4,119.4z"/>
		<path class="st23" d="M98.5,115.9c0,0-3.4,1.8-10.9,0.9"/>
		<path class="st23" d="M87.5,116.9c0,0,6.6,2.7,7.3,4.8l0,0c0,0-2.9-1.1-5.8,1l-37.3-21.8c-2-1.2-3.4-3.4-3.4-5.7
			c0-2.1,1-3.4,2.3-4.2c2-1.2,4.4-1.1,6.4,0l42.8,24.6C99.8,115.6,93.2,118.1,87.5,116.9z"/>
		<path class="st23" d="M83.4,132.7c0,0,1.9-6.7,5.2-10.1l-16.4-9.8l-15.2-4.1c0,0-8.4-2.1-10.5,4.2c0,0-3,9.1,7.5,12.8l21.6,6.1
			L83.4,132.7"/>
		<path class="st23" d="M75.5,131.8L57.1,134c0,0-6.7,1.6-6.4,8c0,0,0.2,6.4,8.2,6h22.5c0,0,0.2-7.9,2-15.2L75.5,131.8z"/>
		<path class="st23" d="M81.4,151.8l-12,6.9c0,0-5,2.7-3.8,7.4c0,0,1.7,7,8.3,4.5L87,165C87,165,83.7,160,81.4,151.8z"/>
		<path class="st23" d="M163.4,196.5c0-0.2,1.4,0,3.5-0.6c0,0,1.8-0.3,3.5,0.2c0.6,0.2,0.6,1.1,0,1.3c-0.6,0.2-1.5,0.4-2.3,0.5
			c-0.5,0.1-1,0.2-1.5,0.5l-2.8,1.5L163.4,196.5z"/>
	</g>
	<circle class="st21" cx="133.7" cy="133.7" r="127.5"/>
</g>
<g id="Layer_14">
	<circle class="st23" cx="133.7" cy="133.7" r="127.5"/>
	<path class="st23" d="M168.5,172.6c-1-0.7-7.1-4.4-17.2-4.4c0,0-6.2-0.2-11.6-6c-1.3-1.4-1.9-3.2-1.6-5.1c0.2-1.6,0.5-3.7,0.9-6.3
		l4.1,0.3c1.2,0.1,2.3-0.8,2.4-2l4.3-51.8c0.1-1.2-0.8-2.3-2-2.4l-2.5-0.2c0-1.3,0-2.6-0.1-3.9c-0.1-2.5-0.1-6.1,0.3-10.6
		c0.1-0.5,0.1-1.1,0.3-1.6c0.7-3.1,2.9-16-2.7-24.8c-0.2-0.3-0.5-0.3-0.7,0c-0.4,0.6-1.2,1.5-1.7,1c-0.6-0.6-6.8-2.1-9.6-5.8
		c-0.2-0.3-0.7-0.2-0.8,0.1c-0.7,2.2-2.6,8.4-1.5,14.1l-13-1.5c-0.4,0-0.7,0.3-0.6,0.7c0.7,3.2,3.7,15.9,6.1,24.2c0,0.1,0,0.2,0,0.4
		c-0.2,0.5-0.8,2.3-0.6,4.9c0,0.4-0.3,0.8-0.8,0.7l-2.9-0.2c-1.2-0.1-2.3,0.8-2.4,2l-4.3,51.8c-0.1,1.2,0.8,2.3,2,2.4l4.3,0.4
		c-1.3,2.2-2.6,5.7-0.8,9.7c0,0-0.3,0.5-0.9,1.3c-3.1,4.2-7.8,7-13,7.8c-5.1,0.8-12.7,1.7-19.8,1.2c-1.7-0.1-3.4-0.1-5.2,0
		c-4,0.3-8.6,1.1-0.4,4l13.1,3.4c0.4,0.1,0.5,0.7,0.1,0.9c-4.2,2-18.5,8.8-29.7,13.4l-14.9,6.8c-0.3,0.1-0.2,0.6,0.1,0.6
		c3.3,0,12-0.2,22.7-1.1c10.4-0.9,20.7-2.9,30.7-6c5.9-1.8,12-3.6,13.1-3.5c0,0,1.3,3.1-0.9,6.7c0,0-7.1,11.7-8,19.5
		c0,0.2,0.1,0.3,0.3,0.3c2.3-0.5,15.5-4.1,27.3-20.6c0,0,5.1-10.9,16.5-12.3c0,0,16.7-2.9,21.5-8.1
		C168.6,172.8,168.6,172.7,168.5,172.6z"/>
	<path class="st23" d="M153.6,127.4c7.3,4.2,38.1,17.2,74.4-34.4c0-0.1,0.1,0,0.1,0c-0.8,4-9.9,44.5-38,50c0,0-24.1,6.6-40.5-7.1
		c-1.5-1.2-2.4-3.1-2.3-5c0-1.1,0.4-2.2,1.3-3.1C149.9,126.7,152,126.5,153.6,127.4z"/>
	<g>
		<path class="st23" d="M147.4,142.5l-37.4-3.1c-1.2-0.1-2.1-1.1-2-2.3l0,0c0.1-1.2,1.1-2.1,2.3-2l37.4,3.1c1.2,0.1,2.1,1.1,2,2.3
			l0,0C149.6,141.7,148.6,142.6,147.4,142.5z"/>
		<path class="st23" d="M148.9,118.4l-37.4-3.1c-1.2-0.1-2.1-1.1-2-2.3v0c0.1-1.2,1.1-2.1,2.3-2l37.4,3.1c1.2,0.1,2.1,1.1,2,2.3v0
			C151.1,117.7,150.1,118.5,148.9,118.4z"/>
		<path class="st23" d="M147.2,121.7l-0.7-2.1c-0.2-0.6-0.8-0.9-1.4-0.6l-15,5.6l-13.8-7.7c-0.5-0.3-1.2-0.1-1.5,0.4l-1.1,1.9
			c-0.3,0.5-0.1,1.2,0.4,1.5l10.7,6l-11.4,4.3c-0.6,0.2-0.9,0.9-0.7,1.4l0.7,2.1c0.2,0.6,0.8,0.9,1.4,0.6l15-5.6l13.8,7.7
			c0.5,0.3,1.2,0.1,1.5-0.4l1.1-1.9c0.3-0.5,0.1-1.2-0.4-1.5l-10.7-6l11.4-4.3C147.1,122.9,147.4,122.2,147.2,121.7z"/>
	</g>
</g>
<g id="Layer_13" class="st0">
	<circle class="st24" cx="133.7" cy="133.7" r="127.5"/>
	<path class="st25" d="M168.5,172.6c-1-0.7-7.1-4.4-17.2-4.4c0,0-6.2-0.2-11.6-6c-1.3-1.4-1.9-3.2-1.6-5.1c0.2-1.6,0.5-3.7,0.9-6.3
		l4.1,0.3c1.2,0.1,2.3-0.8,2.4-2l4.3-51.8c0.1-1.2-0.8-2.3-2-2.4l-2.5-0.2c0-1.3,0-2.6-0.1-3.9c-0.1-2.5-0.1-6.1,0.3-10.6
		c0.1-0.5,0.1-1.1,0.3-1.6c0.7-3.1,2.9-16-2.7-24.8c-0.2-0.3-0.5-0.3-0.7,0c-0.4,0.6-1.2,1.5-1.7,1c-0.6-0.6-6.8-2.1-9.6-5.8
		c-0.2-0.3-0.7-0.2-0.8,0.1c-0.7,2.2-2.6,8.4-1.5,14.1l-13-1.5c-0.4,0-0.7,0.3-0.6,0.7c0.7,3.2,3.7,15.9,6.1,24.2c0,0.1,0,0.2,0,0.4
		c-0.2,0.5-0.8,2.3-0.6,4.9c0,0.4-0.3,0.8-0.8,0.7l-2.9-0.2c-1.2-0.1-2.3,0.8-2.4,2l-4.3,51.8c-0.1,1.2,0.8,2.3,2,2.4l4.3,0.4
		c-1.3,2.2-2.6,5.7-0.8,9.7c0,0-0.3,0.5-0.9,1.3c-3.1,4.2-7.8,7-13,7.8c-5.1,0.8-12.7,1.7-19.8,1.2c-1.7-0.1-3.4-0.1-5.2,0
		c-4,0.3-8.6,1.1-0.4,4l13.1,3.4c0.4,0.1,0.5,0.7,0.1,0.9c-4.2,2-18.5,8.8-29.7,13.4l-14.9,6.8c-0.3,0.1-0.2,0.6,0.1,0.6
		c3.3,0,12-0.2,22.7-1.1c10.4-0.9,20.7-2.9,30.7-6c5.9-1.8,12-3.6,13.1-3.5c0,0,1.3,3.1-0.9,6.7c0,0-7.1,11.7-8,19.5
		c0,0.2,0.1,0.3,0.3,0.3c2.3-0.5,15.5-4.1,27.3-20.6c0,0,5.1-10.9,16.5-12.3c0,0,16.7-2.9,21.5-8.1
		C168.6,172.8,168.6,172.7,168.5,172.6z"/>
	<path class="st26" d="M153.6,127.4c7.3,4.2,38.1,17.2,74.4-34.4c0-0.1,0.1,0,0.1,0c-0.8,4-9.9,44.5-38,50c0,0-24.1,6.6-40.5-7.1
		c-1.5-1.2-2.4-3.1-2.3-5c0-1.1,0.4-2.2,1.3-3.1C149.9,126.7,152,126.5,153.6,127.4z"/>
	<path class="st25" d="M147.4,142.5l-37.4-3.1c-1.2-0.1-2.1-1.1-2-2.3l0,0c0.1-1.2,1.1-2.1,2.3-2l37.4,3.1c1.2,0.1,2.1,1.1,2,2.3
		l0,0C149.6,141.7,148.6,142.6,147.4,142.5z"/>
	<path class="st25" d="M148.9,118.4l-37.4-3.1c-1.2-0.1-2.1-1.1-2-2.3v0c0.1-1.2,1.1-2.1,2.3-2l37.4,3.1c1.2,0.1,2.1,1.1,2,2.3v0
		C151.1,117.7,150.1,118.5,148.9,118.4z"/>
	<path class="st25" d="M147.2,121.7l-0.7-2.1c-0.2-0.6-0.8-0.9-1.4-0.6l-15,5.6l-13.8-7.7c-0.5-0.3-1.2-0.1-1.5,0.4l-1.1,1.9
		c-0.3,0.5-0.1,1.2,0.4,1.5l10.7,6l-11.4,4.3c-0.6,0.2-0.9,0.9-0.7,1.4l0.7,2.1c0.2,0.6,0.8,0.9,1.4,0.6l15-5.6l13.8,7.7
		c0.5,0.3,1.2,0.1,1.5-0.4l1.1-1.9c0.3-0.5,0.1-1.2-0.4-1.5l-10.7-6l11.4-4.3C147.1,122.9,147.4,122.2,147.2,121.7z"/>
</g>
</svg>
