<svg id="Layer_4" data-name="Layer 4" xmlns="http://www.w3.org/2000/svg" viewBox="0 0 260 260"><defs><style>.cls-1{fill:#d3af37;}.cls-1,.cls-3,.cls-4,.cls-6{stroke:#fff;}.cls-1,.cls-3,.cls-4,.cls-5,.cls-6{stroke-miterlimit:10;}.cls-1,.cls-3,.cls-5{stroke-width:5px;}.cls-2,.cls-6{fill:#fff;}.cls-3,.cls-4,.cls-5{fill:none;}.cls-4{stroke-width:2px;}.cls-5{stroke:#d3af37;}</style></defs><title>icon_inicio_active</title><circle class="cls-1" cx="130" cy="130" r="127.5"/><path class="cls-1" d="M94.85,122.09s4.24-10.21,4.43-11.63c0.87-6.46,3.17-10.9,5.45-15.37,12.93-25.34,40.61-28.32,60.43-13.16,0.8,0.61,1.54,1.21,2.22,1.8A27,27,0,0,1,174.17,93,17.51,17.51,0,0,0,176,96s7,3.48,11,5.93a6.15,6.15,0,0,1,2.57,4.06,10.16,10.16,0,0,1,.17,2.29,0.29,0.29,0,0,1-.36.27,4.83,4.83,0,0,0-3.69.59s-0.7,2.13-5.56,2.94a3.08,3.08,0,0,0-1.4.62c-1.4,1.11-5.27,4.35-4.61,9.7" transform="translate(-3.56 -4.17)"/><path class="cls-2" d="M170.08,97.12c2,1,6.48,3.34,9.33,5.09a6.35,6.35,0,0,1,2.83,3.87,4.55,4.55,0,0,1,.13,1.76,6.86,6.86,0,0,0-4.2.85s-0.73,1.82-5.92,2.51a18,18,0,0,0-8.41,3.76l-2.8,2.61a1.76,1.76,0,0,1-2.51-.08,13.83,13.83,0,0,0-3.64-2.76,1.35,1.35,0,0,1-.25-2.17c2-1.83,5.63-4.84,8.37-5.92a11.42,11.42,0,0,0-1.18-4.8,3,3,0,0,1-.32-2.12c0.42-1.78,1.28-4.85,2.23-4.7,0.49,0.08,2.69.75,4.08,1.18A14.2,14.2,0,0,1,170.08,97.12Z" transform="translate(-3.56 -4.17)"/><path class="cls-3" d="M152.82,105.71s-3.09-5.82-8.64,0C144.18,105.71,148,113.44,152.82,105.71Z" transform="translate(-3.56 -4.17)"/><path class="cls-4" d="M152.82,98.79s-7.33-4-10.64,3.09" transform="translate(-3.56 -4.17)"/><path class="cls-4" d="M155.18,110.37s-8.08,7.72-13.51,0" transform="translate(-3.56 -4.17)"/><path class="cls-3" d="M114.79,89.25l1.19,14a0.42,0.42,0,0,1-.34.45l-7.16,1.46a0.41,0.41,0,0,0-.33.35c-0.24,1.67-1.46,10-1.65,10.78s-6.35-3.5-7.81-4.52a0.64,0.64,0,0,1-.27-0.59l0.29-3h0a0.56,0.56,0,0,1-.86-0.61C99.38,101.71,106.68,79,130,72.81a43,43,0,0,1,24.35,1.75c0.28,0.11-2.94,2.83-4.62,4.23a3,3,0,0,1-2.26.68c-3-.34-10.27-1.16-11.9-1.28a0.42,0.42,0,0,0-.4.23L133,82.47a0.43,0.43,0,0,1-.42.23L128,82.35a0.59,0.59,0,0,0-.64.54l-0.52,5.42a0.51,0.51,0,0,1-.62.44L118.72,87a0.5,0.5,0,0,0-.34,0l-3.28,1.68A0.56,0.56,0,0,0,114.79,89.25Z" transform="translate(-3.56 -4.17)"/><path class="cls-1" d="M175.49,124.37" transform="translate(-3.56 -4.17)"/><path class="cls-1" d="M94.64,121.76a0.55,0.55,0,0,0-1,0c-10,19.31-16.15,42.28-16.15,57.66v-0.06a56.39,56.39,0,0,0,56.39,56.39h0a56.39,56.39,0,0,0,56.39-56.39v0.06c0-14.71-6-37.14-15.25-55.89l-0.61-1.23a0.2,0.2,0,0,0-.39.08,51.53,51.53,0,0,1-.59,7.2,0.17,0.17,0,0,1-.25.11l-6.44-3.48a1.63,1.63,0,0,0-1.36-.08l-7.44,4.5a0.43,0.43,0,0,1-.42,0L145.92,125a0.61,0.61,0,0,0-.71.13l-14,14.46a0.61,0.61,0,0,1-1-.2c-1.64-4.13-8.5-21.4-8.85-21.7s-12.25,6.55-15.29,8.31a0.59,0.59,0,0,1-.88-0.39l-1.11-5a0.48,0.48,0,0,0-.79-0.24l-5.42,5.22a0.44,0.44,0,0,1-.67-0.06l-2.39-3.4Z" transform="translate(-3.56 -4.17)"/><path class="cls-5" d="M96.07,124" transform="translate(-3.56 -4.17)"/><path class="cls-6" d="M152.28,105.77s-2.7-5.09-7.56,0C144.72,105.77,148.07,112.52,152.28,105.77Z" transform="translate(-3.56 -4.17)"/></svg>