<svg id="Layer_1" data-name="Layer 1" xmlns="http://www.w3.org/2000/svg" viewBox="0 0 406.63 333.19"><defs><style>.cls-1{fill:#fff;}.cls-2{fill:#211f1f;}.cls-3{fill:#ffd100;}.cls-4{fill:#eb0029;}</style></defs><title>logo_white</title><rect class="cls-1" width="406.63" height="333.19"/><path class="cls-2" d="M102.93,260.66l0-.17-0.77-8.69-2.35,8.86H97.2l3-11.55a2.9,2.9,0,0,1-1.53.38,4.7,4.7,0,0,1-.59,0l0.47-1.83a3.31,3.31,0,0,0,.48,0,2.06,2.06,0,0,0,1.91-1.28h2.76l0.78,8.22,2.17-8.22h2.62l-3.75,14.28h-2.63Z"/><path class="cls-2" d="M111,258.58a0.47,0.47,0,0,0,.33.09,1.88,1.88,0,0,0,.83-0.24,2.05,2.05,0,0,0,.93-1.14l1.45-5.61h2.64l-2.33,9.07h-2.64l0.16-.56a5,5,0,0,1-2.35.61h-0.41a2.05,2.05,0,0,1-1.58-2.28,3.4,3.4,0,0,1,.06-0.61l1.64-6.21h2.65l-1.62,6.19v0.2a0.57,0.57,0,0,0,.3.51"/><polygon class="cls-2" points="119.99 260.66 117.34 260.66 119.19 253.61 117.98 253.61 118.5 251.66 119.71 251.66 120.74 247.75 123.39 247.75 122.37 251.66 124.03 251.66 123.5 253.61 121.85 253.61 119.99 260.66"/><path class="cls-2" d="M130,251.79l-0.59,2.49a1.61,1.61,0,0,0-2.54,1.09l-1.45,5.3h-2.64l2.44-9h2.64l-0.14.57a3.27,3.27,0,0,1,1.7-.58,1.07,1.07,0,0,1,.58.13"/><path class="cls-2" d="M134.42,251.63L132,260.69H129.4l2.37-9.06h2.65Zm-0.61-1.45a1.71,1.71,0,0,1-1.11-.3,0.93,0.93,0,0,1-.47-0.78,1,1,0,0,1,.47-0.83,2,2,0,0,1,2.22-.09,1,1,0,0,1,.46.79,1,1,0,0,1-.46.83,1.83,1.83,0,0,1-1.11.38"/><path class="cls-2" d="M141.27,255a2.11,2.11,0,0,0-1.45-1.33,0.43,0.43,0,0,0-.2,0,1.67,1.67,0,0,0-1,.51,3.81,3.81,0,0,0-1,1.49,4.08,4.08,0,0,0-.29,1.45,3,3,0,0,0,.15,1,0.72,0.72,0,0,0,.67.59,3.62,3.62,0,0,0,2.46-1.31l-0.72,2.73a4.11,4.11,0,0,1-2.17.68,2.76,2.76,0,0,1-1.25-.3,3.3,3.3,0,0,1-1.8-3.3,6,6,0,0,1,2.41-4.78,4,4,0,0,1,2.33-.81,2.8,2.8,0,0,1,2.36,1.2Z"/><path class="cls-2" d="M146.51,251.63l-2.38,9.06h-2.64l2.38-9.06h2.64Zm-0.62-1.45a1.74,1.74,0,0,1-1.11-.3,0.91,0.91,0,0,1-.46-0.78,1,1,0,0,1,.46-0.83,1.85,1.85,0,0,1,1.11-.38,1.78,1.78,0,0,1,1.11.3,0.93,0.93,0,0,1,.46.79,1,1,0,0,1-.46.83,1.8,1.8,0,0,1-1.11.38"/><path class="cls-2" d="M148.7,260.58a3.35,3.35,0,0,1-1.8-3.35,5.94,5.94,0,0,1,.62-2.62,5.7,5.7,0,0,1,1.83-2.22,4,4,0,0,1,2.33-.81,2.83,2.83,0,0,1,1.29.28,3.33,3.33,0,0,1,1.8,3.33,5.75,5.75,0,0,1-.63,2.62,5.64,5.64,0,0,1-1.81,2.22,3.93,3.93,0,0,1-2.35.84,2.75,2.75,0,0,1-1.28-.29m3-7a1.56,1.56,0,0,0-1,.54,5.07,5.07,0,0,0-.92,1.45,4.83,4.83,0,0,0-.41,1.85c0,0.84.25,1.26,0.72,1.26a1.45,1.45,0,0,0,1-.55,4.44,4.44,0,0,0,.92-1.45,4.82,4.82,0,0,0,.4-1.82c0-.85-0.24-1.28-0.72-1.28m-1.29-3.16,0.5-1.45,3.82-1.15L154.13,250Z"/><path class="cls-2" d="M163.34,262.09a1,1,0,0,0,.81-0.36l0.59,1.72a3.62,3.62,0,0,1-2.59,1,2.32,2.32,0,0,1-1.82-.78,2,2,0,0,1-.63-1.36q0,0.09.17-1.67l1.59-6a0.44,0.44,0,0,0,0-.18,0.54,0.54,0,0,0-.3-0.5,0.46,0.46,0,0,0-.3-0.12,1.28,1.28,0,0,0-.72.32l-0.57.48a1.83,1.83,0,0,0-.45.56l-1.45,5.48h-2.64l2.38-9H160l-0.15.61a4,4,0,0,1,2.09-.63,2.62,2.62,0,0,1,.63.07,2.42,2.42,0,0,1,1.58,2.34,2.75,2.75,0,0,1-.07.56l-1.61,6c0,0.91.26,1.38,0.83,1.45"/><path class="cls-2" d="M172.34,257.66a1.2,1.2,0,0,0,.56,1l0.29,0.15a3.17,3.17,0,0,0,2.39-1l-0.67,2.56a3.09,3.09,0,0,1-1.72.51,3.58,3.58,0,0,1-1.61-.4,3.28,3.28,0,0,1-1.76-3.27,6,6,0,0,1,2.46-4.75,4.2,4.2,0,0,1,2.41-.83,2.9,2.9,0,0,1,1.25.26,2.17,2.17,0,0,1,1.51,2.29,2.26,2.26,0,0,1-.07.59,3.7,3.7,0,0,1-1.45,2.12,4.2,4.2,0,0,1-2.58.92,3.7,3.7,0,0,1-1-.14M172.5,256a3.7,3.7,0,0,0,.72.07,2.62,2.62,0,0,0,1.57-.45,1.51,1.51,0,0,0,.63-1.1,0.87,0.87,0,0,0-.24-0.58,0.64,0.64,0,0,0-.52-0.3,1.85,1.85,0,0,0-1.37.88,4.59,4.59,0,0,0-.8,1.49"/><path class="cls-2" d="M184.3,254.21a4.35,4.35,0,0,0-2.57-.79,1.22,1.22,0,0,0-.64.22,0.59,0.59,0,0,0-.33.51,1.3,1.3,0,0,0,.83.72,8.69,8.69,0,0,1,1.52.87,2,2,0,0,1,.82,1.61,3.33,3.33,0,0,1-1.1,2.59,4,4,0,0,1-2.74,1,7.4,7.4,0,0,1-1.58-.23,3.91,3.91,0,0,1-1.45-.48l0.54-2.11a5.14,5.14,0,0,0,2.53.61c0.85,0,1.27-.24,1.27-0.72a1.19,1.19,0,0,0-.72-1l-1.51-.83a1.78,1.78,0,0,1-.79-1.45,3.14,3.14,0,0,1,1.16-2.46,3.85,3.85,0,0,1,2.59-.93,4.76,4.76,0,0,1,2.75.72Z"/><path class="cls-2" d="M187.21,259.66l-1.31,5h-2.64l3.4-13h2.64l-0.21.83a3.25,3.25,0,0,1,2-.83,2.22,2.22,0,0,1,.83.14c1,0.43,1.51,1.45,1.51,3a6.61,6.61,0,0,1-.57,2.61,6.34,6.34,0,0,1-1.71,2.42,3.3,3.3,0,0,1-2.17.91,2,2,0,0,1-1.82-1m3-6.19a1.45,1.45,0,0,0-1,.59,4.54,4.54,0,0,0-.88,1.49,4.85,4.85,0,0,0-.34,1.67c0,0.85.24,1.28,0.72,1.28a1.45,1.45,0,0,0,1-.59,4.84,4.84,0,0,0,.9-1.52,4.61,4.61,0,0,0,.33-1.64c0-.85-0.24-1.28-0.72-1.28"/><path class="cls-2" d="M196.66,257.66a1.2,1.2,0,0,0,.56,1l0.29,0.15a3.21,3.21,0,0,0,2.4-1l-0.68,2.56a3.12,3.12,0,0,1-1.72.51,3.62,3.62,0,0,1-1.62-.4,3.27,3.27,0,0,1-1.76-3.27,5.8,5.8,0,0,1,.61-2.55,5.54,5.54,0,0,1,1.87-2.17,4.13,4.13,0,0,1,2.39-.83,2.83,2.83,0,0,1,1.23.26,2.17,2.17,0,0,1,1.52,2.29,2.3,2.3,0,0,1-.06.59,3.62,3.62,0,0,1-1.45,2.12,4.14,4.14,0,0,1-2.58.92,3.71,3.71,0,0,1-1-.14m0.16-1.65a3.62,3.62,0,0,0,.72.07,2.61,2.61,0,0,0,1.59-.45,1.49,1.49,0,0,0,.63-1.1,0.88,0.88,0,0,0-.23-0.58,0.63,0.63,0,0,0-.54-0.3,1.85,1.85,0,0,0-1.35.88,4.55,4.55,0,0,0-.8,1.49"/><path class="cls-2" d="M208.7,255a2.09,2.09,0,0,0-1.41-1.33,0.45,0.45,0,0,0-.2,0,1.64,1.64,0,0,0-1,.51,3.8,3.8,0,0,0-1,1.49,4.13,4.13,0,0,0-.28,1.45,2.57,2.57,0,0,0,.16,1,0.72,0.72,0,0,0,.67.59,3.62,3.62,0,0,0,2.47-1.31l-0.72,2.73a4.1,4.1,0,0,1-2.17.68,2.76,2.76,0,0,1-1.25-.3,3.31,3.31,0,0,1-1.8-3.3,5.85,5.85,0,0,1,.62-2.59,5.71,5.71,0,0,1,1.82-2.17,3.93,3.93,0,0,1,2.33-.81,2.77,2.77,0,0,1,2.35,1.2Z"/><path class="cls-2" d="M213.94,251.63l-2.37,9.06h-2.65l2.37-9.06h2.65Zm-0.62-1.45a1.78,1.78,0,0,1-1.12-.3,1,1,0,0,1-.46-0.78,1,1,0,0,1,.46-0.83,1.91,1.91,0,0,1,1.12-.38,1.69,1.69,0,0,1,1.09.3,1,1,0,0,1,.49.79,1,1,0,0,1-.49.83,1.71,1.71,0,0,1-1.09.38"/><path class="cls-2" d="M215.81,260.65c-1-.45-1.56-1.45-1.56-3.08a6.72,6.72,0,0,1,.57-2.67,6.59,6.59,0,0,1,1.72-2.43,3.38,3.38,0,0,1,2.17-.94,2,2,0,0,1,1.7.87l0.22-.78h2.59l-1.62,6.4a0.91,0.91,0,0,0,0,.25,0.36,0.36,0,0,0,.32.39h0.12a1.54,1.54,0,0,0,.55-0.12l-0.53,1.67a3.41,3.41,0,0,1-1.85.67,2,2,0,0,1-1.62-.86,3.31,3.31,0,0,1-2,.72,2.3,2.3,0,0,1-.82-0.14m3.2-7.07a1.4,1.4,0,0,0-1,.57,4.42,4.42,0,0,0-.88,1.51,4.61,4.61,0,0,0-.32,1.66c0,0.85.22,1.28,0.67,1.28a1.45,1.45,0,0,0,1-.62,4.83,4.83,0,0,0,.88-1.56,4.35,4.35,0,0,0,.35-1.62c0-.82-0.22-1.22-0.72-1.22"/><polygon class="cls-2" points="226.2 260.69 223.56 260.69 227.12 247.14 229.8 247.14 226.2 260.69"/><path class="cls-2" d="M233.49,251.63l-2.38,9.06h-2.64l2.38-9.06h2.64Zm-0.62-1.45a1.76,1.76,0,0,1-1.1-.3,0.94,0.94,0,0,1-.47-0.78,1,1,0,0,1,.47-0.83,1.89,1.89,0,0,1,1.1-.38,1.79,1.79,0,0,1,1.12.3,1,1,0,0,1,.46.79,1,1,0,0,1-.46.83,1.82,1.82,0,0,1-1.12.38"/><polygon class="cls-2" points="237.06 258.68 240.05 258.68 239.57 260.66 232.94 260.66 237.79 253.6 234.59 253.6 235.1 251.63 239.46 251.63 241.9 251.63 237.06 258.68"/><path class="cls-2" d="M243,260.65q-1.55-.67-1.55-3.08a7.08,7.08,0,0,1,2.3-5.07,3.38,3.38,0,0,1,2.17-.94,2,2,0,0,1,1.7.87l0.2-.78h2.59L248.73,258a0.72,0.72,0,0,0,0,.25,0.37,0.37,0,0,0,.35.39h0.1a1.62,1.62,0,0,0,.56-0.12l-0.49,1.67a3.31,3.31,0,0,1-1.84.67,1.94,1.94,0,0,1-1.59-.86,3.33,3.33,0,0,1-2,.72,2.28,2.28,0,0,1-.82-0.14m3.2-7.07a1.45,1.45,0,0,0-1,.57,4.79,4.79,0,0,0-.85,1.51,4.35,4.35,0,0,0-.33,1.66c0,0.85.22,1.28,0.67,1.28a1.45,1.45,0,0,0,1-.62,4.44,4.44,0,0,0,.88-1.56,4.27,4.27,0,0,0,.34-1.62c0-.82-0.22-1.22-0.72-1.22"/><path class="cls-2" d="M252.57,260.61c-1-.44-1.52-1.45-1.52-3a6.62,6.62,0,0,1,.56-2.62,6.75,6.75,0,0,1,1.74-2.43,3.4,3.4,0,0,1,2.17-.92,2,2,0,0,1,1.72.95l1.45-5.41h2.64l-3.57,13.52H255.1l0.17-.59a3.27,3.27,0,0,1-1.87.72,2.17,2.17,0,0,1-.8-0.16m3-7q-1,0-1.75,1.93a4.75,4.75,0,0,0-.33,1.68c0,0.89.24,1.33,0.72,1.33a1.45,1.45,0,0,0,1-.59,4.51,4.51,0,0,0,.88-1.52,4,4,0,0,0,.32-1.45c0-.91-0.29-1.35-0.86-1.35"/><path class="cls-2" d="M262.12,260.65c-1-.45-1.56-1.45-1.56-3.08a6.78,6.78,0,0,1,.59-2.67,6.59,6.59,0,0,1,1.72-2.43,3.36,3.36,0,0,1,2.17-.94,2,2,0,0,1,1.71.87l0.21-.78h2.59l-1.67,6.4a0.82,0.82,0,0,0,0,.25,0.35,0.35,0,0,0,.32.38h0.11a1.56,1.56,0,0,0,.55-0.12l-0.51,1.67a3.34,3.34,0,0,1-1.83.72,2,2,0,0,1-1.62-.86,3.27,3.27,0,0,1-2,.72,2.32,2.32,0,0,1-.82-0.14m3.2-7.07a1.45,1.45,0,0,0-1,.57,5.25,5.25,0,0,0-1.21,3.17c0,0.85.22,1.28,0.68,1.28a1.45,1.45,0,0,0,1-.62,4.69,4.69,0,0,0,.88-1.56,4.28,4.28,0,0,0,.35-1.62c0-.82-0.22-1.22-0.72-1.22"/><path class="cls-2" d="M277.46,259.66l-1.3,5h-2.64l3.38-13h2.68l-0.21.83a3.3,3.3,0,0,1,2.06-.83,2.3,2.3,0,0,1,.82.14c1,0.43,1.51,1.45,1.51,3a7.25,7.25,0,0,1-2.29,5,3.33,3.33,0,0,1-2.17.91,2.06,2.06,0,0,1-1.82-1m3.05-6.19a1.41,1.41,0,0,0-1,.59,5.14,5.14,0,0,0-1.23,3.17c0,0.85.25,1.28,0.72,1.28a1.49,1.49,0,0,0,1-.59,5,5,0,0,0,.89-1.52,4.84,4.84,0,0,0,.33-1.64c0-.85-0.25-1.28-0.72-1.28"/><path class="cls-2" d="M285.91,260.65c-1-.45-1.55-1.45-1.55-3.08a7.07,7.07,0,0,1,2.3-5.09,3.41,3.41,0,0,1,2.17-.94,2,2,0,0,1,1.71.87l0.21-.78h2.59L291.67,258a0.83,0.83,0,0,0,0,.25,0.36,0.36,0,0,0,.34.39h0.1a1.54,1.54,0,0,0,.55-0.12l-0.5,1.67a3.37,3.37,0,0,1-1.85.67,2,2,0,0,1-1.61-.86,3.28,3.28,0,0,1-2,.72,2.34,2.34,0,0,1-.83-0.14m3.2-7.07a1.45,1.45,0,0,0-1,.57,5,5,0,0,0-1.2,3.17c0,0.85.21,1.28,0.67,1.28a1.38,1.38,0,0,0,1-.62,4.3,4.3,0,0,0,.88-1.56,4.2,4.2,0,0,0,.36-1.62c0-.82-0.22-1.22-0.72-1.22"/><path class="cls-2" d="M300.67,251.79l-0.59,2.49a1.86,1.86,0,0,0-.95-0.3,1.84,1.84,0,0,0-1.6,1.4l-1.41,5.3h-2.66l2.43-9h2.65l-0.13.55a3.34,3.34,0,0,1,1.71-.58,1.08,1.08,0,0,1,.58.13"/><path class="cls-2" d="M302,260.65q-1.54-.67-1.54-3.08a7,7,0,0,1,2.3-5.07,3.35,3.35,0,0,1,2.17-.94,2,2,0,0,1,1.71.87l0.21-.78h2.59l-1.67,6.41a0.72,0.72,0,0,0,0,.25,0.35,0.35,0,0,0,.32.38h0.11a1.54,1.54,0,0,0,.56-0.12l-0.46,1.64a3.38,3.38,0,0,1-1.85.72,2,2,0,0,1-1.6-.86,3.33,3.33,0,0,1-2,.72,2.3,2.3,0,0,1-.83-0.14m3.2-7.07a1.45,1.45,0,0,0-1,.57,4.35,4.35,0,0,0-.86,1.51,4.41,4.41,0,0,0-.33,1.66c0,0.85.22,1.28,0.67,1.28a1.45,1.45,0,0,0,1-.62,4.77,4.77,0,0,0,.86-1.56,4.35,4.35,0,0,0,.36-1.62c0-.82-0.23-1.22-0.72-1.22"/><path class="cls-2" d="M147,281.84h-2.94l-1,1.7h-2.64l6.35-10.65a2.8,2.8,0,0,0,1.45-1.45,3.34,3.34,0,0,1-2.33.91,1.87,1.87,0,0,1-.54-0.07l0.5-1.83a3,3,0,0,0,3.07-1.18l1-1.73v16h-3v-1.7h0Zm-1.82-2H147v-3.14Z"/><polygon class="cls-2" points="152.25 283.54 152.27 283.49 151.75 274.51 154.26 274.51 154.56 279.63 157.6 274.52 160.12 274.52 154.79 283.54 152.25 283.54"/><path class="cls-2" d="M162.06,280.49a1.22,1.22,0,0,0,.55,1l0.3,0.16a3.21,3.21,0,0,0,2.39-1l-0.67,2.54a3.12,3.12,0,0,1-1.72.52,3.62,3.62,0,0,1-1.61-.39,3.29,3.29,0,0,1-1.78-3.28,5.9,5.9,0,0,1,.62-2.56,5.57,5.57,0,0,1,1.87-2.17,4.11,4.11,0,0,1,2.37-.83,3,3,0,0,1,1.25.27,2.17,2.17,0,0,1,1.51,2.28,3.46,3.46,0,0,1-.07.59,3.69,3.69,0,0,1-1.45,2.12,4.17,4.17,0,0,1-2.59.91,4,4,0,0,1-1-.13m0.14-1.67a3.12,3.12,0,0,0,.72.09,2.5,2.5,0,0,0,1.57-.47,1.5,1.5,0,0,0,.64-1.11,0.94,0.94,0,0,0-.22-0.58,0.67,0.67,0,0,0-.55-0.3,1.88,1.88,0,0,0-1.35.88,4.58,4.58,0,0,0-.81,1.49"/><path class="cls-2" d="M174,277.07a4.35,4.35,0,0,0-2.57-.77,1.4,1.4,0,0,0-.65.2,0.63,0.63,0,0,0-.33.52,1.28,1.28,0,0,0,.82.72,10.23,10.23,0,0,1,1.54.87,2,2,0,0,1,.81,1.6,3.3,3.3,0,0,1-1.1,2.61,3.93,3.93,0,0,1-2.73,1,7.4,7.4,0,0,1-1.57-.23,4.35,4.35,0,0,1-1.45-.47l0.54-2.11a5.15,5.15,0,0,0,2.54.6c0.84,0,1.26-.22,1.26-0.72a1.15,1.15,0,0,0-.72-0.95l-1.51-.83a1.75,1.75,0,0,1-.78-1.45,3.06,3.06,0,0,1,1.15-2.46,3.85,3.85,0,0,1,2.58-.94,4.67,4.67,0,0,1,2.74.72Z"/><path class="cls-2" d="M181,283.48c-1-.43-1.51-1.45-1.51-3a6.85,6.85,0,0,1,.54-2.62,6.63,6.63,0,0,1,1.75-2.42,3.31,3.31,0,0,1,2.17-.93,2,2,0,0,1,1.72,1l1.45-5.41h2.64l-3.56,13.53h-2.66l0.17-.6a3.28,3.28,0,0,1-1.88.72,2,2,0,0,1-.8-0.15m3.05-7c-0.72,0-1.28.63-1.77,1.93a4.83,4.83,0,0,0-.32,1.68c0,0.88.23,1.33,0.72,1.33a1.45,1.45,0,0,0,1-.6,4.52,4.52,0,0,0,.88-1.52,3.9,3.9,0,0,0,.31-1.45c0-.91-0.29-1.35-0.84-1.35"/><path class="cls-2" d="M191.59,280.49a1.18,1.18,0,0,0,.57,1,1.12,1.12,0,0,0,.28.16,3.2,3.2,0,0,0,2.4-1l-0.67,2.54a3.13,3.13,0,0,1-1.72.52,3.69,3.69,0,0,1-1.62-.39A3.32,3.32,0,0,1,189,280a5.71,5.71,0,0,1,.63-2.56,5.5,5.5,0,0,1,1.85-2.17,4.19,4.19,0,0,1,2.4-.83,3,3,0,0,1,1.25.27,2.17,2.17,0,0,1,1.51,2.28,3.06,3.06,0,0,1-.06.59,3.73,3.73,0,0,1-1.45,2.12,4.22,4.22,0,0,1-2.6.91,4,4,0,0,1-1-.13m0.14-1.67a3.15,3.15,0,0,0,.72.09,2.51,2.51,0,0,0,1.58-.47,1.49,1.49,0,0,0,.63-1.11,0.88,0.88,0,0,0-.22-0.58,0.72,0.72,0,0,0-.54-0.3,1.91,1.91,0,0,0-1.38.88,5,5,0,0,0-.8,1.49"/><path class="cls-2" d="M203,273.19a2.27,2.27,0,0,0,.55.06,2.57,2.57,0,0,0,2.36-1.64,3.26,3.26,0,0,1-2.59.88,7.24,7.24,0,0,1-.78,0l0.47-1.83a5,5,0,0,0,2.68-.51,5.48,5.48,0,0,1,3.2-1.14,3.77,3.77,0,0,1,3.22,1.73l-0.6,2.25a2.9,2.9,0,0,0-.51-0.63,2.05,2.05,0,0,0-1.37-.67,2,2,0,0,0-.49-0.05c-1.45,0-2.64,1.29-3.66,3.86a8.69,8.69,0,0,0-.6,3.12c0,1.45.33,2.35,1,2.7a3.22,3.22,0,0,0,.56.19,4.85,4.85,0,0,0,3.24-1.3L209,283a5.48,5.48,0,0,1-3.1,1.06,3.75,3.75,0,0,1-1.84-.46,4.3,4.3,0,0,1-1.8-2,7.39,7.39,0,0,1-.63-3.07A10.54,10.54,0,0,1,203,273.2"/><path class="cls-2" d="M212.71,283.43a3.36,3.36,0,0,1-1.8-3.35,5.87,5.87,0,0,1,.64-2.62,5.7,5.7,0,0,1,1.81-2.17,4,4,0,0,1,2.34-.85,2.8,2.8,0,0,1,1.29.32,3.31,3.31,0,0,1,1.8,3.33,5.89,5.89,0,0,1-.63,2.62,5.72,5.72,0,0,1-1.83,2.22,4,4,0,0,1-2.34.83,2.8,2.8,0,0,1-1.28-.29m3-6.95a1.51,1.51,0,0,0-1,.54,4.58,4.58,0,0,0-.91,1.45,4.83,4.83,0,0,0-.41,1.85c0,0.85.26,1.26,0.72,1.26a1.59,1.59,0,0,0,1-.53,4.35,4.35,0,0,0,.93-1.49,4.49,4.49,0,0,0,.39-1.82c0-.84-0.25-1.27-0.72-1.27"/><path class="cls-2" d="M232.17,284.92a1,1,0,0,0,.83-0.35l0.58,1.7a3.73,3.73,0,0,1-2.59,1,2.37,2.37,0,0,1-1.83-.79,2.1,2.1,0,0,1-.64-1.36c0,0.09.07-.44,0.18-1.6l1.59-6.09a0.64,0.64,0,0,0,0-.2,0.56,0.56,0,0,0-.3-0.5,0.54,0.54,0,0,0-.33-0.11,1.25,1.25,0,0,0-.72.33l-0.62.49a2.45,2.45,0,0,0-.46.64l-1.45,5.46h-2.67l1.61-6a0.64,0.64,0,0,0,0-.19,0.54,0.54,0,0,0-.3-0.51,0.39,0.39,0,0,0-.31-0.1,1.26,1.26,0,0,0-.72.33,6.37,6.37,0,0,0-.82.72,3.14,3.14,0,0,0-.51,1.3h0l-1.18,4.46h-2.66l2.38-9h2.64l-0.19.72a4.24,4.24,0,0,1,2.17-.72,1.69,1.69,0,0,1,.63.09,2.59,2.59,0,0,1,1.27,1.11,4.67,4.67,0,0,1,3-1.3,1.89,1.89,0,0,1,.62.09A2.37,2.37,0,0,1,233,276.9a2.61,2.61,0,0,1-.06.56l-1.62,6.09a1.84,1.84,0,0,0,.25,1.13,1,1,0,0,0,.58.25"/><path class="cls-2" d="M235.93,282.56l-0.28,1H233l3.56-13.51h2.67l-1.39,5.26a3.18,3.18,0,0,1,2-.78,2,2,0,0,1,.79.15c1,0.43,1.55,1.45,1.55,3a6.41,6.41,0,0,1-.58,2.61,6.27,6.27,0,0,1-1.73,2.42,3.24,3.24,0,0,1-2.17.92,2,2,0,0,1-1.8-1m3-6.23a1.55,1.55,0,0,0-1,.58,5,5,0,0,0-.88,1.51,4.92,4.92,0,0,0-.35,1.67c0,0.85.25,1.28,0.72,1.28a1.45,1.45,0,0,0,1-.6,5.18,5.18,0,0,0,.91-1.52,4.74,4.74,0,0,0,.41-1.67c0-.85-0.25-1.28-0.72-1.28"/><path class="cls-2" d="M244.19,283.51c-1-.45-1.56-1.45-1.56-3.07a7.09,7.09,0,0,1,2.3-5.07,3.38,3.38,0,0,1,2.17-.94,2,2,0,0,1,1.7.88l0.2-.78h2.59l-1.67,6.4a1.14,1.14,0,0,0,0,.25,0.37,0.37,0,0,0,.35.39h0.1a1.36,1.36,0,0,0,.55-0.12l-0.49,1.68a3.26,3.26,0,0,1-1.83.65,2,2,0,0,1-1.62-.85,3.21,3.21,0,0,1-2,.77,2.12,2.12,0,0,1-.82-0.15m3.2-7.07a1.45,1.45,0,0,0-1,.58,5.17,5.17,0,0,0-1.19,3.14c0,0.85.21,1.28,0.67,1.28a1.45,1.45,0,0,0,1-.61,4.64,4.64,0,0,0,.88-1.56,4.35,4.35,0,0,0,.35-1.62c0-.81-0.23-1.22-0.72-1.22"/><polygon class="cls-2" points="255.21 283.54 252.55 283.54 254.4 276.49 253.18 276.49 253.71 274.52 254.92 274.52 255.95 270.62 258.6 270.62 257.59 274.52 259.24 274.52 258.71 276.49 257.06 276.49 255.21 283.54"/><path class="cls-2" d="M261.21,280.49a1.22,1.22,0,0,0,.54,1l0.29,0.16a3.17,3.17,0,0,0,2.39-1l-0.67,2.54a3.08,3.08,0,0,1-1.72.52,3.69,3.69,0,0,1-1.61-.39,3.31,3.31,0,0,1-1.76-3.28,5.72,5.72,0,0,1,.62-2.56,5.57,5.57,0,0,1,1.85-2.17,4.15,4.15,0,0,1,2.39-.83,2.9,2.9,0,0,1,1.25.27A2.17,2.17,0,0,1,266.3,277a2.9,2.9,0,0,1-.05.59,3.74,3.74,0,0,1-1.45,2.12,4.13,4.13,0,0,1-2.59.91,4,4,0,0,1-1-.13m0.15-1.67a3,3,0,0,0,.72.09,2.46,2.46,0,0,0,1.56-.47,1.45,1.45,0,0,0,.64-1.11,0.88,0.88,0,0,0-.23-0.58,0.64,0.64,0,0,0-.53-0.3,1.92,1.92,0,0,0-1.38.88,4.75,4.75,0,0,0-.78,1.49"/><path class="cls-2" d="M67.51,274.6c-3.93,0-8.74-.72-8.74-7.25V88.5c0-4,1.77-8.9,8.74-8.9h3.77V76.51H65.89c-7.25,0-9.89,5.86-9.89,10V267.68c0,7.82,5.8,10,9.89,10H134.2v-3.1H67.51Z"/><path class="cls-2" d="M340.73,76.51h-5.38v3.1h3.77c7.19,0,8.74,4.9,8.74,8.9V267.34c0,5.41-4,7.25-8.74,7.25H272.42v3.09h68.31c4.49,0,9.88-2.62,9.88-10V86.52c0-4.18-2.81-10-9.88-10"/><path class="cls-1" d="M289.06,83.35h0Z"/><path class="cls-2" d="M199.4,50.54a14,14,0,0,0-19.39,0h0c-2.83,2.83-4.28,6.63-4.28,11.31a15.58,15.58,0,0,0,4,11,13.27,13.27,0,0,0,10,4.19,13.44,13.44,0,0,0,9.56-3.8c2.9-2.82,4.42-6.64,4.42-11.4s-1.45-8.48-4.27-11.3m-3.51,21.41a9.61,9.61,0,0,1-7,3.3c-2.32,0-3.57-1.1-5.4-3.39A15.35,15.35,0,0,1,180.1,62c0-4.54.85-7.91,2.56-10s3.23-3.62,7.07-3.41a8.27,8.27,0,0,1,6.18,3.11c1.75,2.06,2.62,5.48,2.62,10.14s-0.88,8-2.6,10.14"/><path class="cls-2" d="M89.88,45.9c-5.28.43-7.69,2.62-10.06,6.29a23.08,23.08,0,0,0-3.43,12.74c0,5.69,1.69,11,4.5,14.29a12.32,12.32,0,0,0,9.67,4.58A15.32,15.32,0,0,0,97,82.25c2.17-1,4.72-3.7,4.72-4.48V72.85h0a0.72,0.72,0,0,0,.59-0.29,19.59,19.59,0,0,1,3.82-.55l0.72-.06V70.59H90.73v1.34H90.9c3.83,0.35,4.54.72,4.64,0.85a1.22,1.22,0,0,0,.79.48v6.3l-0.15.91a5.43,5.43,0,0,1-1.79,1.08l-1.75.58-0.34.07-1.2.11c-3.92-.72-4.75-2-6.28-4.27l-0.54-.78c-1.85-2.71-2.95-7.25-2.95-12.09,0-5.8.93-10.06,2.77-12.58l0.21-.3c1.75-2.43,3.27-4.53,6-4.8,2.59-.28,7.72.45,8.8,4.91L100.28,55l1.72,4,0.21-.23,0.76-1c0-.14-0.28-11.28-0.28-11.28V46.31h-1.15l-0.64,1.33a1.22,1.22,0,0,1-1,.37l-0.43-.22-2.09-1a25.46,25.46,0,0,0-7.48-.9m7.48,0.9h0Z"/><path class="cls-2" d="M155.49,47.64V49L157.2,49c1,0,2.37,0,2.56.33,0.35,0.5.54,2.78,0.54,4.62l-0.56,23a7.56,7.56,0,0,1-1.13,4,6.8,6.8,0,0,1-3.14,1h-0.15v1.67h0.17c0.12,0,10.64.15,15.41-.05,2.55-.09,3.45.41,3.75,0.85a0.77,0.77,0,0,1,.14.67l-0.18.43,1.76-.79c0.11-.14,1.67-10.27,1.67-10.27l-0.38-.1c-1,2.9-2.84,6-4,6.73s-1.83,1.08-5.07,1.08a5.72,5.72,0,0,1-2.06-1.33l-0.88-.62a7.09,7.09,0,0,1-.48-1.86V54.17c0-1.76.25-3.91,0.64-4.35s2.68-.72,4.71-0.85h0.18V47.64H155.49Z"/><path class="cls-1" d="M309.73,72.11h0Z"/><path class="cls-2" d="M130.2,81.32a2.9,2.9,0,0,1-1.73-.83A13.77,13.77,0,0,1,127.1,77l-7.25-30.81-3.77.83-6.75,26.13a44.42,44.42,0,0,1-2.43,6.77A2.49,2.49,0,0,1,105,81.31h-0.17v1.32h7.58v-1.3h-0.17a4,4,0,0,1-1.64-.41,1.76,1.76,0,0,1-.67-1.61l0.3-1.68,1.3-4.51,0.7-2.32h8.4l2,5.65,0.46,1.91,0.19,1.28a1.49,1.49,0,0,1-.38,1.24,6.67,6.67,0,0,1-2,.43h-0.17v1.33h9.64V81.35ZM112.63,68.85c0.12-.46,3.56-12.76,3.91-13.94,0.31,1.18,3.81,13.48,3.93,13.94h-7.85Z"/><path class="cls-2" d="M220.65,51.14l-8.15,0-0.14.64h0.27A6,6,0,0,1,215,52c0.41,0.22.54,0.72,0.54,2.71,0,0.88,0,2.05,0,3.62-0.09,4.85-.91,6.69-1,6.94h-2.49V66.4h9a6.11,6.11,0,0,0,4.19-1.63,7.34,7.34,0,0,0,1.93-5.5c0-7.32-6.31-8.09-6.38-8.11m0.72,14h-3.87a19.25,19.25,0,0,1-.07-1.93c0-3.62.25-10.4,0.29-11.25a7.62,7.62,0,0,1,2.81-.09,8.4,8.4,0,0,1,3.75,7.31c0,4.66-2.81,5.93-2.9,6"/><path class="cls-2" d="M268.94,50.54a14,14,0,0,0-19.37,0h0c-2.85,2.83-4.29,6.63-4.29,11.31a15.52,15.52,0,0,0,4,11,13.22,13.22,0,0,0,10,4.2,13.39,13.39,0,0,0,9.53-3.8c2.95-2.83,4.42-6.66,4.42-11.4s-1.45-8.48-4.28-11.3m-3.51,21.41a9.56,9.56,0,0,1-7,3.3c-2.53,0-3.8-1.34-5.43-3.39a15.52,15.52,0,0,1-3.4-9.84c0-4.52.87-7.9,2.56-10s3.23-3.62,7.09-3.4a8.14,8.14,0,0,1,6.17,3.09c1.74,2.07,2.62,5.48,2.62,10.14s-0.88,8-2.6,10.11"/><path class="cls-2" d="M325.94,50.54a14,14,0,0,0-19.37,0h0a15.42,15.42,0,0,0-4.29,11.31,15.62,15.62,0,0,0,4,11,13.22,13.22,0,0,0,10,4.21,13.47,13.47,0,0,0,9.58-3.8c2.9-2.82,4.39-6.64,4.39-11.4s-1.45-8.48-4.27-11.3M322.46,72a9.58,9.58,0,0,1-7,3.3c-2.33,0-3.62-1.1-5.42-3.39h0a15.41,15.41,0,0,1-3.4-9.84c0-4.52.87-7.9,2.56-10s3.23-3.62,7.07-3.4a8.14,8.14,0,0,1,6.19,3.09c1.76,2.07,2.63,5.48,2.63,10.14s-0.88,8-2.61,10.11"/><path class="cls-2" d="M308.66,80.72c-0.12,0-2.76,1.37-4.62,1.37-1.69,0-4.61-3.43-5.6-7.45-0.84-3.42-4.35-7.63-5.35-8.77,1.34-.17,5.93-1.27,5.93-8.52,0-8.46-8.77-9-8.85-9H272.66l-0.23,2.32h3.47c1.45,0,2.43.35,2.9,1a2.3,2.3,0,0,1,.18,1.92c0,0.32-.18,25.12-0.38,27.43a3.12,3.12,0,0,1-2.17,2.75h-4v1.56h17.74V83.86H290c-4.29-.46-5.52-1.51-5.88-2.09a1.07,1.07,0,0,1-.17-0.57,0.89,0.89,0,0,1,0-.21c0-.06.38-14,0.4-14.9,0.25,0,1.19-.17,1.19-0.17a17.63,17.63,0,0,1,2.4.77c1.63,0.6,1.91,1.51,2.41,3l0.38,1.17,0.83,2.59,1.45,4.4c1.17,3.19,4.71,7.92,9.62,7.92s6.9-4.74,6.92-4.8l0.12-.26h-1Zm-19.1-17a20.62,20.62,0,0,1-5,.46c0-.36-0.11-12.19-0.11-12.19v0a1,1,0,0,1-.05-0.32,0.91,0.91,0,0,1,.18-0.55c0.3-.38,1.12-0.8,3.33-0.54,4.44,0.51,5.8,5.12,5.7,7.25s-1.64,5.36-4,5.93"/><path class="cls-2" d="M238.27,50.4l-1.31.28h-8.83a1.63,1.63,0,0,1,0,.4,0.14,0.14,0,0,0-.09.14h0.13v0.2H229a1.49,1.49,0,0,1,1.25,1c0,2.9,0,8.69,0,9.17l-0.4,3.62c-0.06.41-1.17,0.57-1.7,0.6v0.37h10.25a1.07,1.07,0,0,0,.86.72h0.17l0.16-.2,0-.18,0.72-2.17c0.5-1.07.45-1.36,0.37-1.51l-0.14-.2-0.21.14a9.69,9.69,0,0,1-7.72,2.51v-6.4a4.5,4.5,0,0,1,2.25,0,2.42,2.42,0,0,1,.36,1.78V60.8L236,61V56.17l-0.37-.05a4.22,4.22,0,0,1-1.16,1.3,1.55,1.55,0,0,1-1.06.2s-0.72,0-1,0c0-.35.22-5.61,0.23-5.94,0.29,0,1.62-.12,1.62-0.12a4.16,4.16,0,0,1,2.38.49c0.88,0.5,1,2.28,1,2.3v0.23l0.22,0c0.09,0,.61-0.23.5-1.77l0.12-1.59a0.66,0.66,0,0,0-.07-0.72l-0.07,0h-0.14v0Z"/><path class="cls-2" d="M181.24,83.52l0.21,0.33s2.38-1,8.8-1A32.76,32.76,0,0,1,200,84.05l0.22-.33A16.16,16.16,0,0,0,189.68,80a12.57,12.57,0,0,0-8.44,3.56"/><path class="cls-2" d="M132.49,47.2v1.33l1.69,0.07c0.93,0,2.36,0,2.56.33s0.55,2.42.55,4.58l-0.54,23a7.6,7.6,0,0,1-1.14,4,7.75,7.75,0,0,1-3.14,1H132.3v1.71h0.2c0.12,0,10.65.15,15.42,0,2.67-.12,3.48.46,3.74,0.81a0.72,0.72,0,0,1,.11.64l-0.18.47,1.92-.75,1.56-10.26L154.7,74c-1,2.9-2.85,6-4,6.7s-1.93,1.08-5.07,1.08a5.89,5.89,0,0,1-2-1.28,3.05,3.05,0,0,0-.88-0.62,7.25,7.25,0,0,1-.49-1.89V53.75c0-2,.28-4,0.62-4.35,0.11-.1.72-0.5,4.69-0.83h0.2V47.2H132.49Z"/><path class="cls-2" d="M309.78,83.31l-0.38.43,9.42-1c4.35-.38,10.49,1.32,10.53,1.35l0.18-.38c-0.07,0-5.93-3.93-11.11-3.93a12.77,12.77,0,0,0-8.63,3.58"/><path class="cls-2" d="M218.16,74.29a4.35,4.35,0,0,0,.36,3.35c1.19,2,4.06,2.77,5.61,3.18l0.44,0.12c1.83,0.51,2,.87,2.49,1.64,0.33,0.59.23,0.72-.64,1.45l-0.41.36c-1.06.9-3.22,0.45-3.26,0.44l-0.17.36,0.09,0.05h0a6.22,6.22,0,0,0,4.18.5,2.77,2.77,0,0,0,2.05-1.68,2.26,2.26,0,0,0,0-1.88c-0.64-1.36-2.72-2-5.14-2.83l-0.83-.29c-3.24-1.1-2.9-3.26-2.69-4.7,0.1-.87.77-3.35,4.75-3.19,3.27,0.16,3.86,1.72,4.28,2.9a3.34,3.34,0,0,1-1.18,3.23l-0.37.28c-0.53.46-1.2,1-3.27,0.05a2,2,0,0,1-1.38-1.4c-0.06-.77.88-1.51,1.29-1.79a1.56,1.56,0,0,1,1.94.09l0,0,0.1,0.12a0.72,0.72,0,0,0,.59-0.12,0.23,0.23,0,0,0,.32-0.06l0-.05c0.09-.23-0.07-0.46-1.19-1.2a3.1,3.1,0,0,0-3.85,0,2.9,2.9,0,0,0-.78,2,3.12,3.12,0,0,0,1.1,2.38A6,6,0,0,0,228,79.14c1.59-.15,3.26-0.72,3.52-3.56a3.83,3.83,0,0,0-1-2.9,8.49,8.49,0,0,0-6-2.54c-4.64-.14-5.8,2.13-6.35,4.16"/><path class="cls-2" d="M250.11,83.42l0.22,0.34s2.38-1,8.8-1,9.74,1.14,9.77,1.16l0.22-.36a16.37,16.37,0,0,0-10.55-3.75,12.51,12.51,0,0,0-8.46,3.56"/><path class="cls-2" d="M338.73,63.07a0.82,0.82,0,0,0,.56-0.16,0.53,0.53,0,0,0,.22-0.53,0.59,0.59,0,0,0-.3-0.56,1,1,0,0,0-.44-0.07h-1.23v1.32h1.2ZM337,61.33h1.75a1.82,1.82,0,0,1,.72.12,0.93,0.93,0,0,1,.56.9,1.29,1.29,0,0,1-.14.57,0.89,0.89,0,0,1-.41.35,0.83,0.83,0,0,1,.33.26A1,1,0,0,1,340,64v0.48a0.94,0.94,0,0,0,0,.35,0.38,0.38,0,0,0,.16.23v0.08h-0.64a0.28,0.28,0,0,0,0-.13V64.74l0-.64a0.49,0.49,0,0,0-.25-0.49,0.87,0.87,0,0,0-.49-0.08h-1.18v1.63H337V61.33h0Z"/><path class="cls-2" d="M335.3,63.27A3.25,3.25,0,1,0,338.55,60a3.25,3.25,0,0,0-3.25,3.28m0.28,0a3,3,0,1,1,3,3,3,3,0,0,1-3-3h0"/><path class="cls-2" d="M335.3,130.18s-0.28-1.17-1-.78a64.73,64.73,0,0,1-13.16,5.17c-5.72,1.49-11.13,1.24-14.35-.09A42.7,42.7,0,0,0,319,123.86a19.76,19.76,0,0,0,3.3-6.89c0.41-2.06-.59-3.07-0.72-2.9-3,5.61-14.14,8.88-22.13,10.54a72.45,72.45,0,0,0,16.07-9.78,42.85,42.85,0,0,0,7.55-9.37c0.41-.78-1.06-1.82-0.83-2.07a32,32,0,0,1-10.8,8.35c-4.35,2-9.22,2.75-13.68,4.47,0-1.09,6.11-7.09,7.53-8.06,0.12-.09-4.82,1.75-4.77,1.72a59.86,59.86,0,0,0-21.57,15c0.28-1.83,1.91-6.77,1.62-7.25-0.15-.28-0.86-1.1-0.72-1.3-2.5,3.76-4,8.09-5.75,12.22-0.17-2.7.19-9.8,0.91-12.32-0.11.4-1-1.27-1.24-.77-2.17,4.25-2.71,6.64-4.18,11.14a13.08,13.08,0,0,1-3.1,5.69c-1.8,1.89-4.35,1.92-6,2.17-3.66.46-5-.49-9.12-0.17a86.12,86.12,0,0,0,11.58-2.06,11.48,11.48,0,0,1-1.31-.54c-5.14-2.49-8.09.09-13.32-1.67,2.17-1.28,6.89-4.15,6.67-11.69a12.4,12.4,0,0,0-.47-3c-0.54,5-8.56,12.11-11.66,12.22,2.27-2.41,3.3-5.07,4.43-8.23a16.74,16.74,0,0,0,1-4.46,6.59,6.59,0,0,0,0-2.17c-0.28-1.09-.8-1.93-0.92-1.75s0.37,7-10.19,17.78c2.17-2.17,1.9-4,2.12-5.29a29.65,29.65,0,0,0,.61-4.35,6.24,6.24,0,0,0-.22-2.9,3.81,3.81,0,0,1-1,.91c-0.61,7.17-5.25,12.87-9.35,16a3.2,3.2,0,0,0,.52-1.21c-1.84,1.33-3.27.61-4.62,0.54-1.07-.05-2.82-1.2-6-0.64a5.71,5.71,0,0,0-5,4.23c-1.41.06-4.1,3.09-4.06,4.79a7.15,7.15,0,0,1,4.91-.4c1.38,0.1,2,.88,3.94,1.9s4.42,0.28,6.09,1.31c3.37,2.17,4.35,5.5,5.51,8.31,2.76,6.85,8,12.32,13.77,16.73-7,6.52-6.66,17-11.46,24.85-3.12,5.07-9.29,6.52-14.71,7.25-4.79.64-9.42,2.17-11,7.33-0.21.72,1.31,1.41,1,2.11,1.78-4,5-6,9.08-6.82,4.51-.93,9.31,1.37,12.76-3.71a1.41,1.41,0,0,1,.41-0.67c-0.14.24-.28,0.46-0.41,0.67v0.18a2,2,0,0,0,.28.93c0.6,1.22,1.16.51,2.17-.05a75.35,75.35,0,0,1,8.62-4.35c5.07-2,10.53-3.95,12.7-9.51a42.23,42.23,0,0,1,4,8.24c0.42,1.28-1.54,2.6-2.56,3.16-2.85,1.56-6.3,1.82-9.42,2.22-3.35.41-7,.72-10,2.53a8,8,0,0,0-3.06,3.27c-0.27.55-.92,1.72-0.57,2.32,0.22,0.36,1.2,1.13,1,1.62,2.34-6.43,9.53-6.95,15.3-7.75A30.36,30.36,0,0,0,254,201.3c0.17,0.5.27,1,.46,1.51a5.21,5.21,0,0,0,1.8-.26c2.72-.59,5.61-1.72,6.11-4.83,1.45,10.14-1.14,20.83-9.11,27.59a27.83,27.83,0,0,1-3.09,2.29c-0.36.23-2.57,1.25-2.59,1.59-0.2,3,3.42.43,4.44-.2a30.25,30.25,0,0,0,12.16-8.22,20.1,20.1,0,0,1-2.09,3.9c-0.54.8-1.56,2.64-2.52,2.9-0.17.06,0.21,0.72,0.53,0.65a2.35,2.35,0,0,0,.8-0.29,13.77,13.77,0,0,0,2.85-1.68c3.27-2.44,6.76-6.29,8.09-10.24,2.07,4.62,7,8,7.25,7.89a2,2,0,0,0-.27-1.31c-0.59-1.22-1.32-2.32-1.87-3.57a25,25,0,0,1-1.84-8.17c2.38,3.16,8.22,6.25,8.55,6.14a8,8,0,0,0-.67-1.61,15.52,15.52,0,0,0-1.07-1.32,12.07,12.07,0,0,1-3.12-5.59,44.3,44.3,0,0,0,12,7.25c-0.38-.14-0.41-1.24-0.63-1.56a21.1,21.1,0,0,0-2-1.92,39.37,39.37,0,0,1-4.17-5.3c3.91,3.07,9.36,3.62,14.14,3.88-0.53,0-.28-2-1.25-2.09a18.3,18.3,0,0,1-4.38-1.88,26.59,26.59,0,0,1-7-6.93,26.6,26.6,0,0,0,11.64.46c1-.18,4.35-0.55,4.62-1.75,0.22-.93-2.23-0.27-2.83-0.23-5.8.32-11.59-1.19-15.13-6a6.87,6.87,0,0,0,2.48,1.35,17,17,0,0,0,3.24,1,28.55,28.55,0,0,0,6.4.33,27.9,27.9,0,0,0,6.83-.86c0.72-.2,2-0.35,1.95-1.28s-1.35-.29-1.83-0.23a21.27,21.27,0,0,1-10.71-1.59,23.82,23.82,0,0,1-3.26-1.72,11.31,11.31,0,0,0-1.75-1.22h0a57.89,57.89,0,0,1,13.94-.06,27.92,27.92,0,0,1,6.6,1.8c2.51,1.05,4.49,2.94,6.71,4.48-0.64-.43-0.66-1.67-1.25-2.28-0.81-.85-1.68-1.64-2.58-2.41a35.5,35.5,0,0,0-5.46-3.74,32.89,32.89,0,0,0-13.22-4.14c-4.72-.41-7.68-0.29-12-2.07-4.56-1.87-8.22-8-7.82-10.14,3.81,3.57,11.59,7.2,16.53,8.95a51.88,51.88,0,0,1-3.91-4.6,67.49,67.49,0,0,0-4.48-5.51,72.84,72.84,0,0,1,7.9,4.69,30.43,30.43,0,0,1,3.75,3c0.52,0.49,1,1,1.51,1.53A5.72,5.72,0,0,0,294.5,179s-0.88-2.77-.88-2.8a49.27,49.27,0,0,0-3.16-6c3.73,3.4,7.33,7.43,12.12,9.27a40.19,40.19,0,0,1-3-6.61,38.35,38.35,0,0,1-1.89-6.39c4.56,3.93,9.48,7.9,15.46,9.31-0.34-.09-0.67-2.12-0.9-2.48s-8.13-7.7-9.58-11.27c4,2.9,8.48,5.37,13.52,5.71-0.22,0-.62-1.77-0.78-2a15.14,15.14,0,0,0-2.39-2.07c-2.33-2-4.8-6.14-6.79-8.52a61.29,61.29,0,0,0,19.92,3.15,5.22,5.22,0,0,0-.34-1.49,6.32,6.32,0,0,0-1.75-.05,21.27,21.27,0,0,1-4.66-1c-2.56-.78-6.59-2-8-4.61q2.06,0.42,4.13.8c0.6,0.1,1.18.21,1.79,0.3,0.23,0,1.3.43,1,0,0.52,0.33.11-.37,0-0.72a1,1,0,0,0-.8-0.8,18.19,18.19,0,0,1-3.3-1.75c-1.87-1.22-3.95-2.85-4.89-4.95,6.26,0.9,12.74,1.29,18.84-.63-0.26.09-.37-1.81-0.66-1.75-1.5.32-5.64-1.33-7-1.88,3.43-1.05,11.37-5.61,14.79-9.59"/><path class="cls-3" d="M124.8,232.08l2.9,0.13c1.58,0.29,3,1.2,4.89.85,0.2-.06.43-0.06,0.41-0.24a2.59,2.59,0,0,1,1.78-.52c0.36,1.33,3.5,1.09,5.13,1.12,1.27-.06,2.51-0.08,3.78-0.11l3.46-.1c1.71,0.1,3.38.21,5.07,0.3l1.08-.12c0.22-.12.9-0.14,0.87-0.38,0.54,0.07,3.62.32,3.67,0.43a0.13,0.13,0,0,1,.15,0c-0.11.41-1,1.59-1,1.72-6.06-.72-12.73-0.23-19-0.29L115.6,234c-2.64.08-5.3,0.14-8,.21-1,0-4.72-.17-4.72-1.11h0.17V233h2l2.51-.11,0.93-.14h1.82l4.7-.22c0.72-.06,1.45-0.08,2.17-0.13,2.07-.72,5.3,0,7.59-0.34"/><path class="cls-3" d="M180.31,237.56l-0.31.23c-0.85.09-1.75,0.17-2.6,0.23l-2.85.26h-0.21a1.35,1.35,0,0,0-.66-0.59c-1.54,0-3.12-.09-4.67-0.13-4.18,0-8.3,0-12.68.11-1.84.12-3.7,0.2-5.56,0.3-5.44.18-11.18,0.56-16.42,0.41s-10.32-.67-15.69-0.58l-24.12.58a12.76,12.76,0,0,0-2.9.52L91.5,239c0.64,0.11,1.32.22,2,.31,2.59,0.26,5,.72,7.63.83,3.8,0,7.58-.09,11.35-0.11,6,0.09,12,.21,18,0.29,5.43,0,10.87,0,16.3-.06,6.77,0,13.58.24,20.72-.09,2.27-.08,4.62-0.09,6.76-0.36h0.14l9.35-1.22v-0.09h0.09c0-.49-2.9-0.93-3.44-1"/><path class="cls-3" d="M275.14,234.17l4.77,0.39,1.68-.14c1.45-.46,3.41,0,5-0.07,0.33,0,.66-0.1,1-0.12l1.22-.14c2.17-.72,6,0.1,8.12.4a51.75,51.75,0,0,0,7.11.14c0.58,0.09,1.18.15,1.76,0.22,0,0.17.14,0.72-.09,0.67-2.06.72-5,.27-7.35,0.33l-8,.22-8.12-.62-6.23-.06-1.89-.28a2.58,2.58,0,0,0-.11-0.57h0.11c0.33-.1.66-0.23,1-0.36"/><path class="cls-3" d="M224.09,233.4l4.77,0.38,1.68-.14c1.45-.44,3.39,0,5-0.08,0.32,0,.66-0.08,1-0.11l1.22-.13c2.17-.72,6,0.09,8.12.4a52.16,52.16,0,0,0,7.11.13l1.76,0.23c0,0.17.14,0.68-.09,0.67-2.06.68-5,.27-7.32,0.33-2.67.08-5.35,0.15-8,.21-2.72-.2-5.41-0.41-8.12-0.6l-6.24-.07c-0.62-.1-1.25-0.21-1.89-0.29,0-.2-0.07-0.38-0.1-0.57h0.1l1-.37"/><path class="cls-3" d="M284,238.33c-4.22,0-8.46,0-12.69.06-11-.14-22.24-0.67-33.45-0.51v0.07c-0.92,0-1.81,0-2.73-.05-1.66,0-3.76-.43-5.35,0l-1.62.14-2.34.13c-0.77,0-1.54.08-2.31,0.14-5,0-9.5-.63-14.27-0.83v0.12a10.35,10.35,0,0,0-3.38.78c0.18,0.19.36,0.37,0.54,0.54,2.25,1.3,7.76.86,10.87,0.86,4.25,0,8.5.07,12.76,0.09,2.46,0.09,5.91.58,8.53,0.42a1.21,1.21,0,0,0,.42.39c1.51,0.64,7.42.37,9.53,0.34,11.28-.16,22.7-0.54,34.46-0.72,1.09,0,5.42,0,5.42-.92s-3.33-1-4.35-1"/><path class="cls-2" d="M208.74,186.59c-2.23-4.88-7-5.8-11.84-5.8-5.46,0-11.77-.59-15.54-5.17-5.8-7.08-6.9-17.54-14.7-23.05,5.07-5.17,9.64-11.28,11.37-18.45a20.56,20.56,0,0,0,.47-2.59c0.14-1.19.93-3.22,2.08-3.73,1.7-.72,2.41,0,4.25.08,1.64,0.09,3.25-.38,4.55.09,0.5,0.17,2.86.22,4.48,2.17,0.72-1.51-.78-5.17-2.05-5.8a5.9,5.9,0,0,0-3.06-6c-2.74-1.79-4.52-1.5-5.54-1.87-1.26-.48-2.86-0.36-4-2.32a2.47,2.47,0,0,0,.88,2.61c-4.65-1.49-12.7-7.17-14.69-16.06a3.42,3.42,0,0,1-1.08-.72,6.38,6.38,0,0,0,.18,2.93,30.49,30.49,0,0,0,1.19,4.25c0.41,1.25.38,3.09,2.83,5-11.93-9.12-12.37-16-12.52-16.19a18.69,18.69,0,0,0-.39,4,14.69,14.69,0,0,0,.8,4.85c1.45,3.21,3.06,6.23,6.27,7a21.88,21.88,0,0,1-7.52-3.48c-2.71-2-4.94-4.61-5.67-7,0.15,0.46-.12,2.55-0.06,3.06,0.78,7.51,5.85,9.71,8.17,10.67-4.94,2.46-8.2.31-13,3.48a10.37,10.37,0,0,1-1.2.72,81.22,81.22,0,0,0,11.69.43c-4.12.27-5.32,1.38-9,1.45-1.74,0-4.26.33-6.3-1.3a12.91,12.91,0,0,1-3.83-5.19c-2-4.27-2.9-6.52-5.64-10.46-0.33-.47-0.94,1.3-1.12.92,1.05,2.35,2.35,9.36,2.55,12-2.27-3.85-4.35-7.93-7.34-11.31,0.17,0.17-.44,1.1-0.54,1.39-0.22.54,1.09,6.06,2.51,7.25-7.41-6.22-15-9.09-23.37-12,0,0-5-1.21-4.91-1.14,1.55,0.72,8.42,5.87,8.56,6.95-4.66-1.09-9.57-1.21-14.16-2.55-4.28-1.27-10.22-6.58-11.76-7a1.35,1.35,0,0,0-.83,2c1.14,2.09,5.64,5.59,8,7.41,4.25,3.34,12.35,6.93,18.27,8.77-8.15-.55-19.56-2.27-23.34-7.4-0.12-.17-1,1-0.29,3a19.56,19.56,0,0,0,4.16,6.38,42.36,42.36,0,0,0,13.59,8.82c-3,1.78-8.33,2.77-14.21,2.09a65.93,65.93,0,0,1-13.77-3.33c-0.8-.28-0.91.92-0.91,0.92,3.91,3.46,12.39,6.88,15.94,7.47-1.32.72-5.19,3-6.72,2.83-0.29,0-.15,1.88-0.41,1.84,6.32,1,12.7-.22,18.77-2-0.64,2.23-2.49,4.12-4.17,5.59a17.56,17.56,0,0,1-3,2.17A1.08,1.08,0,0,0,91,146c-0.05.38-.37,1.12,0.09,0.72-0.2.43,0.82-.12,1-0.19l1.73-.54c1.34-.43,4-0.64,4.8-1.78a21.28,21.28,0,0,1-8.13,6.08A21.26,21.26,0,0,1,86,151.88a5.3,5.3,0,0,0-1.73.31,5.69,5.69,0,0,0-.12,1.52,53.85,53.85,0,0,0,19.33-3.85,59.77,59.77,0,0,1-5.58,7.34,15.94,15.94,0,0,0-2.09,2.39c-0.15.27-.3,2.08-0.52,2.08,4.93-1,9-4.09,12.61-7.51a34.13,34.13,0,0,1-4.8,9.12,24.21,24.21,0,0,1-1.8,2.09,7.73,7.73,0,0,0-1.37,1.28c-0.21.38-.25,2.45-0.57,2.56,5.72-2.17,10.08-6.8,14.06-11.33a51.87,51.87,0,0,1-1.52,8.86,4.18,4.18,0,0,1-.94,2.06,1.84,1.84,0,0,0-.39.89c-0.07.17-.25,1.73-0.31,1.76,4.51-2.47,7.55-7,10.79-10.87a48.25,48.25,0,0,0-2.32,6.42s-0.54,2.9-.51,2.9a5.52,5.52,0,0,0,1-1.51c0.4-.59.83-1.17,1.28-1.73a33.6,33.6,0,0,1,3.3-3.51,77.17,77.17,0,0,1,7.19-5.71,67.91,67.91,0,0,0-3.7,6.06c-0.44.81-1,1-1.22,2,0,0.14-.45,1.63-0.14,1.11a1.79,1.79,0,0,1-.36,1.15c4.63-2.41,10.36-6.26,13.66-10.31,0.66,2.09-2.14,8.63-6.41,11.11-4.07,2.38-7,2.66-11.63,3.71s-8.8,2-13.93,4.77c-1.94,1.06-2.9,1.25-4.59,2.69-0.72.62-2.35,2-2.59,3.17-0.43,2.17-.24,3.13.65,4.55,1.78-2,2.83-2.56,5.8-4.8a17.88,17.88,0,0,1,6-2.94,60.93,60.93,0,0,1,14.29-1.88h0a10.56,10.56,0,0,0-1.62,1.45,24.18,24.18,0,0,1-3,2.17,20.84,20.84,0,0,1-10.38,3.05c-0.48,0-1.88-.36-1.78.49s1.38,0.89,2.11,1a27.53,27.53,0,0,0,6.88-.08,28.81,28.81,0,0,0,6.3-1.22,17.05,17.05,0,0,0,3.06-1.45,6.92,6.92,0,0,0,2.26-1.67c-2.9,5.28-8.4,7.57-14.16,8-0.59.06-3.51,0-2.78,0.62a12.46,12.46,0,0,0,1.36.81,25.5,25.5,0,0,0,3.47.3,27.77,27.77,0,0,0,11.77-2.25,28.33,28.33,0,0,1-6.19,8,17,17,0,0,1-4.11,2.45c-0.95.21-.42,2.17-0.95,2.26,4.71-.88,10-2.17,13.48-5.8a40.17,40.17,0,0,1-3.42,5.83,19.63,19.63,0,0,0-1.74,2.17c-0.17.36,0,1.45-.41,1.64a44.46,44.46,0,0,0,10.87-8.8,12.71,12.71,0,0,1-2.34,6.07,14.36,14.36,0,0,0-1,1.45c-0.15.3-.1,1.41-0.38,1.59a31,31,0,0,0,7.64-7.25,24.09,24.09,0,0,1-.72,8.34c-0.37,1.33-1,2.51-1.45,3.81a10.61,10.61,0,0,1-.35,1.77,21,21,0,0,0,6.44-9.25c1.84,3.75,5.8,7.08,9.38,9a14.24,14.24,0,0,0,3,1.29,2.33,2.33,0,0,0,.85.16c0.31,0,.6-0.67.43-0.72-1-.14-2.25-1.82-2.9-2.54A19.44,19.44,0,0,1,154,207a30,30,0,0,0,13.14,6.48c1.1,0.48,5,2.49,4.42-.4-0.07-.33-2.39-1-2.78-1.23a27.92,27.92,0,0,1-3.37-1.84c-8.8-5.6-12.82-15.83-12.72-26.08,0.93,3,3.93,3.75,6.7,3.93,0.25,0,1.75.23,1.81,0,0.13-.51.16-1,0.26-1.54a31.1,31.1,0,0,0,5.61.34c5.8,0,13-.49,16.2,5.57-0.24-.46.63-1.35,0.8-1.74,0.27-.66-0.51-1.71-0.88-2.23a7.85,7.85,0,0,0-3.47-2.82c-3.16-1.37-6.82-1.2-10.21-1.16-3.17.05-6.64,0.28-9.66-.88-1.09-.42-3.2-1.45-3-2.8a41.69,41.69,0,0,1,2.8-8.69c2.9,5.21,8.57,6.38,13.86,7.68a76.18,76.18,0,0,1,9.13,3.13c1.09,0.43,1.75,1.05,2.17-.25a2.06,2.06,0,0,0,.17-1c-0.1-.57-0.27-0.41-0.72-1,4.27,5.69,9,2.4,13.77,2.72,4.19,0.28,7.64,1.85,9.92,5.53-0.41-.66,1-1.54.72-2.22"/><path class="cls-3" d="M182.73,180.41c5.87,11.74,18.76.41,27.53,5.43-0.12-.08,1.25-3,1-3.14-8.69-5-21.6,6.88-28-3.83,0.18,0.3-.66,1.22-0.5,1.55"/><path class="cls-3" d="M200.43,184.38c-1.45,5.41,2.66,9.14,7.25,11.16,0.12,0.06,1.11-2.48.83-2.62-4-1.9-8.57-5.28-7.25-10.39,0.12-.4-0.14.33-0.16,0.37-0.17.49-.58,0.24-0.72,0.72v0.72Z"/><path class="cls-3" d="M201,183c-1.75,2-4.19,3.08-5.95,5-1.6,1.77-1.83,4.76-1.19,6.93,0.12,0.44.78-1,.8-1a3.86,3.86,0,0,0,.41-2.1c-0.25-.92-0.45-1.13.07-1.64a16.21,16.21,0,0,1,1.45-1.14,16.87,16.87,0,0,0,3.7-3.77c0.43-.59.28-1.74,0.72-2.25"/><path class="cls-3" d="M158.5,183.19c5.85,11.74,17.31-.45,26.08,4.62-0.15-.08,3.54-0.51,3.3-0.67-12.09-7.93-22.46,5.24-28.88-5.5,0.18,0.32-.67,1.22-0.5,1.56"/><path class="cls-3" d="M176.43,187.2c-1.45,5.4,2.41,9.14,7,11.16,0.12,0,1.12-2.49.83-2.62-4-1.91-5.65-5.8-7.21-10.4-0.14-.39-0.15.31-0.17,0.38-0.15.48-.32,1-0.46,1.45"/><path class="cls-3" d="M176.24,185.33c-4.39,4.5-4.13,11.3-2.4,16.87,0,0,1.45-2.25,1.2-3.12a26.5,26.5,0,0,1-.88-4.1c-0.41-3.27.37-4.62,1.85-6.93,0.41-.63.3-1.7,0.72-2.27Z"/><path class="cls-3" d="M176.65,119.45s-6.52-5.51-14-7.67c-11.12-3.23-13.19-10.51-13.19-10.51s-1.09,6.26,3.31,10.69a10.57,10.57,0,0,0,8.22,3.38,26.25,26.25,0,0,1-8.59,1.06,14.18,14.18,0,0,0-9,2.79,17.55,17.55,0,0,1,5.9-.95c3.06,0,5.86.68,8.55,0.59s5.07-1.67,8.78-1.54c7.16,0.28,10.06,2.17,10.06,2.17"/><path class="cls-3" d="M173.32,120.56c-2.71-.24-9.17-0.24-12.32,1.32s-3.5,3.23-5.89,4.21a15,15,0,0,1-6.06.56s2.9,1.54,4.94,1.35a16.5,16.5,0,0,0,9.72-3.19,28.45,28.45,0,0,1,9.58-4.26"/><path class="cls-3" d="M175.14,124.26a7.82,7.82,0,0,0-7.14,4.62c-1.54,3.37-1.45,5.67-2.17,7.47s-3.12,2.9-3.12,2.9a6,6,0,0,0,3.95-1,5.38,5.38,0,0,0,2.36-3.91,10.7,10.7,0,0,1,2.1-5.34,17.32,17.32,0,0,0-.72,5.8c0.3,6.76-4.07,9.51-4.07,9.51a8.77,8.77,0,0,0,4.63-2.41c2.64-2.43,2.93-7.16,2.31-11-0.94-5.84,1.92-6.62,1.92-6.62"/><path class="cls-3" d="M155.55,120.09a34.17,34.17,0,0,0-7.54,2.17,9.59,9.59,0,0,1-4.07.51,12.33,12.33,0,0,0,5.55,1.34c3.8,0.22,4.88-.07,7.33-1.79,3.46-2.43,5.57-2.33,5.57-2.33a20.15,20.15,0,0,0-6.85.06"/><path class="cls-3" d="M162.92,129.26a34.94,34.94,0,0,0-5.07,6.06,9.85,9.85,0,0,1-3.11,2.72,12.39,12.39,0,0,0,5.35-2c3.27-1.95,4-2.8,5.07-5.63,1.54-4,3.35-5.07,3.35-5.07a20.12,20.12,0,0,0-5.66,3.91"/><path class="cls-3" d="M136.93,121.93a65.37,65.37,0,0,0,13.68,6.9c6.52,2.48,10.46.48,10.46,0.48s-2.47,2.42-4.88,2.82a16.2,16.2,0,0,1-8.61-.72c-6.48-2.79-9.18-5.4-12.53-6.64a38.81,38.81,0,0,0-11-2.59c-4.64-.58-12.92-2.26-12.92-2.26s6.85-.34,10.45-0.5c3.08-.14,4.25,1,6.95-0.41,0,0-2.33-.72-10.14-1.16-4.09-.23-9-0.07-12.56-1.25A73.19,73.19,0,0,1,92.65,111a52.32,52.32,0,0,1-12-9.38c-1.68-1.92-.79-3.11-0.06-3,1.24,0.09,12.17,8.69,17.39,10.61a81,81,0,0,0,15.28,4.19c5.25,0.83,7.51,1.37,8.26,1.28a26.68,26.68,0,0,0-4.88-3.49c-3-1.72-5.14-2.64-9.65-5.19-0.57-.32-4.35-2.12-8.92-4.81,0,0,7.19,1,19.65,7.25,3.81,1.91,13.62,9.72,19.22,13.48"/><path class="cls-3" d="M125.71,128.34a126.2,126.2,0,0,0-17.8,1c-8.06,1.2-7.11,1.08-11.64,1.79-15.21,2.38-24.93-4-24.93-4a33.16,33.16,0,0,0,9.94,5.57c4.54,1.69,9.88,3.12,14,2.9a53.22,53.22,0,0,0,13.87-2.7c7-2.51,8.78-1.91,8.78-1.91s-11.9,3.16-15.48,8c-3.9,5.34-4.93,7.32-8.59,9.52a34.14,34.14,0,0,1-6.3,2.9c-1.35.49-2.94,0.46-3.21,0.72a6.52,6.52,0,0,0-.12,1.52,54.2,54.2,0,0,0,19.32-3.83c4.19-1.7,7.25-7.25,11.32-11.66a77.34,77.34,0,0,1,10.88-9.85"/><path class="cls-4" d="M94.78,118.65A57.45,57.45,0,0,0,111.63,123c8.66,1.16,15.26,1.56,15.26,1.56s-18.84,5-26.7,2.9c-6-1.62-14.06-9.25-14.06-9.25s-4-4.67-4-7.38c0-1.38.57-1.53,0.57-1.53a35.92,35.92,0,0,0,12,9.37"/><path class="cls-3" d="M114.08,168.66s7.4-7.57,8.82-10.82c1-2.38,5.24-19.92,15.38-28-22.79,4.8-29.4,21.3-30.34,24.41a33.91,33.91,0,0,1-6.59,11.22c-0.38.35-1,.79-1.22,1.07s-0.41,2.59-.72,2.77c3.12-1,8.6-4.86,14.06-11.33,2.3-2.72,4-9.8,6-12.73a16.49,16.49,0,0,1,5.9-5.5s-4.24,3.12-6.06,13.47c-2.17,12-5.28,15.53-5.28,15.53"/><path class="cls-3" d="M100.85,187.45s-1.29-.89-0.77-4.21c0.23-1.45,1.66-2.67,2.84-3.67s7-4,11.64-5.57c3.85-1.27,10.36,0,15.78-.68s15.94-4,15.94-4-10.08,8.21-19.37,8.48c-5.17.16-13.36,1.1-16.56,2.7-6.52,3.25-9.48,6.93-9.48,6.93"/><path class="cls-4" d="M139.65,212.17a20.41,20.41,0,0,0,6.15-8.53c2.35-5.8,2.72-11.68,2.94-16.66a47.64,47.64,0,0,1,1.88-10.35s-3.77,5.51-7,9.27-5.61,9.19-5.8,11a12.69,12.69,0,0,1-2.25,5.8,7.15,7.15,0,0,0-1.45,3.3,26.08,26.08,0,0,0,4.93-3.85,14,14,0,0,0,2.7-3.4s0.51,4.58-.44,7.11c-2.35,6.17-1.74,6.36-1.74,6.36"/><path class="cls-3" d="M133.6,168s9-2.9,13.39-6.89a27.73,27.73,0,0,0,6.35-7.7,41,41,0,0,0,3.82-8.18,78,78,0,0,1-8.37,9.67c-5.45,5.07-9.5,2.55-9.5,2.55a11.21,11.21,0,0,1-1.17,5.07A15.46,15.46,0,0,1,133.6,168"/><path class="cls-3" d="M172.86,112.56s-4.09-3.57-5.29-6.3a32,32,0,0,1-2.23-5.51c-0.45-1.83-1.33-4.88-1.33-4.88s-1.55,4.6-1,7,0.55,4.66,2.17,6.28a24.38,24.38,0,0,0,5,4.19c2.44,1.52,8.3,2.79,8.3,2.79s-4.29-2-5.63-3.57"/><path class="cls-3" d="M232.08,198.27c-4.23,12.42-18.54,3-26.54,9.16,0.12-.1-1.64-2.8-1.45-3,8-6.16,22.32,3.86,27.26-7.64-0.14.33,0.8,1.12,0.72,1.45"/><path class="cls-3" d="M215.09,204.61c2.17,5.17-1.45,9.42-5.71,12.06-0.11.08-1.45-2.3-1.17-2.49,3.72-2.41,7.8-6.4,5.8-11.27-0.16-.39.2,0.28,0.22,0.34,0.21,0.46.59,0.15,0.8,0.63Z"/><path class="cls-3" d="M214.36,203.31c2,1.74,4.56,2.46,6.58,4.15,1.82,1.52,2.45,4.45,2.09,6.69-0.07.45-.91-0.85-0.93-0.9a3.93,3.93,0,0,1-.68-2c0.14-.93.29-1.17-0.3-1.6a10.93,10.93,0,0,0-1.57-.94,17,17,0,0,1-4.18-3.22c-0.49-.54-0.49-1.69-1-2.14"/><path class="cls-3" d="M256.44,197.69c-4.21,12.44-17.21,1.93-25.21,8.15,0.14-.11-3.62,0-3.36-0.22,10.87-9.51,23,2.12,27.87-9.42-0.14.34,0.81,1.14,0.72,1.45"/><path class="cls-3" d="M239.23,204.11c2.17,5.16-1.16,9.42-5.44,12-0.11.06-1.45-2.31-1.17-2.49,3.72-2.43,4.82-6.52,5.75-11.3,0.08-.41.19,0.3,0.21,0.35,0.23,0.46.44,0.93,0.66,1.4"/><path class="cls-3" d="M239.17,202.24c4.95,3.86,5.6,10.64,4.63,16.39,0,0-1.75-2-1.61-2.93a23.62,23.62,0,0,0,.32-4.18c0-3.3-1-4.52-2.75-6.61-0.5-.57-0.51-1.64-1-2.17Z"/><path class="cls-4" d="M229.92,137s2.72-3.92,13.9-7.72c9.53-3.23,10.62-14,10.62-14a12.32,12.32,0,0,1-1.19,10.1,13.53,13.53,0,0,1-5,4.61c3.43,1.16,6.52.45,8.22,0.45a11.35,11.35,0,0,1,6.41,1.77s-3,.66-6.81,1.4a26,26,0,0,1-9.72.19A25.63,25.63,0,0,0,238,134a22.46,22.46,0,0,0-8,3.05"/><path class="cls-4" d="M233.37,137.68c2.64-.62,9-1.49,12.32-0.4s3.93,2,6.43,2.59a26.31,26.31,0,0,0,6.06.51,16,16,0,0,1-4.72,2,15,15,0,0,1-10.06-1.82,28.26,28.26,0,0,0-10-2.9"/><path class="cls-4" d="M232.06,141.58s6.92,1.93,8.24,5.4c2.68,7,6.13,7.73,6.13,7.73s-5.68.45-7-4.59a12.51,12.51,0,0,0-3-5.3,16.58,16.58,0,0,1,2.09,6.4c0.51,8,4.8,10.06,4.8,10.06s-1.85.12-4.63-2.8c-2.17-2.27-2.62-3.38-4-12.32a6.51,6.51,0,0,0-2.56-4.56"/><path class="cls-3" d="M301,133.24c-8.08,3.42-19.32,2.9-19.32,2.9s17.94,2.17,25.1-1.7c5.5-3,12.09-9.17,14.42-14.26s0.45-6.16.45-6.16A42.92,42.92,0,0,1,301,133.26"/><path class="cls-4" d="M302.6,179.46a25.76,25.76,0,0,1-5.24-3.09,53.29,53.29,0,0,1-6.88-6.18c-1.7-1.95-3.24-5-6.86-12.83C277.88,144.84,271.41,142,269.3,142c11.35,0.78,25.36,3,33.33,20,1.91,4,6.88,8.31,9.42,11.1,0.56,0.55.46,2,1.09,2.65-3-.5-8.77-3.31-15.46-9.31-2.64-2.38-7-12.53-12.64-13.85A40.41,40.41,0,0,1,293.72,167c2,5.52,8.9,12.47,8.9,12.47"/><path class="cls-4" d="M314.15,194.06s1.14-1.11.19-4.35c-0.41-1.41-2-2.41-3.32-3.24a26.81,26.81,0,0,0-9.61-3c-4-.58-12.1,1.45-17.56,1.56S272,181.81,272,181.81s9.94,6.7,15.07,6.22,13.4-.72,16.77.41a29.54,29.54,0,0,1,10.32,5.62"/><path class="cls-4" d="M250.91,134.77a32.86,32.86,0,0,1,7.76,1.14,9.73,9.73,0,0,0,4.12,0,12.55,12.55,0,0,1-5.32,2.09c-3.73.75-4.85,0.62-7.51-.77-3.75-1.93-5.8-1.54-5.8-1.54a20.32,20.32,0,0,1,6.79-.88"/><path class="cls-4" d="M244.79,144.19a41.82,41.82,0,0,1,5.8,6,9.8,9.8,0,0,0,3.44,2.27s-7.43,1.59-13-7.25a28.13,28.13,0,0,0-3.32-4.6,27.15,27.15,0,0,1,7,3.62"/><path class="cls-4" d="M269.62,134a59.94,59.94,0,0,1-12.22,8.69,21.4,21.4,0,0,1-10.74,1.93s2.77,2.06,5.23,2.13a16.16,16.16,0,0,0,8.43-1.92c6-3.62,8.37-6.62,11.53-8.3,3.83-2.06,5.66-2.43,10.59-4.08a126.54,126.54,0,0,1,18.5-4.5s-8.59.22-12.16,0.56c-3.08.29-8.82,1.07-11.19,1.41,0,0,3.16-1.59,10.87-3.12,4-.78,7.79-0.72,11.16-2.25a93.74,93.74,0,0,0,12.91-7.4,37.06,37.06,0,0,0,10-10.72c1.45-2.17-.31-2-0.28-3.09-2.27,2.65-10.14,10.82-16.66,13.84a43.1,43.1,0,0,1-11.45,3.91c-4,.88-8.69,2.35-10.22,3.58,1-1.54,3.52-2.9,5.07-3.62,2.36-1.08,4.62-1.6,8.81-4.89,0.52-.41,3.38-4.76,7.53-8.06a54.14,54.14,0,0,0-9.09,3.62,72.81,72.81,0,0,0-8.59,5.3c-5.18,3.54-13,12.45-18,16.94"/><path class="cls-4" d="M281.59,138.86a69.24,69.24,0,0,1,13.86-1.1c8.16,0.09,11.37.95,15.94,0.59,12.14-.95,23.91-8.17,23.91-8.17a41.41,41.41,0,0,1-14.79,9.59c0.82,0.4,5.25,2.05,6.77,1.95,0.82-.28.35,1,0.9,1.72a34.33,34.33,0,0,1-7.74,1.34,56.86,56.86,0,0,1-11.1-.72c-12.55-2.85-18.9-3.66-18.9-3.66A34.05,34.05,0,0,1,301.12,144a76.07,76.07,0,0,1,8.85,5.65c1.66,1.35,2.12,3.8,6.59,5.21,2.83,0.88,4.79,1.83,8.92,1.84,0.54,0,.64,1.61.64,1.61s-15.66-.05-22.41-4.47c-7-4.57-10-8.95-12.58-10.58-6.86-4.43-9.55-4.35-9.55-4.35"/><path class="cls-4" d="M300.54,199.51s-6.19,1.87-11.37,1-6.61-1.57-9.87-3.43a68.11,68.11,0,0,1-14.41-11.66s2.71,3.56,18.84,6.82c0.88,0.19,2.71,5.55,13.37,6.09,2.53,0.12,4.46-1,4.58.1,0.05,0.5-1.17,1.07-1.17,1.07"/><path class="cls-4" d="M278.72,179.1s-10.3-2.17-13.82-4.85-3.89-2.67-6.64-6a69.86,69.86,0,0,1-5.57-8.35,76.67,76.67,0,0,0,9.59,8.42c6.06,4.3,9.75,1.22,9.75,1.22a11.3,11.3,0,0,0,1.83,4.9,14.49,14.49,0,0,0,4.85,4.64"/><path class="cls-4" d="M232.76,129.68s3.55-4.11,4.39-7A29.56,29.56,0,0,0,238.6,117c0.19-1.85.67-5.07,0.67-5.07s1.88,4.35,2,6.81c0.09,2.75.27,4.68-1.15,6.52a25.23,25.23,0,0,1-4.57,4.84,19.65,19.65,0,0,1-6.25,2.9,15,15,0,0,0,3.5-3.27"/><path class="cls-1" d="M188.28,122.6a1.59,1.59,0,0,0-.78-1.93,1.82,1.82,0,0,0-1.8.08,1.54,1.54,0,0,0,.92,1.45,2.32,2.32,0,0,0,1.65.4"/><path class="cls-1" d="M221.12,135.08A1.55,1.55,0,0,0,219.4,134a1.91,1.91,0,0,0-1.45,1.13,1.52,1.52,0,0,0,1.59.66,2.17,2.17,0,0,0,1.54-.66"/><path class="cls-2" d="M230,199.52c0.13-.21.28-0.43,0.41-0.67a1.41,1.41,0,0,0-.41.67"/><path class="cls-2" d="M287.09,188h0"/><path class="cls-3" d="M259.53,227.5s0.57-.07,1.74-1.73a21.89,21.89,0,0,0,2.9-5.07,42.16,42.16,0,0,0,2.93-18.56A53.27,53.27,0,0,0,264,187.36a32.89,32.89,0,0,1,7.34,13.77c0.64,2.54,3.09,13.48-2.61,20.25a26.36,26.36,0,0,1-7.09,6.14,4.27,4.27,0,0,1-1.54.65,0.6,0.6,0,0,1-.53-0.65"/><path class="cls-3" d="M115.5,191.09c-1.85-.36-1.83-1-1.83-1-0.21-.1.19-0.36,1.83-0.47a23.47,23.47,0,0,0,9.67-2.54,13.47,13.47,0,0,0,5.42-5.34,16.29,16.29,0,0,1,6.91-4.58c3-1,8.51-.22,8.51-0.22a21,21,0,0,0-8.85,5.56c-4.27,4.41-4.94,6.09-8,7.06s-6.27,2.12-10.87,1.77c-1.22-.09-2.17-0.09-2.85-0.22"/></svg>