<?xml version="1.0" encoding="utf-8"?>
<!-- Generator: Adobe Illustrator 19.2.1, SVG Export Plug-In . SVG Version: 6.00 Build 0)  -->
<svg version="1.1" id="Layer_1" xmlns="http://www.w3.org/2000/svg" xmlns:xlink="http://www.w3.org/1999/xlink" x="0px" y="0px"
	 viewBox="0 0 600 300" style="enable-background:new 0 0 600 300;" xml:space="preserve">
<style type="text/css">
	.st0{fill:#00AEEF;}
	.st1{fill-rule:evenodd;clip-rule:evenodd;fill:#00AEEF;}
</style>
<g>
	<g>
		<g>
			<path class="st0" d="M104.3,252.2v-16.1h11.6v1.9h-9.5v4.9h8.9v1.9h-8.9v5.5h9.9v1.9H104.3z"/>
			<path class="st0" d="M118.9,252.2v-16.1h2v16.1H118.9z"/>
			<path class="st0" d="M130.5,252.2v-16.1h11.6v1.9h-9.5v4.9h8.9v1.9h-8.9v5.5h9.9v1.9H130.5z"/>
			<path class="st0" d="M143.9,252.2l4.3-6.1l-3.9-5.6h2.5l1.8,2.7c0.3,0.5,0.6,1,0.8,1.3c0.3-0.5,0.6-0.9,0.9-1.3l2-2.8h2.4l-4,5.5
				l4.3,6.2h-2.4l-2.4-3.6l-0.6-1l-3.1,4.6H143.9z"/>
			<path class="st0" d="M156.5,256.7v-16.1h1.8v1.5c0.4-0.6,0.9-1,1.4-1.3c0.5-0.3,1.2-0.4,1.9-0.4c1,0,1.9,0.3,2.6,0.8
				c0.8,0.5,1.3,1.2,1.7,2.2c0.4,0.9,0.6,2,0.6,3.1c0,1.2-0.2,2.3-0.6,3.2c-0.4,1-1.1,1.7-1.9,2.2c-0.8,0.5-1.7,0.8-2.6,0.8
				c-0.7,0-1.3-0.1-1.8-0.4c-0.5-0.3-1-0.6-1.3-1.1v5.7H156.5z M158.3,246.5c0,1.5,0.3,2.6,0.9,3.3c0.6,0.7,1.3,1.1,2.2,1.1
				c0.9,0,1.6-0.4,2.3-1.1c0.6-0.7,0.9-1.9,0.9-3.5c0-1.5-0.3-2.6-0.9-3.3c-0.6-0.7-1.3-1.1-2.2-1.1c-0.8,0-1.6,0.4-2.2,1.2
				C158.6,243.8,158.3,245,158.3,246.5z"/>
			<path class="st0" d="M177,248.5l2,0.3c-0.3,1.2-0.9,2.1-1.8,2.8c-0.9,0.7-2,1-3.3,1c-1.7,0-3.1-0.5-4.1-1.6c-1-1-1.5-2.5-1.5-4.4
				c0-2,0.5-3.5,1.5-4.6c1-1.1,2.3-1.6,3.9-1.6c1.6,0,2.8,0.5,3.8,1.6c1,1.1,1.5,2.6,1.5,4.5c0,0.1,0,0.3,0,0.5h-8.7
				c0.1,1.3,0.4,2.3,1.1,2.9c0.7,0.7,1.5,1,2.4,1c0.7,0,1.3-0.2,1.9-0.6C176.3,249.9,176.7,249.3,177,248.5z M170.5,245.3h6.5
				c-0.1-1-0.3-1.7-0.7-2.2c-0.6-0.8-1.4-1.1-2.5-1.1c-0.9,0-1.7,0.3-2.3,0.9C170.9,243.4,170.6,244.2,170.5,245.3z"/>
			<path class="st0" d="M181.5,252.2v-11.7h1.8v1.8c0.5-0.8,0.9-1.4,1.3-1.6c0.4-0.3,0.8-0.4,1.3-0.4c0.7,0,1.3,0.2,2,0.6l-0.7,1.8
				c-0.5-0.3-1-0.4-1.5-0.4c-0.4,0-0.8,0.1-1.2,0.4c-0.3,0.3-0.6,0.6-0.7,1.1c-0.2,0.7-0.3,1.5-0.3,2.3v6.1H181.5z"/>
			<path class="st0" d="M193.3,250.5l0.3,1.7c-0.6,0.1-1.1,0.2-1.5,0.2c-0.7,0-1.3-0.1-1.7-0.3c-0.4-0.2-0.7-0.5-0.8-0.9
				c-0.2-0.4-0.2-1.1-0.2-2.3v-6.7h-1.4v-1.5h1.4v-2.9l2-1.2v4.1h2v1.5h-2v6.8c0,0.6,0,0.9,0.1,1.1c0.1,0.2,0.2,0.3,0.3,0.4
				c0.2,0.1,0.4,0.1,0.7,0.1C192.7,250.5,193,250.5,193.3,250.5z"/>
			<path class="st0" d="M194.5,246.4c0-2.2,0.6-3.8,1.8-4.8c1-0.9,2.2-1.3,3.7-1.3c1.6,0,2.9,0.5,3.9,1.6c1,1,1.5,2.5,1.5,4.4
				c0,1.5-0.2,2.7-0.7,3.5c-0.5,0.9-1.1,1.5-2,2c-0.9,0.5-1.8,0.7-2.8,0.7c-1.6,0-3-0.5-4-1.6C195,249.9,194.5,248.4,194.5,246.4z
				 M196.6,246.4c0,1.5,0.3,2.6,1,3.4c0.7,0.7,1.5,1.1,2.5,1.1c1,0,1.8-0.4,2.5-1.1c0.7-0.7,1-1.9,1-3.4c0-1.4-0.3-2.5-1-3.3
				c-0.7-0.7-1.5-1.1-2.4-1.1c-1,0-1.8,0.4-2.5,1.1C196.9,243.8,196.6,244.9,196.6,246.4z"/>
			<path class="st0" d="M222,248.5l2,0.3c-0.3,1.2-0.9,2.1-1.8,2.8c-0.9,0.7-2,1-3.3,1c-1.7,0-3.1-0.5-4.1-1.6c-1-1-1.5-2.5-1.5-4.4
				c0-2,0.5-3.5,1.5-4.6c1-1.1,2.3-1.6,3.9-1.6c1.6,0,2.8,0.5,3.8,1.6c1,1.1,1.5,2.6,1.5,4.5c0,0.1,0,0.3,0,0.5h-8.7
				c0.1,1.3,0.4,2.3,1.1,2.9c0.7,0.7,1.5,1,2.4,1c0.7,0,1.3-0.2,1.9-0.6C221.3,249.9,221.7,249.3,222,248.5z M215.5,245.3h6.5
				c-0.1-1-0.3-1.7-0.7-2.2c-0.6-0.8-1.4-1.1-2.5-1.1c-0.9,0-1.7,0.3-2.3,0.9C215.9,243.4,215.6,244.2,215.5,245.3z"/>
			<path class="st0" d="M226.5,252.2v-11.7h1.8v1.7c0.9-1.3,2.1-1.9,3.7-1.9c0.7,0,1.4,0.1,1.9,0.4c0.6,0.2,1,0.6,1.3,1
				c0.3,0.4,0.5,0.9,0.6,1.5c0.1,0.4,0.1,1,0.1,1.9v7.2h-2v-7.1c0-0.8-0.1-1.4-0.2-1.8c-0.2-0.4-0.4-0.7-0.8-1
				c-0.4-0.2-0.9-0.4-1.4-0.4c-0.8,0-1.6,0.3-2.2,0.8c-0.6,0.5-0.9,1.5-0.9,3v6.4H226.5z"/>
			<path class="st0" d="M245.5,252.2v-16.1h2.2l8.5,12.6v-12.6h2v16.1h-2.2l-8.5-12.7v12.7H245.5z"/>
			<path class="st0" d="M269.2,252.2v-1.7c-0.9,1.3-2.1,2-3.7,2c-0.7,0-1.3-0.1-1.9-0.4c-0.6-0.3-1-0.6-1.3-1
				c-0.3-0.4-0.5-0.9-0.6-1.5c-0.1-0.4-0.1-1-0.1-1.8v-7.2h2v6.5c0,1,0,1.7,0.1,2.1c0.1,0.5,0.4,0.9,0.8,1.2
				c0.4,0.3,0.9,0.4,1.5,0.4c0.6,0,1.1-0.2,1.7-0.5c0.5-0.3,0.9-0.7,1.1-1.2c0.2-0.5,0.3-1.3,0.3-2.3v-6.3h2v11.7H269.2z"/>
			<path class="st0" d="M278.4,250.5l0.3,1.7c-0.6,0.1-1.1,0.2-1.5,0.2c-0.7,0-1.3-0.1-1.7-0.3c-0.4-0.2-0.7-0.5-0.8-0.9
				c-0.2-0.4-0.2-1.1-0.2-2.3v-6.7H273v-1.5h1.5v-2.9l2-1.2v4.1h2v1.5h-2v6.8c0,0.6,0,0.9,0.1,1.1c0.1,0.2,0.2,0.3,0.3,0.4
				c0.2,0.1,0.4,0.1,0.7,0.1C277.8,250.5,278,250.5,278.4,250.5z"/>
			<path class="st0" d="M280.3,252.2v-11.7h1.8v1.8c0.5-0.8,0.9-1.4,1.3-1.6c0.4-0.3,0.8-0.4,1.3-0.4c0.7,0,1.3,0.2,2,0.6l-0.7,1.8
				c-0.5-0.3-1-0.4-1.5-0.4c-0.4,0-0.8,0.1-1.2,0.4c-0.3,0.3-0.6,0.6-0.7,1.1c-0.2,0.7-0.3,1.5-0.3,2.3v6.1H280.3z"/>
			<path class="st0" d="M287.8,238.4v-2.3h2v2.3H287.8z M287.8,252.2v-11.7h2v11.7H287.8z"/>
			<path class="st0" d="M300.4,247.9l1.9,0.3c-0.2,1.3-0.8,2.4-1.6,3.1c-0.9,0.8-1.9,1.1-3.2,1.1c-1.6,0-2.9-0.5-3.8-1.6
				c-1-1-1.5-2.5-1.5-4.5c0-1.3,0.2-2.4,0.6-3.3c0.4-0.9,1.1-1.7,1.9-2.1c0.9-0.5,1.8-0.7,2.8-0.7c1.3,0,2.3,0.3,3.1,1
				c0.8,0.6,1.3,1.5,1.5,2.7l-1.9,0.3c-0.2-0.8-0.5-1.4-1-1.8c-0.5-0.4-1-0.6-1.7-0.6c-1,0-1.8,0.4-2.4,1.1
				c-0.6,0.7-0.9,1.8-0.9,3.4c0,1.6,0.3,2.7,0.9,3.4c0.6,0.7,1.4,1.1,2.4,1.1c0.8,0,1.4-0.2,1.9-0.7
				C300,249.7,300.3,248.9,300.4,247.9z"/>
			<path class="st0" d="M304.1,238.4v-2.3h2v2.3H304.1z M304.1,252.2v-11.7h2v11.7H304.1z"/>
			<path class="st0" d="M308.3,246.4c0-2.2,0.6-3.8,1.8-4.8c1-0.9,2.2-1.3,3.7-1.3c1.6,0,2.9,0.5,3.9,1.6c1,1,1.5,2.5,1.5,4.4
				c0,1.5-0.2,2.7-0.7,3.5c-0.4,0.9-1.1,1.5-2,2c-0.9,0.5-1.8,0.7-2.8,0.7c-1.6,0-3-0.5-4-1.6C308.8,249.9,308.3,248.4,308.3,246.4z
				 M310.4,246.4c0,1.5,0.3,2.6,1,3.4c0.6,0.7,1.5,1.1,2.5,1.1c1,0,1.8-0.4,2.4-1.1c0.7-0.7,1-1.9,1-3.4c0-1.4-0.3-2.5-1-3.3
				c-0.7-0.7-1.5-1.1-2.4-1.1c-1,0-1.8,0.4-2.5,1.1C310.7,243.8,310.4,244.9,310.4,246.4z M312.7,239.1l1.5-3.1h2.6l-2.4,3.1H312.7z
				"/>
			<path class="st0" d="M321.6,252.2v-11.7h1.8v1.7c0.9-1.3,2.1-1.9,3.7-1.9c0.7,0,1.3,0.1,1.9,0.4c0.6,0.2,1,0.6,1.3,1
				c0.3,0.4,0.5,0.9,0.6,1.5c0.1,0.4,0.1,1,0.1,1.9v7.2h-2v-7.1c0-0.8-0.1-1.4-0.2-1.8c-0.2-0.4-0.4-0.7-0.8-1
				c-0.4-0.2-0.9-0.4-1.4-0.4c-0.8,0-1.6,0.3-2.2,0.8c-0.6,0.5-0.9,1.5-0.9,3v6.4H321.6z"/>
			<path class="st0" d="M340.3,256.7l-0.2-1.9c0.4,0.1,0.8,0.2,1.1,0.2c0.4,0,0.8-0.1,1.1-0.2c0.3-0.1,0.5-0.4,0.6-0.6
				c0.1-0.2,0.3-0.7,0.6-1.5c0-0.1,0.1-0.3,0.2-0.5l-4.4-11.7h2.1l2.4,6.8c0.3,0.9,0.6,1.8,0.8,2.7c0.2-0.9,0.5-1.8,0.8-2.7l2.5-6.8
				h2l-4.4,11.9c-0.5,1.3-0.8,2.2-1.1,2.6c-0.3,0.6-0.8,1.1-1.2,1.4c-0.5,0.3-1,0.5-1.6,0.5C341.2,257,340.7,256.9,340.3,256.7z"/>
			<path class="st0" d="M357.4,247l2-0.2c0.1,0.8,0.3,1.5,0.7,2c0.3,0.5,0.9,0.9,1.6,1.2c0.7,0.3,1.6,0.5,2.5,0.5
				c0.8,0,1.5-0.1,2.2-0.4c0.6-0.2,1.1-0.6,1.4-1c0.3-0.4,0.5-0.9,0.5-1.4c0-0.5-0.1-1-0.4-1.3c-0.3-0.4-0.8-0.7-1.4-1
				c-0.4-0.2-1.4-0.4-2.9-0.8c-1.5-0.4-2.5-0.7-3.1-1c-0.8-0.4-1.3-0.9-1.7-1.5c-0.4-0.6-0.6-1.3-0.6-2c0-0.8,0.2-1.6,0.7-2.3
				c0.5-0.7,1.1-1.2,2-1.6c0.9-0.4,1.9-0.6,3-0.6c1.2,0,2.2,0.2,3.2,0.6c0.9,0.4,1.6,1,2.1,1.7c0.5,0.7,0.8,1.6,0.8,2.5l-2,0.2
				c-0.1-1-0.5-1.8-1.1-2.3c-0.6-0.5-1.6-0.8-2.8-0.8c-1.3,0-2.2,0.2-2.8,0.7c-0.6,0.5-0.9,1-0.9,1.7c0,0.6,0.2,1.1,0.6,1.4
				c0.4,0.4,1.5,0.8,3.2,1.1c1.7,0.4,2.9,0.7,3.6,1c0.9,0.4,1.6,1,2.1,1.6c0.4,0.7,0.7,1.4,0.7,2.3c0,0.9-0.2,1.7-0.7,2.4
				c-0.5,0.8-1.2,1.3-2.1,1.8c-0.9,0.4-2,0.6-3.1,0.6c-1.5,0-2.7-0.2-3.7-0.6c-1-0.4-1.8-1.1-2.3-1.9
				C357.7,249.1,357.4,248.1,357.4,247z"/>
			<path class="st0" d="M380.5,250.8c-0.7,0.6-1.4,1.1-2.1,1.3c-0.7,0.3-1.4,0.4-2.2,0.4c-1.3,0-2.3-0.3-3-0.9c-0.7-0.6-1-1.4-1-2.4
				c0-0.6,0.1-1.1,0.4-1.6c0.3-0.5,0.6-0.9,1-1.1c0.4-0.3,0.9-0.5,1.4-0.7c0.4-0.1,1-0.2,1.8-0.3c1.6-0.2,2.8-0.4,3.5-0.7
				c0-0.3,0-0.4,0-0.5c0-0.8-0.2-1.4-0.6-1.7c-0.5-0.4-1.3-0.7-2.3-0.7c-0.9,0-1.6,0.2-2.1,0.5c-0.4,0.3-0.8,0.9-1,1.7l-1.9-0.3
				c0.2-0.8,0.5-1.5,0.9-2c0.4-0.5,1-0.9,1.7-1.2c0.8-0.3,1.6-0.4,2.6-0.4c1,0,1.8,0.1,2.4,0.4c0.6,0.2,1.1,0.5,1.4,0.9
				c0.3,0.4,0.5,0.8,0.6,1.3c0.1,0.3,0.1,0.9,0.1,1.8v2.6c0,1.8,0,3,0.1,3.5c0.1,0.5,0.3,1,0.5,1.4h-2.1
				C380.7,251.8,380.5,251.3,380.5,250.8z M380.3,246.4c-0.7,0.3-1.8,0.5-3.2,0.7c-0.8,0.1-1.4,0.2-1.7,0.4
				c-0.3,0.1-0.6,0.4-0.8,0.6c-0.2,0.3-0.3,0.6-0.3,0.9c0,0.5,0.2,1,0.6,1.3c0.4,0.4,1,0.5,1.8,0.5c0.8,0,1.4-0.2,2-0.5
				c0.6-0.3,1-0.8,1.3-1.4c0.2-0.4,0.3-1.1,0.3-2V246.4z"/>
			<path class="st0" d="M385.3,252.2v-16.1h2v16.1H385.3z"/>
			<path class="st0" d="M398,252.2v-1.7c-0.9,1.3-2.1,2-3.7,2c-0.7,0-1.3-0.1-1.9-0.4c-0.6-0.3-1-0.6-1.3-1
				c-0.3-0.4-0.5-0.9-0.6-1.5c-0.1-0.4-0.1-1-0.1-1.8v-7.2h2v6.5c0,1,0,1.7,0.1,2.1c0.1,0.5,0.4,0.9,0.8,1.2
				c0.4,0.3,0.9,0.4,1.5,0.4c0.6,0,1.2-0.2,1.7-0.5c0.5-0.3,0.9-0.7,1.1-1.2c0.2-0.5,0.3-1.3,0.3-2.3v-6.3h2v11.7H398z"/>
			<path class="st0" d="M410.5,252.2v-1.5c-0.7,1.2-1.8,1.7-3.3,1.7c-0.9,0-1.8-0.3-2.6-0.8c-0.8-0.5-1.4-1.2-1.8-2.1
				c-0.4-0.9-0.6-2-0.6-3.2c0-1.2,0.2-2.2,0.6-3.2c0.4-0.9,1-1.7,1.7-2.2c0.8-0.5,1.6-0.8,2.6-0.8c0.7,0,1.3,0.1,1.9,0.4
				c0.5,0.3,1,0.7,1.3,1.2v-5.8h2v16.1H410.5z M404.2,246.4c0,1.5,0.3,2.6,0.9,3.4c0.6,0.7,1.4,1.1,2.2,1.1c0.9,0,1.6-0.4,2.2-1.1
				c0.6-0.7,0.9-1.8,0.9-3.2c0-1.6-0.3-2.8-0.9-3.5c-0.6-0.7-1.4-1.1-2.3-1.1c-0.9,0-1.6,0.4-2.2,1.1
				C404.5,243.7,404.2,244.9,404.2,246.4z"/>
			<path class="st0" d="M418.9,252.2l6.2-16.1h2.3l6.6,16.1h-2.4l-1.9-4.9h-6.7l-1.8,4.9H418.9z M423.5,245.6h5.5l-1.7-4.5
				c-0.5-1.4-0.9-2.5-1.1-3.3c-0.2,1-0.5,2.1-0.9,3.1L423.5,245.6z"/>
			<path class="st0" d="M435.4,252.2v-11.7h1.8v1.7c0.9-1.3,2.1-1.9,3.7-1.9c0.7,0,1.3,0.1,1.9,0.4c0.6,0.2,1,0.6,1.3,1
				c0.3,0.4,0.5,0.9,0.6,1.5c0.1,0.4,0.1,1,0.1,1.9v7.2h-2v-7.1c0-0.8-0.1-1.4-0.2-1.8c-0.2-0.4-0.4-0.7-0.8-1
				c-0.4-0.2-0.9-0.4-1.4-0.4c-0.8,0-1.6,0.3-2.2,0.8c-0.6,0.5-0.9,1.5-0.9,3v6.4H435.4z"/>
			<path class="st0" d="M447.9,238.4v-2.3h2v2.3H447.9z M447.9,252.2v-11.7h2v11.7H447.9z"/>
			<path class="st0" d="M452.9,252.2v-11.7h1.8v1.6c0.4-0.6,0.9-1,1.5-1.4c0.6-0.3,1.3-0.5,2.1-0.5c0.9,0,1.6,0.2,2.1,0.5
				c0.6,0.4,0.9,0.9,1.2,1.5c0.9-1.4,2.1-2,3.6-2c1.2,0,2,0.3,2.7,1c0.6,0.6,0.9,1.6,0.9,3v8h-2v-7.3c0-0.8-0.1-1.4-0.2-1.7
				c-0.1-0.3-0.4-0.6-0.7-0.8c-0.3-0.2-0.7-0.3-1.2-0.3c-0.8,0-1.5,0.3-2,0.8c-0.5,0.5-0.8,1.4-0.8,2.6v6.8h-2v-7.6
				c0-0.9-0.2-1.5-0.5-2c-0.3-0.4-0.8-0.7-1.6-0.7c-0.6,0-1.1,0.1-1.5,0.4c-0.5,0.3-0.8,0.7-1,1.3c-0.2,0.6-0.3,1.4-0.3,2.4v6.1
				H452.9z"/>
			<path class="st0" d="M479.3,250.8c-0.7,0.6-1.4,1.1-2.1,1.3c-0.7,0.3-1.4,0.4-2.2,0.4c-1.3,0-2.3-0.3-3-0.9c-0.7-0.6-1-1.4-1-2.4
				c0-0.6,0.1-1.1,0.4-1.6c0.3-0.5,0.6-0.9,1-1.1c0.4-0.3,0.9-0.5,1.4-0.7c0.4-0.1,1-0.2,1.8-0.3c1.6-0.2,2.8-0.4,3.5-0.7
				c0-0.3,0-0.4,0-0.5c0-0.8-0.2-1.4-0.6-1.7c-0.5-0.4-1.3-0.7-2.3-0.7c-0.9,0-1.6,0.2-2.1,0.5c-0.4,0.3-0.8,0.9-1,1.7l-1.9-0.3
				c0.2-0.8,0.5-1.5,0.9-2c0.4-0.5,1-0.9,1.7-1.2c0.8-0.3,1.6-0.4,2.6-0.4c1,0,1.8,0.1,2.4,0.4c0.6,0.2,1.1,0.5,1.4,0.9
				c0.3,0.4,0.5,0.8,0.6,1.3c0.1,0.3,0.1,0.9,0.1,1.8v2.6c0,1.8,0,3,0.1,3.5c0.1,0.5,0.3,1,0.5,1.4h-2.1
				C479.5,251.8,479.3,251.3,479.3,250.8z M479.1,246.4c-0.7,0.3-1.8,0.5-3.2,0.7c-0.8,0.1-1.4,0.2-1.7,0.4
				c-0.3,0.1-0.6,0.4-0.8,0.6c-0.2,0.3-0.3,0.6-0.3,0.9c0,0.5,0.2,1,0.6,1.3c0.4,0.4,1,0.5,1.8,0.5c0.8,0,1.4-0.2,2-0.5
				c0.6-0.3,1-0.8,1.3-1.4c0.2-0.4,0.3-1.1,0.3-2V246.4z"/>
			<path class="st0" d="M484.1,252.2v-16.1h2v16.1H484.1z"/>
		</g>
		<g>
			<path class="st0" d="M495.8,249.6c0,1.6-1.3,2.9-2.9,2.9c-1.6,0-2.9-1.3-2.9-2.9c0-1.6,1.3-2.8,2.9-2.8
				C494.5,246.7,495.8,248,495.8,249.6z M490.7,249.6c0,1.3,1,2.3,2.2,2.3c1.2,0,2.2-1,2.2-2.3c0-1.3-0.9-2.3-2.2-2.3
				C491.7,247.3,490.7,248.3,490.7,249.6z M492.5,251.1h-0.7v-2.8c0.3,0,0.6-0.1,1.1-0.1c0.5,0,0.8,0.1,1,0.2
				c0.2,0.1,0.3,0.3,0.3,0.6c0,0.3-0.3,0.6-0.6,0.7v0c0.3,0.1,0.4,0.3,0.5,0.7c0.1,0.4,0.2,0.6,0.2,0.7h-0.7
				c-0.1-0.1-0.1-0.3-0.2-0.7c-0.1-0.3-0.2-0.4-0.6-0.4h-0.3V251.1z M492.5,249.5h0.3c0.4,0,0.7-0.1,0.7-0.4c0-0.3-0.2-0.4-0.6-0.4
				c-0.2,0-0.3,0-0.4,0V249.5z"/>
		</g>
	</g>
	<g>
		<g>
			<g>
				<path class="st0" d="M295.4,153.7c-24.6,0-44.6-20-44.6-44.6c0-13.8,6.2-26.6,17-35.1c1.2-1,3-0.8,4,0.5c1,1.2,0.8,3-0.5,4
					c-9.5,7.4-14.9,18.6-14.9,30.6c0,21.5,17.5,39,39,39c21.5,0,39-17.5,39-39c0-12.3-5.9-24-15.8-31.3c-1.3-0.9-1.5-2.7-0.6-3.9
					c0.9-1.3,2.7-1.5,3.9-0.6c11.3,8.4,18,21.8,18,35.8C340,133.7,320,153.7,295.4,153.7L295.4,153.7z"/>
			</g>
			<path class="st0" d="M311.6,60.3C311.6,60.3,311.6,60.3,311.6,60.3c-1.6,0-2.8,1.3-2.8,2.8c0,2.3,0,5.3,0,8.7
				c-0.2,0.1-0.3,0.2-0.5,0.4l-4.6,4.6v-23c0-1.6-1.3-2.8-2.8-2.8c-1.6,0-2.8,1.3-2.8,2.8v28.6l-3.1,3.1l-1.5-1.5V47.4
				c0-1.6-1.3-2.8-2.8-2.8c-1.6,0-2.8,1.3-2.8,2.8v30.9l-6.2-6.2c-0.1-0.1-0.2-0.1-0.3-0.2c0-5.6,0-10.3,0-12.2c0-0.7,0-1.4,0-2
				c0-1.6-1.2-2.8-2.8-2.8c0,0,0,0,0,0c-1.6,0-2.8,1.3-2.8,2.8c0,0.4,0,0.7,0,1.1h0c0,0,0,0.3,0,0.9c0,0.1,0,0.2,0,0.3h0
				c0,6.5,0.1,37.4,0.1,42.6c0,5,2.6,8.3,4,9.5l12.2,10.5v20c0,1.6,1.3,2.8,2.8,2.8c1.6,0,2.8-1.3,2.8-2.8v-19.7l12.5-10.7
				c1.5-1.2,4.1-4.6,4.1-9.5c0-4.6,0.1-29.4,0.1-39.5C314.5,61.6,313.2,60.3,311.6,60.3z M308.8,79.7c0,3.1,0,6.3,0,9.2
				c-0.1,0.1-0.3,0.2-0.4,0.3l-10.6,10.6v-9.1L308.8,79.7z M292.1,90.6v9.1l-10.4-10.4c-0.1-0.1-0.1-0.1-0.2-0.2c0-2.9,0-6.1,0-9.2
				L292.1,90.6z M283.5,107.8c0,0-2-1.7-2-5.1c0-1,0-3,0-5.5l10.6,10.6v7.5L283.5,107.8z M306.6,107.8l-8.9,7.6l0-7.6l11-11
				c0,2.7,0,4.7,0,5.7C308.7,106,306.7,107.7,306.6,107.8z"/>
		</g>
		<g>
			<g>
				<path class="st0" d="M495.8,210.7c0,1.6-1.3,2.9-2.9,2.9c-1.6,0-2.9-1.3-2.9-2.9c0-1.6,1.3-2.8,2.9-2.8
					C494.5,207.8,495.8,209.1,495.8,210.7z M490.7,210.7c0,1.3,1,2.3,2.2,2.3c1.2,0,2.2-1,2.2-2.3c0-1.3-0.9-2.3-2.2-2.3
					C491.7,208.4,490.7,209.4,490.7,210.7z M492.5,212.2h-0.7v-2.8c0.3,0,0.6-0.1,1.1-0.1c0.5,0,0.8,0.1,1,0.2
					c0.2,0.1,0.3,0.3,0.3,0.6c0,0.3-0.3,0.6-0.6,0.7v0c0.3,0.1,0.4,0.3,0.5,0.7c0.1,0.4,0.2,0.6,0.2,0.7h-0.7
					c-0.1-0.1-0.1-0.3-0.2-0.7c-0.1-0.3-0.2-0.4-0.6-0.4h-0.3V212.2z M492.5,210.6h0.3c0.4,0,0.7-0.1,0.7-0.4c0-0.3-0.2-0.4-0.6-0.4
					c-0.2,0-0.3,0-0.4,0V210.6z"/>
			</g>
			<g>
				<g>
					<path class="st0" d="M153.4,182.7c-1.3-1.4-2.7-2.5-4.2-3.1c-1.5-0.6-3.1-0.9-4.7-0.9c-2.4,0-4.6,0.5-6.5,1.4
						c-1.7,0.9-3.2,2.2-4.4,4c-0.7-1.5-1.7-2.7-3-3.7c-1.7-1.1-4-1.7-6.7-1.7c-2.9,0-5.3,0.7-7.2,2c-0.9,0.7-1.9,1.7-2.9,3.1v-4.3
						h-9.5v33.7h9.9V193c0-1.8,0.2-3.1,0.7-4c0.9-1.5,2.6-2.3,5.1-2.3c2.2,0,3.6,0.7,4.4,2.3c0.4,0.9,0.6,2.3,0.6,4.2v20.1h9.8
						v-20.1c0-1.4,0.2-2.7,0.7-3.7c0.9-1.9,2.6-2.9,5.1-2.9c2.1,0,3.6,0.7,4.4,2.2c0.4,0.8,0.6,1.8,0.6,3v21.5h10l0.1-21.2
						c0-2.2-0.1-3.8-0.3-5C155.1,185.3,154.4,183.8,153.4,182.7z"/>
					<path class="st0" d="M192.3,210.6c-0.3-0.4-0.4-1.1-0.5-2.2c0-1.5-0.1-2.8-0.1-3.8v-15.3c0-4.1-1.6-6.9-4.7-8.4
						c-3.1-1.5-6.6-2.2-10.5-2.2c-6.1,0-10.4,1.5-12.9,4.5c-1.6,1.9-2.5,4.4-2.7,7.3l0,0.3h9.4l0-0.2c0.2-1.2,0.6-2.2,1.3-2.9
						c0.9-1,2.4-1.4,4.6-1.4c1.9,0,3.4,0.3,4.4,0.8c0.9,0.5,1.4,1.3,1.4,2.6c0,1-0.6,1.8-1.9,2.3c-0.7,0.3-1.9,0.5-3.7,0.7l-3.2,0.4
						c-3.6,0.4-6.4,1.2-8.3,2.2c-3.5,1.9-5.2,4.9-5.2,9.1c0,3.2,1.1,5.7,3.3,7.5c2.1,1.8,4.9,2.6,8.2,2.6c2.6,0,4.9-0.6,6.9-1.7
						c1.5-0.8,2.9-1.9,4.2-3c0.1,0.6,0.1,1.1,0.2,1.5c0.1,0.6,0.3,1.3,0.6,1.9l0.1,0.1h10.5v-1.7l-0.1-0.1
						C193,211.3,192.6,211,192.3,210.6z M182,197.2v2.8c-0.1,2.8-0.9,4.8-2.6,5.8c-1.7,1.1-3.5,1.6-5.5,1.6c-1.2,0-2.3-0.3-3.1-0.9
						c-0.8-0.6-1.2-1.6-1.2-3c0-1.6,0.7-2.7,2.1-3.5c0.8-0.5,2.3-0.8,4.2-1.2l2.1-0.4c1.1-0.2,1.9-0.4,2.5-0.6
						C181,197.7,181.5,197.5,182,197.2z"/>
					<rect x="196.9" y="170.4" class="st0" width="9.8" height="42.8"/>
					<path class="st0" d="M224.6,170.5h-9.7v9.3h-5v6.7h5v20.3c0,2.1,0.6,3.7,1.6,4.8c1.5,1.5,4.2,2.2,8.1,2.2c0.3,0,0.7,0,1.1,0
						l4.6-0.2v-7l-0.3,0c-0.3,0-0.6,0-0.9,0c-0.3,0-0.6,0-0.9,0c-2.4,0-3.1-0.3-3.2-0.4c-0.2-0.2-0.5-0.8-0.5-2.4v-17.4h5.8v-6.7
						h-5.8V170.5z"/>
					<path class="st0" d="M266.5,211.5c-0.6-0.2-1-0.6-1.3-0.9c-0.3-0.4-0.4-1.1-0.5-2.2c0-1.5-0.1-2.8-0.1-3.8v-15.3
						c0-4.1-1.6-6.9-4.7-8.4c-3.1-1.5-6.6-2.2-10.5-2.2c-6.1,0-10.4,1.5-12.9,4.5c-1.6,1.9-2.5,4.4-2.7,7.3l0,0.3h9.4l0-0.2
						c0.2-1.2,0.6-2.2,1.3-2.9c0.9-1,2.4-1.4,4.6-1.4c1.9,0,3.4,0.3,4.4,0.8c0.9,0.5,1.4,1.3,1.4,2.6c0,1-0.6,1.8-1.9,2.3
						c-0.7,0.3-1.9,0.5-3.7,0.7l-3.2,0.4c-3.6,0.4-6.4,1.2-8.3,2.2c-3.5,1.9-5.2,4.9-5.2,9.1c0,3.2,1.1,5.7,3.3,7.5
						c2.1,1.8,4.9,2.6,8.2,2.6c2.6,0,4.9-0.6,6.9-1.7c1.5-0.8,2.9-1.9,4.2-3c0.1,0.6,0.1,1.1,0.2,1.5c0.1,0.6,0.3,1.3,0.6,1.9
						l0.1,0.1h10.5v-1.7L266.5,211.5z M254.9,197.2v2.8c-0.1,2.8-0.9,4.8-2.6,5.8c-1.7,1.1-3.5,1.6-5.5,1.6c-1.2,0-2.3-0.3-3.1-0.9
						c-0.8-0.6-1.2-1.6-1.2-3c0-1.6,0.7-2.7,2.1-3.5c0.8-0.5,2.3-0.8,4.2-1.2l2.1-0.4c1.1-0.2,1.9-0.4,2.5-0.6
						C253.9,197.7,254.4,197.5,254.9,197.2z"/>
				</g>
				<g>
					<path class="st0" d="M478.8,213.2h7.6l0-18.1c0-1,0-2,0-2.2c0-7.9-6.6-14.3-14.7-14.3c-0.2,0-2.7,0-2.9,0l-15.2,0v18.1v0.2
						v16.3h7.6v-16.3l0,0V184c0.2-0.1,7.1,0,7.1,0c6.3,0,10.6,2.6,10.5,12.6l0,0V213.2z"/>
					<polygon class="st0" points="320.8,170.2 320.8,199 320.8,213.2 328.2,213.2 328.2,199 328.2,170.2 					"/>
					<path class="st0" d="M451.5,196.4c0,9.8-8.2,17.7-18.4,17.7c-10.2,0-18.4-7.9-18.4-17.7c0-9.8,8.2-17.7,18.4-17.7
						C443.2,178.7,451.5,186.6,451.5,196.4z M433.1,185.1c-6.5,0-11.7,5-11.7,11.3c0,6.2,5.2,11.3,11.7,11.3c6.5,0,11.7-5,11.7-11.3
						C444.8,190.2,439.5,185.1,433.1,185.1z"/>
					<path class="st0" d="M312.6,206.2h-18.8c-9.4,0-17-7.4-17-16.5c0-9.1,7.6-16.5,17-16.5c8.9,0,16.2,6.7,16.9,15.2h7.2
						c-0.7-12.4-11.2-22.2-24.1-22.2c-13.3,0-24.2,10.5-24.2,23.5c0,13,10.8,23.5,24.2,23.5H315L312.6,206.2z"/>
					<path class="st0" d="M365.9,206.9H349c-0.3,0-0.7,0-1,0v0c-5-0.5-9-3.9-10.1-8.5h29.3l0,0c0.1-0.8,0.2-1.6,0.2-2.5
						c0-9.6-8.2-17.3-18.2-17.3c0,0,0,0,0,0c0,0,0,0,0,0c-8.9,0-16.3,6.1-17.8,14.2c-0.2,1-0.3,2.1-0.3,3.1c0,1.1,0.1,2.1,0.3,3.1
						c1.5,8.1,8.9,14.2,17.8,14.2H368L365.9,206.9z M348,185C348,185,348,185,348,185c0.4,0,0.8-0.1,1.2-0.1c0.1,0,0.1,0,0.2,0
						c0.3,0,0.5,0,0.8,0c0.2,0,0.4,0,0.6,0.1c0.1,0,0.2,0,0.3,0c4,0.6,7.3,3.3,8.8,6.8l0,0.1l-21.5,0C340,188.1,343.6,185.4,348,185
						z"/>
					<path class="st1" d="M411.4,206l-0.2,0c-1.5,0-2.7-1.2-2.7-2.7v-19.1h0.2h7.3c0,0-1.4-3.1-2.2-4.9l-0.3-0.7h-5.2v-8.5h-7.5v8.5
						l-7.9,0l-9,18.5h0c-1.1,2.4-3,6-3,6l-2.2-6.3l0,0l-5.2-17l-0.4-1.3h-7.6l0.1,0.3c0,0,0,0,0,0c0.1,0.4,0.3,0.8,0.4,1.2l0,0l0,0
						c1.5,4.8,4.2,13.8,5.1,16.8c0,0,0,0,0,0l0.3,0.9c0,0,0,0,0,0l4.7,15.4l-7.6,16.4h7.6l15.6-32.7h0l6.1-12.6h3l0,21.7
						c0,4.1,3.3,7.3,7.4,7.3h7.6l-2.7-7.5C413.2,205.7,412.3,205.9,411.4,206z"/>
				</g>
			</g>
		</g>
	</g>
</g>
</svg>
