<svg id="Layer_1" data-name="Layer 1" xmlns="http://www.w3.org/2000/svg" xmlns:xlink="http://www.w3.org/1999/xlink" viewBox="0 0 459.81 75.56"><defs><style>.cls-1{fill:#221f1f;}.cls-2{fill:url(#linear-gradient);}.cls-3,.cls-4{fill:#fff;stroke:#fff;stroke-width:0.4px;}.cls-10,.cls-11,.cls-12,.cls-18,.cls-19,.cls-20,.cls-21,.cls-3,.cls-5,.cls-6,.cls-7,.cls-8{fill-rule:evenodd;}.cls-5{fill:url(#linear-gradient-2);}.cls-6{fill:url(#linear-gradient-3);}.cls-7{fill:url(#linear-gradient-4);}.cls-8{fill:url(#linear-gradient-5);}.cls-9{fill:url(#linear-gradient-6);}.cls-10{fill:url(#linear-gradient-7);}.cls-11{fill:url(#linear-gradient-8);}.cls-12{fill:url(#linear-gradient-9);}.cls-13{fill:url(#linear-gradient-10);}.cls-14{fill:url(#linear-gradient-11);}.cls-15{fill:url(#linear-gradient-12);}.cls-16{fill:url(#linear-gradient-13);}.cls-17{fill:url(#linear-gradient-14);}.cls-18{fill:url(#linear-gradient-15);}.cls-19{fill:url(#linear-gradient-16);}.cls-20{fill:url(#linear-gradient-17);}.cls-21{fill:url(#linear-gradient-18);}.cls-22{fill:url(#linear-gradient-19);}</style><linearGradient id="linear-gradient" x1="333.73" y1="443.87" x2="333.73" y2="540.94" gradientTransform="translate(3.75 -383.27) rotate(6.29)" gradientUnits="userSpaceOnUse"><stop offset="0" stop-color="#473618"/><stop offset="0.06" stop-color="#473618"/><stop offset="0.13" stop-color="#906d32"/><stop offset="0.16" stop-color="#473618"/><stop offset="0.19" stop-color="#8e6d32"/><stop offset="0.25" stop-color="#473618"/><stop offset="0.31" stop-color="#9a7838"/><stop offset="0.38" stop-color="#775c2a"/><stop offset="0.43" stop-color="#473618"/><stop offset="0.5" stop-color="#d2b277"/><stop offset="0.57" stop-color="#775c2a"/><stop offset="0.6" stop-color="#473618"/><stop offset="0.65" stop-color="#d2b277"/><stop offset="0.75" stop-color="#775c2a"/><stop offset="0.82" stop-color="#8e6d32"/><stop offset="0.92" stop-color="#473618"/><stop offset="0.98" stop-color="#775c2a"/></linearGradient><linearGradient id="linear-gradient-2" x1="580.99" y1="543.78" x2="580.99" y2="543.78" gradientTransform="translate(-161.24 -369.02) rotate(0.14)" gradientUnits="userSpaceOnUse"><stop offset="0" stop-color="#27130e"/><stop offset="0.19" stop-color="#ffeebc"/><stop offset="0.35" stop-color="#8e6d32"/><stop offset="0.54" stop-color="#ffeebc"/><stop offset="0.7" stop-color="#775c2a"/><stop offset="0.82" stop-color="#d2b277"/><stop offset="1" stop-color="#fafbef"/></linearGradient><linearGradient id="linear-gradient-3" x1="412.72" y1="473.43" x2="412.72" y2="610.38" xlink:href="#linear-gradient-2"/><linearGradient id="linear-gradient-4" x1="633.04" y1="473.49" x2="633.04" y2="610.33" xlink:href="#linear-gradient-2"/><linearGradient id="linear-gradient-5" x1="530.61" y1="473.47" x2="530.61" y2="610.34" xlink:href="#linear-gradient-2"/><linearGradient id="linear-gradient-6" x1="300.47" y1="458.69" x2="300.47" y2="595.62" gradientTransform="translate(3.75 -383.27) rotate(6.29)" xlink:href="#linear-gradient-2"/><linearGradient id="linear-gradient-7" x1="134.6" y1="475.37" x2="134.6" y2="614.99" gradientTransform="translate(3.75 -383.27) rotate(6.29)" xlink:href="#linear-gradient-2"/><linearGradient id="linear-gradient-8" x1="371.57" y1="473.46" x2="371.57" y2="610.35" xlink:href="#linear-gradient-2"/><linearGradient id="linear-gradient-9" x1="616.38" y1="524.78" x2="616.38" y2="524.78" xlink:href="#linear-gradient-2"/><linearGradient id="linear-gradient-10" x1="181.44" y1="471.37" x2="181.44" y2="613.57" gradientTransform="translate(3.75 -383.27) rotate(6.29)" xlink:href="#linear-gradient-2"/><linearGradient id="linear-gradient-11" x1="350.39" y1="452.25" x2="350.39" y2="596.83" gradientTransform="translate(3.75 -383.27) rotate(6.29)" xlink:href="#linear-gradient-2"/><linearGradient id="linear-gradient-12" x1="418.8" y1="445.95" x2="418.8" y2="582.87" gradientTransform="translate(3.75 -383.27) rotate(6.29)" xlink:href="#linear-gradient-2"/><linearGradient id="linear-gradient-13" x1="515.81" y1="435.5" x2="515.81" y2="572.43" gradientTransform="translate(3.75 -383.27) rotate(6.29)" xlink:href="#linear-gradient-2"/><linearGradient id="linear-gradient-14" x1="473.64" y1="440.03" x2="473.64" y2="581.74" gradientTransform="translate(3.75 -383.27) rotate(6.29)" xlink:href="#linear-gradient-2"/><linearGradient id="linear-gradient-15" x1="487.41" y1="473.47" x2="487.41" y2="610.34" xlink:href="#linear-gradient-2"/><linearGradient id="linear-gradient-16" x1="332.27" y1="473.46" x2="332.27" y2="610.35" xlink:href="#linear-gradient-2"/><linearGradient id="linear-gradient-17" x1="470.95" y1="473.46" x2="470.95" y2="610.35" xlink:href="#linear-gradient-2"/><linearGradient id="linear-gradient-18" x1="554.04" y1="429.79" x2="554.04" y2="573.19" gradientTransform="translate(3.75 -383.27) rotate(6.29)" xlink:href="#linear-gradient-2"/><linearGradient id="linear-gradient-19" x1="553.98" y1="431.42" x2="553.98" y2="568.29" gradientTransform="translate(3.75 -383.27) rotate(6.29)" xlink:href="#linear-gradient-2"/></defs><title>logo_gallo_dorado_sin_sombra</title><path class="cls-1" d="M503.35,133.89a8.35,8.35,0,1,0,0,16.7h0A8.35,8.35,0,1,0,503.35,133.89Z" transform="translate(-51.91 -108.93)"/><path class="cls-1" d="M275.34,139.28c0-8.69-2.69-15.81-8.1-21.14a25.78,25.78,0,0,0-18.54-7.47h-0.12A25.94,25.94,0,0,0,230.13,118c-5.43,5.31-8.19,12.42-8.19,21.13,0,7.17,1.9,13.33,5.72,18.34l-1.43-.36-0.86,2.37a39.25,39.25,0,0,1-3.13,6.57,13.92,13.92,0,0,1-2.55,3.38,6.62,6.62,0,0,1-2.15,1,21,21,0,0,1-4.65.38,20.08,20.08,0,0,1-2.14-1.65l-0.94-.67c-0.08-.24-0.15-0.47-0.21-0.69a6.79,6.79,0,0,1-.15-0.7l0.1-41a32.21,32.21,0,0,1,.28-4.12c0.06-.4.12-0.77,0.19-1.08,0.5-.12,1.13-0.23,1.75-0.32,1.28-.19,2.85-0.35,4.32-0.43l2.93-.26,0-7.6-31.67-.08,0,7.76,5.63,0.23H193c0.77,0,1.55,0,2.19.06a40,40,0,0,1,.35,5.46l-1,38.92a11.07,11.07,0,0,1-.6,3.42,8.72,8.72,0,0,1-.61,1.43,6.45,6.45,0,0,1-.82.29,18.7,18.7,0,0,1-1.94.45l2-12.48-5.63-1.39L186,158.72a38.79,38.79,0,0,1-3.13,6.59,13.78,13.78,0,0,1-2.51,3.31l-0.1.06a6,6,0,0,1-2.15,1,21.57,21.57,0,0,1-4.58.35c-0.16-.09-0.37-0.23-0.59-0.4-0.47-.34-1-0.77-1.45-1.15l-0.08-.07-0.54-.42-0.4-.31c-0.06-.2-0.12-0.4-0.17-0.6-0.09-.35-0.14-0.67-0.15-0.7l0.1-41a31.94,31.94,0,0,1,.29-4.34c0-.32.1-0.63,0.16-0.89a44.54,44.54,0,0,1,6-.77l3,0,0-7.81-31.7-.08,0,7.76,5.64,0.24c0.73,0,1.56,0,2.24.09a35.85,35.85,0,0,1,.36,5.39l-1,39a11.15,11.15,0,0,1-.59,3.41,9.16,9.16,0,0,1-.58,1.37,7.76,7.76,0,0,1-.87.29,22.37,22.37,0,0,1-2.9.6l-0.48.07v0l-2.6-.45a2.83,2.83,0,0,1-1.22-.42h0a25.58,25.58,0,0,1-1.85-4.85l-12.82-54.76-10.84,2.35-10.93,41.43v-2.06l-33.13-.08,0,7.48,2.77,0.42h0.07a48.87,48.87,0,0,1,6,.81l0.51,0.13L86,159.84l0,8.74,0,0.23a13.35,13.35,0,0,1-1.45.72l-2.73.86-0.33.07-1.5.14a12.56,12.56,0,0,1-5.35-2,16,16,0,0,1-3.21-4l-0.94-1.38c-2.81-4-4.54-11.28-4.51-18.88,0-9.11,1.48-15.9,4.26-19.62l0.39-.53a33.75,33.75,0,0,1,4.15-5,7.06,7.06,0,0,1,4.23-2c0.42,0,.85-0.06,1.29-0.06h0.1a15.59,15.59,0,0,1,6.57,1.41A7.1,7.1,0,0,1,91,123.47l2,4.86L97.67,139l3.32-3.61,1.72-2.18,0.17-.57a2.86,2.86,0,0,0,.09-0.57c0-.13,0-0.21,0-0.36,0-1.81-.28-13.64-0.4-18.64l-0.09-3.3H96.06l-1.22,2.49-3.09-1.44-0.16-.07c-4.13-1.44-9.67-1.7-12.68-1.72l0-.07-2.2.15-0.49.06v0a23.12,23.12,0,0,0-10.38,3.57,27.07,27.07,0,0,0-7.55,8.15c-4.21,6.4-6.35,14.16-6.37,23.09,0,10.42,3,19.91,8.3,26a24.07,24.07,0,0,0,18.58,8.77h0.12a29,29,0,0,0,12.2-2.88,24,24,0,0,0,6.22-4.43,20.7,20.7,0,0,0,2.22-2.5,8.78,8.78,0,0,0,.81-1.3,4.19,4.19,0,0,0,.48-1.86l0-6.48c0.45-.07,1.09-0.16,1.85-0.23,1.13-.12,2.27-0.21,3-0.27l2.32-.21c-0.78,2.45-1.46,4.49-2,6.05a23.91,23.91,0,0,1-1.44,3.42l0,0.07a1.42,1.42,0,0,1-1.25.9l-2.68.39,0,7.36,18.57,0,0-7.45-2.3-.28h0l-0.91-.1a8.3,8.3,0,0,1-1-.19c0-.06,0-0.13,0-0.21l0.37-2.45,2.18-7.45,0.56-1.88,10.32,0,1.1,3.09c0.7,1.94,1.38,3.85,1.59,4.44l0.13,0.52c0.18,0.76.48,2,.6,2.46v0c0,0.28.12,0.83,0.18,1.29l0,0.18c-0.36.06-.86,0.14-1.52,0.22l-2.75.31,0,7.45,19.88,0V178l3.06,0.15h0.29c4.49,0.07,9.17.11,13.18,0.12h1.74c5,0,8.81-.05,11.4-0.15l0.89,0h0.1a12.37,12.37,0,0,1,2.33.19l-2,5.39,10.57-4.47,0.06-.37H190c0.78,0,6.73.12,13.34,0.13h1.72c5,0,8.8-.05,11.38-0.15h0.87a12.73,12.73,0,0,1,2.5.2l-2,5.52,9.66-4.22,0.47-.58a2.65,2.65,0,0,0,.4-0.7l0.05-.13a4.48,4.48,0,0,0,.14-0.53l0-.12c0.44-2.13,2.08-12.37,2.78-16.8a25.41,25.41,0,0,0,13.21,6,23.93,23.93,0,0,0-7.92,3,25.85,25.85,0,0,0-3.31,2.32c-0.4.33-.71,0.61-0.91,0.8l-0.26.25-0.82.82,0.57,0.93-1,.69,2.39,3.5,2.06-.65,0.08,0c0.4-.14,4.21-1.4,13.81-1.4h0.24a70.44,70.44,0,0,1,12,1c1.35,0.24,2.35.48,2.95,0.63l0.7,0.19,0.24,0.07,0.32,0.08,1.89,0.37,2.56-4.11-1.58-1.58a23.9,23.9,0,0,0-6.9-4.38,32.83,32.83,0,0,0-8.74-2.5,25.85,25.85,0,0,0,13.94-6.82C272.39,155.35,275.33,148,275.34,139.28Zm-36.62-15a15.33,15.33,0,0,1,3.61-3.51,9.31,9.31,0,0,1,5.12-1.24h0c0.34,0,.69,0,1.08,0a11.33,11.33,0,0,1,8.59,4.29c2.5,2.91,3.8,8.23,3.78,15.37s-1.34,12.31-3.84,15.3a13.82,13.82,0,0,1-9.8,4.55h-0.08a5.74,5.74,0,0,1-3.42-1,17.65,17.65,0,0,1-3.66-3.75,22.91,22.91,0,0,1-5.17-14.94C234.93,132.54,236.24,127.3,238.72,124.29ZM126.42,148h-6l3-10.57,0.8,2.81Z" transform="translate(-51.91 -108.93)"/><path class="cls-1" d="M336.43,136.91l-2.89,1.74-0.3.27a11,11,0,0,1-2.48,1.86l0-10.91,1-.19a3.66,3.66,0,0,0,2.29-1.66,6.17,6.17,0,0,0,.81-3.32c0-.23,0-0.46,0-0.71l0.19-2.3a5.39,5.39,0,0,0,.13-1.08,3.57,3.57,0,0,0-.23-1.3,3.2,3.2,0,0,0-1.16-1.49l-1-.7-1.39.19-2,.4-17.36,0-0.27,2.48a3.44,3.44,0,0,0-.21.73l-0.41,2.33a14.19,14.19,0,0,0-2.38-2.05,16.46,16.46,0,0,0-4.49-2.19,15.12,15.12,0,0,0-1.52-.4l-0.44-.08-0.26-.06h-0.37c-0.11,0-10.71,0-13.48,0h-2.74l-1.51,7,4.2-.35a14,14,0,0,1,1.84,0c0,0.45.06,1.13,0.05,2.15,0,1.48,0,3.54-.11,6.08a39.86,39.86,0,0,1-1,9h-5.06l0,7.46,18.12,0h0.22a13.19,13.19,0,0,0,8.93-3.51l0.37-.37,0.08,3.58,18.85,0a4.13,4.13,0,0,0,2.55,1.22l0.24,0,1.7-.14,1.53-1.71,0.19-.85,1.18-3.47a7.86,7.86,0,0,0,.92-3.16,3.52,3.52,0,0,0-.51-1.91Zm-21.3-4.68a16,16,0,0,0-2.89-7.63l2.41-.08h0.49C315.14,126.77,315.14,129.64,315.13,132.23Zm0,6v0.22l-0.28,1.07,0.16,0.08-0.41,3.59-0.39,0-0.78,0a15.33,15.33,0,0,0,1.71-5.43C315.1,138,315.1,138.14,315.09,138.26Zm14.72,3a14.67,14.67,0,0,1-5,1.15v-2.35ZM325,124.73l0.21,0,0.21,0h0.28a4.54,4.54,0,0,1,1.89.43,2.29,2.29,0,0,1,.22.6,5.9,5.9,0,0,1,.15.78l0,0.5-2.83-.34-0.31,1.31ZM299,141.6c0-4.81.28-12.87,0.42-16.54l0.7,0h0.3a10.44,10.44,0,0,1,2.21,2.12,12.1,12.1,0,0,1,2.49,7.65,9.82,9.82,0,0,1-1.83,6.22,5.65,5.65,0,0,1-1.14,1.08l-3.15,0V141.6Z" transform="translate(-51.91 -108.93)"/><path class="cls-1" d="M308.27,150.58l-0.83,0h-0.1c-3.94,0-7.05,1-9.26,3a11.13,11.13,0,0,0-3.06,4.73H295l-0.62,2.35-0.08.48h0a11.12,11.12,0,0,0-.12,1.56,9.39,9.39,0,0,0,1.29,4.84,12.52,12.52,0,0,0,5.8,4.85,32,32,0,0,0,5.41,1.81l0.81,0.22a10.74,10.74,0,0,1,1.78.62l-0.41.35a3.63,3.63,0,0,1-1.53.27h-0.12a9.2,9.2,0,0,1-1.15-.08l-0.32,0-2.12-.54-1.16,2.22-6.88,4.51,8.64,0a10.62,10.62,0,0,0,1.95.69,15,15,0,0,0,3.61.46h0a12.5,12.5,0,0,0,3-.35,7.53,7.53,0,0,0,6-7.27,6.24,6.24,0,0,0-.6-2.68,7.15,7.15,0,0,0-1.09-1.63,8.17,8.17,0,0,0,2.54-1.32,9.19,9.19,0,0,0,3.25-6.67,8.11,8.11,0,0,0,0-.84A9.32,9.32,0,0,0,320.5,156C317.77,152.81,313.2,150.8,308.27,150.58Z" transform="translate(-51.91 -108.93)"/><path class="cls-1" d="M491.93,139.8c0-8.61-2.77-15.92-8.1-21.14a25.79,25.79,0,0,0-18.54-7.47h-0.12a26,26,0,0,0-18.42,7.34c-5.38,5.28-8.23,12.59-8.24,21.13,0,8.19,2.53,15.1,7.62,20.52a25.37,25.37,0,0,0,16.37,7.92,24.75,24.75,0,0,0-4.84,1.94l0.49-1.18H451.8l-0.51.13a2.83,2.83,0,0,0-.32.12l-0.22.1c-0.47.21-1.46,0.66-2.68,1.09a13.14,13.14,0,0,1-3.79.86,3.19,3.19,0,0,1-.88-0.49c-2.12-1.51-4.94-5.66-6-10a31.38,31.38,0,0,0-4.89-9.8c-0.66-1-1.39-2-2.17-3a13.68,13.68,0,0,0,3-2.05c2.35-2.11,5.16-6.21,5.16-13.77a17.42,17.42,0,0,0-2.8-10,17.86,17.86,0,0,0-9.34-6.84,24.15,24.15,0,0,0-3.85-1c-0.4-.07-0.8-0.13-1.22-0.17l-0.42,0-32.77-.1-0.61,5.83-0.55-.6v0l-0.75-.74A25.71,25.71,0,0,0,367.75,111h-0.13a25.51,25.51,0,0,0-18.44,7.34c-5.37,5.24-8.22,12.55-8.23,21.13,0,8.24,2.51,15.15,7.55,20.52a25.34,25.34,0,0,0,14,7.58,23.77,23.77,0,0,0-8,3,25.92,25.92,0,0,0-3.3,2.32c-0.31.26-.62,0.53-0.91,0.8l-0.23.22-1.28,1,0.86,0.87-0.86.58,2.84,4.22,2-1.47c0.89-.27,4.91-1.31,13.4-1.31h0.33a70.82,70.82,0,0,1,12,1c1.35,0.24,2.34.47,2.94,0.63l0.71,0.2,0.19,0.06,0.11,0,0.28,0.06,1.84,0.34,2-3v5.19l35.92,0.09,0-7.81-2.71-.41H420.5a23.4,23.4,0,0,1-6.73-1.48,4.84,4.84,0,0,1-1.06-.6c0-.14,0-0.33,0-0.59v-0.46c0.1-3.06.34-11.49,0.52-17.53l0.11-3.81c0.55,0.18,1.35.44,2.44,0.85a2.54,2.54,0,0,1,1.46,1,10.72,10.72,0,0,1,1,2.45l0.66,1.93,1.41,4.42,2.51,7.48,0,0.05a27.36,27.36,0,0,0,6.52,9.78c2.61,2.5,6.9,5.48,12.49,5.49h0.1a14.81,14.81,0,0,0,9.18-3.19l18.61-2c0.64-.06,1.33-0.08,2-0.08h0.1a54.68,54.68,0,0,1,9.93,1.15c1.21,0.24,2.41.51,3.58,0.79l1,0.26,2.68,0.88,2.19-4.94-1.69-1.36-0.1-.07h0l-0.08-.06a52.35,52.35,0,0,0-6.78-3.68,38.9,38.9,0,0,0-10.72-3.28,26,26,0,0,0,11.6-6.35C489.08,155.77,491.92,148.61,491.93,139.8Zm-36.61-15a15.06,15.06,0,0,1,3.59-3.5,9.28,9.28,0,0,1,5.12-1.24c0.34,0,.7,0,1.07,0a11.27,11.27,0,0,1,8.6,4.29c2.5,2.93,3.81,8.24,3.79,15.38,0,6.91-1.29,12.14-3.7,15.1l-0.3.35a13.93,13.93,0,0,1-9.63,4.39h-0.08a5.81,5.81,0,0,1-3.45-1,17.23,17.23,0,0,1-3.65-3.73l-0.46-.57A22.89,22.89,0,0,1,451.52,140C451.53,133.09,452.85,127.84,455.33,124.81Zm-97.6-.24a15,15,0,0,1,3.59-3.49,9.36,9.36,0,0,1,5.15-1.24h0c0.35,0,.71,0,1,0h0.06a11.14,11.14,0,0,1,8.54,4.28c2.51,2.94,3.82,8.26,3.8,15.39s-1.34,12.34-3.85,15.29a13.8,13.8,0,0,1-9.76,4.55H366.2a5.94,5.94,0,0,1-3.63-1.08,19.09,19.09,0,0,1-3.49-3.61,23.48,23.48,0,0,1-5.15-14.93C353.93,132.85,355.25,127.6,357.73,124.57Zm56.83-1.45h0a15.66,15.66,0,0,1,1.78.12A7.38,7.38,0,0,1,422,126.9a11.43,11.43,0,0,1,1.66,5.61v0.19a10.07,10.07,0,0,1-1.54,4.55,5.88,5.88,0,0,1-3.16,2.79l-0.08,0a27.45,27.45,0,0,1-5.13.67c0-1.9,0-4.55-.05-7.21V133c0-4.36-.06-8.65-0.06-9.79A7.72,7.72,0,0,1,414.56,123.12Zm-28.15,51.29A23.86,23.86,0,0,0,379.5,170a32.76,32.76,0,0,0-7.66-2.33,26,26,0,0,0,14-6.84c5.62-5.33,8.47-12.49,8.48-21.28a30.21,30.21,0,0,0-4.09-16l5.92,0a7.1,7.1,0,0,1,2.17.28,1.08,1.08,0,0,1,.48.26,0.63,0.63,0,0,1,0,.26,1.75,1.75,0,0,1,0,.38l0,0.18-0.07.26c0,0.06,0,.12,0,0.18l-0.15.29,0.12,0.34,0,2.13c0,3.79-.13,11.54-0.23,19.53-0.09,6.59-.17,11.7-0.25,15.63-0.09,4.63-.18,7.85-0.26,8.64a2.24,2.24,0,0,1-.87,1.74,2.93,2.93,0,0,1-.57.36l-9.09-.07v1.43Z" transform="translate(-51.91 -108.93)"/><path class="cls-2" d="M248.53,112.1A24.29,24.29,0,0,0,231,119c-5.14,5-7.75,11.88-7.76,20.09,0,7.78,2.38,14.43,7.17,19.51a24.1,24.1,0,0,0,17.94,7.59h0.05a24.47,24.47,0,0,0,17.27-6.74c5.33-5,8-11.92,8-20.23s-2.55-15-7.66-20.09A24.17,24.17,0,0,0,248.53,112.1ZM258,155.44h0a15.26,15.26,0,0,1-11,5.08,7.16,7.16,0,0,1-4.21-1.2,18.94,18.94,0,0,1-4-4.05,24.47,24.47,0,0,1-5.49-15.85c0-7.49,1.51-12.91,4.12-16.09a16.5,16.5,0,0,1,4-3.83,10.65,10.65,0,0,1,5.89-1.46c0.36,0,.74,0,1.14,0h0a12.76,12.76,0,0,1,9.63,4.8c2.65,3.08,4.16,8.57,4.13,16.32C262.19,146.81,260.68,152.27,258,155.44ZM146.8,170.57a3.48,3.48,0,0,1-2.12-1c-0.18-.2-1-1.63-2.12-5.39l-12.5-53.39-8.55,1.86-11.85,44.92c-1,3.16-1.82,5.66-2.5,7.52a25.07,25.07,0,0,1-1.54,3.63l0,0,0,0a2.86,2.86,0,0,1-2.32,1.64l-0.3,0-1.13.17v4.63l15.63,0v-4.68l-1.48-.17h0a6,6,0,0,1-2.22-.5h0a0.77,0.77,0,0,1-.32-0.4,3,3,0,0,1-.17-1.08l0.41-2.68,2.21-7.53,0.88-2.94,12.45,0,1.45,4.06,1.61,4.52c0,0.14.07,0.32,0.14,0.59,0.2,0.84.55,2.24,0.63,2.58s0.23,1.65.29,2a3.2,3.2,0,0,1-.11.88v0l-0.08,0a16.7,16.7,0,0,1-2.68.48l-0.27,0-1.18.13v4.68l19.18,0v-4.6l-1.38-.24h0Zm-28.51-21.19,5-17.39,2.2,7.76c1.08,3.8,2.15,7.56,2.74,9.65Zm-12.78,7.92,2.4-.22v-4.81l-30.2-.07v4.75l1.46,0.22h0a50.9,50.9,0,0,1,6.2.84,6.2,6.2,0,0,1,1,.28h0a3.63,3.63,0,0,0,.9.74l0,9.63-0.18,1a5.46,5.46,0,0,1-.54.35,14.82,14.82,0,0,1-1.76.88l-2.87.9-0.46.09L79.7,172c-3.15-.6-4.9-1.37-6.17-2.35a17,17,0,0,1-3.53-4.3L69.08,164c-2.93-4.21-4.8-11.69-4.77-19.72,0-9.69,1.66-16.62,4.54-20.48l0.39-.53a34.23,34.23,0,0,1,4.36-5.21,8.51,8.51,0,0,1,5.07-2.34c0.45,0,1-.07,1.52-0.07a16.89,16.89,0,0,1,7.24,1.57,8.55,8.55,0,0,1,4.82,5.85l0,0.11,1.92,4.5L98,136.3l1.78-1.93,1.49-1.89,0.07-.25a1.08,1.08,0,0,0,.05-0.31c0-.1,0-0.16,0-0.27,0-2.13-.41-18.84-0.41-18.85v-0.33l0-1.29H96.82L95.44,114a1.13,1.13,0,0,1-.32.08l-0.45-.24,0,0L91,112.1l-0.06,0c-4.17-1.45-9.94-1.63-12.3-1.65l-1,0,0.1,1.33-0.11-1.33h0a22.51,22.51,0,0,0-11.11,3.47,26.19,26.19,0,0,0-7.14,7.73c-4.07,6.19-6.11,13.73-6.13,22.29,0,9.87,2.87,19.18,7.94,25.06a22.55,22.55,0,0,0,17.48,8.26h0.06a27.47,27.47,0,0,0,11.64-2.75h0a22.07,22.07,0,0,0,5.81-4.15A18.89,18.89,0,0,0,98.2,168a7.37,7.37,0,0,0,.67-1.06,2.75,2.75,0,0,0,.34-1.23l0-7.42a4,4,0,0,0,.39-0.35,23.74,23.74,0,0,1,2.76-.4C103.6,157.46,104.85,157.36,105.51,157.31Zm155.37,13.88a30.92,30.92,0,0,0-12.52-2.71,21.86,21.86,0,0,0-11.14,3.16,24.14,24.14,0,0,0-3.12,2.18c-0.37.3-.65,0.55-0.85,0.74l-0.23.22h0l0.85,1-1.1.75h0l1,1.4,0.94-.3,0.07,0s3.89-1.52,14.58-1.49a71.63,71.63,0,0,1,12.23,1c1.36,0.24,2.38.48,3.06,0.66l0.76,0.21,0.19,0.06,0.05,0h0l0.14,0,0.9,0.17,1.41-2.27-0.75-.75A23.34,23.34,0,0,0,260.88,171.19ZM226.58,160a40.61,40.61,0,0,1-3.25,6.81,14.26,14.26,0,0,1-3,3.88h0a8,8,0,0,1-2.56,1.17,22.94,22.94,0,0,1-5.34.43l-0.06,0a14.69,14.69,0,0,1-2.67-1.94l0,0-0.05,0-1.17-.82c-0.14-.4-0.28-0.84-0.38-1.23a5.6,5.6,0,0,1-.2-1.06l0.1-41a33.07,33.07,0,0,1,.29-4.32,14,14,0,0,1,.31-1.63,3.82,3.82,0,0,1,.14-0.43,14.81,14.81,0,0,1,2.72-.6c1.35-.2,2.95-0.36,4.44-0.45h0l0.33,0,1.21-.11v-4.8l-28.74-.07v4.88l4.21,0.17h0c0.85,0,1.85,0,2.62.09,0.32,0,.6.07,0.79,0.11a5.59,5.59,0,0,1,.14.58,38.28,38.28,0,0,1,.46,6.25l-1,38.87v0a12.43,12.43,0,0,1-.67,3.88,7.86,7.86,0,0,1-1,2.1,6.22,6.22,0,0,1-1.42.57,22.57,22.57,0,0,1-3.13.66l-0.29,0-0.7.11,2.07-13.15-3-.75-0.41,1.13A40.1,40.1,0,0,1,184,166a13.3,13.3,0,0,1-3,3.83h0a7.48,7.48,0,0,1-2.62,1.19,24.05,24.05,0,0,1-5.26.39,5.6,5.6,0,0,1-1.11-.68c-0.51-.38-1.06-0.83-1.52-1.21h0c-0.59-.45-0.92-0.74-1.3-1-0.13-.38-0.25-0.78-0.35-1.14a5.43,5.43,0,0,1-.2-1.09l0.1-41a33.49,33.49,0,0,1,.31-4.54,12.48,12.48,0,0,1,.31-1.54c0-.14.08-0.25,0.11-0.33a32,32,0,0,1,7.11-1h0.29l1.31,0v-4.91l-28.77-.07v4.89l4.19,0.18h0c0.8,0,1.79,0,2.57.11a7.17,7.17,0,0,1,.84.12,5.62,5.62,0,0,1,.15.57,33.54,33.54,0,0,1,.47,6.18l-1,39h0a12.48,12.48,0,0,1-.67,3.86,8.9,8.9,0,0,1-.94,2,6.85,6.85,0,0,1-1.5.57,23.48,23.48,0,0,1-3.11.64l-0.3,0-1.14.16v5.34l1.64,0.08h0c0.08,0,6.5.1,13.38,0.12,4.74,0,9.71,0,13.08-.15l1,0a10.86,10.86,0,0,1,3.43.43,1.94,1.94,0,0,1,.75.41L181,180.95l6.72-2.84,0.55-3.47v2.66h1.71c0.84,0,6.85.11,13.31,0.13,4.73,0,9.69,0,13.05-.15h0.92a11.58,11.58,0,0,1,3.48.41,1.68,1.68,0,0,1,.87.49h0l-1.32,3.56L226.4,179l0.2-.25a1.32,1.32,0,0,0,.23-0.42,4.41,4.41,0,0,0,.12-0.49c0.53-2.54,2.82-17.08,2.82-17.1l0.19-1.2-3-.74ZM308.06,152l-0.79,0c-3.88,0-6.58,1-8.38,2.6a10.62,10.62,0,0,0-3.05,5.4l1.29,0.34-1.29-.34h0a10.36,10.36,0,0,0-.36,2.62,7.85,7.85,0,0,0,1.09,4.08,11.24,11.24,0,0,0,5.15,4.27,30.73,30.73,0,0,0,5.25,1.74l0.75,0.2a8.08,8.08,0,0,1,2.54,1,3.43,3.43,0,0,1,.89,1.18v0c-0.16.15-.43,0.38-0.78,0.66h0l-0.73.62h0a4.46,4.46,0,0,1-2.59.61,10.64,10.64,0,0,1-1.32-.09l-0.4-.06-0.1,0h0l-1-.25-0.8,1.53-3.11,2h4.1a8.34,8.34,0,0,0,2,.73,13.25,13.25,0,0,0,3.25.41,10.87,10.87,0,0,0,2.65-.3,6.14,6.14,0,0,0,4.42-3.64,6,6,0,0,0,.45-2.21,4.7,4.7,0,0,0-.45-2,7.24,7.24,0,0,0-3.37-3.14l0.69-.06a8.41,8.41,0,0,0,4.55-1.54,7.73,7.73,0,0,0,2.69-5.66,6.27,6.27,0,0,0,0-.68,7.92,7.92,0,0,0-2.07-5.17C316.71,154,312.5,152.21,308.06,152Zm6.35,11a3.76,3.76,0,0,1-1,1.22l-0.05,0-0.71.53,0,0a2,2,0,0,1-1.49.68,6.68,6.68,0,0,1-2.69-.79,4.76,4.76,0,0,1-1.33-.86,0.67,0.67,0,0,1-.25-0.4h0a1.64,1.64,0,0,1,.5-0.86,6,6,0,0,1,1.12-.93,1.42,1.42,0,0,1,.82-0.26h0a1.63,1.63,0,0,1,.64.14l0.13,0.07,0,0,0.23,0.25,0.19,0.21,0.26,0.11a2,2,0,0,0,.78.16,2.82,2.82,0,0,0,.91-0.17h0a1.76,1.76,0,0,0,1.63-1.09h0a1.82,1.82,0,0,0,.15-0.71,1.87,1.87,0,0,0-.3-1,8,8,0,0,0-2.35-2h0a9,9,0,0,0-1.95-.94,6.42,6.42,0,0,1,3.76,1.4,5.78,5.78,0,0,1,1.45,2.52v0h0a1.71,1.71,0,0,1,.1.63A4.37,4.37,0,0,1,314.41,163.06Zm64.33,8.26a31.07,31.07,0,0,0-12.55-2.71,21.75,21.75,0,0,0-11.12,3.16A24.11,24.11,0,0,0,352,174c-0.36.3-.64,0.56-0.84,0.74l-0.23.22-0.06.06v0l0.77,0.77,0.14,0.2-1.08.73h0l1.17,1.74,1-.71c0.72-.25,4.91-1.47,14.4-1.45a71.89,71.89,0,0,1,12.23,1c1.37,0.24,2.39.48,3.07,0.65l0.76,0.21,0.18,0.06,0.06,0h0l0.15,0,0.88,0.16,1.43-2.23-0.75-.76A23.16,23.16,0,0,0,378.74,171.32Zm-76.76-23a11.84,11.84,0,0,0,7.94-3.1c2.53-2.42,3.74-6,3.74-10.26,0-6.59-2.95-10.55-5.95-12.6a15.13,15.13,0,0,0-4.09-2c-0.56-.18-1-0.29-1.38-0.36l-0.41-.08-0.11,0-0.1,0h-0.15l-14,0h-1.07l-0.84,3.87,2.22-.18c0.08,0,.58,0,1.23,0a11.27,11.27,0,0,1,1.27.07,3.59,3.59,0,0,1,.74.16l0,0.11a14.61,14.61,0,0,1,.2,3.31c0,1.47,0,3.45-.11,6.1-0.11,6-.91,9.14-1.36,10.45h-4.7v4.53l16.72,0H302Zm-4.63-6.71c0-5.28.34-14.52,0.47-17.88a18.84,18.84,0,0,1,2.16-.15,5.44,5.44,0,0,1,.63,0l0.15,0a11.34,11.34,0,0,1,2.84,2.63,13.43,13.43,0,0,1,2.81,8.56,11,11,0,0,1-2.16,7.14,6.64,6.64,0,0,1-1.87,1.63l-5,0C297.36,143,297.35,142.32,297.35,141.57Zm167.77-28.94a24.36,24.36,0,0,0-17.51,6.92c-5.17,5.08-7.79,12-7.8,20.09,0,7.74,2.41,14.38,7.21,19.5a24,24,0,0,0,17.91,7.59H465A24.56,24.56,0,0,0,482.31,160c5.3-5,8-11.93,8-20.23s-2.53-15.07-7.66-20.09A24.2,24.2,0,0,0,465.12,112.62Zm10.51,44.2-1-.86a15.22,15.22,0,0,1-11,5.08,7.22,7.22,0,0,1-4.24-1.2,18.75,18.75,0,0,1-4-4l-0.4-.5h0A24.48,24.48,0,0,1,449.89,140c0-7.48,1.51-12.9,4.14-16.11a16.36,16.36,0,0,1,4-3.82,10.64,10.64,0,0,1,5.88-1.46c0.36,0,.74,0,1.14,0h0a12.68,12.68,0,0,1,9.64,4.8c2.67,3.11,4.17,8.59,4.14,16.34s-1.53,13.1-4.19,16.23Zm12.77,18.74a50.45,50.45,0,0,0-6.56-3.56c-3.7-1.67-8.48-3.36-13.18-3.38a22.41,22.41,0,0,0-11.39,3.17,23.94,23.94,0,0,0-3.15,2.2l-0.07.05h0c0.25-.41.44-0.76,0.56-1l0.15-.31,0-.1,0-.06,1-2.29h-4l-0.18.06-0.24.09c-0.36.16-1.51,0.7-2.95,1.21a14.17,14.17,0,0,1-4.33.94,3.3,3.3,0,0,1-1.69-.76c-2.34-1.67-5.4-6.07-6.56-10.84a30.83,30.83,0,0,0-4.67-9.32c-1.19-1.72-2.39-3.26-3.33-4.41a12.27,12.27,0,0,0,4.41-2.53c2.56-2.29,4.68-6.27,4.68-12.68a16,16,0,0,0-2.55-9.15,16.67,16.67,0,0,0-8.6-6.27,23,23,0,0,0-3.62-.92c-0.47-.08-0.85-0.13-1.12-0.16l-0.32,0h-0.14l-31.26-.08L388.61,122l7.42,0a8.26,8.26,0,0,1,2.66.37,2.32,2.32,0,0,1,1.19.8,1.89,1.89,0,0,1,.3,1.09,3.58,3.58,0,0,1-.09.71c0,0.09,0,.17-0.05.22l0,0.07v0a0.35,0.35,0,0,0,0,.06,0.94,0.94,0,0,0,0,.29h0v0h0c0,0.67-.12,11.07-0.26,21.91-0.07,5.52-.16,11.15-0.25,15.63s-0.18,7.87-.26,8.73a3.72,3.72,0,0,1-1.41,2.76,4.63,4.63,0,0,1-.93.57l-0.26.11-7.93-.06v5.32l33,0.08V175.7l-1.45-.22h0a25,25,0,0,1-7.16-1.6,4.06,4.06,0,0,1-1.89-1.32,1.07,1.07,0,0,1-.1-0.21v-0.08h0v0l0-.12c0-.07,0-0.05,0-0.08s0-.51,0-1.22c0.14-4.22.55-18.67,0.68-22.93l0.66-.1a34.54,34.54,0,0,1,3.71,1.21,4,4,0,0,1,2.15,1.48,10.74,10.74,0,0,1,1.14,2.81h0l0.67,2,1.4,4.4,2.51,7.47v0a25.72,25.72,0,0,0,6.16,9.24,16.81,16.81,0,0,0,11.53,5.08h0a13.29,13.29,0,0,0,8.63-3.13l19.06-2q1.09-.09,2.27-0.09a55.8,55.8,0,0,1,10.2,1.17c1.48,0.29,2.75.59,3.65,0.81l1.05,0.27,0.28,0.08,0.07,0,1.12,0.38,1.19-2.69-0.8-.64ZM424.93,132.7a11.52,11.52,0,0,1-1.76,5.28,7.18,7.18,0,0,1-4.11,3.46h0a31.83,31.83,0,0,1-6.95.75c0-1.9,0-5.6-.06-9.25,0-5.08-.06-10.07-0.06-10.08v-0.19l-0.07-.25,0-.07h0a0.51,0.51,0,0,1,0-.09,0.32,0.32,0,0,1,0-.12c0.12-.12.7-0.52,2.53-0.52a16.82,16.82,0,0,1,1.95.13,8.78,8.78,0,0,1,6.69,4.35,13,13,0,0,1,1.88,6.39C424.94,132.55,424.93,132.62,424.93,132.7Zm28.26,42.68v0l0-.06,0.06,0.07H453.2Zm-116.41-35.1-1-1.42-1.59,1-0.12.12a14.68,14.68,0,0,1-10.4,3.93h-0.51l0-8.41a11.37,11.37,0,0,1,1.14-.07,4.22,4.22,0,0,1,.57,0,4.89,4.89,0,0,1,.13,1.24c0,0.19,0,.36,0,0.52l0,0.27-0.09,1.14,4.21,1,0-11-3-.36-0.25,1.09a5.19,5.19,0,0,1-.59.69c-0.28.28-.6,0.57-0.85,0.77a4,4,0,0,1-1.07.1h-0.27c0.08-2,.23-5.65.31-7.54l1.58-.12h0.07a3.76,3.76,0,0,1,.47,0,6,6,0,0,1,2.77.7h0a2.68,2.68,0,0,1,.73,1.41,9.39,9.39,0,0,1,.18,1c0,0.13,0,.23,0,0.3s0,0.06,0,.08h0l0,0.4,0.08,1.52,1.92-.36h0a2.19,2.19,0,0,0,1.33-1,4.74,4.74,0,0,0,.59-2.55c0-.23,0-0.47,0-0.73l0.2-2.5a3.76,3.76,0,0,0,.12-0.87,2.14,2.14,0,0,0-.14-0.79,1.79,1.79,0,0,0-.63-0.81l-0.11-.07-0.42-.3-0.79.11h0l-2.08.42-16.18,0L313,120.29s0,0.11,0,.23a2,2,0,0,0-.2.57l-0.22,1.27,0.19,0-0.08.67,1.81-.06,1.08,0a0.93,0.93,0,0,1,.66.38,2,2,0,0,1,.2.28c0,2.64,0,6.49,0,9.65,0,1.44,0,2.74,0,3.71,0,0.49,0,.9,0,1.19s0,0.27,0,.36,0,0.08,0,.1v0h0v0.07h0c-0.06.57-.49,4.29-0.64,5.6a3.41,3.41,0,0,1-.55.13,8.18,8.18,0,0,1-1.12.12l-1.31,0,0.08,3.26,18.09,0a2.84,2.84,0,0,0,2.07,1.23h0.1l0.42,0,0.53,0,0.89-1,0.12-.55,1.23-3.61a6.61,6.61,0,0,0,.82-2.66,2.07,2.07,0,0,0-.29-1.08Zm30.67,26.22a24.45,24.45,0,0,0,17.25-6.75c5.33-5,8-11.95,8-20.22s-2.54-15-7.68-20.09h0a25.41,25.41,0,0,0-35-.12c-5.16,5-7.78,11.89-7.79,20.09,0,7.76,2.37,14.41,7.15,19.5a24.15,24.15,0,0,0,18,7.59h0.06Zm-5.88-7a20,20,0,0,1-3.81-3.91,24.82,24.82,0,0,1-5.47-15.84c0-7.48,1.5-12.9,4.13-16.11a16.21,16.21,0,0,1,4-3.82,10.73,10.73,0,0,1,5.92-1.46c0.36,0,.74,0,1.14,0h0a12.56,12.56,0,0,1,9.58,4.79c2.66,3.12,4.18,8.59,4.15,16.34s-1.53,13.1-4.18,16.23h0a15.2,15.2,0,0,1-11,5.08A7.33,7.33,0,0,1,361.58,159.47ZM503.2,135.32a6.89,6.89,0,1,0,6.88,6.91A6.9,6.9,0,0,0,503.2,135.32Z" transform="translate(-51.91 -108.93)"/><path class="cls-3" d="M418.39,176.1h0Z" transform="translate(-51.91 -108.93)"/><path class="cls-3" d="M233.87,175.93l0.4,0.58s4.07-1.61,15.05-1.58,16.65,2,16.71,2l0.37-.59c-1.66-1.65-8.51-6.38-18.05-6.4a21.74,21.74,0,0,0-14.48,6" transform="translate(-51.91 -108.93)"/><path class="cls-3" d="M453.87,176.13l-0.66.71,16.11-1.7c7.47-.65,17.93,2.28,18,2.31l0.29-.64c-0.09-.07-10.11-6.68-19-6.7a22,22,0,0,0-14.77,6" transform="translate(-51.91 -108.93)"/><path class="cls-3" d="M351.75,176.07l0.39,0.59s4.08-1.62,15-1.6,16.66,2,16.71,2l0.37-.58c-1.65-1.66-8.53-6.39-18.09-6.41a21.59,21.59,0,0,0-14.44,6" transform="translate(-51.91 -108.93)"/><path class="cls-4" d="M265.11,120.21a24.15,24.15,0,0,0-33.2-.11h0c-4.86,4.76-7.33,11.19-7.35,19.14,0,7.51,2.27,13.77,6.81,18.59a22.75,22.75,0,0,0,17,7.16,23.12,23.12,0,0,0,16.36-6.38c5-4.74,7.6-11.23,7.62-19.26S270,125,265.11,120.21ZM259,156.42A16.54,16.54,0,0,1,247,162c-4,0-6.15-1.86-9.24-5.75A25.81,25.81,0,0,1,232,139.54c0-7.66,1.51-13.37,4.42-16.93s5.54-6.13,12.12-5.73a14.12,14.12,0,0,1,10.58,5.27c3,3.49,4.46,9.28,4.44,17.19S262,152.86,259,156.42Z" transform="translate(-51.91 -108.93)"/><path class="cls-3" d="M77.7,111.9c-9,.72-13.17,4.42-17.25,10.61-3.9,5.94-5.89,13.21-5.91,21.55,0,9.61,2.82,18.67,7.62,24.18a21.2,21.2,0,0,0,16.53,7.8,26.12,26.12,0,0,0,11.08-2.63c3.71-1.67,8.1-6.21,8.11-7.55l0-8.35,0.06,0a1.2,1.2,0,0,0,.89-0.57c0.46-.41,5-0.77,6.55-0.9l1.18-.11v-2.27l-27.54-.07v2.27l0.29,0c6.57,0.61,7.77,1.23,8,1.47a2.11,2.11,0,0,0,1.33.82c0,0.54,0,10.66,0,10.66l-0.28,1.52a9,9,0,0,1-3.07,1.82l-3,.94-0.6.12-2,.19c-6.73-1.23-8.15-3.37-10.74-7.24L68,164.9c-3.15-4.57-5-12.23-5-20.47,0-9.83,1.64-17,4.8-21.27l0.38-.52c3-4.1,5.63-7.65,10.38-8.09,4.4-.42,13.2.79,15,8.37l1.87,4.4L98.35,134l0.36-.39L100,132c0.06-.21-0.4-19-0.4-19v-0.33h-2l-1.11,2.25a2.08,2.08,0,0,1-1.73.64s-0.74-.41-0.74-0.41l-3.56-1.66c-4.65-1.64-12.09-1.6-12.79-1.56m12.79,1.56h0Z" transform="translate(-51.91 -108.93)"/><path class="cls-3" d="M190,115.09v2.27l2.92,0.12c1.72,0,4.06.05,4.43,0.57,0.56,0.84.9,4.7,0.89,7.8l-1,38.87a12.65,12.65,0,0,1-2,6.85c-0.49.6-2.69,1.28-5.36,1.67l-0.27,0v2.81h0.31c0.19,0,18.21.31,26.37,0,4.35-.14,5.89.7,6.41,1.45a1.2,1.2,0,0,1,.2,1.14l-0.27.72,3-1.32c0.19-.23,2.9-17.37,2.9-17.37l-0.65-.16c-1.77,4.89-4.9,10.11-6.83,11.37s-3.14,1.82-8.67,1.8c-0.79,0-2.44-1.37-3.52-2.28l-1.51-1.05a11.82,11.82,0,0,1-.81-3.14l0.1-41c0-3,.45-6.61,1.11-7.33s4.58-1.21,8.06-1.41l0.31,0v-2.26Z" transform="translate(-51.91 -108.93)"/><path class="cls-3" d="M453.82,157.18h0Z" transform="translate(-51.91 -108.93)"/><path class="cls-4" d="M146.56,172a4.71,4.71,0,0,1-2.93-1.44c-0.42-.53-1.17-2-2.37-5.89l-12.21-52.15-6.47,1.41-11.65,44.17c-2,6.35-3.36,10.1-4.17,11.46a4.22,4.22,0,0,1-3.31,2.34l-0.29,0v2.15l13,0V172l-0.28,0a6.79,6.79,0,0,1-2.81-.71,2.89,2.89,0,0,1-1.11-2.71l0.44-2.87L114.6,158l1.16-3.9,14.37,0c0.16,0.42,3.42,9.56,3.42,9.56s0.79,3.27.79,3.27,0.31,2.18.31,2.18a2.47,2.47,0,0,1-.65,2.09,11.42,11.42,0,0,1-3.4.72l-0.28,0v2.16l16.51,0v-2.15Zm-30-21.17c0.23-.78,6.17-21.57,6.74-23.57,0.57,2,6.49,22.82,6.69,23.6Z" transform="translate(-51.91 -108.93)"/><path class="cls-4" d="M301.47,121.3l-14,0-0.23,1.07,0.45,0s2.84-.23,4,0.35c0.72,0.38.93,1.24,0.92,4.58,0,1.5,0,3.47-.1,6.13-0.16,8.19-1.57,11.33-1.8,11.75h-4.27V147l15.39,0a10.55,10.55,0,0,0,7.15-2.74c2.2-2.1,3.32-5.23,3.33-9.3C312.36,122.66,301.57,121.32,301.47,121.3ZM302.7,145l-6.6-.05c-0.06-.6-0.08-1.72-0.08-3.27,0-6.16.45-17.6,0.51-19,1.25-.19,4-0.53,4.81-0.12a14.13,14.13,0,0,1,6.39,12.38C307.72,142.79,302.9,144.91,302.7,145Z" transform="translate(-51.91 -108.93)"/><path class="cls-4" d="M384.11,120.5a24.08,24.08,0,0,0-33.14-.11h0c-4.87,4.77-7.36,11.22-7.38,19.14,0,7.49,2.25,13.75,6.79,18.59a22.8,22.8,0,0,0,17.08,7.16,23.1,23.1,0,0,0,16.34-6.38c5-4.78,7.59-11.25,7.6-19.26S389,125.3,384.11,120.5ZM378,156.71a16.48,16.48,0,0,1-12,5.55c-4.32,0-6.49-2.29-9.29-5.74A26.21,26.21,0,0,1,351,139.85c0-7.65,1.51-13.36,4.43-16.95s5.52-6.13,12.14-5.73a13.91,13.91,0,0,1,10.53,5.27c3,3.52,4.48,9.29,4.46,17.2S381,153.18,378,156.71Z" transform="translate(-51.91 -108.93)"/><path class="cls-4" d="M481.71,120.74a24.11,24.11,0,0,0-33.17-.12h0c-4.89,4.81-7.38,11.27-7.39,19.14,0,7.46,2.29,13.72,6.85,18.59a22.71,22.71,0,0,0,17,7.16,23.21,23.21,0,0,0,16.41-6.38c5-4.76,7.56-11.24,7.58-19.26S486.55,125.5,481.71,120.74Zm-6.08,36.21a16.5,16.5,0,0,1-12,5.56c-4,0-6.17-1.86-9.27-5.74h0a25.84,25.84,0,0,1-5.77-16.68c0-7.64,1.52-13.36,4.44-16.95s5.53-6.13,12.1-5.74a14,14,0,0,1,10.59,5.27c3,3.51,4.47,9.29,4.45,17.2S478.61,153.42,475.63,156.95Z" transform="translate(-51.91 -108.93)"/><path class="cls-4" d="M452,171.73c-0.18.05-4.73,2.3-7.9,2.3-2.88,0-7.86-5.83-9.54-12.62-1.43-5.8-7.45-12.94-9.15-14.86,2.32-.29,10.16-2.13,10.18-14.4,0-14.31-14.95-15.19-15.1-15.22l-30-.07-0.41,4h6c2.47,0,4.16.6,5,1.75a4,4,0,0,1,.31,3.27c0,0.53-.42,42.49-0.77,46.4a5.32,5.32,0,0,1-3.71,4.66l-6.82,0v2.65l30.32,0.07V177l-0.29,0c-7.36-.79-9.45-2.57-10-3.54a1.81,1.81,0,0,1-.3-1,1.15,1.15,0,0,1,.05-0.35c0-.11.7-23.7,0.75-25.21,0.43-.05,2-0.3,2-0.3a29.76,29.76,0,0,1,4.11,1.32c2.78,1,3.29,2.55,4.11,5.14l0.67,2,1.4,4.41,2.5,7.43c2,5.39,8.07,13.43,16.45,13.45s11.83-8,11.86-8.08l0.19-.46H452Zm-32.61-28.87a35.16,35.16,0,0,1-8.58.77c0-.63-0.14-20.64-0.14-20.64l0-.06a1.6,1.6,0,0,1-.09-0.55,1.57,1.57,0,0,1,.3-0.93c0.52-.64,1.93-1.34,5.69-0.9,7.62,0.9,9.85,8.69,9.74,12.31C426.18,136.32,423.43,141.92,419.36,142.86Z" transform="translate(-51.91 -108.93)"/><path class="cls-3" d="M331.66,120.15l-2.21.44-15.12,0s0,0.46-.08.64a0.3,0.3,0,0,0-.16.25l0.13,0,0,0.35h0.3l1.14,0a2.67,2.67,0,0,1,2.15,1.68c0,5,0,14.78-.06,15.51l-0.7,6.13c-0.11.71-2,1-2.9,1v0.64l17.53,0a1.82,1.82,0,0,0,1.47,1.24l0.26,0,0.3-.34,0.06-.28,1.28-3.74c0.85-1.8.78-2.3,0.63-2.56l-0.23-.34-0.37.22c-5,5-12.08,4.36-13.19,4.21l0-10.81c1.25-.21,3.21-0.4,3.85,0s0.69,2,.62,3l0,0.27,1.46,0.35,0-8.14-0.66-.08a7,7,0,0,1-2,2.19,3,3,0,0,1-1.84.33l-1.63-.05c0-.6.39-9.53,0.42-10.07l2.77-.21a7.16,7.16,0,0,1,4,.83c1.51,0.84,1.66,3.86,1.66,3.89l0,0.39L331,127c0.17,0,1-.38.85-3l0.22-2.7a1.09,1.09,0,0,0-.11-1.17l-0.1-.07Z" transform="translate(-51.91 -108.93)"/><path class="cls-3" d="M150.68,114.3v2.28l2.9,0.12c1.61,0,4,.09,4.39.6,0.54,0.69.95,4.07,0.94,7.73l-1,39a12.85,12.85,0,0,1-2,6.81c-0.53.57-2.8,1.25-5.39,1.62l-0.3,0v2.92l0.34,0c0.19,0,18.24.29,26.41,0,4.55-.18,5.94.8,6.37,1.38a1.25,1.25,0,0,1,.2,1.12l-0.28.78,3.23-1.36,2.73-17.37-0.68-.17c-1.78,4.94-4.91,10.15-6.83,11.35s-3.32,1.81-8.68,1.79c-0.76,0-2.36-1.32-3.41-2.19a6.33,6.33,0,0,0-1.54-1.06,11.45,11.45,0,0,1-.81-3.19l0.1-41c0-3.44.49-6.73,1.08-7.38,0.18-.19,1.28-0.86,8-1.41h0.33v-2.27Z" transform="translate(-51.91 -108.93)"/><path class="cls-3" d="M297.13,160.47a7.22,7.22,0,0,0,.59,5.68c2,3.45,6.94,4.72,9.59,5.4l0.77,0.21c3.1,0.87,3.45,1.48,4.24,2.81,0.56,1,.4,1.17-1.08,2.38l-0.73.61c-1.83,1.5-5.53.74-5.57,0.73l-0.33.62s0.15,0,.18.07h0a10.44,10.44,0,0,0,7.14.88,4.79,4.79,0,0,0,3.5-2.83,3.88,3.88,0,0,0,0-3.19c-1.08-2.31-4.66-3.48-8.78-4.82l-1.43-.46c-5.55-1.89-5-5.56-4.6-8,0.2-1.48,1.34-5.68,8.15-5.36,5.62,0.28,6.61,2.93,7.31,4.86s-0.91,4.8-2,5.47l-0.62.47c-0.93.8-2.08,1.74-5.61,0.08-1.49-.7-2.29-1.51-2.35-2.37-0.1-1.32,1.5-2.56,2.21-3a2.76,2.76,0,0,1,3.33.16l0.05,0.08,0.19,0.2a1.34,1.34,0,0,0,1-.18,0.42,0.42,0,0,0,.6-0.23c0.17-.39-0.1-0.78-2-2-3.32-2.1-5.76-.64-6.66.09a4.85,4.85,0,0,0-1.32,3.32,5.2,5.2,0,0,0,1.86,4.09c3.15,2.91,6.11,2.87,9.1,2.57,2.72-.23,5.55-1.14,6-6a6.42,6.42,0,0,0-1.72-4.86c-2.19-2.55-6.11-4.25-10.22-4.41-7.94-.27-10,3.6-10.88,7" transform="translate(-51.91 -108.93)"/><path class="cls-3" d="M503.51,142a1.61,1.61,0,0,0,1-.26,1,1,0,0,0,.39-0.91,1,1,0,0,0-.53-0.95,2.34,2.34,0,0,0-.77-0.12h-2.09V142h2Zm-2.92-3h3a3.65,3.65,0,0,1,1.24.2,1.6,1.6,0,0,1,.92,1.54,2.06,2.06,0,0,1-.25,1,1.47,1.47,0,0,1-.68.57,1.82,1.82,0,0,1,.55.45,2,2,0,0,1,.26.83v0.83a1.46,1.46,0,0,0,.06.57,0.54,0.54,0,0,0,.25.38v0.13h-1.08a0.39,0.39,0,0,0-.06-0.21V144.8l-0.09-1.07a0.83,0.83,0,0,0-.43-0.84,1.55,1.55,0,0,0-.83-0.12h-2v2.75h-0.89V139Z" transform="translate(-51.91 -108.93)"/><path class="cls-4" d="M497.62,142.33a5.57,5.57,0,1,0,5.59-5.55,5.57,5.57,0,0,0-5.59,5.55m0.48,0a5.09,5.09,0,1,1,5.08,5.09,5.11,5.11,0,0,1-5.08-5.09" transform="translate(-51.91 -108.93)"/><path class="cls-5" d="M418.39,176.1h0Z" transform="translate(-51.91 -108.93)"/><path class="cls-6" d="M233.87,175.93l0.4,0.58s4.07-1.61,15.05-1.58,16.65,2,16.71,2l0.37-.59c-1.66-1.65-8.51-6.38-18.05-6.4a21.74,21.74,0,0,0-14.48,6" transform="translate(-51.91 -108.93)"/><path class="cls-7" d="M453.87,176.13l-0.66.71,16.11-1.7c7.47-.65,17.93,2.28,18,2.31l0.29-.64c-0.09-.07-10.11-6.68-19-6.7a22,22,0,0,0-14.77,6" transform="translate(-51.91 -108.93)"/><path class="cls-8" d="M351.75,176.07l0.39,0.59s4.08-1.62,15-1.6,16.66,2,16.71,2l0.37-.58c-1.65-1.66-8.53-6.39-18.09-6.41a21.59,21.59,0,0,0-14.44,6" transform="translate(-51.91 -108.93)"/><path class="cls-9" d="M265.11,120.21a24.15,24.15,0,0,0-33.2-.11h0c-4.86,4.76-7.33,11.19-7.35,19.14,0,7.51,2.27,13.77,6.81,18.59a22.75,22.75,0,0,0,17,7.16,23.12,23.12,0,0,0,16.36-6.38c5-4.74,7.6-11.23,7.62-19.26S270,125,265.11,120.21ZM259,156.42A16.54,16.54,0,0,1,247,162c-4,0-6.15-1.86-9.24-5.75A25.81,25.81,0,0,1,232,139.54c0-7.66,1.51-13.37,4.42-16.93s5.54-6.13,12.12-5.73a14.12,14.12,0,0,1,10.58,5.27c3,3.49,4.46,9.28,4.44,17.19S262,152.86,259,156.42Z" transform="translate(-51.91 -108.93)"/><path class="cls-10" d="M77.7,111.9c-9,.72-13.17,4.42-17.25,10.61-3.9,5.94-5.89,13.21-5.91,21.55,0,9.61,2.82,18.67,7.62,24.18a21.2,21.2,0,0,0,16.53,7.8,26.12,26.12,0,0,0,11.08-2.63c3.71-1.67,8.1-6.21,8.11-7.55l0-8.35,0.06,0a1.2,1.2,0,0,0,.89-0.57c0.46-.41,5-0.77,6.55-0.9l1.18-.11v-2.27l-27.54-.07v2.27l0.29,0c6.57,0.61,7.77,1.23,8,1.47a2.11,2.11,0,0,0,1.33.82c0,0.54,0,10.66,0,10.66l-0.28,1.52a9,9,0,0,1-3.07,1.82l-3,.94-0.6.12-2,.19c-6.73-1.23-8.15-3.37-10.74-7.24L68,164.9c-3.15-4.57-5-12.23-5-20.47,0-9.83,1.64-17,4.8-21.27l0.38-.52c3-4.1,5.63-7.65,10.38-8.09,4.4-.42,13.2.79,15,8.37l1.87,4.4L98.35,134l0.36-.39L100,132c0.06-.21-0.4-19-0.4-19v-0.33h-2l-1.11,2.25a2.08,2.08,0,0,1-1.73.64s-0.74-.41-0.74-0.41l-3.56-1.66c-4.65-1.64-12.09-1.6-12.79-1.56m12.79,1.56h0Z" transform="translate(-51.91 -108.93)"/><path class="cls-11" d="M190,115.09v2.27l2.92,0.12c1.72,0,4.06.05,4.43,0.57,0.56,0.84.9,4.7,0.89,7.8l-1,38.87a12.65,12.65,0,0,1-2,6.85c-0.49.6-2.69,1.28-5.36,1.67l-0.27,0v2.81h0.31c0.19,0,18.21.31,26.37,0,4.35-.14,5.89.7,6.41,1.45a1.2,1.2,0,0,1,.2,1.14l-0.27.72,3-1.32c0.19-.23,2.9-17.37,2.9-17.37l-0.65-.16c-1.77,4.89-4.9,10.11-6.83,11.37s-3.14,1.82-8.67,1.8c-0.79,0-2.44-1.37-3.52-2.28l-1.51-1.05a11.82,11.82,0,0,1-.81-3.14l0.1-41c0-3,.45-6.61,1.11-7.33s4.58-1.21,8.06-1.41l0.31,0v-2.26Z" transform="translate(-51.91 -108.93)"/><path class="cls-12" d="M453.82,157.18h0Z" transform="translate(-51.91 -108.93)"/><path class="cls-13" d="M146.56,172a4.71,4.71,0,0,1-2.93-1.44c-0.42-.53-1.17-2-2.37-5.89l-12.21-52.15-6.47,1.41-11.65,44.17c-2,6.35-3.36,10.1-4.17,11.46a4.22,4.22,0,0,1-3.31,2.34l-0.29,0v2.15l13,0V172l-0.28,0a6.79,6.79,0,0,1-2.81-.71,2.89,2.89,0,0,1-1.11-2.71l0.44-2.87L114.6,158l1.16-3.9,14.37,0c0.16,0.42,3.42,9.56,3.42,9.56s0.79,3.27.79,3.27,0.31,2.18.31,2.18a2.47,2.47,0,0,1-.65,2.09,11.42,11.42,0,0,1-3.4.72l-0.28,0v2.16l16.51,0v-2.15Zm-30-21.17c0.23-.78,6.17-21.57,6.74-23.57,0.57,2,6.49,22.82,6.69,23.6Z" transform="translate(-51.91 -108.93)"/><path class="cls-14" d="M301.47,121.3l-14,0-0.23,1.07,0.45,0s2.84-.23,4,0.35c0.72,0.38.93,1.24,0.92,4.58,0,1.5,0,3.47-.1,6.13-0.16,8.19-1.57,11.33-1.8,11.75h-4.27V147l15.39,0a10.55,10.55,0,0,0,7.15-2.74c2.2-2.1,3.32-5.23,3.33-9.3C312.36,122.66,301.57,121.32,301.47,121.3ZM302.7,145l-6.6-.05c-0.06-.6-0.08-1.72-0.08-3.27,0-6.16.45-17.6,0.51-19,1.25-.19,4-0.53,4.81-0.12a14.13,14.13,0,0,1,6.39,12.38C307.72,142.79,302.9,144.91,302.7,145Z" transform="translate(-51.91 -108.93)"/><path class="cls-15" d="M384.11,120.5a24.08,24.08,0,0,0-33.14-.11h0c-4.87,4.77-7.36,11.22-7.38,19.14,0,7.49,2.25,13.75,6.79,18.59a22.8,22.8,0,0,0,17.08,7.16,23.1,23.1,0,0,0,16.34-6.38c5-4.78,7.59-11.25,7.6-19.26S389,125.3,384.11,120.5ZM378,156.71a16.48,16.48,0,0,1-12,5.55c-4.32,0-6.49-2.29-9.29-5.74A26.21,26.21,0,0,1,351,139.85c0-7.65,1.51-13.36,4.43-16.95s5.52-6.13,12.14-5.73a13.91,13.91,0,0,1,10.53,5.27c3,3.52,4.48,9.29,4.46,17.2S381,153.18,378,156.71Z" transform="translate(-51.91 -108.93)"/><path class="cls-16" d="M481.71,120.74a24.11,24.11,0,0,0-33.17-.12h0c-4.89,4.81-7.38,11.27-7.39,19.14,0,7.46,2.29,13.72,6.85,18.59a22.71,22.71,0,0,0,17,7.16,23.21,23.21,0,0,0,16.41-6.38c5-4.76,7.56-11.24,7.58-19.26S486.55,125.5,481.71,120.74Zm-6.08,36.21a16.5,16.5,0,0,1-12,5.56c-4,0-6.17-1.86-9.27-5.74h0a25.84,25.84,0,0,1-5.77-16.68c0-7.64,1.52-13.36,4.44-16.95s5.53-6.13,12.1-5.74a14,14,0,0,1,10.59,5.27c3,3.51,4.47,9.29,4.45,17.2S478.61,153.42,475.63,156.95Z" transform="translate(-51.91 -108.93)"/><path class="cls-17" d="M452,171.73c-0.18.05-4.73,2.3-7.9,2.3-2.88,0-7.86-5.83-9.54-12.62-1.43-5.8-7.45-12.94-9.15-14.86,2.32-.29,10.16-2.13,10.18-14.4,0-14.31-14.95-15.19-15.1-15.22l-30-.07-0.41,4h6c2.47,0,4.16.6,5,1.75a4,4,0,0,1,.31,3.27c0,0.53-.42,42.49-0.77,46.4a5.32,5.32,0,0,1-3.71,4.66l-6.82,0v2.65l30.32,0.07V177l-0.29,0c-7.36-.79-9.45-2.57-10-3.54a1.81,1.81,0,0,1-.3-1,1.15,1.15,0,0,1,.05-0.35c0-.11.7-23.7,0.75-25.21,0.43-.05,2-0.3,2-0.3a29.76,29.76,0,0,1,4.11,1.32c2.78,1,3.29,2.55,4.11,5.14l0.67,2,1.4,4.41,2.5,7.43c2,5.39,8.07,13.43,16.45,13.45s11.83-8,11.86-8.08l0.19-.46H452Zm-32.61-28.87a35.16,35.16,0,0,1-8.58.77c0-.63-0.14-20.64-0.14-20.64l0-.06a1.6,1.6,0,0,1-.09-0.55,1.57,1.57,0,0,1,.3-0.93c0.52-.64,1.93-1.34,5.69-0.9,7.62,0.9,9.85,8.69,9.74,12.31C426.18,136.32,423.43,141.92,419.36,142.86Z" transform="translate(-51.91 -108.93)"/><path class="cls-18" d="M331.66,120.15l-2.21.44-15.12,0s0,0.46-.08.64a0.3,0.3,0,0,0-.16.25l0.13,0,0,0.35h0.3l1.14,0a2.67,2.67,0,0,1,2.15,1.68c0,5,0,14.78-.06,15.51l-0.7,6.13c-0.11.71-2,1-2.9,1v0.64l17.53,0a1.82,1.82,0,0,0,1.47,1.24l0.26,0,0.3-.34,0.06-.28,1.28-3.74c0.85-1.8.78-2.3,0.63-2.56l-0.23-.34-0.37.22c-5,5-12.08,4.36-13.19,4.21l0-10.81c1.25-.21,3.21-0.4,3.85,0s0.69,2,.62,3l0,0.27,1.46,0.35,0-8.14-0.66-.08a7,7,0,0,1-2,2.19,3,3,0,0,1-1.84.33l-1.63-.05c0-.6.39-9.53,0.42-10.07l2.77-.21a7.16,7.16,0,0,1,4,.83c1.51,0.84,1.66,3.86,1.66,3.89l0,0.39L331,127c0.17,0,1-.38.85-3l0.22-2.7a1.09,1.09,0,0,0-.11-1.17l-0.1-.07Z" transform="translate(-51.91 -108.93)"/><path class="cls-19" d="M150.68,114.3v2.28l2.9,0.12c1.61,0,4,.09,4.39.6,0.54,0.69.95,4.07,0.94,7.73l-1,39a12.85,12.85,0,0,1-2,6.81c-0.53.57-2.8,1.25-5.39,1.62l-0.3,0v2.92l0.34,0c0.19,0,18.24.29,26.41,0,4.55-.18,5.94.8,6.37,1.38a1.25,1.25,0,0,1,.2,1.12l-0.28.78,3.23-1.36,2.73-17.37-0.68-.17c-1.78,4.94-4.91,10.15-6.83,11.35s-3.32,1.81-8.68,1.79c-0.76,0-2.36-1.32-3.41-2.19a6.33,6.33,0,0,0-1.54-1.06,11.45,11.45,0,0,1-.81-3.19l0.1-41c0-3.44.49-6.73,1.08-7.38,0.18-.19,1.28-0.86,8-1.41h0.33v-2.27Z" transform="translate(-51.91 -108.93)"/><path class="cls-20" d="M297.13,160.47a7.22,7.22,0,0,0,.59,5.68c2,3.45,6.94,4.72,9.59,5.4l0.77,0.21c3.1,0.87,3.45,1.48,4.24,2.81,0.56,1,.4,1.17-1.08,2.38l-0.73.61c-1.83,1.5-5.53.74-5.57,0.73l-0.33.62s0.15,0,.18.07h0a10.44,10.44,0,0,0,7.14.88,4.79,4.79,0,0,0,3.5-2.83,3.88,3.88,0,0,0,0-3.19c-1.08-2.31-4.66-3.48-8.78-4.82l-1.43-.46c-5.55-1.89-5-5.56-4.6-8,0.2-1.48,1.34-5.68,8.15-5.36,5.62,0.28,6.61,2.93,7.31,4.86s-0.91,4.8-2,5.47l-0.62.47c-0.93.8-2.08,1.74-5.61,0.08-1.49-.7-2.29-1.51-2.35-2.37-0.1-1.32,1.5-2.56,2.21-3a2.76,2.76,0,0,1,3.33.16l0.05,0.08,0.19,0.2a1.34,1.34,0,0,0,1-.18,0.42,0.42,0,0,0,.6-0.23c0.17-.39-0.1-0.78-2-2-3.32-2.1-5.76-.64-6.66.09a4.85,4.85,0,0,0-1.32,3.32,5.2,5.2,0,0,0,1.86,4.09c3.15,2.91,6.11,2.87,9.1,2.57,2.72-.23,5.55-1.14,6-6a6.42,6.42,0,0,0-1.72-4.86c-2.19-2.55-6.11-4.25-10.22-4.41-7.94-.27-10,3.6-10.88,7" transform="translate(-51.91 -108.93)"/><path class="cls-21" d="M503.51,142a1.61,1.61,0,0,0,1-.26,1,1,0,0,0,.39-0.91,1,1,0,0,0-.53-0.95,2.34,2.34,0,0,0-.77-0.12h-2.09V142h2Zm-2.92-3h3a3.65,3.65,0,0,1,1.24.2,1.6,1.6,0,0,1,.92,1.54,2.06,2.06,0,0,1-.25,1,1.47,1.47,0,0,1-.68.57,1.82,1.82,0,0,1,.55.45,2,2,0,0,1,.26.83v0.83a1.46,1.46,0,0,0,.06.57,0.54,0.54,0,0,0,.25.38v0.13h-1.08a0.39,0.39,0,0,0-.06-0.21V144.8l-0.09-1.07a0.83,0.83,0,0,0-.43-0.84,1.55,1.55,0,0,0-.83-0.12h-2v2.75h-0.89V139Z" transform="translate(-51.91 -108.93)"/><path class="cls-22" d="M497.62,142.33a5.57,5.57,0,1,0,5.59-5.55,5.57,5.57,0,0,0-5.59,5.55m0.48,0a5.09,5.09,0,1,1,5.08,5.09,5.11,5.11,0,0,1-5.08-5.09" transform="translate(-51.91 -108.93)"/></svg>