<svg id="Layer_1" data-name="Layer 1" xmlns="http://www.w3.org/2000/svg" viewBox="0 0 406.63 333.19"><defs><style>.cls-1,.cls-3{fill:#211f1f;}.cls-2,.cls-6{fill:#fff;}.cls-2,.cls-3{fill-rule:evenodd;}.cls-4{fill:#ffd100;}.cls-5{fill:#eb0029;}</style></defs><title>logo</title><path class="cls-1" d="M92.19,303.63l0.06-.23-1.06-12-3.24,12.23H84.29l4.19-15.94a4,4,0,0,1-2.11.53,6.48,6.48,0,0,1-.82,0l0.65-2.53a4.57,4.57,0,0,0,.66,0,2.85,2.85,0,0,0,2.63-1.77H93.3l1.08,11.34,3-11.34H101l-5.18,19.71H92.19Z" transform="translate(-27.43 -7.2)"/><path class="cls-1" d="M103.35,300.76a0.65,0.65,0,0,0,.45.12,2.59,2.59,0,0,0,1.14-.33,2.83,2.83,0,0,0,1.28-1.57l2-7.75h3.64l-3.22,12.52H105l0.22-.77a6.87,6.87,0,0,1-3.24.84c-0.23,0-.4,0-0.57,0-1.45-.35-2.18-1.41-2.18-3.15a4.69,4.69,0,0,1,.08-0.84l2.26-8.57h3.66L103,299.8c0,0.09,0,.18,0,0.27a0.78,0.78,0,0,0,.42.7" transform="translate(-27.43 -7.2)"/><polygon class="cls-1" points="88.31 296.43 84.66 296.43 87.2 286.7 85.54 286.7 86.25 284.01 87.92 284.01 89.35 278.61 93 278.61 91.59 284.01 93.89 284.01 93.15 286.7 90.88 286.7 88.31 296.43"/><path class="cls-1" d="M129.61,291.39l-0.82,3.43a2.49,2.49,0,0,0-1.28-.42c-1,0-1.68.66-2.22,1.93l-2,7.31h-3.65l3.37-12.4h3.64l-0.19.78a4.51,4.51,0,0,1,2.34-.8,1.47,1.47,0,0,1,.8.18" transform="translate(-27.43 -7.2)"/><path class="cls-1" d="M135.66,291.17l-3.29,12.5h-3.64l3.27-12.5h3.66Zm-0.84-2a2.36,2.36,0,0,1-1.53-.41,1.28,1.28,0,0,1-.65-1.08,1.4,1.4,0,0,1,.65-1.15,2.74,2.74,0,0,1,3.06-.12,1.33,1.33,0,0,1,.64,1.09,1.41,1.41,0,0,1-.64,1.14,2.53,2.53,0,0,1-1.53.52" transform="translate(-27.43 -7.2)"/><path class="cls-1" d="M145.11,295.85a2.91,2.91,0,0,0-2-1.84,0.59,0.59,0,0,0-.27,0,2.31,2.31,0,0,0-1.43.7,5.26,5.26,0,0,0-1.34,2.06,5.63,5.63,0,0,0-.4,2,4.13,4.13,0,0,0,.21,1.32,1,1,0,0,0,.93.82,5,5,0,0,0,3.4-1.81l-1,3.77a5.67,5.67,0,0,1-3,.94,3.81,3.81,0,0,1-1.72-.42c-1.65-.78-2.48-2.31-2.48-4.56a8.31,8.31,0,0,1,3.33-6.6,5.47,5.47,0,0,1,3.22-1.12,3.87,3.87,0,0,1,3.26,1.65Z" transform="translate(-27.43 -7.2)"/><path class="cls-1" d="M152.34,291.17l-3.28,12.5h-3.65l3.28-12.5h3.65Zm-0.85-2a2.4,2.4,0,0,1-1.53-.41,1.26,1.26,0,0,1-.63-1.08,1.38,1.38,0,0,1,.63-1.15,2.56,2.56,0,0,1,1.53-.53,2.45,2.45,0,0,1,1.53.41,1.29,1.29,0,0,1,.64,1.09,1.38,1.38,0,0,1-.64,1.14,2.49,2.49,0,0,1-1.53.52" transform="translate(-27.43 -7.2)"/><path class="cls-1" d="M155.37,303.51c-1.68-.81-2.49-2.35-2.49-4.62a8.2,8.2,0,0,1,.86-3.62,7.87,7.87,0,0,1,2.52-3.06,5.45,5.45,0,0,1,3.22-1.12,3.9,3.9,0,0,1,1.78.39c1.67,0.81,2.48,2.33,2.48,4.6a7.93,7.93,0,0,1-.87,3.61,7.79,7.79,0,0,1-2.5,3.07,5.43,5.43,0,0,1-3.24,1.16,3.79,3.79,0,0,1-1.76-.4m4.15-9.61a2.16,2.16,0,0,0-1.36.75,7,7,0,0,0-1.27,2,6.66,6.66,0,0,0-.56,2.56c0,1.16.35,1.74,1,1.74a2,2,0,0,0,1.35-.76,6.13,6.13,0,0,0,1.27-2,6.65,6.65,0,0,0,.55-2.51c0-1.18-.33-1.77-1-1.77m-1.78-4.36,0.69-2,5.27-1.59-0.82,3Z" transform="translate(-27.43 -7.2)"/><path class="cls-1" d="M175.58,305.6a1.43,1.43,0,0,0,1.12-.5l0.81,2.38a5,5,0,0,1-3.57,1.42,3.2,3.2,0,0,1-2.51-1.08,2.78,2.78,0,0,1-.87-1.88q0,0.12.24-2.31l2.19-8.32a0.61,0.61,0,0,0,.06-0.25,0.74,0.74,0,0,0-.42-0.69,0.63,0.63,0,0,0-.42-0.16,1.76,1.76,0,0,0-1,.44c-0.26.21-.52,0.44-0.78,0.66a2.52,2.52,0,0,0-.62.77l-2,7.56h-3.65l3.28-12.4H171l-0.21.84a5.56,5.56,0,0,1,2.89-.87,3.62,3.62,0,0,1,.87.09,3.34,3.34,0,0,1,2.18,3.23,3.79,3.79,0,0,1-.09.77l-2.22,8.32c0,1.25.36,1.9,1.15,2" transform="translate(-27.43 -7.2)"/><path class="cls-1" d="M188,299.48a1.66,1.66,0,0,0,.77,1.4,3.3,3.3,0,0,0,.4.21,4.37,4.37,0,0,0,3.3-1.41l-0.93,3.53a4.27,4.27,0,0,1-2.37.7,4.94,4.94,0,0,1-2.22-.55c-1.62-.77-2.43-2.29-2.43-4.52a8.24,8.24,0,0,1,3.4-6.56,5.79,5.79,0,0,1,3.32-1.14,4,4,0,0,1,1.72.36,3,3,0,0,1,2.09,3.16,3.12,3.12,0,0,1-.09.82,5.11,5.11,0,0,1-2,2.92,5.8,5.8,0,0,1-3.56,1.27,5.11,5.11,0,0,1-1.39-.19m0.21-2.28a5.1,5.1,0,0,0,1,.09,3.62,3.62,0,0,0,2.17-.62,2.09,2.09,0,0,0,.87-1.52,1.2,1.2,0,0,0-.33-0.8,0.88,0.88,0,0,0-.72-0.41,2.55,2.55,0,0,0-1.89,1.21,6.34,6.34,0,0,0-1.11,2.06" transform="translate(-27.43 -7.2)"/><path class="cls-1" d="M204.5,294.73a6,6,0,0,0-3.55-1.09,1.68,1.68,0,0,0-.89.3,0.82,0.82,0,0,0-.45.71,1.8,1.8,0,0,0,1.14,1,12,12,0,0,1,2.1,1.2,2.77,2.77,0,0,1,1.13,2.22,4.59,4.59,0,0,1-1.52,3.58,5.45,5.45,0,0,1-3.78,1.36,10.21,10.21,0,0,1-2.18-.32,5.4,5.4,0,0,1-2-.66l0.74-2.91a7.1,7.1,0,0,0,3.49.84c1.17,0,1.75-.33,1.75-1a1.64,1.64,0,0,0-1-1.32c-0.71-.4-1.39-0.77-2.08-1.14a2.45,2.45,0,0,1-1.09-2,4.34,4.34,0,0,1,1.6-3.4,5.32,5.32,0,0,1,3.57-1.28,6.57,6.57,0,0,1,3.79,1Z" transform="translate(-27.43 -7.2)"/><path class="cls-1" d="M208.52,302.25l-1.81,6.84h-3.65l4.69-17.88h3.65l-0.29,1.14a4.49,4.49,0,0,1,2.82-1.14,3.07,3.07,0,0,1,1.14.19c1.4,0.6,2.09,2,2.09,4.09a9.13,9.13,0,0,1-.79,3.6,8.75,8.75,0,0,1-2.36,3.34,4.55,4.55,0,0,1-3,1.26,2.82,2.82,0,0,1-2.51-1.44m4.19-8.55a2,2,0,0,0-1.36.82,6.27,6.27,0,0,0-1.22,2.06,6.7,6.7,0,0,0-.47,2.31c0,1.18.33,1.76,1,1.76a2,2,0,0,0,1.37-.81,6.68,6.68,0,0,0,1.24-2.1,6.36,6.36,0,0,0,.46-2.27c0-1.17-.33-1.76-1-1.76" transform="translate(-27.43 -7.2)"/><path class="cls-1" d="M221.56,299.48a1.65,1.65,0,0,0,.77,1.4,3.57,3.57,0,0,0,.4.21,4.43,4.43,0,0,0,3.31-1.41l-0.94,3.53a4.3,4.3,0,0,1-2.37.7,5,5,0,0,1-2.23-.55c-1.63-.77-2.43-2.29-2.43-4.52a8,8,0,0,1,.84-3.52,7.65,7.65,0,0,1,2.58-3,5.7,5.7,0,0,1,3.3-1.14,3.9,3.9,0,0,1,1.7.36,3,3,0,0,1,2.1,3.16,3.17,3.17,0,0,1-.08.82,5,5,0,0,1-2,2.92,5.72,5.72,0,0,1-3.56,1.27,5.12,5.12,0,0,1-1.37-.19m0.22-2.28a5,5,0,0,0,1,.09,3.6,3.6,0,0,0,2.19-.62,2.06,2.06,0,0,0,.87-1.52,1.22,1.22,0,0,0-.32-0.8,0.87,0.87,0,0,0-.74-0.41,2.56,2.56,0,0,0-1.87,1.21,6.28,6.28,0,0,0-1.11,2.06" transform="translate(-27.43 -7.2)"/><path class="cls-1" d="M238.18,295.85a2.89,2.89,0,0,0-1.95-1.84,0.62,0.62,0,0,0-.27,0,2.26,2.26,0,0,0-1.42.7,5.25,5.25,0,0,0-1.36,2.06,5.7,5.7,0,0,0-.39,2,3.55,3.55,0,0,0,.22,1.32,1,1,0,0,0,.92.82,5,5,0,0,0,3.41-1.81l-1,3.77a5.66,5.66,0,0,1-3,.94,3.81,3.81,0,0,1-1.72-.42c-1.65-.78-2.49-2.31-2.49-4.56a8.07,8.07,0,0,1,.86-3.58,7.88,7.88,0,0,1,2.51-3,5.42,5.42,0,0,1,3.21-1.12,3.82,3.82,0,0,1,3.25,1.65Z" transform="translate(-27.43 -7.2)"/><path class="cls-1" d="M245.41,291.17l-3.27,12.5h-3.66l3.27-12.5h3.66Zm-0.85-2a2.46,2.46,0,0,1-1.54-.41,1.31,1.31,0,0,1-.63-1.08,1.44,1.44,0,0,1,.63-1.15,2.63,2.63,0,0,1,1.54-.53,2.33,2.33,0,0,1,1.51.41,1.32,1.32,0,0,1,.67,1.09,1.4,1.4,0,0,1-.67,1.14,2.36,2.36,0,0,1-1.51.52" transform="translate(-27.43 -7.2)"/><path class="cls-1" d="M248,303.62c-1.42-.62-2.15-2-2.15-4.25a9.27,9.27,0,0,1,.79-3.68,9.09,9.09,0,0,1,2.38-3.35,4.66,4.66,0,0,1,3-1.3,2.77,2.77,0,0,1,2.35,1.2l0.3-1.08h3.57L256,300a1.25,1.25,0,0,0,0,.34,0.49,0.49,0,0,0,.61.52,2.13,2.13,0,0,0,.76-0.17L256.64,303a4.71,4.71,0,0,1-2.55.93,2.72,2.72,0,0,1-2.23-1.19,4.57,4.57,0,0,1-2.72,1,3.18,3.18,0,0,1-1.13-.2m4.41-9.76a1.93,1.93,0,0,0-1.35.78,6.1,6.1,0,0,0-1.22,2.08,6.36,6.36,0,0,0-.44,2.29c0,1.18.3,1.76,0.93,1.76a2,2,0,0,0,1.35-.85,6.67,6.67,0,0,0,1.22-2.15,6,6,0,0,0,.48-2.23c0-1.13-.31-1.68-1-1.68" transform="translate(-27.43 -7.2)"/><polygon class="cls-1" points="234.91 296.47 231.26 296.47 236.17 277.77 239.87 277.77 234.91 296.47"/><path class="cls-1" d="M272.4,291.17l-3.28,12.5h-3.65l3.28-12.5h3.66Zm-0.86-2a2.43,2.43,0,0,1-1.52-.41,1.3,1.3,0,0,1-.65-1.08,1.43,1.43,0,0,1,.65-1.15,2.61,2.61,0,0,1,1.52-.53,2.47,2.47,0,0,1,1.54.41,1.31,1.31,0,0,1,.63,1.09,1.39,1.39,0,0,1-.63,1.14,2.51,2.51,0,0,1-1.54.52" transform="translate(-27.43 -7.2)"/><polygon class="cls-1" points="249.9 293.7 254.02 293.7 253.36 296.43 244.21 296.43 250.9 286.68 246.49 286.68 247.19 283.97 253.2 283.97 256.58 283.97 249.9 293.7"/><path class="cls-1" d="M285.47,303.62q-2.14-.93-2.14-4.25a9.77,9.77,0,0,1,3.17-7,4.66,4.66,0,0,1,3-1.3,2.75,2.75,0,0,1,2.35,1.2l0.28-1.08h3.58L293.43,300a1,1,0,0,0-.06.34,0.51,0.51,0,0,0,.62.52,2.23,2.23,0,0,0,.77-0.17L294.09,303a4.57,4.57,0,0,1-2.54.93,2.68,2.68,0,0,1-2.2-1.19,4.6,4.6,0,0,1-2.75,1,3.15,3.15,0,0,1-1.13-.2m4.41-9.76a2,2,0,0,0-1.37.78,6.61,6.61,0,0,0-1.18,2.08,6,6,0,0,0-.46,2.29c0,1.18.31,1.76,0.93,1.76a2,2,0,0,0,1.34-.85,6.13,6.13,0,0,0,1.22-2.15,5.89,5.89,0,0,0,.47-2.23c0-1.13-.31-1.68-1-1.68" transform="translate(-27.43 -7.2)"/><path class="cls-1" d="M298.73,303.56c-1.4-.61-2.1-2-2.1-4.2a9.14,9.14,0,0,1,.77-3.62,9.31,9.31,0,0,1,2.4-3.35,4.69,4.69,0,0,1,3-1.27,2.75,2.75,0,0,1,2.38,1.31l2-7.47h3.65l-4.93,18.66h-3.68l0.24-.81a4.51,4.51,0,0,1-2.58,1,3,3,0,0,1-1.11-.22m4.19-9.66q-1.43,0-2.41,2.66a6.56,6.56,0,0,0-.45,2.32c0,1.23.33,1.83,1,1.83a2,2,0,0,0,1.4-.81,6.22,6.22,0,0,0,1.21-2.1,5.45,5.45,0,0,0,.44-2c0-1.25-.4-1.87-1.19-1.87" transform="translate(-27.43 -7.2)"/><path class="cls-1" d="M311.91,303.62c-1.43-.62-2.15-2-2.15-4.25a9.36,9.36,0,0,1,.81-3.68,9.09,9.09,0,0,1,2.38-3.35,4.64,4.64,0,0,1,3-1.3,2.79,2.79,0,0,1,2.36,1.2l0.29-1.08h3.58L319.88,300a1.13,1.13,0,0,0,0,.34,0.49,0.49,0,0,0,.6.52,2.16,2.16,0,0,0,.76-0.17L320.53,303A4.61,4.61,0,0,1,318,304a2.71,2.71,0,0,1-2.23-1.19,4.51,4.51,0,0,1-2.72,1,3.2,3.2,0,0,1-1.13-.2m4.41-9.76a2,2,0,0,0-1.35.78,6,6,0,0,0-1.21,2.08,6,6,0,0,0-.46,2.29c0,1.18.31,1.76,0.94,1.76a2,2,0,0,0,1.34-.85,6.47,6.47,0,0,0,1.21-2.15,5.91,5.91,0,0,0,.48-2.23c0-1.13-.31-1.68-1-1.68" transform="translate(-27.43 -7.2)"/><path class="cls-1" d="M333.08,302.25l-1.8,6.84h-3.65l4.67-17.88H336l-0.29,1.14a4.56,4.56,0,0,1,2.84-1.14,3.18,3.18,0,0,1,1.13.19c1.41,0.6,2.09,2,2.09,4.09a10,10,0,0,1-3.16,6.94,4.59,4.59,0,0,1-3,1.26,2.85,2.85,0,0,1-2.51-1.44m4.21-8.55a1.94,1.94,0,0,0-1.36.82,7.09,7.09,0,0,0-1.7,4.37c0,1.18.34,1.76,1,1.76a2.06,2.06,0,0,0,1.39-.81,6.93,6.93,0,0,0,1.23-2.1,6.68,6.68,0,0,0,.46-2.27c0-1.17-.35-1.76-1-1.76" transform="translate(-27.43 -7.2)"/><path class="cls-1" d="M344.75,303.62c-1.44-.62-2.14-2-2.14-4.25a9.33,9.33,0,0,1,.79-3.68,9.42,9.42,0,0,1,2.38-3.35,4.71,4.71,0,0,1,3-1.3,2.76,2.76,0,0,1,2.36,1.2l0.29-1.08H355l-2.3,8.85a1.14,1.14,0,0,0,0,.34,0.5,0.5,0,0,0,.61.52,2.13,2.13,0,0,0,.76-0.17L353.38,303a4.65,4.65,0,0,1-2.55.93,2.71,2.71,0,0,1-2.22-1.19,4.53,4.53,0,0,1-2.72,1,3.23,3.23,0,0,1-1.14-.2m4.42-9.76a2,2,0,0,0-1.36.78,6.95,6.95,0,0,0-1.65,4.37c0,1.18.29,1.76,0.92,1.76a1.91,1.91,0,0,0,1.33-.85,5.94,5.94,0,0,0,1.22-2.15,5.8,5.8,0,0,0,.49-2.23c0-1.13-.31-1.68-1-1.68" transform="translate(-27.43 -7.2)"/><path class="cls-1" d="M365.12,291.39l-0.81,3.43a2.57,2.57,0,0,0-1.31-.42c-0.95,0-1.67.66-2.21,1.93l-1.95,7.31h-3.67l3.35-12.4h3.66L362,292a4.61,4.61,0,0,1,2.36-.8,1.49,1.49,0,0,1,.8.18" transform="translate(-27.43 -7.2)"/><path class="cls-1" d="M366.92,303.62q-2.13-.93-2.13-4.25a9.7,9.7,0,0,1,3.17-7,4.62,4.62,0,0,1,3-1.3,2.76,2.76,0,0,1,2.36,1.2l0.29-1.08h3.58l-2.3,8.85a1,1,0,0,0-.06.34,0.49,0.49,0,0,0,.6.52,2.12,2.12,0,0,0,.77-0.17L375.56,303A4.67,4.67,0,0,1,373,304a2.69,2.69,0,0,1-2.21-1.19,4.6,4.6,0,0,1-2.72,1,3.18,3.18,0,0,1-1.14-.2m4.41-9.76a2,2,0,0,0-1.37.78,6,6,0,0,0-1.19,2.08,6.09,6.09,0,0,0-.45,2.29c0,1.18.31,1.76,0.92,1.76a2,2,0,0,0,1.37-.85,6.58,6.58,0,0,0,1.19-2.15,6,6,0,0,0,.5-2.23c0-1.13-.32-1.68-1-1.68" transform="translate(-27.43 -7.2)"/><path class="cls-1" d="M153.06,332.86H149l-1.35,2.34H144l8.77-14.7a3.86,3.86,0,0,0,2-2,4.61,4.61,0,0,1-3.21,1.25,2.58,2.58,0,0,1-.75-0.09l0.69-2.52a4.2,4.2,0,0,0,4.24-1.63l1.43-2.39V335.2h-4.1v-2.34Zm-2.51-2.71h2.51v-4.34Z" transform="translate(-27.43 -7.2)"/><polygon class="cls-1" points="132.84 328.01 132.86 327.94 132.15 315.54 135.61 315.54 136.03 322.61 140.22 315.56 143.7 315.56 136.35 328.01 132.84 328.01"/><path class="cls-1" d="M173.81,331a1.68,1.68,0,0,0,.76,1.39,3.12,3.12,0,0,0,.41.22,4.43,4.43,0,0,0,3.3-1.39l-0.93,3.51a4.3,4.3,0,0,1-2.37.72,5,5,0,0,1-2.22-.54c-1.64-.8-2.46-2.29-2.46-4.53a8.14,8.14,0,0,1,.85-3.53,7.69,7.69,0,0,1,2.58-3A5.67,5.67,0,0,1,177,322.7a4.18,4.18,0,0,1,1.73.37,3,3,0,0,1,2.09,3.15,4.78,4.78,0,0,1-.09.82,5.09,5.09,0,0,1-2,2.92,5.76,5.76,0,0,1-3.58,1.26,5.49,5.49,0,0,1-1.38-.18m0.2-2.3a4.3,4.3,0,0,0,1,.12,3.45,3.45,0,0,0,2.17-.65,2.07,2.07,0,0,0,.88-1.53,1.3,1.3,0,0,0-.31-0.8,0.92,0.92,0,0,0-.76-0.42,2.6,2.6,0,0,0-1.87,1.21,6.32,6.32,0,0,0-1.12,2.05" transform="translate(-27.43 -7.2)"/><path class="cls-1" d="M190.35,326.27a6,6,0,0,0-3.55-1.06,1.93,1.93,0,0,0-.9.28,0.87,0.87,0,0,0-.45.72,1.76,1.76,0,0,0,1.13,1,14.12,14.12,0,0,1,2.13,1.2,2.8,2.8,0,0,1,1.12,2.21,4.55,4.55,0,0,1-1.52,3.6,5.42,5.42,0,0,1-3.77,1.36,10.22,10.22,0,0,1-2.17-.32,6,6,0,0,1-2-.65l0.74-2.91a7.11,7.11,0,0,0,3.5.83c1.16,0,1.74-.31,1.74-1a1.59,1.59,0,0,0-1-1.31c-0.7-.39-1.39-0.76-2.08-1.15a2.42,2.42,0,0,1-1.07-2,4.22,4.22,0,0,1,1.59-3.39,5.31,5.31,0,0,1,3.56-1.3,6.44,6.44,0,0,1,3.78,1Z" transform="translate(-27.43 -7.2)"/><path class="cls-1" d="M200,335.12c-1.41-.59-2.09-2-2.09-4.19a9.46,9.46,0,0,1,.75-3.62,9.15,9.15,0,0,1,2.41-3.34,4.57,4.57,0,0,1,3-1.29,2.71,2.71,0,0,1,2.38,1.32l2-7.47h3.65l-4.92,18.68h-3.67l0.24-.83a4.53,4.53,0,0,1-2.6,1,2.74,2.74,0,0,1-1.11-.21m4.21-9.65c-1,0-1.77.87-2.44,2.66a6.67,6.67,0,0,0-.44,2.32c0,1.22.32,1.84,1,1.84a2,2,0,0,0,1.41-.83,6.24,6.24,0,0,0,1.21-2.1,5.38,5.38,0,0,0,.43-2c0-1.25-.4-1.86-1.16-1.86" transform="translate(-27.43 -7.2)"/><path class="cls-1" d="M214.56,331a1.63,1.63,0,0,0,.78,1.39,1.54,1.54,0,0,0,.38.22,4.42,4.42,0,0,0,3.31-1.39l-0.93,3.51a4.32,4.32,0,0,1-2.38.72,5.09,5.09,0,0,1-2.23-.54c-1.61-.8-2.44-2.29-2.44-4.53a7.88,7.88,0,0,1,.87-3.53,7.59,7.59,0,0,1,2.55-3,5.78,5.78,0,0,1,3.31-1.15,4.19,4.19,0,0,1,1.73.37,3,3,0,0,1,2.09,3.15,4.22,4.22,0,0,1-.08.82,5.15,5.15,0,0,1-2,2.92,5.83,5.83,0,0,1-3.59,1.26,5.54,5.54,0,0,1-1.37-.18m0.2-2.3a4.35,4.35,0,0,0,1,.12,3.47,3.47,0,0,0,2.18-.65,2.05,2.05,0,0,0,.87-1.53,1.22,1.22,0,0,0-.31-0.8,1,1,0,0,0-.74-0.42,2.63,2.63,0,0,0-1.9,1.21,6.87,6.87,0,0,0-1.11,2.05" transform="translate(-27.43 -7.2)"/><path class="cls-1" d="M230.36,320.92a3.13,3.13,0,0,0,.76.08,3.55,3.55,0,0,0,3.26-2.26,4.5,4.5,0,0,1-3.57,1.21,10,10,0,0,1-1.07-.05l0.65-2.52a6.84,6.84,0,0,0,3.7-.71,7.56,7.56,0,0,1,4.41-1.58,5.21,5.21,0,0,1,4.45,2.39l-0.83,3.11a4,4,0,0,0-.71-0.87,2.83,2.83,0,0,0-1.89-.93,2.74,2.74,0,0,0-.68-0.07c-2,0-3.65,1.78-5.05,5.33a12,12,0,0,0-.83,4.31c0,2,.45,3.25,1.33,3.72a4.44,4.44,0,0,0,.77.26,6.7,6.7,0,0,0,4.47-1.79l-1,3.93a7.56,7.56,0,0,1-4.28,1.46,5.17,5.17,0,0,1-2.54-.63,5.94,5.94,0,0,1-2.49-2.76,10.2,10.2,0,0,1-.87-4.24,14.55,14.55,0,0,1,2-7.38" transform="translate(-27.43 -7.2)"/><path class="cls-1" d="M243.71,335.06q-2.49-1.21-2.49-4.62a8.1,8.1,0,0,1,.88-3.62,7.87,7.87,0,0,1,2.5-3,5.48,5.48,0,0,1,3.23-1.17,3.87,3.87,0,0,1,1.78.44c1.66,0.79,2.48,2.31,2.48,4.59a8.13,8.13,0,0,1-.87,3.62,7.9,7.9,0,0,1-2.53,3.06,5.46,5.46,0,0,1-3.23,1.14,3.86,3.86,0,0,1-1.76-.4m4.14-9.59a2.09,2.09,0,0,0-1.35.74,6.32,6.32,0,0,0-1.25,2,6.67,6.67,0,0,0-.57,2.56c0,1.17.36,1.74,1,1.74a2.19,2.19,0,0,0,1.35-.73,6,6,0,0,0,1.28-2.06,6.2,6.2,0,0,0,.54-2.51c0-1.16-.34-1.75-1-1.75" transform="translate(-27.43 -7.2)"/><path class="cls-1" d="M270.57,337.11a1.42,1.42,0,0,0,1.15-.48l0.8,2.34a5.15,5.15,0,0,1-3.57,1.42,3.27,3.27,0,0,1-2.52-1.09,2.9,2.9,0,0,1-.89-1.88c0,0.13.1-.61,0.25-2.21l2.2-8.41a0.88,0.88,0,0,0,.06-0.27,0.77,0.77,0,0,0-.42-0.69,0.74,0.74,0,0,0-.45-0.15,1.73,1.73,0,0,0-1,.45l-0.86.67a3.38,3.38,0,0,0-.63.88l-2,7.53H259l2.22-8.28a0.88,0.88,0,0,0,0-.26,0.75,0.75,0,0,0-.42-0.7,0.54,0.54,0,0,0-.43-0.14,1.74,1.74,0,0,0-1,.45,8.79,8.79,0,0,0-1.13,1,4.33,4.33,0,0,0-.7,1.79h0l-1.63,6.16h-3.67l3.29-12.41h3.65l-0.26,1a5.85,5.85,0,0,1,3-1,2.33,2.33,0,0,1,.87.13,3.58,3.58,0,0,1,1.75,1.53,6.45,6.45,0,0,1,4.17-1.79,2.61,2.61,0,0,1,.85.13,3.27,3.27,0,0,1,2.17,3.21,3.6,3.6,0,0,1-.08.77l-2.23,8.41a2.54,2.54,0,0,0,.34,1.56,1.39,1.39,0,0,0,.8.34" transform="translate(-27.43 -7.2)"/><path class="cls-1" d="M275.76,333.86l-0.39,1.38h-3.64l4.91-18.65h3.69l-1.92,7.26a4.39,4.39,0,0,1,2.75-1.08,2.77,2.77,0,0,1,1.09.21c1.42,0.6,2.14,2,2.14,4.08a8.85,8.85,0,0,1-.8,3.6A8.65,8.65,0,0,1,281.2,334a4.47,4.47,0,0,1-3,1.27,2.77,2.77,0,0,1-2.48-1.39m4.17-8.6a2.14,2.14,0,0,0-1.39.8,6.86,6.86,0,0,0-1.22,2.08,6.79,6.79,0,0,0-.48,2.31c0,1.17.34,1.77,1,1.77a2,2,0,0,0,1.38-.83,7.15,7.15,0,0,0,1.25-2.1A6.54,6.54,0,0,0,281,327c0-1.18-.35-1.76-1-1.76" transform="translate(-27.43 -7.2)"/><path class="cls-1" d="M287.17,335.17c-1.44-.62-2.16-2-2.16-4.24a9.79,9.79,0,0,1,3.17-7,4.66,4.66,0,0,1,3-1.3,2.77,2.77,0,0,1,2.35,1.21l0.27-1.07h3.58l-2.3,8.83a1.58,1.58,0,0,0-.06.34,0.51,0.51,0,0,0,.62.52,1.88,1.88,0,0,0,.76-0.16l-0.67,2.32a4.5,4.5,0,0,1-2.52.9,2.71,2.71,0,0,1-2.24-1.18,4.43,4.43,0,0,1-2.71,1.06,2.92,2.92,0,0,1-1.13-.21m4.41-9.76a2,2,0,0,0-1.37.8,7.13,7.13,0,0,0-1.64,4.34c0,1.18.29,1.77,0.92,1.77a2,2,0,0,0,1.35-.84,6.41,6.41,0,0,0,1.22-2.16,6,6,0,0,0,.48-2.23c0-1.12-.32-1.69-1-1.69" transform="translate(-27.43 -7.2)"/><polygon class="cls-1" points="274.94 328.01 271.28 328.01 273.83 318.27 272.15 318.27 272.87 315.56 274.54 315.56 275.97 310.17 279.63 310.17 278.23 315.56 280.51 315.56 279.78 318.27 277.5 318.27 274.94 328.01"/><path class="cls-1" d="M310.66,331a1.68,1.68,0,0,0,.75,1.39,2.88,2.88,0,0,0,.4.22,4.38,4.38,0,0,0,3.3-1.39l-0.93,3.51a4.25,4.25,0,0,1-2.38.72,5.09,5.09,0,0,1-2.22-.54c-1.61-.8-2.43-2.29-2.43-4.53a7.9,7.9,0,0,1,.86-3.53,7.69,7.69,0,0,1,2.56-3,5.73,5.73,0,0,1,3.3-1.15,4,4,0,0,1,1.72.37,3,3,0,0,1,2.09,3.15,4,4,0,0,1-.07.82,5.16,5.16,0,0,1-2,2.92,5.7,5.7,0,0,1-3.57,1.26,5.49,5.49,0,0,1-1.36-.18m0.21-2.3a4.07,4.07,0,0,0,1,.12,3.4,3.4,0,0,0,2.15-.65,2,2,0,0,0,.88-1.53,1.22,1.22,0,0,0-.32-0.8,0.89,0.89,0,0,0-.73-0.42,2.65,2.65,0,0,0-1.9,1.21,6.56,6.56,0,0,0-1.08,2.05" transform="translate(-27.43 -7.2)"/><path class="cls-1" d="M43.3,322.87c-5.43,0-12.07-1-12.07-10V66c0-5.52,2.44-12.28,12.07-12.28h5.2V49.46H41.07c-10,0-13.65,8.09-13.65,13.86v250c0,10.8,8,13.85,13.65,13.85h94.29v-4.28H43.3Z" transform="translate(-27.43 -7.2)"/><path class="cls-1" d="M420.42,49.46H413v4.28h5.2c9.92,0,12.06,6.76,12.06,12.28V312.85c0,7.47-5.5,10-12.06,10H326.13v4.27h94.29c6.2,0,13.63-3.62,13.63-13.85v-250c0-5.77-3.88-13.86-13.63-13.86" transform="translate(-27.43 -7.2)"/><path class="cls-2" d="M349.09,58.9h0Z" transform="translate(-27.43 -7.2)"/><path class="cls-1" d="M225.35,13.61a19.34,19.34,0,0,0-26.76,0h0c-3.9,3.9-5.91,9.15-5.91,15.61,0,6.14,1.88,11.25,5.53,15.17A18.31,18.31,0,0,0,212,50.18a18.55,18.55,0,0,0,13.19-5.24c4-3.89,6.1-9.16,6.1-15.73s-2-11.71-5.9-15.6m-4.84,29.55a13.27,13.27,0,0,1-9.72,4.56c-3.2,0-4.93-1.52-7.46-4.68a21.18,21.18,0,0,1-4.67-13.59c0-6.26,1.18-10.92,3.53-13.84s4.46-5,9.76-4.71a11.41,11.41,0,0,1,8.53,4.29c2.41,2.84,3.62,7.56,3.62,14s-1.21,11-3.59,14" transform="translate(-27.43 -7.2)"/><path class="cls-3" d="M74.18,7.21c-7.29.6-10.61,3.62-13.88,8.68a31.85,31.85,0,0,0-4.74,17.59c0,7.85,2.33,15.23,6.21,19.73a17,17,0,0,0,13.35,6.32A21.14,21.14,0,0,0,84,57.38c3-1.39,6.51-5.1,6.51-6.18V44.4l0,0A1,1,0,0,0,91.33,44c0.37-.34,4.07-0.65,5.27-0.76l1-.08V41.28H75.35v1.85l0.24,0c5.29,0.48,6.26,1,6.41,1.18a1.68,1.68,0,0,0,1.09.66v8.69l-0.21,1.25a7.5,7.5,0,0,1-2.47,1.49L78,57.2l-0.47.1-1.66.15c-5.41-1-6.56-2.72-8.67-5.89l-0.74-1.08c-2.55-3.74-4.07-10-4.07-16.69,0-8,1.29-13.88,3.83-17.37L66.51,16c2.42-3.35,4.51-6.25,8.34-6.62C78.42,9,85.51,10,87,16.16l1.53,3.58,2.37,5.48,0.29-.32,1.05-1.33C92.26,23.37,91.86,8,91.86,8V7.78H90.27L89.38,9.61a1.69,1.69,0,0,1-1.41.51l-0.59-.31L84.5,8.45c-3.75-1.32-9.74-1.28-10.32-1.24M84.5,8.45h0Z" transform="translate(-27.43 -7.2)"/><path class="cls-3" d="M164.74,9.61v1.84l2.36,0.08c1.38,0,3.27,0,3.54.45,0.48,0.69.75,3.84,0.75,6.38l-0.77,31.71a10.44,10.44,0,0,1-1.56,5.56c-0.41.49-2.18,1.07-4.33,1.39l-0.21,0v2.3h0.23c0.17,0,14.69.21,21.27-.07,3.52-.12,4.76.57,5.18,1.18a1.06,1.06,0,0,1,.19.92l-0.25.6,2.43-1.09c0.15-.19,2.31-14.17,2.31-14.17l-0.52-.14c-1.41,4-3.92,8.27-5.48,9.29s-2.53,1.49-7,1.49c-0.63,0-1.95-1.1-2.84-1.84l-1.21-.85a9.79,9.79,0,0,1-.66-2.57V18.62c0-2.43.34-5.4,0.88-6s3.7-1,6.5-1.18l0.25,0V9.61h-21Z" transform="translate(-27.43 -7.2)"/><path class="cls-2" d="M377.63,43.39h0Z" transform="translate(-27.43 -7.2)"/><path class="cls-1" d="M129.84,56.09a4,4,0,0,1-2.39-1.15,19,19,0,0,1-1.9-4.79s-10-42.52-10-42.52l-5.21,1.14-9.31,36.06c-1.61,5.17-2.69,8.25-3.35,9.34a3.43,3.43,0,0,1-2.66,1.91l-0.23,0V57.9h10.46V56.11l-0.24,0a5.45,5.45,0,0,1-2.26-.57,2.43,2.43,0,0,1-.92-2.22L102.24,51l1.8-6.23L105,41.57h11.59l2.78,7.8L120,52s0.26,1.77.26,1.77a2.05,2.05,0,0,1-.53,1.71,9.2,9.2,0,0,1-2.74.59l-0.23,0V57.9h13.31V56.14Zm-24.26-17.2c0.17-.63,4.92-17.61,5.4-19.24,0.43,1.63,5.26,18.61,5.43,19.24H105.58Z" transform="translate(-27.43 -7.2)"/><path class="cls-1" d="M254.67,14.44l-11.25.06-0.19.88,0.37,0a8.24,8.24,0,0,1,3.22.27c0.57,0.3.75,1,.75,3.74,0,1.21,0,2.83-.06,5-0.13,6.69-1.26,9.24-1.43,9.58h-3.44v1.53H255a8.43,8.43,0,0,0,5.78-2.25c1.77-1.7,2.67-4.28,2.67-7.59,0-10.1-8.71-11.17-8.8-11.19m1,19.34s-4.88,0-5.34,0c-0.06-.51-0.09-1.4-0.09-2.67,0-5,.35-14.36.4-15.53,1-.17,3.22-0.44,3.88-0.12a11.59,11.59,0,0,1,5.18,10.09c0,6.43-3.88,8.18-4,8.25" transform="translate(-27.43 -7.2)"/><path class="cls-1" d="M321.33,13.61a19.3,19.3,0,0,0-26.73,0h0c-3.93,3.91-5.92,9.15-5.92,15.61,0,6.13,1.86,11.23,5.53,15.16A18.24,18.24,0,0,0,308,50.18a18.48,18.48,0,0,0,13.16-5.24c4.07-3.9,6.1-9.19,6.1-15.73s-2-11.7-5.91-15.6m-4.84,29.55a13.2,13.2,0,0,1-9.66,4.56c-3.49,0-5.24-1.85-7.5-4.68a21.42,21.42,0,0,1-4.69-13.58c0-6.24,1.2-10.9,3.53-13.84s4.46-5,9.79-4.69a11.24,11.24,0,0,1,8.52,4.27c2.4,2.86,3.61,7.56,3.61,14s-1.21,11.07-3.59,13.95" transform="translate(-27.43 -7.2)"/><path class="cls-1" d="M400,13.61a19.32,19.32,0,0,0-26.74,0h0c-3.92,3.94-5.92,9.2-5.92,15.61a21.56,21.56,0,0,0,5.56,15.16,18.25,18.25,0,0,0,13.74,5.81,18.59,18.59,0,0,0,13.22-5.24c4-3.89,6.06-9.16,6.06-15.73s-2-11.71-5.89-15.6m-4.83,29.55a13.22,13.22,0,0,1-9.68,4.56c-3.22,0-5-1.52-7.48-4.68h0a21.27,21.27,0,0,1-4.69-13.58c0-6.24,1.2-10.9,3.54-13.84s4.46-5,9.76-4.69a11.24,11.24,0,0,1,8.54,4.27c2.43,2.86,3.63,7.57,3.63,14s-1.21,11.07-3.6,13.95" transform="translate(-27.43 -7.2)"/><path class="cls-1" d="M376.15,55.27c-0.17,0-3.81,1.89-6.37,1.89-2.33,0-6.36-4.74-7.73-10.28-1.16-4.72-6-10.53-7.39-12.1,1.85-.23,8.19-1.75,8.19-11.76,0-11.67-12.1-12.36-12.22-12.36H326.46l-0.32,3.2h4.79c2,0,3.36.48,4,1.43a3.18,3.18,0,0,1,.25,2.65c0,0.44-.25,34.67-0.52,37.86a4.3,4.3,0,0,1-3,3.79h-5.5v2.16h24.48V59.6l-0.25,0c-5.92-.63-7.62-2.08-8.11-2.88a1.48,1.48,0,0,1-.24-0.78,1.23,1.23,0,0,1,0-.29c0-.08.52-19.32,0.55-20.56,0.34,0,1.64-.24,1.64-0.24a24.33,24.33,0,0,1,3.31,1.06c2.25,0.83,2.64,2.08,3.33,4.18l0.53,1.61,1.14,3.58,2,6.07c1.62,4.4,6.5,10.93,13.28,10.93s9.52-6.54,9.55-6.63l0.16-.36h-1.47ZM349.79,31.8a28.46,28.46,0,0,1-6.92.63c0-.5-0.15-16.82-0.15-16.82V15.55a1.38,1.38,0,0,1-.07-0.44,1.25,1.25,0,0,1,.25-0.76c0.42-.53,1.55-1.11,4.59-0.75,6.13,0.71,8,7.06,7.87,10s-2.26,7.4-5.55,8.18" transform="translate(-27.43 -7.2)"/><path class="cls-3" d="M279,13.42l-1.81.38H265s0,0.4-.06.55a0.19,0.19,0,0,0-.12.2H265l0,0.27h0.25l0.91,0a2.05,2.05,0,0,1,1.72,1.37c0,4,.06,12,0,12.65l-0.55,5c-0.08.57-1.61,0.79-2.34,0.83v0.51h14.15a1.47,1.47,0,0,0,1.19,1h0.23l0.22-.28,0.06-.25,1-3c0.69-1.47.62-1.88,0.51-2.09l-0.19-.27-0.29.19c-4.06,4.08-9.72,3.57-10.65,3.46V25.1c1-.18,2.6-0.34,3.11,0s0.56,1.67.5,2.46l0,0.22L275.93,28V21.39l-0.51-.07a5.82,5.82,0,0,1-1.6,1.79,2.14,2.14,0,0,1-1.46.28s-1,0-1.33-.05c0-.48.3-7.75,0.32-8.2,0.4,0,2.23-.17,2.23-0.17a5.74,5.74,0,0,1,3.28.67c1.22,0.69,1.36,3.15,1.36,3.17v0.32l0.31-.06c0.13,0,.84-0.32.69-2.44l0.17-2.2a0.91,0.91,0,0,0-.09-1l-0.1-.06H279Z" transform="translate(-27.43 -7.2)"/><path class="cls-3" d="M200.28,59.13l0.29,0.46s3.29-1.32,12.14-1.32,13.44,1.59,13.48,1.6l0.3-.46c-1.32-1.36-6.86-5.2-14.56-5.2a17.35,17.35,0,0,0-11.65,4.92" transform="translate(-27.43 -7.2)"/><path class="cls-3" d="M133,9v1.84l2.33,0.1c1.29,0,3.26.06,3.54,0.46,0.45,0.58.76,3.34,0.76,6.32l-0.75,31.77a10.49,10.49,0,0,1-1.57,5.57c-0.42.46-2.25,1-4.33,1.34l-0.25,0v2.36h0.28c0.16,0,14.7.21,21.28-.06,3.68-.17,4.81.64,5.16,1.12a1,1,0,0,1,.15.89l-0.25.65L162,60.33l2.16-14.16L163.65,46c-1.44,4-3.94,8.26-5.49,9.25s-2.67,1.49-7,1.49c-0.59,0-1.9-1.07-2.77-1.77a4.21,4.21,0,0,0-1.22-.85,10,10,0,0,1-.67-2.61V18.05c0-2.79.38-5.48,0.85-6,0.15-.14,1-0.69,6.48-1.15l0.27,0V9H133Z" transform="translate(-27.43 -7.2)"/><path class="cls-3" d="M377.7,58.84l-0.52.59,13-1.44c6-.53,14.48,1.82,14.54,1.86l0.25-.52c-0.09-.06-8.18-5.43-15.34-5.43a17.63,17.63,0,0,0-11.91,4.94" transform="translate(-27.43 -7.2)"/><path class="cls-3" d="M251.24,46.4a6,6,0,0,0,.49,4.62c1.64,2.8,5.61,3.82,7.74,4.39l0.61,0.16c2.53,0.7,2.79,1.2,3.44,2.27,0.45,0.81.32,1-.88,2l-0.57.5c-1.46,1.24-4.45.62-4.5,0.61l-0.23.49a0.4,0.4,0,0,0,.12.07v0h0a8.58,8.58,0,0,0,5.77.69,3.83,3.83,0,0,0,2.83-2.32,3.12,3.12,0,0,0,0-2.6c-0.89-1.88-3.75-2.82-7.1-3.91l-1.15-.4c-4.47-1.52-4-4.5-3.71-6.49,0.14-1.2,1.06-4.63,6.55-4.4,4.52,0.22,5.33,2.38,5.91,4s-0.74,3.91-1.63,4.46l-0.51.39c-0.73.63-1.66,1.41-4.52,0.07-1.2-.57-1.85-1.23-1.9-1.93-0.08-1.06,1.22-2.09,1.78-2.47a2.15,2.15,0,0,1,2.68.12l0.06,0.06,0.14,0.16a1,1,0,0,0,.82-0.16,0.32,0.32,0,0,0,.48-0.16c0.13-.32-0.09-0.64-1.64-1.66A4.28,4.28,0,0,0,257,45a4,4,0,0,0-1.08,2.72A4.3,4.3,0,0,0,257.44,51c2.57,2.35,4.94,2.33,7.34,2.09,2.2-.21,4.5-1,4.86-4.92a5.29,5.29,0,0,0-1.39-4A11.72,11.72,0,0,0,260,40.66c-6.41-.2-8,2.94-8.77,5.74" transform="translate(-27.43 -7.2)"/><path class="cls-3" d="M295.33,59l0.31,0.47s3.29-1.33,12.14-1.33,13.44,1.58,13.48,1.6l0.3-.49A22.59,22.59,0,0,0,307,54.08,17.26,17.26,0,0,0,295.33,59" transform="translate(-27.43 -7.2)"/><path class="cls-3" d="M417.65,30.91a1.13,1.13,0,0,0,.77-0.22,0.73,0.73,0,0,0,.31-0.73,0.81,0.81,0,0,0-.42-0.77,1.33,1.33,0,0,0-.61-0.1H416v1.82h1.65Zm-2.36-2.41h2.41a2.51,2.51,0,0,1,1,.17,1.29,1.29,0,0,1,.77,1.24,1.78,1.78,0,0,1-.2.78,1.23,1.23,0,0,1-.57.48,1.14,1.14,0,0,1,.46.36,1.44,1.44,0,0,1,.21.68v0.66a1.3,1.3,0,0,0,0,.48,0.53,0.53,0,0,0,.22.32v0.11h-0.89a0.38,0.38,0,0,0,0-.18V33.21l-0.05-.89a0.67,0.67,0,0,0-.35-0.68,1.2,1.2,0,0,0-.67-0.11H416v2.25h-0.71V28.51Z" transform="translate(-27.43 -7.2)"/><path class="cls-1" d="M412.92,31.18a4.49,4.49,0,1,0,4.48-4.53,4.51,4.51,0,0,0-4.48,4.53m0.38,0a4.1,4.1,0,1,1,4.09,4.15,4.12,4.12,0,0,1-4.09-4.15" transform="translate(-27.43 -7.2)"/><path class="cls-1" d="M412.92,123.53s-0.38-1.61-1.43-1.07a89.34,89.34,0,0,1-18.16,7.14c-7.9,2.06-15.36,1.71-19.81-.13a58.93,58.93,0,0,0,16.93-14.66A27.28,27.28,0,0,0,395,105.3c0.57-2.85-.82-4.24-1-4-4.17,7.75-19.52,12.26-30.55,14.55,7.74-3.64,15.61-7.93,22.18-13.5a59.14,59.14,0,0,0,10.42-12.93c0.57-1.08-1.46-2.51-1.15-2.86A44.16,44.16,0,0,1,380,98.08c-6,2.71-12.72,3.8-18.88,6.17,0-1.51,8.44-9.79,10.4-11.12,0.16-.12-6.65,2.41-6.59,2.37a82.62,82.62,0,0,0-29.77,20.68c0.38-2.52,2.63-9.34,2.23-10-0.21-.38-1.19-1.52-1-1.8-3.45,5.19-5.55,11.16-7.93,16.86-0.24-3.72.26-13.53,1.25-17-0.15.55-1.33-1.75-1.71-1.06-3,5.87-3.74,9.16-5.77,15.37a18.06,18.06,0,0,1-4.28,7.85c-2.48,2.61-6,2.65-8.35,3-5.05.64-6.89-.68-12.59-0.23A118.86,118.86,0,0,0,313,126.32a15.85,15.85,0,0,1-1.81-.75c-7.1-3.44-11.17.13-18.38-2.3,3-1.77,9.51-5.73,9.2-16.14a17.12,17.12,0,0,0-.65-4.16c-0.75,6.85-11.82,16.71-16.09,16.86,3.13-3.33,4.55-7,6.11-11.36a23.1,23.1,0,0,0,1.37-6.15,9.1,9.1,0,0,0,0-3c-0.39-1.5-1.1-2.66-1.27-2.42s0.51,9.72-14.07,24.54c3-3,2.62-5.52,2.93-7.3a40.92,40.92,0,0,0,.84-6c0.06-1.77.17-3.3-.3-4a5.26,5.26,0,0,1-1.35,1.25c-0.84,9.9-7.24,17.77-12.9,22.07a4.42,4.42,0,0,0,.72-1.67c-2.54,1.84-4.51.84-6.38,0.74-1.47-.07-3.89-1.66-8.35-0.89-3,.52-5.36,1.67-6.87,5.84-1.94.08-5.66,4.27-5.61,6.61,3.14-1.64,6-.6,6.78-0.55,1.9,0.14,2.76,1.21,5.44,2.62,2.88,1.48,6.1.38,8.4,1.81,4.65,3,6,7.59,7.6,11.47,3.81,9.45,11.11,17,19,23.09-9.63,9-9.19,23.52-15.82,34.3-4.31,7-12.82,9-20.3,10-6.61.89-13,3-15.12,10.12-0.29,1,1.81,1.94,1.38,2.91,2.46-5.47,6.86-8.25,12.53-9.42,6.22-1.29,12.85,1.89,17.61-5.12a1.94,1.94,0,0,1,.57-0.92c-0.19.33-.39,0.63-0.57,0.92,0,0.08,0,.16,0,0.25a2.81,2.81,0,0,0,.39,1.29c0.83,1.69,1.6.7,3-.07a104,104,0,0,1,11.9-6c7-2.78,14.54-5.45,17.53-13.12a58.29,58.29,0,0,1,5.46,11.38c0.58,1.77-2.13,3.59-3.54,4.36-3.93,2.16-8.69,2.51-13,3.07-4.62.56-9.68,1-13.75,3.49a11.09,11.09,0,0,0-4.23,4.52c-0.37.76-1.27,2.38-.78,3.2,0.31,0.5,1.65,1.56,1.42,2.23,3.23-8.88,13.15-9.59,21.12-10.7a41.91,41.91,0,0,0,7.61-1.53c0.24,0.69.37,1.4,0.64,2.08,0.12,0.27,2.14-.3,2.49-0.36,3.76-.81,7.74-2.37,8.43-6.67,2,14-1.57,28.75-12.58,38.08a38.41,38.41,0,0,1-4.27,3.16c-0.49.32-3.55,1.72-3.58,2.19-0.27,4.08,4.72.6,6.13-.28a41.75,41.75,0,0,0,16.78-11.34,27.74,27.74,0,0,1-2.89,5.38c-0.74,1.11-2.16,3.64-3.48,4-0.24.08,0.29,1,.73,0.9a3.25,3.25,0,0,0,1.11-.4,19,19,0,0,0,3.93-2.32c4.51-3.37,9.33-8.68,11.16-14.14,2.86,6.38,9.71,11.09,10,10.89s-0.2-1.4-.37-1.81c-0.82-1.68-1.82-3.2-2.58-4.93a34.44,34.44,0,0,1-2.54-11.28c3.28,4.36,11.34,8.63,11.8,8.47a11,11,0,0,0-.93-2.22,21.41,21.41,0,0,0-1.48-1.82c-1.95-2.29-3.76-4.69-4.3-7.71a61.15,61.15,0,0,0,16.53,10c-0.53-.2-0.56-1.71-0.87-2.15a29.12,29.12,0,0,0-2.76-2.65,54.34,54.34,0,0,1-5.76-7.31c5.4,4.24,12.92,5,19.51,5.36-0.73,0-.39-2.82-1.72-2.89a25.26,25.26,0,0,1-6.05-2.59c-3.86-2.4-6.88-5.93-9.6-9.57a36.71,36.71,0,0,0,16.07.64c1.39-.25,6-0.76,6.37-2.41,0.31-1.28-3.08-.37-3.9-0.32-8,.44-16-1.64-20.88-8.34,0.63,0.85,2.47,1.46,3.42,1.87a23.39,23.39,0,0,0,4.47,1.38,39.41,39.41,0,0,0,8.83.46,38.51,38.51,0,0,0,9.43-1.19c1-.28,2.7-0.48,2.69-1.77s-1.87-.4-2.53-0.32a29.36,29.36,0,0,1-14.78-2.2,32.87,32.87,0,0,1-4.5-2.38,15.61,15.61,0,0,0-2.42-1.69s0,0-.06,0h0a0.09,0.09,0,0,1,0,0l0,0c6.37-.63,12.86-1,19.24-0.08a38.53,38.53,0,0,1,9.11,2.49c3.47,1.45,6.2,4.06,9.26,6.19-0.89-.6-0.91-2.31-1.73-3.15-1.12-1.17-2.32-2.26-3.56-3.32a49,49,0,0,0-7.54-5.16A45.39,45.39,0,0,0,353,194.74c-6.51-.56-10.6-0.4-16.62-2.86-6.3-2.58-11.35-11-10.8-14,5.26,4.93,16,9.94,22.81,12.35-0.46-.16-4.63-5.34-5.39-6.35a93.16,93.16,0,0,0-6.18-7.6,100.53,100.53,0,0,1,10.9,6.48,42,42,0,0,1,5.17,4.16c0.72,0.68,1.39,1.38,2.08,2.11,0.38,0.41,1.12,1.75,1.64,1.91,0.06,0-1.21-3.83-1.21-3.87a68,68,0,0,0-4.36-8.32c5.15,4.69,10.12,10.26,16.73,12.79-0.05,0-1.44-2.25-4.16-9.12A52.93,52.93,0,0,1,361,173.6c6.29,5.42,13.09,10.9,21.34,12.85-0.47-.13-0.92-2.93-1.24-3.42s-11.22-10.63-13.22-15.56c5.56,4,11.71,7.41,18.66,7.88-0.31,0-.85-2.44-1.08-2.77a20.89,20.89,0,0,0-3.3-2.86c-3.22-2.81-6.62-8.47-9.37-11.76a84.6,84.6,0,0,0,27.5,4.35,7.21,7.21,0,0,0-.47-2.06c-0.26-.29-2,0-2.42-0.07a29.36,29.36,0,0,1-6.43-1.33c-3.54-1.08-9.1-2.79-11-6.36,1.9,0.39,3.8.76,5.7,1.1,0.83,0.14,1.63.29,2.47,0.41,0.32,0,1.8.6,1.44,0.05,0.72,0.45.15-.51,0-1a1.43,1.43,0,0,0-1.1-1.11,25.1,25.1,0,0,1-4.55-2.42c-2.58-1.69-5.45-3.93-6.75-6.83,8.64,1.24,17.59,1.78,26-.87-0.36.13-.51-2.5-0.91-2.42-2.07.44-7.78-1.84-9.72-2.6,4.74-1.45,15.7-7.75,20.42-13.24" transform="translate(-27.43 -7.2)"/><path class="cls-4" d="M122.38,264.18l4,0.18c2.18,0.4,4.11,1.65,6.75,1.17,0.28-.08.59-0.08,0.57-0.33a3.58,3.58,0,0,1,2.45-.72c0.5,1.84,4.83,1.5,7.08,1.54,1.75-.08,3.46-0.11,5.22-0.15l4.78-.14c2.36,0.14,4.66.29,7,.41l1.49-.17c0.31-.17,1.24-0.2,1.2-0.53,0.74,0.09,5,.44,5.06.6a0.18,0.18,0,0,1,.21,0c-0.15.56-1.43,2.19-1.4,2.38-8.36-1-17.57-.32-26.27-0.4l-30.84-1.14c-3.64.11-7.31,0.19-11,.29-1.41,0-6.51-.24-6.52-1.53h0.23v-0.16c0.92,0,1.82,0,2.75,0,1.14-.06,2.33-0.09,3.47-0.15,0.43-.07.83-0.12,1.28-0.2,0.83,0,1.64,0,2.51,0,2.13-.09,4.32-0.22,6.49-0.31,1-.08,2-0.11,3-0.18,2.86-1,7.32,0,10.48-.47" transform="translate(-27.43 -7.2)"/><path class="cls-4" d="M199,271.75l-0.43.32c-1.18.12-2.42,0.23-3.59,0.32-1.32.13-2.63,0.23-3.93,0.36a1.05,1.05,0,0,0-.29,0,1.86,1.86,0,0,0-.91-0.82c-2.13,0-4.31-.12-6.44-0.18-5.77,0-11.45,0-17.5.15-2.54.16-5.1,0.27-7.68,0.42-7.51.25-15.43,0.77-22.66,0.56s-14.25-.92-21.66-0.8l-33.29.8a17.61,17.61,0,0,0-4,.72,2,2,0,0,0-.2.16c0.89,0.15,1.82.3,2.74,0.43,3.58,0.36,6.84,1,10.53,1.14,5.24,0,10.46-.12,15.66-0.15,8.3,0.13,16.53.29,24.8,0.4,7.5,0,15,0,22.5-.08,9.35,0.06,18.74.33,28.6-.13,3.14-.11,6.38-0.13,9.33-0.5l0.19,0,12.9-1.68v-0.12c0.05,0,.09,0,0.13,0,0-.68-4-1.28-4.75-1.38" transform="translate(-27.43 -7.2)"/><path class="cls-4" d="M329.89,267.07c2.19,0.19,4.41.35,6.59,0.54,0.78-.06,1.56-0.12,2.32-0.19,2-.63,4.7-0.05,6.89-0.1,0.45,0,.91-0.14,1.4-0.17l1.68-.19c3-1,8.26.14,11.21,0.55a71.43,71.43,0,0,0,9.82.2c0.8,0.12,1.63.21,2.43,0.3,0,0.24.19,1-.12,0.93-2.85,1-6.92.37-10.14,0.46l-11,.3-11.21-.86-8.6-.08c-0.87-.14-1.73-0.27-2.61-0.39,0-.27-0.09-0.53-0.15-0.79h0.15c0.46-.14.91-0.32,1.38-0.49" transform="translate(-27.43 -7.2)"/><path class="cls-4" d="M259.42,266l6.58,0.53,2.32-.2c2-.61,4.68-0.06,6.89-0.11,0.44,0,.91-0.11,1.38-0.15s1.11-.13,1.69-0.18c3-1,8.25.13,11.21,0.55a72,72,0,0,0,9.82.18l2.43,0.32c0,0.24.2,0.94-.13,0.92-2.85.94-6.92,0.37-10.11,0.45-3.68.11-7.38,0.21-11,.29-3.76-.27-7.47-0.57-11.21-0.83l-8.61-.1c-0.86-.14-1.72-0.29-2.61-0.4-0.06-.27-0.09-0.53-0.14-0.79l0.14,0,1.38-.51" transform="translate(-27.43 -7.2)"/><path class="cls-4" d="M342.18,272.8c-5.82,0-11.68,0-17.52.08-15.18-.19-30.7-0.92-46.17-0.71v0.1c-1.27,0-2.5,0-3.77-.07-2.29-.05-5.19-0.59-7.39-0.05l-2.24.19-3.23.18c-1.06,0-2.12.11-3.19,0.2-6.91.06-13.11-.87-19.7-1.14v0.17a14.28,14.28,0,0,0-4.67,1.07c0.25,0.26.49,0.51,0.75,0.74,3.1,1.8,10.71,1.19,15,1.19,5.86,0,11.73.1,17.61,0.12,3.4,0.12,8.16.8,11.77,0.58a1.67,1.67,0,0,0,.58.54c2.08,0.89,10.24.51,13.15,0.47,15.57-.22,31.33-0.75,47.56-1,1.51,0,7.48.06,7.48-1.27,0-1.47-4.59-1.39-6-1.41" transform="translate(-27.43 -7.2)"/><path class="cls-1" d="M238.24,201.39c-3.08-6.74-9.65-8-16.34-8-7.54,0-16.25-.82-21.45-7.13-8-9.77-9.52-24.21-20.29-31.82,7-7.13,13.3-15.57,15.7-25.47a28.37,28.37,0,0,0,.65-3.57c0.19-1.64,1.28-4.45,2.87-5.15,2.35-1,3.33,0,5.86.11,2.27,0.12,4.48-.53,6.28.12,0.69,0.24,3.95.31,6.18,3,1-2.09-1.08-7.13-2.83-8,0.48-4.21-1.64-6.62-4.23-8.3-3.78-2.47-6.24-2.07-7.64-2.58-1.74-.66-3.95-0.5-5.58-3.2a3.41,3.41,0,0,0,1.21,3.6c-6.42-2.06-17.53-9.9-20.28-22.17a4.72,4.72,0,0,1-1.49-1c-0.37.81-.05,2.31,0.25,4.05a42.09,42.09,0,0,0,1.64,5.86c0.57,1.73.53,4.27,3.9,6.85C166.19,86,165.58,76.49,165.37,76.25s-0.62,4.69-.54,5.56c0.16,2.22.22,4.78,1.1,6.69,2,4.43,4.23,8.6,8.66,9.63a30.2,30.2,0,0,1-10.38-4.81c-3.74-2.72-6.82-6.36-7.83-9.71,0.21,0.64-.17,3.52-0.08,4.22,1.08,10.36,8.08,13.4,11.27,14.73-6.82,3.4-11.32.43-17.91,4.8a14.31,14.31,0,0,1-1.66,1,112.1,112.1,0,0,0,16.13.59c-5.69.37-7.34,1.91-12.42,2-2.4,0-5.88.46-8.69-1.8a17.82,17.82,0,0,1-5.29-7.16c-2.82-5.89-4-9-7.78-14.44-0.46-.65-1.3,1.8-1.54,1.27,1.45,3.25,3.25,12.92,3.52,16.63-3.14-5.32-6-10.95-10.13-15.61,0.23,0.24-.61,1.52-0.75,1.92-0.31.75,1.51,8.37,3.46,10-10.23-8.58-20.68-12.55-32.26-16.62,0,0-6.94-1.67-6.78-1.58,2.14,1,11.62,8.1,11.82,9.59-6.43-1.5-13.21-1.67-19.54-3.52-5.91-1.75-14.1-9.08-16.23-9.72a1.86,1.86,0,0,0-1.15,2.71c1.58,2.89,7.78,7.72,11,10.23,5.87,4.61,17.05,9.56,25.22,12.11-11.25-.76-27-3.13-32.22-10.22-0.17-.23-1.34,1.36-0.4,4.08a27,27,0,0,0,5.74,8.81,58.47,58.47,0,0,0,18.76,12.18c-4.17,2.46-11.5,3.82-19.61,2.88a91,91,0,0,1-19-4.59c-1.11-.39-1.25,1.27-1.25,1.27,5.39,4.78,17.1,9.5,22,10.31-1.82,1-7.17,4.08-9.28,3.91-0.4,0-.21,2.6-0.57,2.54,8.72,1.44,17.53-.31,25.91-2.75-0.89,3.08-3.44,5.69-5.76,7.71a24.24,24.24,0,0,1-4.2,3,1.49,1.49,0,0,0-1,1.27c-0.07.53-.51,1.55,0.13,1-0.27.6,1.13-.17,1.44-0.26l2.39-.74c1.85-.59,5.46-0.89,6.63-2.46-3.06,4.12-7.84,6.84-11.22,8.39a29.34,29.34,0,0,1-6.2,2.2c-0.42.1-2.16,0.09-2.39,0.43a7.86,7.86,0,0,0-.17,2.1A74.33,74.33,0,0,0,93,150.7a82.5,82.5,0,0,1-7.7,10.13,22,22,0,0,0-2.88,3.3C82.21,164.5,82,167,81.7,167c6.8-1.4,12.44-5.65,17.41-10.36a47.11,47.11,0,0,1-6.63,12.59A33.41,33.41,0,0,1,90,172.12c-0.52.57-1.56,1.09-1.89,1.77-0.29.52-.35,3.38-0.79,3.53,7.9-3,13.91-9.39,19.4-15.64a71.59,71.59,0,0,1-2.1,12.23,5.77,5.77,0,0,1-1.3,2.85,2.54,2.54,0,0,0-.54,1.23c-0.09.23-.34,2.39-0.43,2.43,6.23-3.41,10.42-9.62,14.89-15a66.6,66.6,0,0,0-3.2,8.86s-0.75,4-.7,4c0.5-.21,1.07-1.65,1.39-2.09,0.55-.81,1.15-1.62,1.77-2.39a46.38,46.38,0,0,1,4.56-4.85,106.52,106.52,0,0,1,9.93-7.88,93.73,93.73,0,0,0-5.11,8.36c-0.61,1.12-1.43,1.4-1.68,2.8,0,0.19-.62,2.25-0.2,1.53-0.06.36-.08,1.37-0.5,1.59,6.39-3.32,14.3-8.64,18.85-14.23,0.91,2.89-2.95,11.91-8.85,15.33-5.62,3.28-9.7,3.67-16.05,5.12s-12.15,2.74-19.22,6.58c-2.68,1.46-4,1.72-6.33,3.71-1,.86-3.24,2.77-3.57,4.37-0.6,3-.33,4.32.9,6.28,2.45-2.72,3.91-3.53,8-6.63a24.68,24.68,0,0,1,8.25-4.06c6.2-1.81,13.31-2.35,19.73-2.6-0.11,0-.09,0,0,0a14.57,14.57,0,0,0-2.24,2,33.38,33.38,0,0,1-4.16,3,28.76,28.76,0,0,1-14.33,4.21c-0.66,0-2.6-.49-2.46.68s1.91,1.23,2.91,1.37a38,38,0,0,0,9.49-.11,39.76,39.76,0,0,0,8.7-1.68,23.54,23.54,0,0,0,4.23-2c0.88-.54,2.62-1.39,3.12-2.31-4,7.29-11.59,10.45-19.55,11.11-0.81.08-4.84,0.05-3.84,0.86a17.2,17.2,0,0,0,1.88,1.12,35.19,35.19,0,0,0,4.79.42A38.33,38.33,0,0,0,130,204.89a39.1,39.1,0,0,1-8.54,11,23.48,23.48,0,0,1-5.67,3.38c-1.31.29-.58,3-1.31,3.12,6.5-1.22,13.83-3,18.6-8a55.44,55.44,0,0,1-4.72,8.05,27.1,27.1,0,0,0-2.4,3c-0.23.5-.06,2-0.56,2.26a61.36,61.36,0,0,0,15-12.15c-0.15,3.09-1.63,5.86-3.23,8.38-0.42.65-1,1.31-1.33,2-0.21.42-.14,1.95-0.52,2.2a42.8,42.8,0,0,0,10.54-10,33.25,33.25,0,0,1-1,11.51c-0.51,1.83-1.41,3.46-2,5.26a14.65,14.65,0,0,1-.48,2.44,29,29,0,0,0,8.89-12.77c2.54,5.17,8,9.77,12.95,12.47a19.66,19.66,0,0,0,4.2,1.78,3.21,3.21,0,0,0,1.17.22c0.43,0,.83-0.93.6-1-1.34-.19-3.1-2.51-4-3.51a26.83,26.83,0,0,1-3.56-4.94,41.34,41.34,0,0,0,18.14,8.94c1.52,0.66,6.92,3.43,6.1-.55-0.09-.46-3.3-1.44-3.84-1.7a38.53,38.53,0,0,1-4.65-2.54c-12.15-7.73-17.7-21.85-17.56-36,1.28,4.17,5.42,5.17,9.25,5.43,0.34,0,2.42.32,2.5,0,0.18-.7.22-1.44,0.36-2.13a42.93,42.93,0,0,0,7.75.47c8,0,18-.68,22.36,7.69-0.33-.64.87-1.87,1.11-2.4,0.37-.91-0.71-2.36-1.21-3.08a10.84,10.84,0,0,0-4.79-3.89c-4.36-1.89-9.42-1.65-14.09-1.6-4.38.07-9.16,0.38-13.33-1.22-1.5-.58-4.42-2-4.08-3.86a57.54,57.54,0,0,1,3.87-12c4,7.19,11.83,8.81,19.13,10.6a105.14,105.14,0,0,1,12.6,4.32c1.51,0.59,2.41,1.45,3-.34a2.85,2.85,0,0,0,.23-1.33c-0.14-.79-0.37-0.56-1-1.35,5.9,7.86,12.37,3.31,19,3.75,5.79,0.39,10.54,2.55,13.69,7.63-0.57-.91,1.4-2.12,1-3.06" transform="translate(-27.43 -7.2)"/><path class="cls-4" d="M202.33,192.87c8.1,16.2,25.9.56,38,7.5-0.17-.11,1.72-4.15,1.39-4.34-12-6.92-29.81,9.5-38.69-5.29,0.25,0.42-.91,1.69-0.69,2.14" transform="translate(-27.43 -7.2)"/><path class="cls-4" d="M226.76,198.34c-2,7.47,3.67,12.62,10,15.4,0.17,0.08,1.53-3.42,1.14-3.61-5.53-2.62-11.83-7.29-10-14.34,0.16-.55-0.19.45-0.22,0.51-0.23.68-.8,0.33-1,1v1Z" transform="translate(-27.43 -7.2)"/><path class="cls-4" d="M227.5,196.4c-2.41,2.77-5.78,4.25-8.21,6.91-2.21,2.44-2.53,6.57-1.64,9.56,0.17,0.61,1.08-1.32,1.1-1.4a5.33,5.33,0,0,0,.56-2.9c-0.35-1.27-.62-1.56.1-2.27a22.38,22.38,0,0,1,2-1.58,23.29,23.29,0,0,0,5.11-5.2c0.6-.82.38-2.4,1-3.11" transform="translate(-27.43 -7.2)"/><path class="cls-4" d="M168.9,196.7c8.07,16.21,23.89-.62,36,6.37-0.21-.11,4.89-0.7,4.56-0.93-16.69-10.95-31,7.23-39.86-7.59,0.25,0.44-.92,1.69-0.69,2.15" transform="translate(-27.43 -7.2)"/><path class="cls-4" d="M193.64,202.23c-2,7.46,3.32,12.62,9.67,15.41,0.17,0.06,1.55-3.43,1.14-3.61-5.53-2.64-7.8-8-9.95-14.36-0.19-.54-0.21.43-0.23,0.52-0.21.66-.44,1.34-0.63,2" transform="translate(-27.43 -7.2)"/><path class="cls-4" d="M193.38,199.66c-6.06,6.21-5.7,15.6-3.31,23.29,0,0,2-3.1,1.65-4.31a36.58,36.58,0,0,1-1.22-5.66c-0.56-4.52.51-6.37,2.55-9.57,0.57-.87.41-2.34,1-3.13Z" transform="translate(-27.43 -7.2)"/><path class="cls-4" d="M193.94,108.72s-9-7.61-19.35-10.59c-15.35-4.46-18.21-14.51-18.21-14.51s-1.5,8.64,4.57,14.76c4.78,4.78,10.08,4.85,11.34,4.66a36.23,36.23,0,0,1-11.85,1.46A19.57,19.57,0,0,0,148,108.35a24.23,24.23,0,0,1,8.15-1.31c4.22,0,8.09.94,11.8,0.82s7-2.31,12.12-2.13c9.88,0.39,13.88,3,13.88,3" transform="translate(-27.43 -7.2)"/><path class="cls-4" d="M189.35,110.26c-3.74-.33-12.66-0.33-17,1.82s-4.83,4.46-8.13,5.81-8.37.77-8.37,0.77,4,2.12,6.82,1.87,7.75-.2,13.42-4.4a39.27,39.27,0,0,1,13.22-5.88" transform="translate(-27.43 -7.2)"/><path class="cls-4" d="M191.86,115.37a10.8,10.8,0,0,0-9.86,6.38c-2.12,4.65-2,7.83-3,10.31s-4.3,4-4.3,4a8.25,8.25,0,0,0,5.45-1.34,7.42,7.42,0,0,0,3.26-5.4c0.75-5,2.9-7.37,2.9-7.37a23.91,23.91,0,0,0-1,8c0.42,9.33-5.62,13.12-5.62,13.12a12.1,12.1,0,0,0,6.39-3.32c3.64-3.36,4.05-9.88,3.19-15.2-1.3-8.06,2.65-9.14,2.65-9.14" transform="translate(-27.43 -7.2)"/><path class="cls-4" d="M164.82,109.61c-3.3.8-5.26,0.82-10.41,3a13.23,13.23,0,0,1-5.62.71s2.42,1.55,7.66,1.85,6.74-.09,10.12-2.47c4.77-3.35,7.69-3.21,7.69-3.21a27.81,27.81,0,0,0-9.45.08" transform="translate(-27.43 -7.2)"/><path class="cls-4" d="M175,122.26c-2.3,2.5-3.9,3.65-7,8.36a13.59,13.59,0,0,1-4.29,3.76s2.87-.08,7.38-2.77,5.56-3.86,7-7.77c2.12-5.46,4.63-7,4.63-7a27.77,27.77,0,0,0-7.81,5.4" transform="translate(-27.43 -7.2)"/><path class="cls-4" d="M139.12,112.15A90.22,90.22,0,0,0,158,121.68c9,3.42,14.44.66,14.44,0.66s-3.41,3.34-6.74,3.89c-1.84.33-7.26,1-11.89-1-8.94-3.85-12.67-7.45-17.3-9.17a53.56,53.56,0,0,0-15.24-3.58c-6.4-.8-17.83-3.12-17.83-3.12s9.46-.47,14.42-0.69c4.25-.19,5.86,1.32,9.59-0.56,0,0-3.22-1-14-1.6-5.64-.32-12.49-0.1-17.34-1.72-11-3.67-12.39-4.95-18.11-7.71-3.91-1.9-12.56-8.36-16.58-12.94-2.32-2.65-1.09-4.29-.08-4.2,1.71,0.12,16.8,12,24,14.64a111.84,111.84,0,0,0,21.09,5.78c7.24,1.15,10.36,1.89,11.4,1.77a36.83,36.83,0,0,0-6.74-4.82C107,94.93,104,93.67,97.77,90.15c-0.78-.44-6-2.92-12.31-6.64,0,0,9.92,1.4,27.12,10,5.26,2.64,18.8,13.42,26.53,18.6" transform="translate(-27.43 -7.2)"/><path class="cls-4" d="M123.64,121a174.18,174.18,0,0,0-24.57,1.41c-11.13,1.66-9.81,1.49-16.07,2.47-21,3.29-34.41-5.57-34.41-5.57A45.77,45.77,0,0,0,62.31,127c6.27,2.33,13.63,4.31,19.28,4a73.45,73.45,0,0,0,19.15-3.72c9.72-3.46,12.12-2.64,12.12-2.64S96.44,129,91.5,135.74c-5.38,7.37-6.81,10.1-11.86,13.14a47.12,47.12,0,0,1-8.7,4c-1.86.68-4.06,0.64-4.43,1a9,9,0,0,0-.17,2.1A74.81,74.81,0,0,0,93,150.7c5.78-2.35,10-10,15.62-16.1A106.75,106.75,0,0,1,123.64,121" transform="translate(-27.43 -7.2)"/><path class="cls-5" d="M80.94,107.62a79.29,79.29,0,0,0,23.26,6c11.95,1.6,21.06,2.15,21.06,2.15s-26,6.92-36.85,4C80.18,117.54,69,107,69,107s-5.5-6.44-5.5-10.19c0-1.91.78-2.11,0.78-2.11a49.58,49.58,0,0,0,16.62,12.93" transform="translate(-27.43 -7.2)"/><path class="cls-4" d="M107.59,176.64s10.21-10.45,12.18-14.94C121.19,158.41,127,134.2,141,123c-31.45,6.62-40.58,29.4-41.88,33.69s-5.58,12-9.09,15.48c-0.52.48-1.38,1.09-1.68,1.47-0.49.31-.57,3.57-1,3.82,4.31-1.37,11.87-6.71,19.4-15.64,3.17-3.75,5.5-13.53,8.35-17.57,4-5.72,8.15-7.59,8.15-7.59s-5.85,4.3-8.37,18.59c-3,16.62-7.29,21.44-7.29,21.44" transform="translate(-27.43 -7.2)"/><path class="cls-4" d="M89.33,202.58s-1.78-1.23-1.06-5.81c0.32-2,2.29-3.68,3.92-5.06,1.82-1.54,9.64-5.56,16.07-7.69,5.32-1.75,14.3-.06,21.78-0.94s22-5.49,22-5.49-13.91,11.33-26.73,11.71c-7.14.22-18.44,1.52-22.86,3.72-9,4.49-13.08,9.57-13.08,9.57" transform="translate(-27.43 -7.2)"/><path class="cls-5" d="M142.87,236.7a28.17,28.17,0,0,0,8.49-11.78c3.25-8,3.75-16.12,4.06-23a65.76,65.76,0,0,1,2.6-14.28s-5.2,7.6-9.63,12.8-7.74,12.68-8,15.14a17.52,17.52,0,0,1-3.11,8,9.87,9.87,0,0,0-2,4.56,36,36,0,0,0,6.8-5.31c3.05-3.13,3.73-4.69,3.73-4.69s0.71,6.32-.61,9.81c-3.25,8.52-2.4,8.78-2.4,8.78" transform="translate(-27.43 -7.2)"/><path class="cls-4" d="M134.53,175.77s12.47-4,18.48-9.51a38.28,38.28,0,0,0,8.76-10.63c4.06-6.54,4.75-10.52,5.27-11.29a107.61,107.61,0,0,1-11.55,13.35c-7.52,7-13.11,3.52-13.11,3.52s0.28,2.61-1.61,7a21.34,21.34,0,0,1-6.25,7.54" transform="translate(-27.43 -7.2)"/><path class="cls-4" d="M188.72,99.21s-5.64-4.93-7.3-8.69-2.46-5.08-3.08-7.6-1.84-6.74-1.84-6.74-2.14,6.35-1.42,9.67,0.76,6.43,3,8.67a33.65,33.65,0,0,0,6.92,5.78c3.37,2.1,11.46,3.85,11.46,3.85s-5.92-2.82-7.77-4.93" transform="translate(-27.43 -7.2)"/><path class="cls-4" d="M270.45,217.51c-5.84,17.14-25.59,4.1-36.63,12.64,0.17-.14-2.27-3.87-2-4.12,11-8.5,30.81,5.33,37.63-10.54-0.2.45,1.11,1.54,1,2" transform="translate(-27.43 -7.2)"/><path class="cls-4" d="M247,226.27c3,7.14-2,13-7.88,16.64-0.15.11-2-3.18-1.62-3.43,5.13-3.33,10.76-8.83,8-15.56-0.22-.54.27,0.39,0.31,0.47,0.29,0.64.82,0.21,1.1,0.87Z" transform="translate(-27.43 -7.2)"/><path class="cls-4" d="M246,224.47c2.76,2.4,6.29,3.4,9.08,5.73,2.51,2.1,3.38,6.14,2.89,9.24-0.09.62-1.25-1.17-1.29-1.24a5.43,5.43,0,0,1-.94-2.82c0.19-1.29.4-1.62-.42-2.21a15.08,15.08,0,0,0-2.17-1.3,23.5,23.5,0,0,1-5.77-4.44c-0.68-.74-0.68-2.33-1.39-2.95" transform="translate(-27.43 -7.2)"/><path class="cls-4" d="M304.08,216.71c-5.81,17.17-23.75,2.67-34.79,11.25,0.19-.15-5,0-4.64-0.31,15-13.12,31.68,2.93,38.47-13-0.2.47,1.12,1.57,1,2" transform="translate(-27.43 -7.2)"/><path class="cls-4" d="M280.32,225.57c3,7.12-1.6,13-7.51,16.62-0.15.08-2-3.19-1.62-3.43,5.13-3.35,6.65-9,7.94-15.59,0.11-.56.26,0.41,0.29,0.48,0.32,0.63.61,1.28,0.91,1.93" transform="translate(-27.43 -7.2)"/><path class="cls-4" d="M280.24,223c6.83,5.33,7.73,14.68,6.39,22.62,0,0-2.42-2.77-2.22-4.05a32.6,32.6,0,0,0,.44-5.77c0-4.56-1.36-6.24-3.79-9.12-0.69-.79-0.7-2.26-1.41-3Z" transform="translate(-27.43 -7.2)"/><path class="cls-5" d="M267.47,133s3.75-5.41,19.18-10.65c13.16-4.46,14.66-19.37,14.66-19.37a17,17,0,0,1-1.64,13.94c-2.24,3.87-6.09,5.83-6.9,6.36,4.74,1.6,9,.62,11.34.62a15.67,15.67,0,0,1,8.85,2.44s-4.11.91-9.4,1.93a35.87,35.87,0,0,1-13.42.26,35.38,35.38,0,0,0-11.58.26A31,31,0,0,0,267.47,133" transform="translate(-27.43 -7.2)"/><path class="cls-5" d="M272.23,133.89c3.65-.86,12.49-2.06,17-0.55s5.42,2.7,8.87,3.58a36.31,36.31,0,0,0,8.37.71s-3.71,2.34-6.52,2.78a20.71,20.71,0,0,1-13.88-2.51,39,39,0,0,0-13.87-4" transform="translate(-27.43 -7.2)"/><path class="cls-5" d="M270.42,139.27s9.55,2.67,11.37,7.46c3.7,9.73,8.46,10.67,8.46,10.67s-7.84.62-9.71-6.33a17.26,17.26,0,0,0-4.19-7.31,22.89,22.89,0,0,1,2.88,8.83c0.71,11,6.63,13.88,6.63,13.88s-2.56.16-6.39-3.86c-3-3.13-3.61-4.67-5.52-17-0.69-4.56-3.54-6.3-3.54-6.3" transform="translate(-27.43 -7.2)"/><path class="cls-4" d="M365.58,127.76c-11.15,4.72-26.66,4-26.66,4s24.76,3,34.65-2.35c7.59-4.09,16.69-12.66,19.9-19.68s0.62-8.5.62-8.5-8.49,18.11-28.5,26.56" transform="translate(-27.43 -7.2)"/><path class="cls-5" d="M367.79,191.55a35.55,35.55,0,0,1-7.23-4.27,73.55,73.55,0,0,1-9.5-8.53c-2.34-2.69-4.47-6.87-9.47-17.71-7.93-17.27-16.86-21.23-19.77-21.23,15.66,1.08,35,4.2,46,27.65,2.63,5.58,9.5,11.47,13,15.32,0.77,0.76.64,2.75,1.5,3.66-4.15-.69-12.11-4.57-21.34-12.85-3.64-3.29-9.69-17.29-17.45-19.12a55.78,55.78,0,0,1,12,19.86c2.76,7.62,12.28,17.21,12.28,17.21" transform="translate(-27.43 -7.2)"/><path class="cls-5" d="M383.72,211.7s1.58-1.53.26-6c-0.57-1.94-2.76-3.32-4.58-4.47-2-1.27-6.71-3.16-13.27-4.1-5.55-.8-16.7,2-24.23,2.16s-16.38-4.5-16.38-4.5,13.72,9.25,20.8,8.59,18.49-1,23.15.56c9.5,3.21,14.25,7.76,14.25,7.76" transform="translate(-27.43 -7.2)"/><path class="cls-5" d="M296.44,129.87c3.37,0.32,5.32.1,10.71,1.57a13.43,13.43,0,0,0,5.68-.06s-2.19,1.85-7.34,2.88-6.69.85-10.37-1.06c-5.18-2.67-8-2.12-8-2.12a28.05,28.05,0,0,1,9.37-1.21" transform="translate(-27.43 -7.2)"/><path class="cls-5" d="M288,142.87c2.64,2.15,4.36,4,8,8.26a13.52,13.52,0,0,0,4.75,3.14s-10.25,2.2-17.91-10a38.82,38.82,0,0,0-4.58-6.35s6.31,2.15,9.72,5" transform="translate(-27.43 -7.2)"/><path class="cls-5" d="M322.26,128.85a82.73,82.73,0,0,1-16.87,12,29.54,29.54,0,0,1-14.83,2.66s3.83,2.84,7.22,2.94c1.84,0.06,7.3,0,11.63-2.65,8.34-5,11.55-9.14,15.92-11.46,5.29-2.84,7.81-3.35,14.61-5.63a174.65,174.65,0,0,1,25.53-6.21s-11.85.31-16.79,0.77c-4.25.4-12.18,1.47-15.45,1.95,0,0,4.36-2.2,15-4.3,5.55-1.07,10.75-1,15.41-3.1a129.38,129.38,0,0,0,17.82-10.22,51.15,51.15,0,0,0,13.87-14.8c2-3-.43-2.82-0.39-4.26-3.14,3.66-14,14.93-23,19.1a59.49,59.49,0,0,1-15.81,5.39c-5.51,1.21-12,3.24-14.11,4.94,1.32-2.13,4.86-4,7-5,3.26-1.49,6.38-2.21,12.16-6.75,0.72-.57,4.67-6.57,10.4-11.12a74.73,74.73,0,0,0-12.54,5,100.49,100.49,0,0,0-11.85,7.31c-7.15,4.88-18,17.19-24.9,23.38" transform="translate(-27.43 -7.2)"/><path class="cls-5" d="M338.78,135.52A95.57,95.57,0,0,1,357.91,134c11.26,0.12,15.69,1.31,22,.81,16.76-1.31,33-11.27,33-11.27a57.16,57.16,0,0,1-20.42,13.24c1.13,0.55,7.25,2.83,9.34,2.69,1.13-.39.48,1.44,1.24,2.37a47.38,47.38,0,0,1-10.68,1.85,78.48,78.48,0,0,1-15.32-1c-17.32-3.93-26.08-5.05-26.08-5.05a47,47,0,0,1,14.75,4.94,105,105,0,0,1,12.22,7.8c2.29,1.87,2.93,5.25,9.09,7.19,3.91,1.22,6.61,2.52,12.31,2.54,0.75,0,.88,2.22.88,2.22s-21.62-.07-30.93-6.17c-9.61-6.31-13.86-12.35-17.37-14.6-9.47-6.12-13.18-6-13.18-6" transform="translate(-27.43 -7.2)"/><path class="cls-5" d="M364.94,219.22s-8.55,2.58-15.69,1.39-9.12-2.17-13.62-4.73c-10.92-6.23-19.89-16.09-19.89-16.09s3.74,4.91,26,9.42c1.22,0.26,3.74,7.66,18.45,8.4,3.49,0.17,6.15-1.43,6.32.14,0.07,0.69-1.61,1.47-1.61,1.47" transform="translate(-27.43 -7.2)"/><path class="cls-5" d="M334.83,191.06s-14.22-3-19.08-6.69-5.37-3.68-9.16-8.26c-4.88-6-7.05-10.85-7.69-11.53a105.82,105.82,0,0,0,13.24,11.62c8.37,5.93,13.46,1.69,13.46,1.69s0.07,2.64,2.53,6.76a20,20,0,0,0,6.69,6.41" transform="translate(-27.43 -7.2)"/><path class="cls-5" d="M271.39,122.85s4.9-5.67,6.06-9.6,1.74-5.38,2-7.94,0.93-7,.93-7,2.6,6,2.7,9.4c0.12,3.79.37,6.46-1.59,9a34.82,34.82,0,0,1-6.31,6.68c-3.06,2.54-8.62,4-8.62,4a20.74,20.74,0,0,0,4.83-4.52" transform="translate(-27.43 -7.2)"/><path class="cls-6" d="M210,113.07a2.2,2.2,0,0,0-1.07-2.66,2.51,2.51,0,0,0-2.48.11,2.13,2.13,0,0,0,1.27,2,3.2,3.2,0,0,0,2.28.55" transform="translate(-27.43 -7.2)"/><path class="cls-6" d="M255.32,130.3a2.14,2.14,0,0,0-2.37-1.56,2.63,2.63,0,0,0-2,1.56,2.1,2.1,0,0,0,2.2.91,3,3,0,0,0,2.13-.91" transform="translate(-27.43 -7.2)"/><path class="cls-1" d="M267.53,219.24c0.18-.29.38-0.59,0.57-0.92a1.94,1.94,0,0,0-.57.92" transform="translate(-27.43 -7.2)"/><path class="cls-1" d="M346.38,203.39h0" transform="translate(-27.43 -7.2)"/><path class="cls-4" d="M308.34,257.86s0.78-.1,2.4-2.39a30.21,30.21,0,0,0,4-7,58.19,58.19,0,0,0,4.05-25.62,73.53,73.53,0,0,0-4.31-20.39,45.39,45.39,0,0,1,10.13,19c0.88,3.51,4.26,18.61-3.6,27.95a36.38,36.38,0,0,1-9.78,8.47,5.89,5.89,0,0,1-2.12.9,0.83,0.83,0,0,1-.73-0.9" transform="translate(-27.43 -7.2)"/><path class="cls-4" d="M109.54,207.61c-2.56-.5-2.52-1.39-2.52-1.39-0.29-.14.26-0.5,2.52-0.65s8.26-.64,13.34-3.51a18.59,18.59,0,0,0,7.48-7.37c1.13-1.69,5.4-4.95,9.54-6.32s11.75-.3,11.75-0.3a29,29,0,0,0-12.21,7.67c-5.89,6.08-6.82,8.4-11,9.75s-8.65,2.93-15,2.44c-1.68-.13-3-0.12-3.94-0.3" transform="translate(-27.43 -7.2)"/></svg>