<!-- Generator: Adobe Illustrator 19.2.1, SVG Export Plug-In  -->
<svg version="1.1"
	 xmlns="http://www.w3.org/2000/svg" xmlns:xlink="http://www.w3.org/1999/xlink" xmlns:a="http://ns.adobe.com/AdobeSVGViewerExtensions/3.0/"
	 x="0px" y="0px" width="43px" height="43px" viewBox="0 0 43 43" style="enable-background:new 0 0 43 43;" xml:space="preserve">
<style type="text/css">
	.st0{fill:#BB9944;}
</style>
<defs>
</defs>
<path class="st0" d="M21.5,0C9.626,0,0,9.626,0,21.5C0,33.374,9.626,43,21.5,43S43,33.374,43,21.5C43,9.626,33.374,0,21.5,0z
	 M27.083,14.319l-2.024,0.001c-1.587,0-1.894,0.754-1.894,1.861v2.44h3.785l-0.493,3.822h-3.292v9.807h-3.947v-9.807h-3.3v-3.822
	h3.3v-2.819c0-3.271,1.998-5.052,4.916-5.052c1.398,0,2.599,0.104,2.949,0.151V14.319z"/>
</svg>