<!-- Generator: Adobe Illustrator 19.2.1, SVG Export Plug-In  -->
<svg version="1.1"
	 xmlns="http://www.w3.org/2000/svg" xmlns:xlink="http://www.w3.org/1999/xlink" xmlns:a="http://ns.adobe.com/AdobeSVGViewerExtensions/3.0/"
	 x="0px" y="0px" width="32px" height="32px" viewBox="0 0 32 32" style="enable-background:new 0 0 32 32;" xml:space="preserve">
<style type="text/css">
	.st0{fill:#BB9944;}
</style>
<defs>
</defs>
<g>
	<ellipse class="st0" cx="16.019" cy="16.019" rx="3.077" ry="3.07"/>
	<path class="st0" d="M19.562,12.874h2.163c0.247,0,0.448-0.2,0.448-0.446V10.27c0-0.247-0.2-0.446-0.448-0.446h-2.163
		c-0.247,0-0.448,0.2-0.448,0.446v2.158C19.114,12.675,19.315,12.874,19.562,12.874z"/>
	<path class="st0" d="M16,0C7.163,0,0,7.163,0,16c0,8.837,7.163,16,16,16s16-7.163,16-16C32,7.163,24.837,0,16,0z M24,22.102
		C24,23.15,23.149,24,22.098,24H9.902C8.852,24,8,23.15,8,22.102V9.898C8,8.85,8.852,8,9.902,8h12.196C23.149,8,24,8.85,24,9.898
		V22.102z"/>
	<path class="st0" d="M20.886,16.019c0,2.677-2.183,4.856-4.867,4.856c-2.684,0-4.867-2.178-4.867-4.856
		c0-0.444,0.06-0.875,0.173-1.284H9.828v6.958c0,0.247,0.2,0.446,0.448,0.446h11.487c0.247,0,0.448-0.2,0.448-0.446v-6.958h-1.497
		C20.825,15.144,20.886,15.574,20.886,16.019z"/>
</g>
</svg>