<?xml version="1.0" encoding="utf-8"?>
<!-- Generator: Adobe Illustrator 16.0.0, SVG Export Plug-In . SVG Version: 6.00 Build 0)  -->
<!DOCTYPE svg PUBLIC "-//W3C//DTD SVG 1.1//EN" "http://www.w3.org/Graphics/SVG/1.1/DTD/svg11.dtd">
<svg version="1.1" id="Layer_1" xmlns="http://www.w3.org/2000/svg" xmlns:xlink="http://www.w3.org/1999/xlink" x="0px" y="0px"
	 width="92.91px" height="54px" viewBox="0 0 92.91 54" enable-background="new 0 0 92.91 54" xml:space="preserve">
<g>
	<g>
		<g>
			<path fill="#FFFFFF" d="M91.023,47.261c0,0.723-0.566,1.29-1.305,1.29c-0.729,0-1.312-0.567-1.312-1.29
				c0-0.706,0.584-1.273,1.312-1.273C90.457,45.987,91.023,46.555,91.023,47.261z M88.732,47.261c0,0.567,0.42,1.018,0.994,1.018
				c0.561,0,0.971-0.45,0.971-1.01c0-0.566-0.41-1.024-0.979-1.024C89.152,46.244,88.732,46.702,88.732,47.261z M89.518,47.929
				h-0.295v-1.273c0.115-0.023,0.279-0.039,0.488-0.039c0.242,0,0.35,0.039,0.443,0.094c0.07,0.054,0.125,0.155,0.125,0.279
				c0,0.14-0.109,0.249-0.266,0.295V47.3c0.125,0.047,0.195,0.14,0.234,0.311c0.039,0.194,0.062,0.272,0.092,0.318h-0.318
				c-0.037-0.046-0.061-0.163-0.1-0.311c-0.023-0.14-0.102-0.202-0.264-0.202h-0.141V47.929z M89.525,47.207h0.139
				c0.164,0,0.297-0.055,0.297-0.187c0-0.116-0.086-0.194-0.273-0.194c-0.076,0-0.131,0.008-0.162,0.016V47.207z"/>
		</g>
	</g>
	<g>
		<g>
			<g>
				<g>
					<g>
						<path fill="#FFFFFF" d="M3.393,30.438c0-4.758,3.552-7.102,7.104-7.102c3.552,0,7.103,2.344,7.103,7.102v9.073h-4.377v-9.01
							c0-1.901-1.3-2.725-2.726-2.725c-1.397,0-2.729,0.823-2.729,2.725v9.01H3.393V30.438z"/>
						<path fill="#FFFFFF" d="M35.264,33.483H24.513c0.792,1.552,2.663,2.314,4.757,2.314c1.648,0,3.455-0.475,4.979-1.362
							l0.603,4.058c-1.807,0.889-3.52,1.333-6.056,1.333c-5.105,0-9.294-2.917-9.294-8.182c0-4.82,3.078-8.309,7.898-8.309
							c4.629,0,7.864,3.203,7.864,7.77V33.483z M30.411,29.837c0-1.522-1.142-2.475-2.982-2.475c-1.49,0-2.631,0.825-3.106,2.475
							H30.411z"/>
						<path fill="#FFFFFF" d="M36.849,31.613c0-4.567,3.679-8.277,8.246-8.277c4.566,0,8.246,3.71,8.246,8.277
							c0,4.564-3.68,8.213-8.246,8.213C40.527,39.826,36.849,36.178,36.849,31.613 M49.026,31.613c0-2.158-1.775-3.933-3.932-3.933
							c-2.155,0-3.933,1.774-3.933,3.933c0,2.155,1.777,3.933,3.933,3.933C47.251,35.546,49.026,33.769,49.026,31.613"/>
					</g>
					<g>
						<polygon fill="#6CC04A" points="52.547,23.651 57.525,23.651 60.889,30.788 64.22,23.651 69.197,23.651 60.889,39.826 						
							"/>
						<path fill="#6CC04A" d="M70.401,25.68c0-1.298,1.078-2.377,2.409-2.344c1.334-0.033,2.411,1.046,2.411,2.344
							c0,1.303-1.077,2.381-2.411,2.35C71.479,28.061,70.401,26.982,70.401,25.68 M70.623,29.202H75v10.309h-4.377V29.202z"/>
						<path fill="#6CC04A" d="M76.902,35.008c0-3.331,3.297-5.234,7.293-5.234c0.762,0,1.586,0.063,2.412,0.224v-0.7
							c0-1.3-1.396-1.901-3.14-1.901c-1.493,0-3.269,0.442-4.567,1.268l-0.856-4.028c1.998-0.855,4.058-1.299,5.932-1.299
							c3.932,0,7.007,1.935,7.007,5.961v10.214h-4.375v-1.904c-0.636,1.014-2.443,2.22-4.854,2.22
							C78.837,39.826,76.902,37.765,76.902,35.008 M84.608,32.881c-1.966,0-3.329,0.666-3.329,1.965
							c0,0.856,0.665,1.207,1.521,1.207c1.586,0,3.551-1.491,3.807-3.013C86.036,32.943,85.147,32.881,84.608,32.881"/>
					</g>
				</g>
				<path fill="#FFFFFF" d="M44.916,52.312v0.615h-0.504v-6.19h0.504v2.437c0.439-0.463,0.966-0.703,1.624-0.703
					c1.318,0,2.218,1.032,2.218,2.284c0,1.229-0.899,2.259-2.218,2.259C45.882,53.013,45.355,52.772,44.916,52.312 M48.232,50.754
					c0-1.01-0.704-1.8-1.692-1.8c-0.767,0-1.339,0.394-1.624,0.899v1.8c0.285,0.484,0.857,0.879,1.624,0.879
					C47.528,52.532,48.232,51.741,48.232,50.754 M50.974,52.443l-1.864-3.886h0.549l1.558,3.403l1.603-3.403h0.549l-2.875,5.972
					h-0.526L50.974,52.443z M55.584,47.065c0-0.57,0.463-1.009,0.989-1.009c0.57,0,1.03,0.438,1.03,1.009s-0.46,1.032-1.03,1.032
					C56.047,48.098,55.584,47.636,55.584,47.065 M55.673,48.558h1.843v4.369h-1.843V48.558z M58.68,49.15
					c0-1.822,1.164-3.072,3.007-3.072c1.867,0,3.031,1.25,3.031,3.072v3.754h-1.823v-3.731c0-0.726-0.417-1.274-1.208-1.274
					c-0.767,0-1.183,0.549-1.183,1.274v3.731H58.68V49.15z M64.718,46.188h2.085l1.448,3.03l1.427-3.03h2.109l-3.536,6.85
					L64.718,46.188z M72.072,47.065c0-0.57,0.436-1.009,0.987-1.009c0.57,0,1.03,0.438,1.03,1.009s-0.46,1.032-1.03,1.032
					C72.508,48.098,72.072,47.636,72.072,47.065 M72.158,48.558h1.844v4.369h-1.844V48.558z M74.354,46.188h2.108l1.427,3.03
					l1.428-3.03h2.105l-3.533,6.85L74.354,46.188z M81.16,49.545c0-1.909,1.559-3.467,3.49-3.467c1.909,0,3.49,1.558,3.49,3.467
					c0,1.933-1.581,3.513-3.49,3.513C82.719,53.058,81.16,51.478,81.16,49.545 M86.296,49.545c0-0.9-0.724-1.646-1.646-1.646
					s-1.647,0.746-1.647,1.646c0,0.945,0.726,1.67,1.647,1.67S86.296,50.49,86.296,49.545"/>
			</g>
		</g>
		<g>
			<g>
				<path fill="#FFFFFF" d="M17.963,5.819V5.802c0-0.946,0.812-1.481,1.99-1.481c0.635,0,1.07,0.08,1.508,0.196V4.32
					c0-0.92-0.562-1.393-1.498-1.393c-0.555,0-1.01,0.151-1.43,0.365l-0.16-0.384c0.5-0.231,0.99-0.393,1.615-0.393
					c0.617,0,1.107,0.17,1.438,0.5c0.305,0.304,0.465,0.723,0.465,1.285v2.839h-0.43V6.382c-0.312,0.438-0.873,0.866-1.74,0.866
					C18.873,7.248,17.963,6.766,17.963,5.819z M21.471,5.436V4.918c-0.385-0.099-0.893-0.205-1.545-0.205
					c-0.963,0-1.5,0.428-1.5,1.062v0.019c0,0.66,0.625,1.044,1.322,1.044C20.676,6.837,21.471,6.266,21.471,5.436z"/>
				<path fill="#FFFFFF" d="M25.832,4.882V4.864c0-1.276,1.018-2.383,2.32-2.383c0.857,0,1.393,0.393,1.82,0.839L29.66,3.642
					c-0.393-0.401-0.838-0.75-1.516-0.75c-1.037,0-1.84,0.866-1.84,1.955v0.018c0,1.098,0.83,1.973,1.875,1.973
					c0.643,0,1.143-0.33,1.525-0.759l0.305,0.268c-0.465,0.527-1.018,0.902-1.857,0.902C26.84,7.248,25.832,6.159,25.832,4.882z"/>
				<path fill="#FFFFFF" d="M30.799,4.882V4.864c0-1.276,0.99-2.383,2.348-2.383c1.348,0,2.33,1.089,2.33,2.365v0.018
					c0,1.276-0.992,2.384-2.348,2.384C31.781,7.248,30.799,6.159,30.799,4.882z M35.002,4.882V4.864c0-1.098-0.82-1.973-1.873-1.973
					c-1.08,0-1.857,0.884-1.857,1.955v0.018c0,1.098,0.822,1.973,1.875,1.973C34.227,6.837,35.002,5.953,35.002,4.882z"/>
				<path fill="#FFFFFF" d="M36.826,2.588h0.438V3.4c0.295-0.473,0.705-0.919,1.518-0.919c0.795,0,1.285,0.455,1.535,0.981
					c0.295-0.509,0.785-0.981,1.643-0.981c1.08,0,1.75,0.759,1.75,1.901v2.758h-0.438V4.436c0-0.981-0.508-1.553-1.348-1.553
					c-0.768,0-1.438,0.589-1.438,1.606v2.651h-0.438V4.409c0-0.946-0.518-1.526-1.33-1.526s-1.455,0.714-1.455,1.634v2.624h-0.438
					V2.588z"/>
				<path fill="#FFFFFF" d="M45.32,2.588h0.438v1.018c0.393-0.598,0.973-1.124,1.875-1.124c1.098,0,2.213,0.884,2.213,2.365v0.018
					c0,1.481-1.115,2.384-2.213,2.384c-0.91,0-1.5-0.518-1.875-1.089v2.409H45.32V2.588z M49.373,4.882V4.864
					c0-1.196-0.83-1.964-1.785-1.964c-0.945,0-1.855,0.795-1.855,1.955v0.018c0,1.17,0.91,1.955,1.855,1.955
					C48.578,6.828,49.373,6.105,49.373,4.882z"/>
				<path fill="#FFFFFF" d="M50.84,5.819V5.802c0-0.946,0.812-1.481,1.992-1.481c0.633,0,1.07,0.08,1.508,0.196V4.32
					c0-0.92-0.562-1.393-1.5-1.393c-0.553,0-1.008,0.151-1.428,0.365l-0.16-0.384c0.5-0.231,0.99-0.393,1.615-0.393
					c0.615,0,1.107,0.17,1.438,0.5c0.303,0.304,0.463,0.723,0.463,1.285v2.839H54.34V6.382c-0.312,0.438-0.875,0.866-1.74,0.866
					C51.752,7.248,50.84,6.766,50.84,5.819z M54.348,5.436V4.918c-0.383-0.099-0.893-0.205-1.543-0.205
					c-0.965,0-1.5,0.428-1.5,1.062v0.019c0,0.66,0.625,1.044,1.32,1.044C53.555,6.837,54.348,6.266,54.348,5.436z"/>
				<path fill="#FFFFFF" d="M56.342,2.588h0.438v0.849c0.305-0.536,0.812-0.955,1.643-0.955c1.152,0,1.822,0.785,1.822,1.874v2.785
					h-0.438V4.436c0-0.937-0.527-1.553-1.447-1.553c-0.893,0-1.58,0.679-1.58,1.625v2.633h-0.438V2.588z"/>
				<path fill="#FFFFFF" d="M61.336,8.399l0.152-0.384c0.24,0.116,0.438,0.169,0.775,0.169c0.475,0,0.787-0.276,1.125-1.07
					l-2.188-4.526h0.51l1.893,4.07l1.643-4.07h0.482l-1.973,4.714c-0.402,0.955-0.867,1.294-1.518,1.294
					C61.889,8.596,61.639,8.533,61.336,8.399z"/>
				<path fill="#FFFFFF" d="M69.303,4.882V4.864c0-1.276,0.992-2.383,2.348-2.383c1.348,0,2.33,1.089,2.33,2.365v0.018
					c0,1.276-0.99,2.384-2.348,2.384C70.285,7.248,69.303,6.159,69.303,4.882z M73.508,4.882V4.864c0-1.098-0.822-1.973-1.875-1.973
					c-1.08,0-1.855,0.884-1.855,1.955v0.018c0,1.098,0.82,1.973,1.873,1.973C72.73,6.837,73.508,5.953,73.508,4.882z"/>
				<path fill="#FFFFFF" d="M75.6,2.99h-0.66V2.588h0.66V2.142c0-0.518,0.143-0.928,0.402-1.187c0.23-0.232,0.553-0.357,0.955-0.357
					c0.275,0,0.473,0.035,0.678,0.107v0.41c-0.26-0.08-0.447-0.116-0.678-0.116c-0.625,0-0.92,0.375-0.92,1.151v0.438h1.588V2.99
					h-1.588v4.15H75.6V2.99z"/>
			</g>
		</g>
	</g>
</g>
</svg>
